<svg xmlns="http://www.w3.org/2000/svg" xmlns:svg="http://www.w3.org/2000/svg" id="svg7788" width="210mm" height="297mm" version="1.1"><metadata id="metadata4"/><g id="layer1"><rect id="rect7794" width="490" height="43" x="44" y="492.362" fill="#58595b" fill-opacity="1" stroke="none" opacity=".763" ry="10"/><rect id="rect8596" width="115" height="43" x="358" y="492.362" fill="#fff" fill-opacity="1" stroke="none" opacity=".25"/><flowRoot id="flowRoot7796" fill="#fff" fill-opacity="1" stroke="none" font-family="Cantarell" font-size="14" font-stretch="normal" font-style="normal" font-variant="normal" font-weight="bold" letter-spacing="0" transform="translate(207,-3)" word-spacing="0" xml:space="preserve" style="line-height:125%;-inkscape-font-specification:Cantarell Bold"><flowRegion id="flowRegion7798"><rect id="rect7800" width="303" height="96" x="165" y="507.362" fill="#fff" font-family="Cantarell" font-size="14" font-stretch="normal" font-style="normal" font-variant="normal" font-weight="bold" style="-inkscape-font-specification:Cantarell Bold"/></flowRegion><flowPara id="flowPara7802">Show details</flowPara></flowRoot><path id="path7806" fill="none" stroke="#fff" stroke-dasharray="none" stroke-linecap="round" stroke-linejoin="miter" stroke-miterlimit="4" stroke-opacity="1" stroke-width="3.543" d="m 488.93312,507.00087 14.84924,14.84925"/><path id="path7808" fill="none" stroke="#fff" stroke-dasharray="none" stroke-linecap="round" stroke-linejoin="miter" stroke-miterlimit="4" stroke-opacity="1" stroke-width="3.543" d="m 488.93312,521.85012 14.84924,-14.84925"/><rect id="rect8594" width="43" height="43" x="475" y="492.362" fill="#fff" fill-opacity="1" stroke="none" opacity=".25"/><flowRoot id="flowRoot8598" fill="#fff" fill-opacity="1" stroke="none" font-family="Cantarell" font-size="14" font-stretch="normal" font-style="normal" font-variant="normal" font-weight="bold" letter-spacing="0" transform="translate(-65,-3)" word-spacing="0" xml:space="preserve" style="line-height:125%;-inkscape-font-specification:Cantarell Bold"><flowRegion id="flowRegion8600"><rect id="rect8602" width="303" height="96" x="165" y="507.362" fill="#fff" font-family="Cantarell" font-size="14" font-stretch="normal" font-style="normal" font-variant="normal" font-weight="bold" style="-inkscape-font-specification:Cantarell Bold"/></flowRegion><flowPara id="flowPara8604">Battery low...</flowPara></flowRoot><path id="path8606" fill="none" stroke="#fff" stroke-linecap="butt" stroke-linejoin="miter" stroke-opacity="1" stroke-width="1" d="m 73,512.86218 c 0.401108,0.47632 -0.44417,0.77568 -0.791666,0.66667 -0.941693,-0.29542 -0.99062,-1.53824 -0.541668,-2.25 0.803069,-1.27317 2.605319,-1.27591 3.708333,-0.41667 1.618717,1.26097 1.571074,3.68739 0.291669,5.16667 -1.705244,1.97164 -4.774846,1.87054 -6.625,0.16667 -2.32823,-2.14414 -2.17224,-5.86489 -0.04167,-8.08334 2.580405,-2.68683 6.956391,-2.47524 9.541666,0.0833 3.046659,3.01519 2.779064,8.04881 -0.208327,11 -3.449062,3.40728 -9.141824,3.08343 -12.458334,-0.33332 -3.76843,-3.88234 -3.388174,-10.23527 0.458326,-13.91667 4.315192,-4.12997 11.329028,-3.6932 15.375001,0.58332 4.491797,4.74775 3.998424,12.42302 -0.708325,16.83334" transform="translate(3,0.5)"/></g></svg>