<svg xmlns="http://www.w3.org/2000/svg" xmlns:svg="http://www.w3.org/2000/svg" id="svg18951" width="256" height="256" version="1.1"><metadata id="metadata18956"/><g id="layer1" transform="translate(0,-796.36218)"><path id="path18959" fill="#313131" fill-opacity="1" fill-rule="nonzero" stroke="none" stroke-width="10" d="m 253.57143,127.07143 a 126.78571,126.78571 0 0 1 -4.32012,32.81455 l -122.4656,-32.81455 z" color="#000" display="inline" enable-background="accumulate" overflow="visible" transform="matrix(1.0095775,0,0,1.0095775,0,796.07372)" visibility="visible" style="marker:none"/><path id="path19469" fill="#3d3d3d" fill-opacity="1" fill-rule="nonzero" stroke="none" stroke-width="10" d="m 253.57143,127.07143 a 126.78571,126.78571 0 0 1 -4.32012,32.81455 l -122.4656,-32.81455 z" color="#000" display="inline" enable-background="accumulate" overflow="visible" transform="matrix(0.97517698,0.26129788,-0.26129788,0.97517698,37.564989,767.3162)" visibility="visible" style="marker:none"/><path id="path19471" fill="#484848" fill-opacity="1" fill-rule="nonzero" stroke="none" stroke-width="10" d="m 253.57143,127.07143 a 126.78571,126.78571 0 0 1 -4.32012,32.81455 l -122.4656,-32.81455 z" color="#000" display="inline" enable-background="accumulate" overflow="visible" transform="matrix(0.87431976,0.50478875,-0.50478875,0.87431976,81.292976,749.26111)" visibility="visible" style="marker:none"/><path id="path19473" fill="#535353" fill-opacity="1" fill-rule="nonzero" stroke="none" stroke-width="10" d="m 253.57143,127.07143 a 126.78571,126.78571 0 0 1 -4.32012,32.81455 l -122.4656,-32.81455 z" color="#000" display="inline" enable-background="accumulate" overflow="visible" transform="matrix(0.71387909,0.7138791,-0.7138791,0.71387909,128.20397,743.13887)" visibility="visible" style="marker:none"/><path id="path19475" fill="#5f5f5f" fill-opacity="1" fill-rule="nonzero" stroke="none" stroke-width="10" d="m 253.57143,127.07143 a 126.78571,126.78571 0 0 1 -4.32012,32.81455 l -122.4656,-32.81455 z" color="#000" display="inline" enable-background="accumulate" overflow="visible" transform="matrix(0.50478874,0.87431976,-0.87431976,0.50478874,175.10106,749.36669)" visibility="visible" style="marker:none"/><path id="path19477" fill="#6d6d6d" fill-opacity="1" fill-rule="nonzero" stroke="none" stroke-width="10" d="m 253.57143,127.07143 a 126.78571,126.78571 0 0 1 -4.32012,32.81455 l -122.4656,-32.81455 z" color="#000" display="inline" enable-background="accumulate" overflow="visible" transform="matrix(0.26129788,0.97517698,-0.97517698,0.26129788,218.78829,767.52017)" visibility="visible" style="marker:none"/><path id="path19479" fill="#7a7a7a" fill-opacity="1" fill-rule="nonzero" stroke="none" stroke-width="10" d="m 253.57143,127.07143 a 126.78571,126.78571 0 0 1 -4.32012,32.81455 l -122.4656,-32.81455 z" color="#000" display="inline" enable-background="accumulate" overflow="visible" transform="matrix(0,1.0095775,-1.0095775,0,256.28845,796.36217)" visibility="visible" style="marker:none"/><path id="path19481" fill="#878787" fill-opacity="1" fill-rule="nonzero" stroke="none" stroke-width="10" d="m 253.57143,127.07143 a 126.78571,126.78571 0 0 1 -4.32012,32.81455 l -122.4656,-32.81455 z" color="#000" display="inline" enable-background="accumulate" overflow="visible" transform="matrix(-0.26129788,0.97517698,-0.97517698,-0.26129788,285.04597,833.92716)" visibility="visible" style="marker:none"/><path id="path19483" fill="#949494" fill-opacity="1" fill-rule="nonzero" stroke="none" stroke-width="10" d="m 253.57143,127.07143 a 126.78571,126.78571 0 0 1 -4.32012,32.81455 l -122.4656,-32.81455 z" color="#000" display="inline" enable-background="accumulate" overflow="visible" transform="matrix(-0.50478875,0.87431976,-0.87431976,-0.50478875,303.10106,877.65515)" visibility="visible" style="marker:none"/><path id="path19485" fill="#a0a0a0" fill-opacity="1" fill-rule="nonzero" stroke="none" stroke-width="10" d="m 253.57143,127.07143 a 126.78571,126.78571 0 0 1 -4.32012,32.81455 l -122.4656,-32.81455 z" color="#000" display="inline" enable-background="accumulate" overflow="visible" transform="matrix(-0.7138791,0.71387909,-0.71387909,-0.7138791,309.2233,924.56614)" visibility="visible" style="marker:none"/><path id="path19487" fill="#acacac" fill-opacity="1" fill-rule="nonzero" stroke="none" stroke-width="10" d="m 253.57143,127.07143 a 126.78571,126.78571 0 0 1 -4.32012,32.81455 l -122.4656,-32.81455 z" color="#000" display="inline" enable-background="accumulate" overflow="visible" transform="matrix(-0.87431976,0.50478874,-0.50478874,-0.87431976,302.99548,971.46323)" visibility="visible" style="marker:none"/><path id="path19489" fill="#b9b9b9" fill-opacity="1" fill-rule="nonzero" stroke="none" stroke-width="10" d="m 253.57143,127.07143 a 126.78571,126.78571 0 0 1 -4.32012,32.81455 l -122.4656,-32.81455 z" color="#000" display="inline" enable-background="accumulate" overflow="visible" transform="matrix(-0.97517698,0.26129788,-0.26129788,-0.97517698,284.842,1015.1505)" visibility="visible" style="marker:none"/><path id="path19491" fill="#c4c4c4" fill-opacity="1" fill-rule="nonzero" stroke="none" stroke-width="10" d="m 253.57143,127.07143 a 126.78571,126.78571 0 0 1 -4.32012,32.81455 l -122.4656,-32.81455 z" color="#000" display="inline" enable-background="accumulate" overflow="visible" transform="matrix(-1.0095775,0,0,-1.0095775,255.99999,1052.6507)" visibility="visible" style="marker:none"/><path id="path19493" fill="#d1d1d1" fill-opacity="1" fill-rule="nonzero" stroke="none" stroke-width="10" d="m 253.57143,127.07143 a 126.78571,126.78571 0 0 1 -4.32012,32.81455 l -122.4656,-32.81455 z" color="#000" display="inline" enable-background="accumulate" overflow="visible" transform="matrix(-0.97517698,-0.26129788,0.26129788,-0.97517698,218.43498,1081.4082)" visibility="visible" style="marker:none"/><path id="path19495" fill="#dcdcdc" fill-opacity="1" fill-rule="nonzero" stroke="none" stroke-width="10" d="m 253.57143,127.07143 a 126.78571,126.78571 0 0 1 -4.32012,32.81455 l -122.4656,-32.81455 z" color="#000" display="inline" enable-background="accumulate" overflow="visible" transform="matrix(-0.87431976,-0.50478875,0.50478875,-0.87431976,174.70698,1099.4633)" visibility="visible" style="marker:none"/><path id="path19497" fill="#e8e8e8" fill-opacity="1" fill-rule="nonzero" stroke="none" stroke-width="10" d="m 253.57143,127.07143 a 126.78571,126.78571 0 0 1 -4.32012,32.81455 l -122.4656,-32.81455 z" color="#000" display="inline" enable-background="accumulate" overflow="visible" transform="matrix(-0.71387909,-0.7138791,0.7138791,-0.71387909,127.79597,1105.5855)" visibility="visible" style="marker:none"/><path id="path19499" fill="#f4f4f4" fill-opacity="1" fill-rule="nonzero" stroke="none" stroke-width="10" d="m 253.57143,127.07143 a 126.78571,126.78571 0 0 1 -4.32012,32.81455 l -122.4656,-32.81455 z" color="#000" display="inline" enable-background="accumulate" overflow="visible" transform="matrix(-0.50478874,-0.87431976,0.87431976,-0.50478874,80.898874,1099.3577)" visibility="visible" style="marker:none"/><path id="path19501" fill="#fff" fill-opacity="1" fill-rule="nonzero" stroke="none" stroke-width="10" d="m 253.57143,127.07143 a 126.78571,126.78571 0 0 1 -4.32012,32.81455 l -122.4656,-32.81455 z" color="#000" display="inline" enable-background="accumulate" overflow="visible" transform="matrix(-0.26129788,-0.97517698,0.97517698,-0.26129788,37.211631,1081.2042)" visibility="visible" style="marker:none"/><path id="path19503" fill="#000" fill-opacity="1" fill-rule="nonzero" stroke="none" stroke-width="10" d="m 253.57143,127.07143 a 126.78571,126.78571 0 0 1 -4.32012,32.81455 l -122.4656,-32.81455 z" color="#000" display="inline" enable-background="accumulate" overflow="visible" transform="matrix(0,-1.0095775,1.0095775,0,-0.28853387,1052.3622)" visibility="visible" style="marker:none"/><path id="path19505" fill="#000" fill-opacity="1" fill-rule="nonzero" stroke="none" stroke-width="10" d="m 253.57143,127.07143 a 126.78571,126.78571 0 0 1 -4.32012,32.81455 l -122.4656,-32.81455 z" color="#000" display="inline" enable-background="accumulate" overflow="visible" transform="matrix(0.26129788,-0.97517698,0.97517698,0.26129788,-29.046053,1014.7972)" visibility="visible" style="marker:none"/><path id="path19507" fill="#0f0f0f" fill-opacity="1" fill-rule="nonzero" stroke="none" stroke-width="10" d="m 253.57143,127.07143 a 126.78571,126.78571 0 0 1 -4.32012,32.81455 l -122.4656,-32.81455 z" color="#000" display="inline" enable-background="accumulate" overflow="visible" transform="matrix(0.50478875,-0.87431976,0.87431976,0.50478875,-47.101146,971.06919)" visibility="visible" style="marker:none"/><path id="path19509" fill="#0f0f0f" fill-opacity="1" fill-rule="nonzero" stroke="none" stroke-width="10" d="m 253.57143,127.07143 a 126.78571,126.78571 0 0 1 -4.32012,32.81455 l -122.4656,-32.81455 z" color="#000" display="inline" enable-background="accumulate" overflow="visible" transform="matrix(0.7138791,-0.71387909,0.71387909,0.7138791,-53.223385,924.15817)" visibility="visible" style="marker:none"/><path id="path19511" fill="#191919" fill-opacity="1" fill-rule="nonzero" stroke="none" stroke-width="10" d="m 253.57143,127.07143 a 126.78571,126.78571 0 0 1 -4.32012,32.81455 l -122.4656,-32.81455 z" color="#000" display="inline" enable-background="accumulate" overflow="visible" transform="matrix(0.87431976,-0.50478874,0.50478874,0.87431976,-46.995548,877.26106)" visibility="visible" style="marker:none"/><path id="path19513" fill="#242424" fill-opacity="1" fill-rule="nonzero" stroke="none" stroke-width="10" d="m 253.57143,127.07143 a 126.78571,126.78571 0 0 1 -4.32012,32.81455 l -122.4656,-32.81455 z" color="#000" display="inline" enable-background="accumulate" overflow="visible" transform="matrix(0.97517698,-0.26129788,0.26129788,0.97517698,-28.842054,833.57381)" visibility="visible" style="marker:none"/></g></svg>