<svg xmlns="http://www.w3.org/2000/svg" xmlns:svg="http://www.w3.org/2000/svg" xmlns:xlink="http://www.w3.org/1999/xlink" id="svg26192" width="670" height="1000" version="1.1"><defs id="defs26194"><clipPath id="clipPath6279-2-3-3" clipPathUnits="userSpaceOnUse"><rect id="rect6281-5-3-7" width="3.825" height="6.375" x="26.85" y="220.75" fill="#bebebe" fill-opacity="1" fill-rule="nonzero" stroke="none" stroke-width="2" color="#bebebe" display="inline" overflow="visible" visibility="visible" style="marker:none"/></clipPath><clipPath id="clipPath3697" clipPathUnits="userSpaceOnUse"><path id="path3699" fill="#bebebe" fill-opacity="1" fill-rule="nonzero" stroke="none" stroke-width="2" d="m 26.965789,221.32959 0,5.21591 0.579546,0 0,-1.15909 2.318182,0 0,-4.05682 -2.897728,0 z" color="#bebebe" display="inline" overflow="visible" visibility="visible" style="marker:none"/></clipPath><clipPath id="clipPath3668" clipPathUnits="userSpaceOnUse"><rect id="rect3670" width="1.876" height="3.373" x="26.999" y="221.502" fill="#bebebe" fill-opacity="1" stroke="none" stroke-width="2" color="#bebebe" display="inline" overflow="visible" visibility="visible" style="marker:none"/></clipPath><mask id="mask12112-0-6-5-3-8-3-4-3-4-4-1" maskUnits="userSpaceOnUse"><rect id="rect12114-2-9-0-8-2-6-0-7-5-4-13" width="221" height="16" x="16.5" y="434" fill="url(#radialGradient12116-6-2-9-3-0-75-1-5-5-4-76)" fill-opacity="1" stroke="none"/></mask><radialGradient id="radialGradient12116-6-2-9-3-0-75-1-5-5-4-76" cx="128.5" cy="442" r="110.5" fx="128.5" fy="442" gradientTransform="matrix(1,0,0,0.07239819,-1.5,410)" gradientUnits="userSpaceOnUse" xlink:href="#linearGradient12104-5-1-5-6-8-7-3-4-8-9-3"/><linearGradient id="linearGradient12104-5-1-5-6-8-7-3-4-8-9-3"><stop id="stop12106-3-0-0-5-2-8-7-7-2-5-9" offset="0" stop-color="#ccc" stop-opacity="1"/><stop id="stop12108-4-0-4-9-5-04-5-9-0-5-1" offset="1" stop-color="#ccc" stop-opacity="0"/></linearGradient><clipPath id="clipPath6279-3"><rect id="rect6281-9" width="3.825" height="6.375" x="26.85" y="220.75" fill="#bebebe" fill-opacity="1" fill-rule="nonzero" stroke="none" stroke-width="2" color="#bebebe" display="inline" overflow="visible" visibility="visible" style="marker:none"/></clipPath><clipPath id="clipPath6265-334"><rect id="rect6267-61" width="2.898" height="5.216" x="26.966" y="221.33" fill="#bebebe" fill-opacity="1" fill-rule="nonzero" stroke="none" stroke-width="2" color="#bebebe" display="inline" overflow="visible" visibility="visible" style="marker:none"/></clipPath><clipPath id="clipPath6259-5"><rect id="rect6261-61" width="1.876" height="4.873" x="26.999" y="221.502" fill="#bebebe" fill-opacity="1" stroke="none" stroke-width="2" color="#bebebe" display="inline" overflow="visible" visibility="visible" style="marker:none"/></clipPath><clipPath id="clipPath6279-7-9" clipPathUnits="userSpaceOnUse"><rect id="rect6281-1-9" width="3.825" height="6.375" x="26.85" y="220.75" fill="#bebebe" fill-opacity="1" fill-rule="nonzero" stroke="none" stroke-width="2" color="#bebebe" display="inline" overflow="visible" visibility="visible" style="marker:none"/></clipPath><clipPath id="clipPath6265-3-4" clipPathUnits="userSpaceOnUse"><rect id="rect6267-1-9" width="2.898" height="5.216" x="26.966" y="221.33" fill="#bebebe" fill-opacity="1" fill-rule="nonzero" stroke="none" stroke-width="2" color="#bebebe" display="inline" overflow="visible" visibility="visible" style="marker:none"/></clipPath><clipPath id="clipPath6259-8-81" clipPathUnits="userSpaceOnUse"><rect id="rect6261-6-6" width="1.876" height="4.873" x="26.999" y="221.502" fill="#bebebe" fill-opacity="1" stroke="none" stroke-width="2" color="#bebebe" display="inline" overflow="visible" visibility="visible" style="marker:none"/></clipPath><clipPath id="clipPath6279-2-3-3-4" clipPathUnits="userSpaceOnUse"><rect id="rect6281-5-3-7-9" width="3.825" height="6.375" x="26.85" y="220.75" fill="#bebebe" fill-opacity="1" fill-rule="nonzero" stroke="none" stroke-width="2" color="#bebebe" display="inline" overflow="visible" visibility="visible" style="marker:none"/></clipPath><clipPath id="clipPath3697-4" clipPathUnits="userSpaceOnUse"><path id="path3699-0" fill="#bebebe" fill-opacity="1" fill-rule="nonzero" stroke="none" stroke-width="2" d="m 26.965789,221.32959 0,5.21591 0.579546,0 0,-1.15909 2.318182,0 0,-4.05682 -2.897728,0 z" color="#bebebe" display="inline" overflow="visible" visibility="visible" style="marker:none"/></clipPath><clipPath id="clipPath3668-8" clipPathUnits="userSpaceOnUse"><rect id="rect3670-5" width="1.876" height="3.373" x="26.999" y="221.502" fill="#bebebe" fill-opacity="1" stroke="none" stroke-width="2" color="#bebebe" display="inline" overflow="visible" visibility="visible" style="marker:none"/></clipPath><mask id="mask12112-0-6-5-3-8-3-4-3-4-4-1-9" maskUnits="userSpaceOnUse"><rect id="rect12114-2-9-0-8-2-6-0-7-5-4-13-5" width="221" height="16" x="16.5" y="434" fill="url(#radialGradient12116-6-2-9-3-0-75-1-5-5-4-76-2)" fill-opacity="1" stroke="none"/></mask><radialGradient id="radialGradient12116-6-2-9-3-0-75-1-5-5-4-76-2" cx="128.5" cy="442" r="110.5" fx="128.5" fy="442" gradientTransform="matrix(1,0,0,0.07239819,-1.5,410)" gradientUnits="userSpaceOnUse" xlink:href="#linearGradient12104-5-1-5-6-8-7-3-4-8-9-3-4"/><linearGradient id="linearGradient12104-5-1-5-6-8-7-3-4-8-9-3-4"><stop id="stop12106-3-0-0-5-2-8-7-7-2-5-9-1" offset="0" stop-color="#ccc" stop-opacity="1"/><stop id="stop12108-4-0-4-9-5-04-5-9-0-5-1-1" offset="1" stop-color="#ccc" stop-opacity="0"/></linearGradient><clipPath id="clipPath6279-3-1"><rect id="rect6281-9-4" width="3.825" height="6.375" x="26.85" y="220.75" fill="#bebebe" fill-opacity="1" fill-rule="nonzero" stroke="none" stroke-width="2" color="#bebebe" display="inline" overflow="visible" visibility="visible" style="marker:none"/></clipPath><clipPath id="clipPath6265-334-6"><rect id="rect6267-61-2" width="2.898" height="5.216" x="26.966" y="221.33" fill="#bebebe" fill-opacity="1" fill-rule="nonzero" stroke="none" stroke-width="2" color="#bebebe" display="inline" overflow="visible" visibility="visible" style="marker:none"/></clipPath><clipPath id="clipPath6259-5-6"><rect id="rect6261-61-1" width="1.876" height="4.873" x="26.999" y="221.502" fill="#bebebe" fill-opacity="1" stroke="none" stroke-width="2" color="#bebebe" display="inline" overflow="visible" visibility="visible" style="marker:none"/></clipPath></defs><metadata id="metadata26197"/><g id="layer1" transform="translate(0,-52.375)"><path id="rect26363" fill="#888a85" stroke="#000" stroke-dashoffset="0" stroke-linecap="round" stroke-miterlimit="4" stroke-opacity="1" stroke-width="1" d="m 379.5,361.8622 -339,0 0,-59.00002 339,0"/><path id="path26085" fill="none" stroke="#000" stroke-linecap="butt" stroke-linejoin="miter" stroke-opacity="1" stroke-width="1" d="m 379.5,361.8622 -339,0 0,-155.00002" display="inline"/><path id="path26875" fill="#eeeeec" fill-opacity="1" stroke="#000" stroke-dasharray="none" stroke-dashoffset="0" stroke-linecap="round" stroke-miterlimit="4" stroke-opacity="1" stroke-width="1.169" d="m 156,923.48718 a 18.125,18.125 0 1 1 -36.25,0 18.125,18.125 0 1 1 36.25,0 z" transform="matrix(0.85517241,0,0,0.85517241,-47.906896,-457.37858)"/><path id="path26027" fill="#fff" fill-opacity="1" stroke="#000" stroke-miterlimit="4" stroke-opacity="1" stroke-width="1" d="m 344.5,307.86218 -260.68198,0 -13.5,14 -13.5,-14 0.0182,-9 0,-191.0625 c 0,-4.986 4.014,-9 9,-9 l 278.66377,0 c 4.986,0 9,4.014 9,9 l 0,191.0625 c 0,4.986 -4.014,9 -9,9 z" display="inline"/><path id="path27087" fill="#000" fill-opacity="1" stroke="#fff" stroke-dasharray="none" stroke-linecap="round" stroke-linejoin="miter" stroke-miterlimit="4" stroke-opacity=".502" stroke-width="1.632" d="m 21,442 212,0" display="inline" mask="url(#mask12112-0-6-5-3-8-3-4-3-4-4-1-9)" transform="matrix(0.75117371,0,0,0.5,112.79638,26.94233)"/><text font-size="14" style="text-indent:0;text-align:start;line-height:125%;text-transform:none;block-progression:tb;marker:none;-inkscape-font-specification:Cantarell Medium" id="text27089" x="79" y="162.369" fill="#000" fill-opacity="1" fill-rule="nonzero" stroke="none" stroke-width="1" color="#000" direction="ltr" display="inline" enable-background="accumulate" font-family="Cantarell" font-stretch="normal" font-style="normal" font-variant="normal" font-weight="500" letter-spacing="normal" overflow="visible" text-anchor="start" text-decoration="none" visibility="visible" word-spacing="normal" writing-mode="lr-tb" xml:space="preserve"><tspan id="tspan27091" x="79" y="162.369">Chat</tspan></text><text font-size="14" style="text-indent:0;text-align:start;line-height:125%;text-transform:none;block-progression:tb;marker:none;-inkscape-font-specification:Cantarell Medium" id="text27121" x="79" y="282.362" fill="#000" fill-opacity="1" fill-rule="nonzero" stroke="none" stroke-width="1" color="#000" direction="ltr" display="inline" enable-background="accumulate" font-family="Cantarell" font-stretch="normal" font-style="normal" font-variant="normal" font-weight="500" letter-spacing="normal" overflow="visible" text-anchor="start" text-decoration="none" visibility="visible" word-spacing="normal" writing-mode="lr-tb" xml:space="preserve"><tspan id="tspan27123" x="79" y="282.362">Notification Settings</tspan></text><text font-size="14" style="text-indent:0;text-align:start;line-height:125%;text-transform:none;block-progression:tb;marker:none;-inkscape-font-specification:Cantarell Medium" id="text27129" x="79" y="222.355" fill="#000" fill-opacity="1" fill-rule="nonzero" stroke="none" stroke-width="1" color="#000" direction="ltr" display="inline" enable-background="accumulate" font-family="Cantarell" font-stretch="normal" font-style="normal" font-variant="normal" font-weight="500" letter-spacing="normal" overflow="visible" text-anchor="start" text-decoration="none" visibility="visible" word-spacing="normal" writing-mode="lr-tb" xml:space="preserve"><tspan id="tspan27131" x="79" y="222.355">Clear Tray</tspan></text><path id="path27139" fill="none" stroke="#000" stroke-linecap="round" stroke-linejoin="miter" stroke-opacity="1" stroke-width="1" d="m 75.659,187.53223 259,0" display="inline"/><path id="path27141" fill="none" stroke="#000" stroke-linecap="round" stroke-linejoin="miter" stroke-opacity="1" stroke-width="1" d="m 75.659,247.53219 259,0" display="inline"/><rect id="rect27145" width="305" height="28" x="-528" y="739.532" fill="#000" fill-opacity=".449" stroke="none" display="inline"/><rect id="rect27147" width="305" height="28" x="-528" y="799.532" fill="#000" fill-opacity=".449" stroke="none" display="inline"/><rect id="rect27153" width="305" height="28" x="-528" y="859.532" fill="#000" fill-opacity=".449" stroke="none" display="inline"/><g id="g27372" transform="matrix(1,0,0,0.92307693,7.201053,-440.73695)"><rect id="rect27368" width="63" height="25" x="-327.458" y="-660.625" fill="#729fcf" fill-opacity="1" stroke="#000" stroke-dasharray="none" stroke-dashoffset="0" stroke-linecap="round" stroke-miterlimit="4" stroke-opacity="1" stroke-width="1.041" transform="scale(-1,-1)"/><rect id="rect27370" width="31" height="25" x="-327.458" y="-660.625" fill="#000" fill-opacity="1" stroke="#000" stroke-dasharray="none" stroke-dashoffset="0" stroke-linecap="round" stroke-miterlimit="4" stroke-opacity="1" stroke-width="1.041" transform="scale(-1,-1)"/></g><rect id="rect27376" width="305" height="28" x="-528" y="709.532" fill="#000" fill-opacity=".449" stroke="none" display="inline"/><g id="g27378" transform="matrix(1,0,0,0.92307693,7.201053,-470.73695)"><rect id="rect27380" width="63" height="25" x="-327.458" y="-660.625" fill="#729fcf" fill-opacity="1" stroke="#000" stroke-dasharray="none" stroke-dashoffset="0" stroke-linecap="round" stroke-miterlimit="4" stroke-opacity="1" stroke-width="1.041" transform="scale(-1,-1)"/><rect id="rect27382" width="31" height="25" x="-327.458" y="-660.625" fill="#000" fill-opacity="1" stroke="#000" stroke-dasharray="none" stroke-dashoffset="0" stroke-linecap="round" stroke-miterlimit="4" stroke-opacity="1" stroke-width="1.041" transform="scale(-1,-1)"/></g><text id="text27384" x="79" y="132.327" fill="#000" fill-opacity="1" fill-rule="nonzero" stroke="none" stroke-width="1" color="#000" direction="ltr" display="inline" enable-background="accumulate" font-family="Cantarell" font-size="14" font-stretch="normal" font-style="normal" font-variant="normal" font-weight="500" letter-spacing="normal" overflow="visible" text-anchor="start" text-decoration="none" visibility="visible" word-spacing="normal" writing-mode="lr-tb" xml:space="preserve" style="text-indent:0;text-align:start;line-height:125%;text-transform:none;block-progression:tb;marker:none;-inkscape-font-specification:Cantarell Medium"><tspan id="tspan27386" x="79" y="132.327">Notifications</tspan></text><flowRoot id="flowRoot27407" fill="#000" fill-opacity="1" stroke="none" font-family="Cantarell" font-size="14" font-stretch="normal" font-style="normal" font-variant="normal" font-weight="normal" letter-spacing="0" transform="translate(-92,-105.63782)" word-spacing="0" xml:space="preserve" style="line-height:125%;-inkscape-font-specification:Cantarell"><flowRegion id="flowRegion27409"><rect id="rect27411" width="197.99" height="181.019" x="520.431" y="239.376"/></flowRegion><flowPara id="flowPara27413">Chat is disabled by default, and is turned on when the Chat application is launched.</flowPara></flowRoot><flowRoot id="flowRoot27423" fill="#000" fill-opacity="1" stroke="none" font-family="Cantarell" font-size="14" font-stretch="normal" font-style="normal" font-variant="normal" font-weight="normal" letter-spacing="0" transform="translate(-92,-5.63782)" word-spacing="0" xml:space="preserve" style="line-height:125%;-inkscape-font-specification:Cantarell"><flowRegion id="flowRegion27425"><rect id="rect27427" width="197.99" height="181.019" x="520.431" y="239.376"/></flowRegion><flowPara id="flowPara27429">The Chat switch provides an additional way to turn on Chat services as well as to go offline.</flowPara></flowRoot><path id="path3097" fill="#888a85" stroke="#000" stroke-dashoffset="0" stroke-linecap="round" stroke-miterlimit="4" stroke-opacity="1" stroke-width="1" d="m 379.5,681.8622 -339,0 0,-59 339,0"/><path id="path3099" fill="none" stroke="#000" stroke-linecap="butt" stroke-linejoin="miter" stroke-opacity="1" stroke-width="1" d="m 379.5,681.8622 -339,0 0,-155" display="inline"/><path id="path3101" fill="#eeeeec" fill-opacity="1" stroke="#000" stroke-dasharray="none" stroke-dashoffset="0" stroke-linecap="round" stroke-miterlimit="4" stroke-opacity="1" stroke-width="1.169" d="m 156,923.48718 a 18.125,18.125 0 1 1 -36.25,0 18.125,18.125 0 1 1 36.25,0 z" transform="matrix(0.85517241,0,0,0.85517241,-47.906896,-137.37858)"/><g id="g3103" fill="#000" fill-opacity="1" transform="translate(-138.0002,1294.3622)"><g id="g3115" fill="#000" fill-opacity="1" display="inline" transform="translate(-441.0002,-400.99999)"><path id="path3117" fill="#000" fill-opacity="1" fill-rule="nonzero" stroke="none" d="m 449.0004,402.00002 c -0.22065,0 -0.44081,0.0113 -0.65625,0.0312 l -0.40625,2.09375 c -0.33446,0.0733 -0.66305,0.17589 -0.96875,0.3125 l -1.53125,-1.46875 c -0.38863,0.23011 -0.72695,0.51408 -1.0625,0.8125 l 0.90625,1.90625 c -0.22242,0.24899 -0.42425,0.5225 -0.59375,0.8125 l -2.09375,-0.28125 c -0.17772,0.40877 -0.30872,0.83637 -0.40625,1.28125 l 1.84375,1 c -0.0171,0.16809 -0.0312,0.3274 -0.0312,0.5 0,0.1726 0.0142,0.33191 0.0312,0.5 l -1.84375,1 c 0.0975,0.44488 0.22853,0.87248 0.40625,1.28125 l 2.09375,-0.28125 c 0.1695,0.29 0.37133,0.56351 0.59375,0.8125 l -0.90625,1.90625 c 0.33555,0.29842 0.67387,0.58239 1.0625,0.8125 l 1.53125,-1.46875 c 0.3057,0.13661 0.63429,0.23916 0.96875,0.3125 l 0.40625,2.09375 c 0.21544,0.02 0.4356,0.0312 0.65625,0.0312 0.22065,0 0.44081,-0.0113 0.65625,-0.0312 l 0.40625,-2.09375 c 0.33446,-0.0733 0.66305,-0.17589 0.96875,-0.3125 l 1.53125,1.46875 c 0.38863,-0.23011 0.72695,-0.51408 1.0625,-0.8125 l -0.90625,-1.90625 c 0.22242,-0.24899 0.42425,-0.5225 0.59375,-0.8125 l 2.09375,0.28125 c 0.17772,-0.40877 0.30872,-0.83637 0.40625,-1.28125 l -1.84375,-1 c 0.0171,-0.16809 0.0312,-0.3274 0.0312,-0.5 0,-0.1726 -0.0142,-0.33191 -0.0312,-0.5 l 1.84375,-1 c -0.0975,-0.44488 -0.22853,-0.87248 -0.40625,-1.28125 l -2.09375,0.28125 c -0.1695,-0.29 -0.37133,-0.56351 -0.59375,-0.8125 l 0.90625,-1.90625 c -0.33555,-0.29842 -0.67387,-0.58239 -1.0625,-0.8125 l -1.53125,1.46875 c -0.3057,-0.13661 -0.63429,-0.23916 -0.96875,-0.3125 l -0.40625,-2.09375 c -0.21544,-0.02 -0.4356,-0.0312 -0.65625,-0.0312 z m 0,4 c 1.65685,0 3,1.34315 3,3 0,1.65685 -1.34315,3 -3,3 -1.65685,0 -3,-1.34315 -3,-3 0,-1.65685 1.34315,-3 3,-3 z" color="#000" display="inline" enable-background="accumulate" overflow="visible" visibility="visible" style="marker:none"/></g></g><path id="path3125" fill="#fff" fill-opacity="1" stroke="#000" stroke-miterlimit="4" stroke-opacity="1" stroke-width="1" d="m 344.5,627.8622 -260.68198,0 -13.5,14 -13.5,-14 0.0182,-9 0,-191.0625 c 0,-4.986 4.014,-9 9,-9 l 278.66377,0 c 4.986,0 9,4.014 9,9 l 0,191.0625 c 0,4.986 -4.014,9 -9,9 z" display="inline"/><path id="path3127" fill="#000" fill-opacity="1" stroke="#fff" stroke-dasharray="none" stroke-linecap="round" stroke-linejoin="miter" stroke-miterlimit="4" stroke-opacity=".502" stroke-width="1.632" d="m 21,442 212,0" display="inline" mask="url(#mask12112-0-6-5-3-8-3-4-3-4-4-1-9)" transform="matrix(0.75117371,0,0,0.5,112.79638,346.94233)"/><text id="text3129" x="79" y="482.369" fill="#000" fill-opacity="1" fill-rule="nonzero" stroke="none" stroke-width="1" color="#000" direction="ltr" display="inline" enable-background="accumulate" font-family="Cantarell" font-size="14" font-stretch="normal" font-style="normal" font-variant="normal" font-weight="500" letter-spacing="normal" overflow="visible" text-anchor="start" text-decoration="none" visibility="visible" word-spacing="normal" writing-mode="lr-tb" xml:space="preserve" style="text-indent:0;text-align:start;line-height:125%;text-transform:none;block-progression:tb;marker:none;-inkscape-font-specification:Cantarell Medium"><tspan id="tspan3131" x="79" y="482.369">Chat</tspan></text><text id="text3133" x="79" y="602.362" fill="#000" fill-opacity="1" fill-rule="nonzero" stroke="none" stroke-width="1" color="#000" direction="ltr" display="inline" enable-background="accumulate" font-family="Cantarell" font-size="14" font-stretch="normal" font-style="normal" font-variant="normal" font-weight="500" letter-spacing="normal" overflow="visible" text-anchor="start" text-decoration="none" visibility="visible" word-spacing="normal" writing-mode="lr-tb" xml:space="preserve" style="text-indent:0;text-align:start;line-height:125%;text-transform:none;block-progression:tb;marker:none;-inkscape-font-specification:Cantarell Medium"><tspan id="tspan3135" x="79" y="602.362">Notification Settings</tspan></text><text id="text3137" x="79" y="542.355" fill="#000" fill-opacity="1" fill-rule="nonzero" stroke="none" stroke-width="1" color="#000" direction="ltr" display="inline" enable-background="accumulate" font-family="Cantarell" font-size="14" font-stretch="normal" font-style="normal" font-variant="normal" font-weight="500" letter-spacing="normal" overflow="visible" text-anchor="start" text-decoration="none" visibility="visible" word-spacing="normal" writing-mode="lr-tb" xml:space="preserve" style="text-indent:0;text-align:start;line-height:125%;text-transform:none;block-progression:tb;marker:none;-inkscape-font-specification:Cantarell Medium"><tspan id="tspan3139" x="79" y="542.355">Clear Tray</tspan></text><path id="path3141" fill="none" stroke="#000" stroke-linecap="round" stroke-linejoin="miter" stroke-opacity="1" stroke-width="1" d="m 75.659,507.5322 259,0" display="inline"/><path id="path3143" fill="none" stroke="#000" stroke-linecap="round" stroke-linejoin="miter" stroke-opacity="1" stroke-width="1" d="m 75.659,567.5322 259,0" display="inline"/><g id="g3145" transform="matrix(1,0,0,0.92307693,7.2010524,-120.73695)"><rect id="rect3147" width="63" height="25" x="-327.458" y="-660.625" fill="#729fcf" fill-opacity="1" stroke="#000" stroke-dasharray="none" stroke-dashoffset="0" stroke-linecap="round" stroke-miterlimit="4" stroke-opacity="1" stroke-width="1.041" transform="scale(-1,-1)"/><rect id="rect3149" width="31" height="25" x="-327.458" y="-660.625" fill="#000" fill-opacity="1" stroke="#000" stroke-dasharray="none" stroke-dashoffset="0" stroke-linecap="round" stroke-miterlimit="4" stroke-opacity="1" stroke-width="1.041" transform="scale(-1,-1)"/></g><rect id="rect3153" width="63" height="23.077" x="271.659" y="435.994" fill="#888a85" fill-opacity="1" stroke="#000" stroke-dasharray="none" stroke-dashoffset="0" stroke-linecap="round" stroke-miterlimit="4" stroke-opacity="1" stroke-width="1"/><rect id="rect3155" width="31" height="23.077" x="271.659" y="435.994" fill="#000" fill-opacity="1" stroke="#000" stroke-dasharray="none" stroke-dashoffset="0" stroke-linecap="round" stroke-miterlimit="4" stroke-opacity="1" stroke-width="1"/><text font-size="14" style="text-indent:0;text-align:start;line-height:125%;text-transform:none;block-progression:tb;marker:none;-inkscape-font-specification:Cantarell Medium" id="text3157" x="79" y="452.327" fill="#000" fill-opacity="1" fill-rule="nonzero" stroke="none" stroke-width="1" color="#000" direction="ltr" display="inline" enable-background="accumulate" font-family="Cantarell" font-stretch="normal" font-style="normal" font-variant="normal" font-weight="500" letter-spacing="normal" overflow="visible" text-anchor="start" text-decoration="none" visibility="visible" word-spacing="normal" writing-mode="lr-tb" xml:space="preserve"><tspan id="tspan3159" x="79" y="452.327">Notifications</tspan></text><g id="g3257" fill="#2e3436" transform="translate(62.000196,324.33845)"><g id="layer9-4" fill="#2e3436" display="inline" transform="translate(-41.000198,-357)"><path id="rect11261" fill="#2e3436" fill-opacity="1" fill-rule="nonzero" stroke="none" stroke-width="2.4" d="m 44.6875,358.0625 c -1.5235,0 -2.75,1.2265 -2.75,2.75 l 0,4.4375 c 0,1.5235 1.2265,2.75 2.75,2.75 l 6.305187,0 3.053347,3.98495 -0.07728,-4.0787 c 1.204532,-0.29284 2.09375,-1.35911 2.09375,-2.65625 l 0,-4.4375 c 0,-1.5235 -1.2265,-2.75 -2.75,-2.75 z" color="#bebebe" display="inline" enable-background="accumulate" overflow="visible" visibility="visible" style="marker:none"/></g></g><path id="path3382" fill="#888a85" stroke="#000" stroke-dashoffset="0" stroke-linecap="round" stroke-miterlimit="4" stroke-opacity="1" stroke-width="1" d="m 379.5,1001.8622 -339,0 0,-59 339,0"/><path id="path3384" fill="none" stroke="#000" stroke-linecap="butt" stroke-linejoin="miter" stroke-opacity="1" stroke-width="1" d="m 379.5,1001.8622 -339,0 0,-155" display="inline"/><path id="path3386" fill="#eeeeec" fill-opacity="1" stroke="#000" stroke-dasharray="none" stroke-dashoffset="0" stroke-linecap="round" stroke-miterlimit="4" stroke-opacity="1" stroke-width="1.169" d="m 156,923.48718 a 18.125,18.125 0 1 1 -36.25,0 18.125,18.125 0 1 1 36.25,0 z" transform="matrix(0.85517241,0,0,0.85517241,-47.906896,182.62142)"/><path id="path3388" fill="#fff" fill-opacity="1" stroke="#000" stroke-miterlimit="4" stroke-opacity="1" stroke-width="1" d="m 344.5,947.8622 -260.68198,0 -13.5,14 -13.5,-14 0.0182,-9 0,-191.0625 c 0,-4.986 4.014,-9 9,-9 l 278.66377,0 c 4.986,0 9,4.014 9,9 l 0,191.0625 c 0,4.986 -4.014,9 -9,9 z" display="inline"/><path id="path3390" fill="#000" fill-opacity="1" stroke="#fff" stroke-dasharray="none" stroke-linecap="round" stroke-linejoin="miter" stroke-miterlimit="4" stroke-opacity=".502" stroke-width="1.632" d="m 21,442 212,0" display="inline" mask="url(#mask12112-0-6-5-3-8-3-4-3-4-4-1-9)" transform="matrix(0.75117371,0,0,0.5,112.79638,666.9423)"/><text font-size="14" style="text-indent:0;text-align:start;line-height:125%;text-transform:none;block-progression:tb;marker:none;-inkscape-font-specification:Cantarell Medium" id="text3392" x="79" y="802.369" fill="#000" fill-opacity="1" fill-rule="nonzero" stroke="none" stroke-width="1" color="#000" direction="ltr" display="inline" enable-background="accumulate" font-family="Cantarell" font-stretch="normal" font-style="normal" font-variant="normal" font-weight="500" letter-spacing="normal" overflow="visible" text-anchor="start" text-decoration="none" visibility="visible" word-spacing="normal" writing-mode="lr-tb" xml:space="preserve"><tspan id="tspan3394" x="79" y="802.369">Chat</tspan></text><text font-size="14" style="text-indent:0;text-align:start;line-height:125%;text-transform:none;block-progression:tb;marker:none;-inkscape-font-specification:Cantarell Medium" id="text3396" x="79" y="922.362" fill="#000" fill-opacity="1" fill-rule="nonzero" stroke="none" stroke-width="1" color="#000" direction="ltr" display="inline" enable-background="accumulate" font-family="Cantarell" font-stretch="normal" font-style="normal" font-variant="normal" font-weight="500" letter-spacing="normal" overflow="visible" text-anchor="start" text-decoration="none" visibility="visible" word-spacing="normal" writing-mode="lr-tb" xml:space="preserve"><tspan id="tspan3398" x="79" y="922.362">Notification Settings</tspan></text><text font-size="14" style="text-indent:0;text-align:start;line-height:125%;text-transform:none;block-progression:tb;marker:none;-inkscape-font-specification:Cantarell Medium" id="text3400" x="79" y="862.355" fill="#000" fill-opacity="1" fill-rule="nonzero" stroke="none" stroke-width="1" color="#000" direction="ltr" display="inline" enable-background="accumulate" font-family="Cantarell" font-stretch="normal" font-style="normal" font-variant="normal" font-weight="500" letter-spacing="normal" overflow="visible" text-anchor="start" text-decoration="none" visibility="visible" word-spacing="normal" writing-mode="lr-tb" xml:space="preserve"><tspan id="tspan3402" x="79" y="862.355">Clear Tray</tspan></text><path id="path3404" fill="none" stroke="#000" stroke-linecap="round" stroke-linejoin="miter" stroke-opacity="1" stroke-width="1" d="m 75.659,827.5322 259,0" display="inline"/><path id="path3406" fill="none" stroke="#000" stroke-linecap="round" stroke-linejoin="miter" stroke-opacity="1" stroke-width="1" d="m 75.659,887.5322 259,0" display="inline"/><rect id="rect3414" width="63" height="23.077" x="271.659" y="755.994" fill="#888a85" fill-opacity="1" stroke="#000" stroke-dasharray="none" stroke-dashoffset="0" stroke-linecap="round" stroke-miterlimit="4" stroke-opacity="1" stroke-width="1"/><rect id="rect3416" width="31" height="23.077" x="271.659" y="755.994" fill="#000" fill-opacity="1" stroke="#000" stroke-dasharray="none" stroke-dashoffset="0" stroke-linecap="round" stroke-miterlimit="4" stroke-opacity="1" stroke-width="1"/><text id="text3418" x="79" y="772.327" fill="#000" fill-opacity="1" fill-rule="nonzero" stroke="none" stroke-width="1" color="#000" direction="ltr" display="inline" enable-background="accumulate" font-family="Cantarell" font-size="14" font-stretch="normal" font-style="normal" font-variant="normal" font-weight="500" letter-spacing="normal" overflow="visible" text-anchor="start" text-decoration="none" visibility="visible" word-spacing="normal" writing-mode="lr-tb" xml:space="preserve" style="text-indent:0;text-align:start;line-height:125%;text-transform:none;block-progression:tb;marker:none;-inkscape-font-specification:Cantarell Medium"><tspan id="tspan3420" x="79" y="772.327">Notifications</tspan></text><g id="g3422" fill="#2e3436" transform="translate(61.999998,964.3309)"><g id="g3424" fill="#2e3436" display="inline" transform="translate(-61.000198,-357)"><path d="m 64.6877,358.0625 c -1.5235,0 -2.75,1.2265 -2.75,2.75 l 0,4.4375 c 0,1.5235 1.2265,2.75 2.75,2.75 l 6.3125,0 3.03125,4 -0.0625,-4.09375 c 1.20454,-0.29284 2.09375,-1.35911 2.09375,-2.65625 l 0,-4.4375 c 0,-1.5235 -1.2265,-2.75 -2.75,-2.75 l -8.625,0 z m 1.3125,1.9375 1,0 c 0.27614,0 0.53779,0.10029 0.71875,0.28125 l 1.28125,1.28125 1.28125,-1.28125 C 70.46241,360.10029 70.72406,360 71.0002,360 l 1,0 0,1 c 0,0.27614 -0.10029,0.53779 -0.28125,0.71875 L 70.4377,363 l 1.28125,1.28125 c 0.18096,0.18096 0.28125,0.44261 0.28125,0.71875 l 0,1 -1,0 c -0.27614,0 -0.53779,-0.10029 -0.71875,-0.28125 l -1.28125,-1.28125 -1.28125,1.28125 C 67.53799,365.89971 67.27634,366 67.0002,366 l -1,0 0,-1 c 0,-0.27614 0.10029,-0.53779 0.28125,-0.71875 L 67.5627,363 66.28145,361.71875 C 66.10049,361.53779 66.0002,361.27614 66.0002,361 l 0,-1 z" style="marker:none" id="path3426" fill="#2e3436" fill-opacity="1" fill-rule="nonzero" stroke="none" stroke-width="2.4" color="#bebebe" display="inline" enable-background="accumulate" overflow="visible" visibility="visible"/></g></g><g id="g3548" fill="#2e3436" transform="translate(62,644.2997)"><g id="layer9-3" fill="#2e3436" display="inline" transform="translate(-121.0002,-357)"><path id="path12165" fill="#2e3436" fill-opacity="1" fill-rule="nonzero" stroke="none" stroke-width="2.4" d="m 124.7502,358.0625 c -1.5235,0 -2.75,1.2265 -2.75,2.75 l 0,4.4375 c 0,1.5235 1.2265,2.75 2.75,2.75 l 6.25,0 3,4.0625 -0.0312,-4.15625 c 1.20448,-0.29284 2.0312,-1.35911 2.0312,-2.65625 l 0,-4.4375 c 0,-1.5235 -1.164,-2.75 -2.6875,-2.75 l -8.5625,0 z m 1.25,3.9375 6,0 0,2 -6,0 0,-2 z" color="#bebebe" display="inline" enable-background="accumulate" overflow="visible" visibility="visible" style="marker:none"/></g></g><g id="g3564" transform="translate(0,-620.00001)"><rect id="rect3560" width="63" height="23.077" x="271.659" y="1405.994" fill="#888a85" fill-opacity="1" stroke="#000" stroke-dasharray="none" stroke-dashoffset="0" stroke-linecap="round" stroke-miterlimit="4" stroke-opacity="1" stroke-width="1"/><rect id="rect3562" width="31" height="23.077" x="271.659" y="1405.994" fill="#000" fill-opacity="1" stroke="#000" stroke-dasharray="none" stroke-dashoffset="0" stroke-linecap="round" stroke-miterlimit="4" stroke-opacity="1" stroke-width="1"/></g><flowRoot id="flowRoot3568" fill="#000" fill-opacity="1" stroke="none" font-family="Cantarell" font-size="14" font-stretch="normal" font-style="normal" font-variant="normal" font-weight="normal" letter-spacing="0" transform="translate(-92,234.36218)" word-spacing="0" xml:space="preserve" style="line-height:125%;-inkscape-font-specification:Cantarell"><flowRegion id="flowRegion3570"><rect id="rect3572" width="197.99" height="181.019" x="520.431" y="239.376"/></flowRegion><flowPara id="flowPara3574">The button includes the chat status, so you can easily see if you are available for chat</flowPara></flowRoot></g></svg>