<svg xmlns="http://www.w3.org/2000/svg" xmlns:svg="http://www.w3.org/2000/svg" id="svg7384" width="300" height="300" version="1.1"><metadata id="metadata90"/><title id="title9167">Gnome Symbolic Icon Theme</title><g id="layer12" display="inline" transform="translate(68.999802,-243)"><rect stroke-width="1" style="marker:none" id="rect5985-4-1" width="300" height="300" x="-69" y="243" fill="none" stroke="none" color="#000" display="inline" enable-background="new" overflow="visible" visibility="visible"/><rect id="rect5985-4-4-6" width="260" height="260" x="-49" y="263" fill="#babdb6" fill-opacity="1" fill-rule="nonzero" stroke="none" stroke-width="1" color="#000" display="inline" enable-background="new" overflow="visible" rx="4" ry="4" visibility="visible" style="marker:none"/><path id="use3967-4" fill="#eeeeec" fill-opacity="1" fill-rule="nonzero" stroke="#eeeeec" stroke-dasharray="none" stroke-miterlimit="4" stroke-width="4" d="m 81.000202,311.00002 c -36.22572,0 -64,17.9918 -64,64.9687 0,57.9769 33.76181,109.125 64,109.125 30.238188,0 63.999998,-51.1481 63.999998,-109.125 0,-46.9769 -27.77428,-64.9687 -63.999998,-64.9687 z" color="#000" display="inline" enable-background="new" overflow="visible" visibility="visible" style="marker:none"/><path id="rect3883-1-8-5-1-8-6" fill="#babdb6" fill-opacity="1" fill-rule="nonzero" stroke="#eeeeec" stroke-dasharray="none" stroke-miterlimit="4" stroke-width="2" d="m 78.000202,247.00002 0,68.7812 6,4 0,-68.7812 z" color="#000" display="inline" enable-background="new" overflow="visible" visibility="visible" style="marker:none"/><path d="m 78.000202,247.00002 0,68.7812 6,4 0,-68.7812 z" style="marker:none" id="rect3883-1-8-5-1-3" fill="#babdb6" fill-opacity="1" fill-rule="nonzero" stroke="none" stroke-width="1" color="#000" display="inline" enable-background="new" overflow="visible" visibility="visible"/><path id="use3967" fill="#eeeeec" fill-opacity="1" fill-rule="nonzero" stroke="#babdb6" stroke-dasharray="none" stroke-miterlimit="4" stroke-width="2" d="m 81.000202,311.00002 c -36.22572,0 -64,17.9918 -64,64.9687 0,57.9769 33.76181,109.125 64,109.125 30.238188,0 63.999998,-51.1481 63.999998,-109.125 0,-46.9769 -27.77428,-64.9687 -63.999998,-64.9687 z" color="#000" display="inline" enable-background="new" overflow="visible" visibility="visible" style="marker:none"/><path id="path3928-4-3" fill="none" stroke="#babdb6" stroke-dashoffset="0" stroke-linecap="round" stroke-linejoin="round" stroke-miterlimit="4" stroke-opacity="1" stroke-width=".5" d="m 100.79845,343.30512 c 3.578,10.1444 5.7232,23.0911 5.7232,37.1949 m -1.4698,19.7603 c -3.5175,22.8313 -12.957968,39.1772 -24.051638,39.1772 -6.32622,0 -12.11483,-5.3155 -16.57404,-14.118 m -4.93069,-13.0671 c -2.54253,-9.1642 -4.01671,-20.0607 -4.01671,-31.7524 0,-20.2593 4.42633,-38.1311 11.16751,-48.7393" color="#000" display="inline" enable-background="new" overflow="visible" visibility="visible" style="marker:none"/><path id="path3928-4" fill="#eeeeec" stroke="#babdb6" stroke-dasharray="none" stroke-dashoffset="0" stroke-linecap="round" stroke-linejoin="round" stroke-miterlimit="4" stroke-opacity="1" stroke-width="3.806" d="m 250,465.75 a 50.25,85.25 0 1 1 -100.5,0 50.25,85.25 0 1 1 100.5,0 z" color="#000" display="inline" enable-background="new" overflow="visible" transform="matrix(0.45738821,0,0,0.60374982,-10.339648,99.30353)" visibility="visible" style="marker:none"/><path d="m 78.000202,243.00002 0,1.7812 6,4 0,-1.7812 z" style="marker:none" id="rect3883-1-8-5-0-5" fill="#babdb6" fill-opacity="1" fill-rule="nonzero" stroke="none" stroke-width="1" color="#000" display="inline" enable-background="new" overflow="visible" visibility="visible"/><text id="text4036" x="340.106" y="-78.214" fill="#babdb6" fill-opacity="1" stroke="none" font-family="Cantarell" font-size="11" font-stretch="normal" font-style="normal" font-variant="normal" font-weight="bold" letter-spacing="0" transform="matrix(0,1,-1,0,0,0)" word-spacing="0" xml:space="preserve" style="line-height:125%;-inkscape-font-specification:Cantarell Bold"><tspan id="tspan4038" x="340.106" y="-78.214">MustgoOPTIX</tspan></text></g></svg>