<svg xmlns="http://www.w3.org/2000/svg" xmlns:svg="http://www.w3.org/2000/svg" id="svg7384" width="300" height="300" version="1.1"><metadata id="metadata90"/><title id="title9167">Gnome Symbolic Icon Theme</title><g id="layer12" display="inline" transform="translate(-241.00018,-243)"><rect stroke-width="1" style="marker:none" id="rect5985-4-9-7" width="300" height="300" x="241" y="243" fill="none" stroke="none" color="#000" display="inline" enable-background="new" overflow="visible" visibility="visible"/><rect id="rect5985-4-4-6-8" width="260" height="260" x="261" y="263" fill="#babdb6" fill-opacity="1" fill-rule="nonzero" stroke="none" stroke-width="1" color="#000" display="inline" enable-background="new" overflow="visible" rx="4" ry="4" visibility="visible" style="marker:none"/><path id="rect3883-1-8-5-1-8-6-1" fill="#babdb6" fill-opacity="1" fill-rule="nonzero" stroke="#eeeeec" stroke-dasharray="none" stroke-miterlimit="4" stroke-width="2" d="m 388.0002,247.00002 0,68.7812 6,4 0,-68.7812 z" color="#000" display="inline" enable-background="new" overflow="visible" visibility="visible" style="marker:none"/><path id="path4121-7" fill="#eeeeec" fill-opacity="1" fill-rule="nonzero" stroke="#eeeeec" stroke-dasharray="none" stroke-dashoffset="0" stroke-linecap="round" stroke-linejoin="round" stroke-miterlimit="4" stroke-opacity="1" stroke-width="4" d="m 391.0002,291.00002 c -55.54856,0 -74.96875,74.6354 -74.96875,125.5 0,52.9858 46.99736,71.5 74.96875,71.5 27.97139,0 74.96875,-18.5142 74.96875,-71.5 0,-50.8646 -19.42019,-125.5 -74.96875,-125.5 z" color="#000" display="inline" enable-background="new" overflow="visible" visibility="visible" style="marker:none"/><path d="m 388.0002,247.00002 0,68.7812 6,4 0,-68.7812 z" style="marker:none" id="rect3883-1-8-5-1-3-5" fill="#babdb6" fill-opacity="1" fill-rule="nonzero" stroke="none" stroke-width="1" color="#000" display="inline" enable-background="new" overflow="visible" visibility="visible"/><path id="path4121" fill="#eeeeec" fill-opacity="1" fill-rule="nonzero" stroke="#babdb6" stroke-dashoffset="0" stroke-linecap="round" stroke-linejoin="round" stroke-miterlimit="4" stroke-opacity="1" stroke-width="2" d="m 391.0002,291.00002 c -55.54856,0 -74.96875,74.6354 -74.96875,125.5 0,52.9858 46.99736,71.5 74.96875,71.5 27.97139,0 74.96875,-18.5142 74.96875,-71.5 0,-50.8646 -19.42019,-125.5 -74.96875,-125.5 z" color="#000" display="inline" enable-background="new" overflow="visible" visibility="visible" style="marker:none"/><g id="g4210" transform="matrix(0.70710678,0.70710678,-0.70710678,0.70710678,961.1549,-759.65134)"><rect id="rect4132" width="2" height="4" x="442" y="1267.362" fill="#babdb6" fill-opacity="1" fill-rule="nonzero" stroke="none" stroke-width="2" color="#000" display="inline" enable-background="new" overflow="visible" rx="0" ry="0" visibility="visible" style="marker:none"/><rect id="rect4132-9" width="2" height="4" x="1272.362" y="-441" fill="#babdb6" fill-opacity="1" fill-rule="nonzero" stroke="none" stroke-width="2" color="#000" display="inline" enable-background="new" overflow="visible" rx="0" ry="0" transform="matrix(0,1,-1,0,0,0)" visibility="visible" style="marker:none"/><rect id="rect4132-4" width="2" height="4" x="442" y="1275.362" fill="#babdb6" fill-opacity="1" fill-rule="nonzero" stroke="none" stroke-width="2" color="#000" display="inline" enable-background="new" overflow="visible" rx="0" ry="0" visibility="visible" style="marker:none"/><rect id="rect4132-9-8" width="2" height="4" x="1272.362" y="-449" fill="#babdb6" fill-opacity="1" fill-rule="nonzero" stroke="none" stroke-width="2" color="#000" display="inline" enable-background="new" overflow="visible" rx="0" ry="0" transform="matrix(0,1,-1,0,0,0)" visibility="visible" style="marker:none"/></g><text id="text4188" x="383.299" y="456.994" fill="#babdb6" fill-opacity="1" stroke="none" font-family="Cantarell" font-size="12.262" font-stretch="normal" font-style="normal" font-variant="normal" font-weight="bold" letter-spacing="0" transform="scale(0.99909433,1.0009065)" word-spacing="0" xml:space="preserve" style="line-height:125%;-inkscape-font-specification:Cantarell Bold"><tspan style="-inkscape-font-specification:Cantarell" id="tspan4190" x="383.299" y="456.994" fill="#babdb6" font-weight="normal">x-lite</tspan></text><path d="m 388.0002,243.00002 0,1.7812 6,4 0,-1.7812 z" style="marker:none" id="rect3883-1-8-5-0-5-0" fill="#babdb6" fill-opacity="1" fill-rule="nonzero" stroke="none" stroke-width="1" color="#000" display="inline" enable-background="new" overflow="visible" visibility="visible"/><g id="g4336" transform="translate(-68.999798,-819.36218)"><path id="path4130" fill="#babdb6" fill-opacity="1" fill-rule="nonzero" stroke="none" stroke-width="2" d="m 480,400 c 0,11.04569 -8.95431,20 -20,20 -11.04569,0 -20,-8.95431 -20,-20 0,-11.04569 8.95431,-20 20,-20 11.04569,0 20,8.95431 20,20 z" color="#000" display="inline" enable-background="new" overflow="visible" transform="translate(0,749.36218)" visibility="visible" style="marker:none"/><path id="path4130-5" fill="#babdb6" fill-opacity="1" fill-rule="nonzero" stroke="#eeeeec" stroke-miterlimit="4" stroke-width=".993" d="M 466.26421,381.00062 C 474.24166,383.62935 480,391.14221 480,400 c 0,6.30736 -2.91973,11.93279 -7.48135,15.59845 m -4.22939,2.60824 c -1.88073,0.85765 -3.91759,1.43246 -6.0562,1.67005 m -4.25934,0.0219 C 447.87968,418.88302 440,410.3617 440,400 c 0,-7.88051 4.55779,-14.69649 11.18112,-17.95569" color="#000" display="inline" enable-background="new" overflow="visible" transform="matrix(0.79836716,0.4609375,-0.1375,0.23815698,147.75111,842.06815)" visibility="visible" style="marker:none"/><rect id="rect4258" width="3" height="23" x="454" y="1134.362" fill="#eeeeec" fill-opacity="1" fill-rule="nonzero" stroke="none" stroke-width="1" color="#000" display="inline" enable-background="new" overflow="visible" visibility="visible" style="marker:none"/><rect id="rect4258-3" width="3" height="23" x="463" y="1140.362" fill="#eeeeec" fill-opacity="1" fill-rule="nonzero" stroke="none" stroke-width="1" color="#000" display="inline" enable-background="new" overflow="visible" visibility="visible" style="marker:none"/><rect id="rect4278" width="10" height="3" x="141.978" y="1227.272" fill="#eeeeec" fill-opacity="1" fill-rule="nonzero" stroke="none" stroke-width="1" color="#000" display="inline" enable-background="new" overflow="visible" transform="matrix(0.96592583,-0.25881905,0.25881905,0.96592583,0,0)" visibility="visible" style="marker:none"/></g></g></svg>