<svg xmlns="http://www.w3.org/2000/svg" xmlns:svg="http://www.w3.org/2000/svg" id="svg7384" width="300" height="300" version="1.1"><metadata id="metadata90"/><title id="title9167">Gnome Symbolic Icon Theme</title><g id="layer12" display="inline" transform="translate(68.999802,-563)"><path d="m 75.04171,577.80453 0,48.78125 6,4 0,-48.78125 z" style="marker:none" id="rect3883-1-8-5-1-78" fill="#babdb6" fill-opacity="1" fill-rule="nonzero" stroke="none" stroke-width="1" color="#000" display="inline" enable-background="new" overflow="visible" visibility="visible"/><path d="m 75.04171,573.80453 0,1.78125 6,4 0,-1.78125 z" style="marker:none" id="rect3883-1-8-5-0-6" fill="#babdb6" fill-opacity="1" fill-rule="nonzero" stroke="none" stroke-width="1" color="#000" display="inline" enable-background="new" overflow="visible" visibility="visible"/><rect stroke-width="1" style="marker:none" id="rect6086" width="300" height="300" x="-69" y="563" fill="none" stroke="none" color="#000" display="inline" enable-background="new" overflow="visible" visibility="visible"/><rect id="rect6088" width="218" height="218" x="-31" y="639" fill="#babdb6" fill-opacity="1" fill-rule="nonzero" stroke="none" stroke-width="1" color="#000" display="inline" enable-background="new" overflow="visible" rx="4" ry="4" visibility="visible" style="marker:none"/><path id="path4299-8" fill="#eeeeec" fill-opacity="1" stroke="#babdb6" stroke-dasharray="none" stroke-dashoffset="0" stroke-miterlimit="4" stroke-opacity="1" stroke-width="2" d="m 78.000207,612 c -8.836568,0 -16.000011,6.64078 -16.000006,14.8325 -8e-6,8.19176 7.163444,14.83247 16.000005,14.83247 8.836553,0 16.000004,-6.64071 15.999997,-14.83249 0,-8.1917 -7.163442,-14.83245 -15.999996,-14.83248 z m 10e-7,5.93298 c 5.301922,-1e-5 9.599992,3.98447 9.599998,8.8995 -8e-6,4.91502 -4.298065,8.89951 -9.600008,8.8995 -5.301931,-10e-6 -9.599995,-3.98446 -9.599995,-8.89949 2e-6,-4.91505 4.298069,-8.89951 9.600005,-8.89951 z" display="inline"/><rect id="rect3441-2" width="87.812" height="213.213" x="34.381" y="624.74" fill="#eeeeec" fill-opacity="1" stroke="#babdb6" stroke-dasharray="none" stroke-dashoffset="0" stroke-miterlimit="4" stroke-opacity="1" stroke-width="1.764" display="inline" rx="10.073" ry="10.073"/><rect id="rect3441-9-2-2" width="5.933" height="217.919" x="110.044" y="622.125" fill="#eeeeec" fill-opacity="1" stroke="#babdb6" stroke-dasharray="none" stroke-dashoffset="0" stroke-miterlimit="4" stroke-opacity="1" stroke-width="1.974" display="inline" rx="2.966" ry="2.966"/><rect id="rect3441-9-3-7" width="11.97" height="220.026" x="71.987" y="621.987" fill="#eeeeec" fill-opacity="1" fill-rule="nonzero" stroke="#babdb6" stroke-dasharray="none" stroke-dashoffset="0" stroke-linecap="butt" stroke-linejoin="miter" stroke-miterlimit="4" stroke-opacity="1" stroke-width="1.974" color="#000" display="inline" enable-background="accumulate" overflow="visible" rx="5.92" ry="5.92" visibility="visible" style="marker:none"/><rect id="rect6162" width="5.933" height="217.919" x="41.987" y="622.125" fill="#eeeeec" fill-opacity="1" stroke="#babdb6" stroke-dasharray="none" stroke-dashoffset="0" stroke-miterlimit="4" stroke-opacity="1" stroke-width="1.974" display="inline" rx="2.966" ry="2.966"/></g></svg>