<svg xmlns="http://www.w3.org/2000/svg" xmlns:svg="http://www.w3.org/2000/svg" id="svg7384" width="300" height="300" version="1.1"><metadata id="metadata90"/><title id="title9167">Gnome Symbolic Icon Theme</title><g id="layer12" display="inline" transform="translate(-551.00018,67)"><rect stroke-width="1" style="marker:none" id="rect5985-4-9" width="300" height="300" x="551" y="-67" fill="none" stroke="none" color="#000" display="inline" enable-background="new" overflow="visible" visibility="visible"/><rect id="rect5985-4-4-4" width="260" height="260" x="571" y="-47" fill="#babdb6" fill-opacity="1" fill-rule="nonzero" stroke="none" stroke-width="1" color="#000" display="inline" enable-background="new" overflow="visible" rx="4" ry="4" visibility="visible" style="marker:none"/><path id="path6486-4" fill="#000" fill-opacity="1" fill-rule="nonzero" stroke="#eeeeec" stroke-dasharray="none" stroke-miterlimit="4" stroke-width="3.891" d="m 599.79542,174.89771 a 74.897713,74.897713 0 1 1 -149.79543,0 74.897713,74.897713 0 1 1 149.79543,0 z" color="#000" display="inline" enable-background="new" overflow="visible" transform="matrix(1.0280687,0,0,1.0280688,161.36932,-76.80687)" visibility="visible" style="marker:none"/><path id="path6486" fill="#babdb6" fill-opacity="1" fill-rule="nonzero" stroke="none" stroke-width="2" d="m 599.79542,174.89771 a 74.897713,74.897713 0 1 1 -149.79543,0 74.897713,74.897713 0 1 1 149.79543,0 z" color="#000" display="inline" enable-background="new" overflow="visible" transform="matrix(1.0280687,0,0,1.0280688,161.36932,-76.80687)" visibility="visible" style="marker:none"/><path id="path6643-2" fill="#eeeeec" fill-opacity="1" fill-rule="nonzero" stroke="#eeeeec" stroke-dasharray="none" stroke-miterlimit="4" stroke-width="4" d="m 701.0002,-23.99998 c -6.9185,0 -13.70128,0.58 -20.3125,1.6562 a 2.0072443,2.0072443 0 0 0 -1.6875,1.9688 l 0,0.3437 0,53 c -2.79793,16.6609 -8.37786,32.6514 -16.96875,47.5313 -8.58418,14.8682 -19.637,27.694 -32.65625,38.4375 l -46.21875,26.6875 a 2.0072443,2.0072443 0 0 0 -0.875,2.4687 c 2.37359,6.2636 5.25951,12.4147 8.71875,18.4063 3.45925,5.9916 7.35612,11.5626 11.59375,16.75 a 2.0072443,2.0072443 0 0 0 2.5625,0.5 l 46.1875,-26.6563 c 15.83204,-5.9145 32.46785,-9.0937 49.65625,-9.0937 17.1884,0 33.8242,3.1792 49.6563,9.0937 l 46.1875,26.6563 a 2.0072443,2.0072443 0 0 0 2.5625,-0.5 c 4.2376,-5.1874 8.1345,-10.7584 11.5937,-16.75 3.4592,-5.9916 6.3452,-12.1427 8.7188,-18.4063 a 2.0072443,2.0072443 0 0 0 -0.875,-2.4687 l -46.2188,-26.6875 c -13.0193,-10.7435 -24.0721,-23.5693 -32.6562,-38.4375 -8.5909,-14.8799 -14.1709,-30.8704 -16.9688,-47.5313 l 0,-53 0,-0.3437 a 2.0072443,2.0072443 0 0 0 -1.6875,-1.9688 c -6.6112,-1.0762 -13.394,-1.6562 -20.3125,-1.6562 z" color="#000" display="inline" enable-background="new" overflow="visible" visibility="visible" style="marker:none"/><path d="m 701.0002,-23.99998 c -6.9185,0 -13.70128,0.58 -20.3125,1.6562 a 2.0072443,2.0072443 0 0 0 -1.6875,1.9688 l 0,0.3437 0,53 c -2.79793,16.6609 -8.37786,32.6514 -16.96875,47.5313 -8.58418,14.8682 -19.637,27.694 -32.65625,38.4375 l -46.21875,26.6875 a 2.0072443,2.0072443 0 0 0 -0.875,2.4687 c 2.37359,6.2636 5.25951,12.4147 8.71875,18.4063 3.45925,5.9916 7.35612,11.5626 11.59375,16.75 a 2.0072443,2.0072443 0 0 0 2.5625,0.5 l 46.1875,-26.6563 c 15.83204,-5.9145 32.46785,-9.0937 49.65625,-9.0937 17.1884,0 33.8242,3.1792 49.6563,9.0937 l 46.1875,26.6563 a 2.0072443,2.0072443 0 0 0 2.5625,-0.5 c 4.2376,-5.1874 8.1345,-10.7584 11.5937,-16.75 3.4592,-5.9916 6.3452,-12.1427 8.7188,-18.4063 a 2.0072443,2.0072443 0 0 0 -0.875,-2.4687 l -46.2188,-26.6875 c -13.0193,-10.7435 -24.0721,-23.5693 -32.6562,-38.4375 -8.5909,-14.8799 -14.1709,-30.8704 -16.9688,-47.5313 l 0,-53 0,-0.3437 a 2.0072443,2.0072443 0 0 0 -1.6875,-1.9688 c -6.6112,-1.0762 -13.394,-1.6562 -20.3125,-1.6562 z" style="marker:none" id="path6643" fill="#eeeeec" fill-opacity="1" fill-rule="nonzero" stroke="#babdb6" stroke-width="2" color="#000" display="inline" enable-background="new" overflow="visible" visibility="visible"/><path d="m 683.68513,2.89872 c 3.64882,24.67496 1.23108,48.57404 -8.03632,70.09588 m -12.51559,21.96621 c -4.60406,6.32463 -9.82251,12.12099 -15.58899,17.38514 m -6.93056,5.86703 c -11.12935,8.73731 -23.9526,15.74377 -38.08222,20.99622 m 23.97164,26.531 c 17.64924,-11.99072 38.82262,-21.11446 58.08262,-24.79245 m 25.94979,-1.36756 c 4.03,0.33869 8.0213,0.89069 11.9688,1.64842 m 4.0353,0.84948 c 16.8506,3.86137 32.858,11.48218 47.6131,22.25922 m 4.4048,3.33991 c 0.915,0.71972 1.8249,1.45177 2.7295,2.196 m 18.182,-30.66402 c -5.1084,-2.20127 -10.2014,-4.72386 -15.1901,-7.51049 m -6.1052,-3.5738 C 758.8586,116.29155 741.7452,100.70332 732.3247,84.89579 M 723.9696,67.0112 c -2.576,-7.04463 -4.4545,-14.31924 -5.6606,-21.77071 m -0.8757,-6.48322 c -1.4406,-13.25055 -0.8318,-26.99885 1.6916,-40.95762" style="marker:none" id="path6486-7-7" fill="none" stroke="#babdb6" stroke-dasharray="none" stroke-miterlimit="4" stroke-width=".5" color="#000" display="inline" enable-background="new" overflow="visible" visibility="visible"/><path id="path6486-3" fill="#babdb6" fill-opacity="1" fill-rule="nonzero" stroke="none" stroke-width="2" d="m 599.79542,174.89771 a 74.897713,74.897713 0 1 1 -149.79543,0 74.897713,74.897713 0 1 1 149.79543,0 z" color="#000" display="inline" enable-background="new" overflow="visible" transform="matrix(0.45395215,0,0,0.4539522,462.72178,23.60481)" visibility="visible" style="marker:none"/><path d="m 708.0002,-11 c 0,5.52285 -4,14 -7,14 -3,0 -7,-8.47715 -7,-14 0,-4 3.134,-6 7,-6 3.866,0 7,2 7,6 z" style="marker:none" id="path6971" fill="#babdb6" fill-opacity="1" fill-rule="nonzero" stroke="none" stroke-width=".494" color="#000" display="inline" enable-background="new" overflow="visible" visibility="visible"/><path id="rect3883-1-8-5-1-8-7" fill="#babdb6" fill-opacity="1" fill-rule="nonzero" stroke="#eeeeec" stroke-dasharray="none" stroke-miterlimit="4" stroke-width="2" d="m 698.0002,-63 0,65.78125 6,0 0,-61.78125 z" color="#000" display="inline" enable-background="new" overflow="visible" visibility="visible" style="marker:none"/><path d="m 698.0002,-63 0,64 c 1.0005,1.22119 2.0405,2 3,2 0.9595,0 1.9995,-0.77881 3,-2 l 0,-60 -6,-4 z" style="marker:none" id="rect3883-1-8-5-1-7" fill="#babdb6" fill-opacity="1" fill-rule="nonzero" stroke="none" stroke-width="1" color="#000" display="inline" enable-background="new" overflow="visible" visibility="visible"/><path d="m 698.0002,-67 0,1.78125 6,4 0,-1.78125 z" style="marker:none" id="rect3883-1-8-5-0-8" fill="#babdb6" fill-opacity="1" fill-rule="nonzero" stroke="none" stroke-width="1" color="#000" display="inline" enable-background="new" overflow="visible" visibility="visible"/><path id="path6486-3-9" fill="none" stroke="#babdb6" stroke-miterlimit="4" stroke-width=".5" d="m 733.4222,117.46527 c -2.9426,6.6101 -7.9265,12.3841 -14.672,16.27862 m -30.54453,2.37159 c -7.30463,-2.81707 -13.73001,-8.0574 -17.94933,-15.36548 m 12.99389,-48.49388 c 13.84857,-7.99546 30.84497,-5.59979 41.96077,4.76785" color="#000" display="inline" enable-background="new" overflow="visible" visibility="visible" style="marker:none"/><text id="text4040" x="698.19" y="97.819" fill="#eeeeec" fill-opacity="1" stroke="none" font-family="Cantarell" font-size="9.464" font-stretch="normal" font-style="normal" font-variant="normal" font-weight="bold" letter-spacing="0" transform="scale(0.95993767,1.0417343)" word-spacing="0" xml:space="preserve" style="line-height:125%;-inkscape-font-specification:Cantarell Bold"><tspan id="tspan4042" x="698.19" y="97.819">C<tspan style="-inkscape-font-specification:Cantarell Bold" id="tspan4044" fill="#eeeeec" font-size="7.571" font-weight="bold">OLOR</tspan>V<tspan style="-inkscape-font-specification:Cantarell Bold" id="tspan4050" fill="#eeeeec" font-size="7.571" font-weight="bold">ERSION</tspan></tspan></text><text id="text4054" x="742.103" y="98.493" fill="#eeeeec" fill-opacity="1" stroke="none" font-family="Cantarell" font-size="7.229" font-stretch="normal" font-style="normal" font-variant="normal" font-weight="bold" letter-spacing="0" transform="scale(0.9036066,1.1066763)" word-spacing="0" xml:space="preserve" style="line-height:125%;-inkscape-font-specification:Cantarell Bold"><tspan id="tspan4056" x="742.103" y="98.493">hughsiecolor</tspan></text><rect id="rect4058" width="19" height="4" x="712" y="105" fill="#eeeeec" fill-opacity="1" fill-rule="nonzero" stroke="none" stroke-width="2" color="#000" display="inline" enable-background="new" overflow="visible" visibility="visible" style="marker:none"/><rect id="rect4058-8" width="60" height=".563" x="671" y="110.438" fill="#eeeeec" fill-opacity="1" fill-rule="nonzero" stroke="none" stroke-width="2" color="#000" display="inline" enable-background="new" overflow="visible" visibility="visible" style="marker:none"/></g></svg>