<svg xmlns="http://www.w3.org/2000/svg" xmlns:svg="http://www.w3.org/2000/svg" xmlns:xlink="http://www.w3.org/1999/xlink" id="svg6576" width="1500" height="1400" version="1.1"><defs id="defs6578"><marker id="TriangleInL" orient="auto" overflow="visible" refX="0" refY="0"><path id="path5319" fill-rule="evenodd" stroke="#000" stroke-width="1pt" d="m 5.77,0 -8.65,5 0,-10 8.65,5 z" transform="scale(-0.8,-0.8)"/></marker><marker id="TriangleOutL" orient="auto" overflow="visible" refX="0" refY="0"><path id="path11307" fill-rule="evenodd" stroke="#000" stroke-width="1pt" d="m 5.77,0 -8.65,5 0,-10 8.65,5 z" transform="scale(0.8,0.8)"/></marker><linearGradient id="linearGradient7536"><stop id="stop7538" offset="0" stop-color="#fff" stop-opacity="1"/><stop id="stop7540" offset="1" stop-color="#fff" stop-opacity="0"/></linearGradient><linearGradient id="linearGradient8542" x1="370.459" x2="370.459" y1="310.597" y2="334.421" gradientTransform="matrix(1,0,0,1.2592592,-0.45874052,-38.760552)" gradientUnits="userSpaceOnUse" xlink:href="#linearGradient7536"/><mask id="mask8538" maskUnits="userSpaceOnUse"><rect id="rect8540" width="890" height="340" x="9.541" y="52.362" fill="url(#linearGradient8542)" fill-opacity="1" stroke="none"/></mask><linearGradient id="linearGradient8690" x1="370.459" x2="370.459" y1="280.054" y2="307.747" gradientTransform="matrix(1,0,0,1.4444444,-0.45868028,507.83905)" gradientUnits="userSpaceOnUse" xlink:href="#linearGradient7536"/><linearGradient id="linearGradient9201" x1="370" x2="370" y1="292.362" y2="322.362" gradientTransform="matrix(1,0,0,0.61111111,0,1203.1408)" gradientUnits="userSpaceOnUse" xlink:href="#linearGradient7536"/><mask id="mask9197" maskUnits="userSpaceOnUse"><rect id="rect9199" width="890" height="165" x="10" y="1247.362" fill="url(#linearGradient9201)" fill-opacity="1" stroke="none"/></mask><linearGradient id="linearGradient11116" x1="370" x2="370" y1="292.362" y2="322.362" gradientTransform="translate(19.082633,-2018)" gradientUnits="userSpaceOnUse" xlink:href="#linearGradient7536"/><linearGradient id="linearGradient12118" x1="370.459" x2="370.459" y1="280.054" y2="307.747" gradientTransform="matrix(1,0,0,1.4444444,19.54132,-609.16095)" gradientUnits="userSpaceOnUse" xlink:href="#linearGradient7536"/><linearGradient id="linearGradient12122" x1="370.459" x2="370.459" y1="280.054" y2="307.747" gradientTransform="matrix(1,0,0,1.4444444,19.541351,-91.16095)" gradientUnits="userSpaceOnUse" xlink:href="#linearGradient7536"/><linearGradient id="linearGradient12128" x1="370.459" x2="370.459" y1="280.054" y2="307.747" gradientTransform="matrix(1,0,0,1.4444444,-0.45868,507.83905)" gradientUnits="userSpaceOnUse" xlink:href="#linearGradient7536"/><mask id="mask12124" maskUnits="userSpaceOnUse"><rect id="rect12126" width="890" height="390" x="9.541" y="612.362" fill="url(#linearGradient12128)" fill-opacity="1" stroke="none"/></mask><linearGradient id="linearGradient12165" x1="370.459" x2="370.459" y1="280.054" y2="307.747" gradientTransform="matrix(1,0,0,1.4444444,19.541351,-91.16095)" gradientUnits="userSpaceOnUse" xlink:href="#linearGradient7536"/><linearGradient id="linearGradient12168" x1="370.459" x2="370.459" y1="280.054" y2="307.055" gradientTransform="matrix(1,0,0,1.4444444,19.54135,-91.16095)" gradientUnits="userSpaceOnUse" xlink:href="#linearGradient7536"/><linearGradient id="linearGradient12225" x1="370.459" x2="370.459" y1="280.054" y2="307.055" gradientTransform="matrix(1.9649597,0,0,2.7917459,-1625.5165,-551.29916)" gradientUnits="userSpaceOnUse" xlink:href="#linearGradient7536"/><mask id="mask12221" maskUnits="userSpaceOnUse"><rect id="rect12223" width="1748.814" height="753.771" x="-1605.867" y="-349.282" fill="url(#linearGradient12225)" fill-opacity="1" stroke="none"/></mask><linearGradient id="linearGradient12231" x1="370.459" x2="370.459" y1="280.054" y2="307.055" gradientTransform="matrix(1.9649597,0,0,2.7917459,-1625.5165,-369.62092)" gradientUnits="userSpaceOnUse" xlink:href="#linearGradient7536"/><mask id="mask12227" maskUnits="userSpaceOnUse"><rect id="rect12229" width="1748.814" height="753.771" x="-1605.867" y="-167.604" fill="url(#linearGradient12231)" fill-opacity="1" stroke="none"/></mask><linearGradient id="linearGradient12237" x1="370.459" x2="370.459" y1="280.054" y2="307.055" gradientTransform="matrix(1.9649597,0,0,2.7917459,-1625.5165,-187.94268)" gradientUnits="userSpaceOnUse" xlink:href="#linearGradient7536"/><mask id="mask12233" maskUnits="userSpaceOnUse"><rect id="rect12235" width="1748.814" height="753.771" x="-1605.867" y="14.074" fill="url(#linearGradient12237)" fill-opacity="1" stroke="none"/></mask><linearGradient id="linearGradient7585" x1="370" x2="370" y1="292.362" y2="322.362" gradientTransform="translate(1482.5826,-162)" gradientUnits="userSpaceOnUse" xlink:href="#linearGradient7536"/><mask id="mask7581" maskUnits="userSpaceOnUse"><rect id="rect7583" width="890" height="270" x="1492.583" y="-89.638" fill="url(#linearGradient7585)" fill-opacity="1" stroke="none"/></mask><linearGradient id="linearGradient9872" x1="370" x2="370" y1="292.362" y2="322.362" gradientTransform="translate(1490.0001,680.00006)" gradientUnits="userSpaceOnUse" xlink:href="#linearGradient7536"/><mask id="mask9868" maskUnits="userSpaceOnUse"><rect id="rect9870" width="890" height="270" x="1500" y="752.362" fill="url(#linearGradient9872)" fill-opacity="1" stroke="none"/></mask><linearGradient id="linearGradient9878" x1="370" x2="370" y1="292.362" y2="322.362" gradientTransform="translate(1490.0001,240)" gradientUnits="userSpaceOnUse" xlink:href="#linearGradient7536"/><mask id="mask9874" maskUnits="userSpaceOnUse"><rect id="rect9876" width="890" height="270" x="1500" y="312.362" fill="url(#linearGradient9878)" fill-opacity="1" stroke="none"/></mask></defs><metadata id="metadata6581"/><g id="layer1" transform="translate(0,347.6378)"><rect id="rect4454" width="868.083" height="479" x="120.5" y="-207.138" fill="#eeeeec" fill-opacity="1" stroke="#a7a7a7" stroke-dasharray="none" stroke-dashoffset="0" stroke-linecap="square" stroke-miterlimit="4" stroke-opacity="1" stroke-width="1" mask="none"/><rect id="rect4292" width="868.083" height="437" x="120.5" y="473.862" fill="#eeeeec" fill-opacity="1" stroke="#a7a7a7" stroke-dasharray="none" stroke-dashoffset="0" stroke-linecap="square" stroke-miterlimit="4" stroke-opacity="1" stroke-width="1" mask="none"/><path id="path9207" fill="#e5e6e5" fill-opacity="1" fill-rule="nonzero" stroke="#a7aba7" stroke-dashoffset="0" stroke-linecap="butt" stroke-linejoin="miter" stroke-miterlimit="4" stroke-opacity="1" stroke-width="1" d="m 132.5,385.8622 843.99963,-10e-5 c 6.64801,0 11.81007,5.3547 12,12 l 0,35 -12,0 -843.99963,10e-5 -12,0 0,-35 c 0,-6.648 5.352,-12 12,-12 z" color="#000" display="inline" enable-background="accumulate" filter="url(#filter12000-4-9-2)" overflow="visible" visibility="visible" style="marker:none"/><path id="path9209" fill="none" stroke="#a7a7a7" stroke-linecap="round" stroke-linejoin="miter" stroke-opacity="1" stroke-width="1" d="m 944.50063,392.8625 0,33.0182" display="inline"/><g id="g9211" fill="#fff" fill-opacity="1" display="inline" opacity=".6" transform="translate(958.50223,402.1022)"><g id="g9219" fill="#fff" fill-opacity="1" transform="translate(-60,-518)"><g id="g9221" fill="#fff" fill-opacity="1" display="inline" transform="translate(19,-242)"><path id="path9223" fill="#fff" fill-opacity="1" fill-rule="nonzero" stroke="none" stroke-width="1.781" d="m 45,764 1,0 c 0.01037,-1.2e-4 0.02079,-4.6e-4 0.03125,0 0.254951,0.0112 0.50987,0.12858 0.6875,0.3125 L 49,766.59375 51.3125,764.3125 C 51.578125,764.082 51.759172,764.007 52,764 l 1,0 0,1 c 0,0.28647 -0.03434,0.55065 -0.25,0.75 l -2.28125,2.28125 2.25,2.25 C 52.906938,770.46942 52.999992,770.7347 53,771 l 0,1 -1,0 c -0.265301,-10e-6 -0.530586,-0.0931 -0.71875,-0.28125 L 49,769.4375 46.71875,771.71875 C 46.530586,771.90694 46.26529,772 46,772 l -1,0 0,-1 c -3e-6,-0.26529 0.09306,-0.53058 0.28125,-0.71875 l 2.28125,-2.25 L 45.28125,765.75 C 45.070508,765.55537 44.97809,765.28075 45,765 l 0,-1 z" color="#bebebe" direction="ltr" display="inline" enable-background="new" font-family="Andale Mono" font-size="medium" font-stretch="normal" font-style="normal" font-variant="normal" font-weight="normal" letter-spacing="normal" overflow="visible" text-anchor="start" text-decoration="none" visibility="visible" word-spacing="normal" writing-mode="lr-tb" style="text-indent:0;text-align:start;line-height:normal;text-transform:none;block-progression:tb;marker:none;-inkscape-font-specification:Andale Mono"/></g></g></g><g id="g9231" fill="#888a85" display="inline" transform="translate(958.50223,401.102)"><g id="g9239" fill="#888a85" transform="translate(-60,-518)"><g id="g9241" fill="#888a85" display="inline" transform="translate(19,-242)"><path id="path9243" fill="#888a85" fill-opacity="1" fill-rule="nonzero" stroke="none" stroke-width="1.781" d="m 45,764 1,0 c 0.01037,-1.2e-4 0.02079,-4.6e-4 0.03125,0 0.254951,0.0112 0.50987,0.12858 0.6875,0.3125 L 49,766.59375 51.3125,764.3125 C 51.578125,764.082 51.759172,764.007 52,764 l 1,0 0,1 c 0,0.28647 -0.03434,0.55065 -0.25,0.75 l -2.28125,2.28125 2.25,2.25 C 52.906938,770.46942 52.999992,770.7347 53,771 l 0,1 -1,0 c -0.265301,-10e-6 -0.530586,-0.0931 -0.71875,-0.28125 L 49,769.4375 46.71875,771.71875 C 46.530586,771.90694 46.26529,772 46,772 l -1,0 0,-1 c -3e-6,-0.26529 0.09306,-0.53058 0.28125,-0.71875 l 2.28125,-2.25 L 45.28125,765.75 C 45.070508,765.55537 44.97809,765.28075 45,765 l 0,-1 z" color="#bebebe" direction="ltr" display="inline" enable-background="new" font-family="Andale Mono" font-size="medium" font-stretch="normal" font-style="normal" font-variant="normal" font-weight="normal" letter-spacing="normal" overflow="visible" text-anchor="start" text-decoration="none" visibility="visible" word-spacing="normal" writing-mode="lr-tb" style="text-indent:0;text-align:start;line-height:normal;text-transform:none;block-progression:tb;marker:none;-inkscape-font-specification:Andale Mono"/></g></g></g><rect id="rect9281" width="868.007" height="41.007" x="120.497" y="432.859" fill="#d3d7cf" fill-opacity="1" fill-rule="nonzero" stroke="#b4b4b4" stroke-opacity="1" stroke-width=".993" clip-path="none" color="#bebebe" display="inline" enable-background="accumulate" overflow="visible" rx="0" ry="0" visibility="visible" style="marker:none"/><rect id="rect9508" width="299" height="31" x="405" y="437.862" fill="#fff" fill-opacity="1" fill-rule="nonzero" stroke="#729fcf" stroke-dasharray="none" stroke-miterlimit="4" stroke-opacity="1" stroke-width="1" color="#000" display="inline" enable-background="new" overflow="visible" rx="3.804" ry="3.804" visibility="visible" style="marker:none"/><g id="g9560" fill="#babdb6" transform="translate(412.43965,444.5978)"><g id="g9568" fill="#babdb6" transform="translate(-140.0002,-645.96875)"><path id="path9570" fill="#babdb6" fill-opacity="1" stroke="none" stroke-width="1.555" d="m 146.50761,646.99554 c -3.02886,0 -5.51073,2.47905 -5.51073,5.50447 0,3.02541 2.48187,5.50446 5.51073,5.50446 3.02885,0 5.51072,-2.47905 5.51072,-5.50446 0,-3.02542 -2.48187,-5.50447 -5.51072,-5.50447 z m 0,2.00893 c 1.94735,0 3.49951,1.55039 3.49951,3.49554 0,1.94514 -1.55216,3.49553 -3.49951,3.49553 -1.94736,0 -3.49952,-1.55039 -3.49952,-3.49553 0,-1.94515 1.55216,-3.49554 3.49952,-3.49554 z" baseline-shift="baseline" color="#000" direction="ltr" display="inline" enable-background="new" font-family="Sans" font-size="medium" font-stretch="normal" font-style="normal" font-variant="normal" font-weight="normal" letter-spacing="normal" overflow="visible" text-anchor="start" text-decoration="none" visibility="visible" word-spacing="normal" writing-mode="lr-tb" style="text-indent:0;text-align:start;line-height:normal;text-transform:none;block-progression:tb;marker:none;-inkscape-font-specification:Sans"/><path id="path9572" fill="#babdb6" fill-opacity="1" stroke="none" stroke-width="2" d="m 149.8125,655 a 1.0001,1.0001 0 0 0 -0.5,1.71875 l 4,4 a 1.0054782,1.0054782 0 1 0 1.40625,-1.4375 l -4,-4 A 1.0001,1.0001 0 0 0 149.8125,655 z" baseline-shift="baseline" color="#000" direction="ltr" display="inline" enable-background="new" font-family="Sans" font-size="medium" font-stretch="normal" font-style="normal" font-variant="normal" font-weight="normal" letter-spacing="normal" overflow="visible" text-anchor="start" text-decoration="none" visibility="visible" word-spacing="normal" writing-mode="lr-tb" style="text-indent:0;text-align:start;line-height:normal;text-transform:none;block-progression:tb;marker:none;-inkscape-font-specification:Sans"/></g></g><path id="path10909" fill="#e5e6e5" fill-opacity="1" fill-rule="nonzero" stroke="#a7aba7" stroke-dashoffset="0" stroke-linecap="butt" stroke-linejoin="miter" stroke-miterlimit="4" stroke-opacity="1" stroke-width="1" d="m 132.5,-254.1378 843.99963,-1e-4 c 6.64801,0 11.81007,5.3547 12,12 l 0,35 -12,0 -843.99963,1e-4 -12,0 0,-35 c 0,-6.648 5.352,-12 12,-12 z" color="#000" display="inline" enable-background="accumulate" filter="url(#filter12000-4-9-2)" overflow="visible" visibility="visible" style="marker:none"/><path id="path10911" fill="none" stroke="#a7a7a7" stroke-linecap="round" stroke-linejoin="miter" stroke-opacity="1" stroke-width="1" d="m 944.50063,-247.1375 0,33.0182" display="inline"/><g id="g10913" fill="#fff" fill-opacity="1" display="inline" opacity=".6" transform="translate(958.50223,-237.8978)"><g id="g10921" fill="#fff" fill-opacity="1" transform="translate(-60,-518)"><g id="g10923" fill="#fff" fill-opacity="1" display="inline" transform="translate(19,-242)"><path id="path10925" fill="#fff" fill-opacity="1" fill-rule="nonzero" stroke="none" stroke-width="1.781" d="m 45,764 1,0 c 0.01037,-1.2e-4 0.02079,-4.6e-4 0.03125,0 0.254951,0.0112 0.50987,0.12858 0.6875,0.3125 L 49,766.59375 51.3125,764.3125 C 51.578125,764.082 51.759172,764.007 52,764 l 1,0 0,1 c 0,0.28647 -0.03434,0.55065 -0.25,0.75 l -2.28125,2.28125 2.25,2.25 C 52.906938,770.46942 52.999992,770.7347 53,771 l 0,1 -1,0 c -0.265301,-10e-6 -0.530586,-0.0931 -0.71875,-0.28125 L 49,769.4375 46.71875,771.71875 C 46.530586,771.90694 46.26529,772 46,772 l -1,0 0,-1 c -3e-6,-0.26529 0.09306,-0.53058 0.28125,-0.71875 l 2.28125,-2.25 L 45.28125,765.75 C 45.070508,765.55537 44.97809,765.28075 45,765 l 0,-1 z" color="#bebebe" direction="ltr" display="inline" enable-background="new" font-family="Andale Mono" font-size="medium" font-stretch="normal" font-style="normal" font-variant="normal" font-weight="normal" letter-spacing="normal" overflow="visible" text-anchor="start" text-decoration="none" visibility="visible" word-spacing="normal" writing-mode="lr-tb" style="text-indent:0;text-align:start;line-height:normal;text-transform:none;block-progression:tb;marker:none;-inkscape-font-specification:Andale Mono"/></g></g></g><g id="g10933" fill="#888a85" display="inline" transform="translate(958.50223,-238.898)"><g id="g10941" fill="#888a85" transform="translate(-60,-518)"><g id="g10943" fill="#888a85" display="inline" transform="translate(19,-242)"><path id="path10945" fill="#888a85" fill-opacity="1" fill-rule="nonzero" stroke="none" stroke-width="1.781" d="m 45,764 1,0 c 0.01037,-1.2e-4 0.02079,-4.6e-4 0.03125,0 0.254951,0.0112 0.50987,0.12858 0.6875,0.3125 L 49,766.59375 51.3125,764.3125 C 51.578125,764.082 51.759172,764.007 52,764 l 1,0 0,1 c 0,0.28647 -0.03434,0.55065 -0.25,0.75 l -2.28125,2.28125 2.25,2.25 C 52.906938,770.46942 52.999992,770.7347 53,771 l 0,1 -1,0 c -0.265301,-10e-6 -0.530586,-0.0931 -0.71875,-0.28125 L 49,769.4375 46.71875,771.71875 C 46.530586,771.90694 46.26529,772 46,772 l -1,0 0,-1 c -3e-6,-0.26529 0.09306,-0.53058 0.28125,-0.71875 l 2.28125,-2.25 L 45.28125,765.75 C 45.070508,765.55537 44.97809,765.28075 45,765 l 0,-1 z" color="#bebebe" direction="ltr" display="inline" enable-background="new" font-family="Andale Mono" font-size="medium" font-stretch="normal" font-style="normal" font-variant="normal" font-weight="normal" letter-spacing="normal" overflow="visible" text-anchor="start" text-decoration="none" visibility="visible" word-spacing="normal" writing-mode="lr-tb" style="text-indent:0;text-align:start;line-height:normal;text-transform:none;block-progression:tb;marker:none;-inkscape-font-specification:Andale Mono"/></g></g></g><rect id="rect10977" width="33" height="33" x="904.5" y="-247.138" fill="#d3d7cf" fill-opacity="1" fill-rule="nonzero" stroke="#a7a7a7" stroke-dasharray="none" stroke-dashoffset="0" stroke-linecap="butt" stroke-linejoin="miter" stroke-miterlimit="4" stroke-opacity="1" stroke-width="1" color="#000" display="inline" enable-background="accumulate" overflow="visible" rx="3" ry="3" visibility="visible" style="marker:none"/><g id="g10979" fill="#2e3436" transform="translate(912.99074,-238.6696)"><g id="g10987" fill="#2e3436" transform="translate(-140.0002,-645.96875)"><path id="path10989" fill="#2e3436" fill-opacity="1" stroke="none" stroke-width="1.555" d="m 146.50761,646.99554 c -3.02886,0 -5.51073,2.47905 -5.51073,5.50447 0,3.02541 2.48187,5.50446 5.51073,5.50446 3.02885,0 5.51072,-2.47905 5.51072,-5.50446 0,-3.02542 -2.48187,-5.50447 -5.51072,-5.50447 z m 0,2.00893 c 1.94735,0 3.49951,1.55039 3.49951,3.49554 0,1.94514 -1.55216,3.49553 -3.49951,3.49553 -1.94736,0 -3.49952,-1.55039 -3.49952,-3.49553 0,-1.94515 1.55216,-3.49554 3.49952,-3.49554 z" baseline-shift="baseline" color="#000" direction="ltr" display="inline" enable-background="new" font-family="Sans" font-size="medium" font-stretch="normal" font-style="normal" font-variant="normal" font-weight="normal" letter-spacing="normal" overflow="visible" text-anchor="start" text-decoration="none" visibility="visible" word-spacing="normal" writing-mode="lr-tb" style="text-indent:0;text-align:start;line-height:normal;text-transform:none;block-progression:tb;marker:none;-inkscape-font-specification:Sans"/><path id="path10991" fill="#2e3436" fill-opacity="1" stroke="none" stroke-width="2" d="m 149.8125,655 a 1.0001,1.0001 0 0 0 -0.5,1.71875 l 4,4 a 1.0054782,1.0054782 0 1 0 1.40625,-1.4375 l -4,-4 A 1.0001,1.0001 0 0 0 149.8125,655 z" baseline-shift="baseline" color="#000" direction="ltr" display="inline" enable-background="new" font-family="Sans" font-size="medium" font-stretch="normal" font-style="normal" font-variant="normal" font-weight="normal" letter-spacing="normal" overflow="visible" text-anchor="start" text-decoration="none" visibility="visible" word-spacing="normal" writing-mode="lr-tb" style="text-indent:0;text-align:start;line-height:normal;text-transform:none;block-progression:tb;marker:none;-inkscape-font-specification:Sans"/></g></g><rect id="rect10955" width="298.5" height="33" x="405.25" y="-247.138" fill="#d3d7cf" fill-opacity="1" fill-rule="nonzero" stroke="#a7a7a7" stroke-dasharray="none" stroke-dashoffset="0" stroke-linecap="butt" stroke-linejoin="miter" stroke-miterlimit="4" stroke-opacity="1" stroke-width="1" color="#000" display="inline" enable-background="accumulate" overflow="visible" rx="3" ry="3" visibility="visible" style="marker:none"/><text id="text10957" x="554.753" y="-225.85" fill="#2e3436" fill-opacity="1" stroke="none" font-family="Cantarell" font-size="14" font-stretch="normal" font-style="normal" font-variant="normal" font-weight="normal" letter-spacing="0" text-anchor="middle" word-spacing="0" xml:space="preserve" style="text-align:center;line-height:125%;-inkscape-font-specification:Cantarell"><tspan id="tspan10959" x="554.753" y="-225.85">Certificates</tspan></text><text font-stretch="normal" style="text-align:center;line-height:125%;-inkscape-font-specification:Cantarell" id="text10961" x="653.972" y="-225.85" fill="#2e3436" fill-opacity="1" stroke="none" font-family="Cantarell" font-size="14" font-style="normal" font-variant="normal" font-weight="normal" letter-spacing="0" text-anchor="middle" word-spacing="0" xml:space="preserve"><tspan id="tspan10963" x="653.972" y="-225.85">Keys</tspan></text><path id="path10969" fill="none" stroke="#a7a7a7" stroke-linecap="round" stroke-linejoin="miter" stroke-opacity="1" stroke-width="1" d="m 504.74981,-247.1469 0,33.0182" display="inline"/><path id="path10971" fill="none" stroke="#a7a7a7" stroke-linecap="round" stroke-linejoin="miter" stroke-opacity="1" stroke-width="1" d="m 604.24981,-247.1469 0,33.0182" display="inline"/><path id="path11067" fill="#babdb6" fill-opacity="1" fill-rule="nonzero" stroke="#a7a7a7" stroke-dashoffset="0" stroke-linecap="butt" stroke-linejoin="miter" stroke-miterlimit="4" stroke-opacity="1" stroke-width="1" d="m 408.24981,-247.1378 96.5,0 0,3 0,27 0,3 -96.5,0 c -1.662,0 -3,-1.338 -3,-3 l 0,-27 c 0,-1.662 1.338,-3 3,-3 z" color="#000" display="inline" enable-background="accumulate" overflow="visible" visibility="visible" style="marker:none"/><text font-stretch="normal" style="text-align:center;line-height:125%;-inkscape-font-specification:Cantarell Bold" id="text11069" x="455.252" y="-225.85" fill="#2e3436" fill-opacity="1" stroke="none" font-family="Cantarell" font-size="14" font-style="normal" font-variant="normal" font-weight="bold" letter-spacing="0" text-anchor="middle" word-spacing="0" xml:space="preserve"><tspan id="tspan11071" x="455.252" y="-225.85">Passwords</tspan></text><path id="path3447" fill="#2e3436" stroke="#2e3436" stroke-linecap="butt" stroke-linejoin="miter" stroke-opacity="1" stroke-width="1" d="m 433.48,442.4872 0,21.75"/><path id="path3991" fill="none" stroke="#d3d7cf" stroke-linecap="butt" stroke-linejoin="miter" stroke-opacity="1" stroke-width="1" d="m 121.54136,-159.1377 865.99987,0"/><path id="path3993" fill="none" stroke="#d3d7cf" stroke-linecap="butt" stroke-linejoin="miter" stroke-opacity="1" stroke-width="1" d="m 121.54136,-111.1377 865.99987,0"/><path id="path3995" fill="none" stroke="#d3d7cf" stroke-linecap="butt" stroke-linejoin="miter" stroke-opacity="1" stroke-width="1" d="m 121.54136,-63.1377 865.99987,0"/><path id="path3997" fill="none" stroke="#d3d7cf" stroke-linecap="butt" stroke-linejoin="miter" stroke-opacity="1" stroke-width="1" d="m 121.54136,-15.1377 865.99987,0"/><path id="path4001" fill="none" stroke="#d3d7cf" stroke-linecap="butt" stroke-linejoin="miter" stroke-opacity="1" stroke-width="1" d="m 121.54136,32.8623 865.99987,0"/><path id="path4003" fill="none" stroke="#d3d7cf" stroke-linecap="butt" stroke-linejoin="miter" stroke-opacity="1" stroke-width="1" d="m 121.54136,80.8623 865.99987,0"/><path id="path4015" fill="none" stroke="#d3d7cf" stroke-linecap="butt" stroke-linejoin="miter" stroke-opacity="1" stroke-width="1" d="m 121.54136,128.8623 865.99987,0"/><path id="path4019" fill="none" stroke="#d3d7cf" stroke-linecap="butt" stroke-linejoin="miter" stroke-opacity="1" stroke-width="1" d="m 121.54136,176.8623 865.99987,0"/><path id="path4021" fill="none" stroke="#d3d7cf" stroke-linecap="butt" stroke-linejoin="miter" stroke-opacity="1" stroke-width="1" d="m 121.54136,224.8623 865.99987,0"/><path id="path4045" fill="none" stroke="#d3d7cf" stroke-linecap="butt" stroke-linejoin="miter" stroke-opacity="1" stroke-width="1" d="m 121.54136,521.8622 865.99987,0"/><path id="path4047" fill="none" stroke="#d3d7cf" stroke-linecap="butt" stroke-linejoin="miter" stroke-opacity="1" stroke-width="1" d="m 121.54136,569.8622 865.99987,0"/><path id="path4049" fill="none" stroke="#d3d7cf" stroke-linecap="butt" stroke-linejoin="miter" stroke-opacity="1" stroke-width="1" d="m 121.54136,617.8622 865.99987,0"/><path id="path4051" fill="none" stroke="#d3d7cf" stroke-linecap="butt" stroke-linejoin="miter" stroke-opacity="1" stroke-width="1" d="m 121.54136,665.8622 865.99987,0"/><path id="path4053" fill="none" stroke="#d3d7cf" stroke-linecap="butt" stroke-linejoin="miter" stroke-opacity="1" stroke-width="1" d="m 121.54136,713.8622 865.99987,0"/><path id="path4056" fill="none" stroke="#d3d7cf" stroke-linecap="butt" stroke-linejoin="miter" stroke-opacity="1" stroke-width="1" d="m 121.54136,761.8622 865.99987,0"/><path id="path4058" fill="none" stroke="#d3d7cf" stroke-linecap="butt" stroke-linejoin="miter" stroke-opacity="1" stroke-width="1" d="m 121.54136,809.8622 865.99987,0"/><path id="path4060" fill="none" stroke="#d3d7cf" stroke-linecap="butt" stroke-linejoin="miter" stroke-opacity="1" stroke-width="1" d="m 121.54136,857.8622 865.99987,0"/><rect stroke-linejoin="miter" style="marker:none" id="rect4084" width="298.5" height="33" x="405.25" y="392.862" fill="#d3d7cf" fill-opacity="1" fill-rule="nonzero" stroke="#a7a7a7" stroke-dasharray="none" stroke-dashoffset="0" stroke-linecap="butt" stroke-miterlimit="4" stroke-opacity="1" stroke-width="1" color="#000" display="inline" enable-background="accumulate" overflow="visible" rx="3" ry="3" visibility="visible"/><text font-stretch="normal" style="text-align:center;line-height:125%;-inkscape-font-specification:Cantarell" id="text4086" x="554.753" y="414.15" fill="#2e3436" fill-opacity="1" stroke="none" font-family="Cantarell" font-size="14" font-style="normal" font-variant="normal" font-weight="normal" letter-spacing="0" text-anchor="middle" word-spacing="0" xml:space="preserve"><tspan id="tspan4088" x="554.753" y="414.15">Certificates</tspan></text><text id="text4090" x="653.972" y="414.15" fill="#2e3436" fill-opacity="1" stroke="none" font-family="Cantarell" font-size="14" font-stretch="normal" font-style="normal" font-variant="normal" font-weight="normal" letter-spacing="0" text-anchor="middle" word-spacing="0" xml:space="preserve" style="text-align:center;line-height:125%;-inkscape-font-specification:Cantarell"><tspan id="tspan4092" x="653.972" y="414.15">Keys</tspan></text><path id="path4094" fill="none" stroke="#a7a7a7" stroke-linecap="round" stroke-linejoin="miter" stroke-opacity="1" stroke-width="1" d="m 504.74981,392.853 0,33.0182" display="inline"/><path id="path4096" fill="none" stroke="#a7a7a7" stroke-linecap="round" stroke-linejoin="miter" stroke-opacity="1" stroke-width="1" d="m 604.24981,392.853 0,33.0182" display="inline"/><path id="path4098" fill="#babdb6" fill-opacity="1" fill-rule="nonzero" stroke="#a7a7a7" stroke-dashoffset="0" stroke-linecap="butt" stroke-linejoin="miter" stroke-miterlimit="4" stroke-opacity="1" stroke-width="1" d="m 408.24981,392.8621 96.5,0 0,3 0,27 0,3 -96.5,0 c -1.662,0 -3,-1.338 -3,-3 l 0,-27 c 0,-1.6619 1.338,-3 3,-3 z" color="#000" display="inline" enable-background="accumulate" overflow="visible" visibility="visible" style="marker:none"/><text id="text4100" x="455.252" y="414.15" fill="#2e3436" fill-opacity="1" stroke="none" font-family="Cantarell" font-size="14" font-stretch="normal" font-style="normal" font-variant="normal" font-weight="bold" letter-spacing="0" text-anchor="middle" word-spacing="0" xml:space="preserve" style="text-align:center;line-height:125%;-inkscape-font-specification:Cantarell Bold"><tspan id="tspan4102" x="455.252" y="414.15">Passwords</tspan></text><path id="path4114" fill="#d3d7cf" fill-opacity="1" fill-rule="nonzero" stroke="#a7a7a7" stroke-dashoffset="0" stroke-linecap="butt" stroke-linejoin="miter" stroke-miterlimit="4" stroke-opacity="1" stroke-width="1" d="m 701,468.8622 -34.5,0 0,-3 0,-25 0,-3 34.5,0 c 1.662,0 3,1.338 3,3 l 0,25 c 0,1.6619 -1.338,3 -3,3 z" color="#000" display="inline" enable-background="accumulate" overflow="visible" visibility="visible" style="marker:none"/><g id="g4215" fill="#2e3436" transform="translate(677.23429,445.3524)"><g id="layer12-0" fill="#2e3436" display="inline" transform="translate(-181.0002,-747)"><path id="path10839-9-9-5-9-1-9" fill="#2e3436" fill-opacity="1" fill-rule="nonzero" stroke="none" stroke-width="1.781" d="m 195.03152,751.00323 0,1.00001 c -9.1e-4,0.0111 5.9e-4,0.021 -9e-5,0.0312 -0.0112,0.25496 -0.12835,0.50994 -0.31251,0.6875 l -5.71875,6.29767 -5.71875,-6.29773 c -0.18821,-0.1881 -0.28121,-0.45346 -0.28122,-0.71875 l 0,-1.00001 1,0 c 0.26531,7e-5 0.53059,0.0931 0.71873,0.28131 l 4.28125,4.82896 4.28127,-4.82896 c 0.19464,-0.21073 0.46925,-0.30315 0.74998,-0.2813 z" color="#bebebe" direction="ltr" display="inline" enable-background="new" font-family="Andale Mono" font-size="medium" font-stretch="normal" font-style="normal" font-variant="normal" font-weight="normal" letter-spacing="normal" overflow="visible" text-anchor="start" text-decoration="none" visibility="visible" word-spacing="normal" writing-mode="lr-tb" style="text-indent:0;text-align:start;line-height:normal;text-transform:none;block-progression:tb;marker:none;-inkscape-font-specification:Andale Mono"/></g></g><path id="rect4227" fill="#2e3436" fill-opacity="1" stroke="#2e3436" stroke-linecap="round" stroke-miterlimit="4" stroke-opacity=".082" stroke-width="1" d="m 1132.5,-207.1377 98.75,0 18.75,-14 18.75,14 98.75,0 c 6.648,0 12,5.352 12,12 l 0,215 c 0,6.648 -5.352,12 -12,12 l -235,0 c -6.648,0 -12,-5.352 -12,-12 l 0,-215 c 0,-6.648 5.352,-12 12,-12 z"/><text id="text5009" x="1149" y="-133.638" fill="#fff" fill-opacity="1" stroke="none" font-family="Cantarell" font-size="14" font-stretch="normal" font-style="normal" font-variant="normal" font-weight="normal" letter-spacing="0" word-spacing="0" xml:space="preserve" style="line-height:153.99999619%;-inkscape-font-specification:Cantarell"><tspan id="tspan5011" x="1149" y="-133.638">Find Remote Keys...</tspan><tspan id="tspan5013" x="1149" y="-112.078">Sync and Publish Keys</tspan></text><text font-stretch="normal" style="line-height:153.99999619%;-inkscape-font-specification:Cantarell" id="text5015" x="1149" y="-73.638" fill="#fff" fill-opacity="1" stroke="none" font-family="Cantarell" font-size="14" font-style="normal" font-variant="normal" font-weight="normal" letter-spacing="0" word-spacing="0" xml:space="preserve"><tspan id="tspan5019" x="1149" y="-73.638">Preferences</tspan></text><text id="text5023" x="1149" y="-173.638" fill="#fff" fill-opacity="1" stroke="none" font-family="Cantarell" font-size="14" font-stretch="normal" font-style="normal" font-variant="normal" font-weight="normal" letter-spacing="0" word-spacing="0" xml:space="preserve" style="line-height:153.99999619%;-inkscape-font-specification:Cantarell"><tspan id="tspan5025" x="1149" y="-173.638">Import...</tspan></text><text font-stretch="normal" style="line-height:153.99999619%;-inkscape-font-specification:Cantarell" id="text5027" x="1149" y="-35.638" fill="#fff" fill-opacity="1" stroke="none" font-family="Cantarell" font-size="14" font-style="normal" font-variant="normal" font-weight="normal" letter-spacing="0" word-spacing="0" xml:space="preserve"><tspan id="tspan5031" x="1149" y="-35.638">About</tspan><tspan id="tspan5035" x="1149" y="-14.078">Help</tspan><tspan id="tspan5037" x="1149" y="7.482">Quit</tspan></text><rect stroke-linejoin="miter" style="marker:none" id="rect5063" width="79" height="33" x="128.5" y="-247.138" fill="#d3d7cf" fill-opacity="1" fill-rule="nonzero" stroke="#a7a7a7" stroke-dasharray="none" stroke-dashoffset="0" stroke-linecap="butt" stroke-miterlimit="4" stroke-opacity="1" stroke-width="1" color="#000" display="inline" enable-background="accumulate" overflow="visible" rx="3" ry="3" visibility="visible"/><text font-stretch="normal" style="text-align:center;line-height:125%;-inkscape-font-specification:Cantarell" id="text5097" x="167.597" y="-225.85" fill="#2e3436" fill-opacity="1" stroke="none" font-family="Cantarell" font-size="14" font-style="normal" font-variant="normal" font-weight="normal" letter-spacing="0" text-anchor="middle" word-spacing="0" xml:space="preserve"><tspan id="tspan5099" x="167.597" y="-225.85">New</tspan></text><g id="g5107" transform="translate(0,2639.9999)"><rect stroke-linejoin="miter" style="marker:none" id="rect5101" width="79" height="33" x="128.5" y="-2247.138" fill="#d3d7cf" fill-opacity="1" fill-rule="nonzero" stroke="#a7a7a7" stroke-dasharray="none" stroke-dashoffset="0" stroke-linecap="butt" stroke-miterlimit="4" stroke-opacity="1" stroke-width="1" color="#000" display="inline" enable-background="accumulate" overflow="visible" rx="3" ry="3" visibility="visible"/><text font-stretch="normal" style="text-align:center;line-height:125%;-inkscape-font-specification:Cantarell" id="text5103" x="167.597" y="-2225.85" fill="#2e3436" fill-opacity="1" stroke="none" font-family="Cantarell" font-size="14" font-style="normal" font-variant="normal" font-weight="normal" letter-spacing="0" text-anchor="middle" word-spacing="0" xml:space="preserve"><tspan id="tspan5105" x="167.597" y="-2225.85">New</tspan></text></g><rect stroke-linejoin="miter" style="marker:none" id="rect5112" width="33" height="33" x="904.5" y="392.862" fill="#babdb6" fill-opacity="1" fill-rule="nonzero" stroke="#a7a7a7" stroke-dasharray="none" stroke-dashoffset="0" stroke-linecap="butt" stroke-miterlimit="4" stroke-opacity="1" stroke-width="1" color="#000" display="inline" enable-background="accumulate" overflow="visible" rx="3" ry="3" visibility="visible"/><g id="g5114" fill="#2e3436" transform="translate(912.99074,401.3302)"><g id="g5122" fill="#2e3436" transform="translate(-140.0002,-645.96875)"><path id="path5124" fill="#2e3436" fill-opacity="1" stroke="none" stroke-width="1.555" d="m 146.50761,646.99554 c -3.02886,0 -5.51073,2.47905 -5.51073,5.50447 0,3.02541 2.48187,5.50446 5.51073,5.50446 3.02885,0 5.51072,-2.47905 5.51072,-5.50446 0,-3.02542 -2.48187,-5.50447 -5.51072,-5.50447 z m 0,2.00893 c 1.94735,0 3.49951,1.55039 3.49951,3.49554 0,1.94514 -1.55216,3.49553 -3.49951,3.49553 -1.94736,0 -3.49952,-1.55039 -3.49952,-3.49553 0,-1.94515 1.55216,-3.49554 3.49952,-3.49554 z" baseline-shift="baseline" color="#000" direction="ltr" display="inline" enable-background="new" font-family="Sans" font-size="medium" font-stretch="normal" font-style="normal" font-variant="normal" font-weight="normal" letter-spacing="normal" overflow="visible" text-anchor="start" text-decoration="none" visibility="visible" word-spacing="normal" writing-mode="lr-tb" style="text-indent:0;text-align:start;line-height:normal;text-transform:none;block-progression:tb;marker:none;-inkscape-font-specification:Sans"/><path id="path5126" fill="#2e3436" fill-opacity="1" stroke="none" stroke-width="2" d="m 149.8125,655 a 1.0001,1.0001 0 0 0 -0.5,1.71875 l 4,4 a 1.0054782,1.0054782 0 1 0 1.40625,-1.4375 l -4,-4 A 1.0001,1.0001 0 0 0 149.8125,655 z" baseline-shift="baseline" color="#000" direction="ltr" display="inline" enable-background="new" font-family="Sans" font-size="medium" font-stretch="normal" font-style="normal" font-variant="normal" font-weight="normal" letter-spacing="normal" overflow="visible" text-anchor="start" text-decoration="none" visibility="visible" word-spacing="normal" writing-mode="lr-tb" style="text-indent:0;text-align:start;line-height:normal;text-transform:none;block-progression:tb;marker:none;-inkscape-font-specification:Sans"/></g></g><g id="g5176" transform="translate(-511.75,1905)"><path id="rect5039" fill="#eeeeec" fill-opacity="1" stroke="#babdb6" stroke-linecap="round" stroke-miterlimit="4" stroke-opacity="1" stroke-width="1" d="m 1130.5,-1427.1378 53.25,0 13.25,-12 13.25,12 53.25,0 c 3.324,0 6,2.676 6,6 l 0,87.0001 c 0,3.324 -2.676,6 -6,6 l -133,0 c -3.324,0 -6,-2.676 -6,-6 l 0,-87.0001 c 0,-3.324 2.676,-6 6,-6 z"/><text font-stretch="normal" style="line-height:158.00000429%;-inkscape-font-specification:Cantarell" id="text5055" x="1153" y="-1395.638" fill="#2e3436" fill-opacity="1" stroke="none" font-family="Cantarell" font-size="14" font-style="normal" font-variant="normal" font-weight="normal" letter-spacing="0" word-spacing="0" xml:space="preserve"><tspan id="tspan5061" x="1153" y="-1395.638">All</tspan><tspan id="tspan5169" x="1153" y="-1373.518">Personal</tspan><tspan id="tspan5167" x="1153" y="-1351.398">Trusted</tspan></text><path id="path5173" fill="#2e3436" fill-opacity="1" stroke="#2e3436" stroke-dasharray="none" stroke-linecap="round" stroke-miterlimit="4" stroke-opacity=".082" stroke-width=".583" d="m 1141.2704,951.99634 c 0,1.36683 -0.554,2.47487 -1.2374,2.47487 -0.6835,0 -1.2375,-1.10804 -1.2375,-2.47487 0,-1.36684 0.554,-2.47488 1.2375,-2.47488 0.6834,0 1.2374,1.10804 1.2374,2.47488 z" transform="matrix(2.4243661,0,0,1.212183,-1622.0616,-2554.5353)"/></g></g></svg>