<svg xmlns="http://www.w3.org/2000/svg" xmlns:svg="http://www.w3.org/2000/svg" xmlns:xlink="http://www.w3.org/1999/xlink" id="svg14682" width="590" height="800" version="1.1"><defs id="defs14684"><linearGradient id="linearGradient14654" x1="49" x2="49" y1="39.502" y2="10.498" gradientTransform="matrix(0.73417721,0,0,1.0645201,937.52532,-1603.6129)" gradientUnits="userSpaceOnUse" xlink:href="#linearGradient60585-4-48-7-9-3"/><linearGradient id="linearGradient60585-4-48-7-9-3"><stop id="stop60587-8-5-8-8-8" offset="0" stop-color="#dbdbdb" stop-opacity="1"/><stop id="stop60589-6-3-3-9-3" offset="1" stop-color="#f7f7f7" stop-opacity="1"/></linearGradient><linearGradient id="linearGradient14584" x1="789.067" x2="860" y1="-510" y2="-510" gradientTransform="matrix(0.24999999,0,0,0.6923077,25,673.90058)" gradientUnits="userSpaceOnUse" xlink:href="#linearGradient13804"/><linearGradient id="linearGradient13804"><stop id="stop13806" offset="0" stop-color="#fff" stop-opacity="1"/><stop id="stop13808" offset="1" stop-color="#fff" stop-opacity="0"/></linearGradient><linearGradient id="linearGradient14582" x1="-1016.372" x2="-1016.372" y1="-554.436" y2="-518.316" gradientTransform="translate(947.389,848.44998)" gradientUnits="userSpaceOnUse" xlink:href="#linearGradient72990-6-8-2-7"/><linearGradient id="linearGradient72990-6-8-2-7"><stop id="stop72992-9-6-8-5" offset="0" stop-color="#ededed" stop-opacity="1"/><stop id="stop72994-5-0-1-0" offset="1" stop-color="#e0e2e0" stop-opacity="1"/></linearGradient><linearGradient id="linearGradient14468" x1="49" x2="49" y1="39.502" y2="10.498" gradientTransform="matrix(0.79746835,0,0,1.0645201,926.92404,-1603.6129)" gradientUnits="userSpaceOnUse" xlink:href="#linearGradient60585-4-48-7-9-3"/><linearGradient id="linearGradient14409" x1="789.067" x2="860" y1="-510" y2="-510" gradientTransform="matrix(0.24999999,0,0,0.6923077,25,553.90058)" gradientUnits="userSpaceOnUse" xlink:href="#linearGradient13804"/><linearGradient id="linearGradient14720"><stop id="stop14722" offset="0" stop-color="#fff" stop-opacity="1"/><stop id="stop14724" offset="1" stop-color="#fff" stop-opacity="0"/></linearGradient><linearGradient id="linearGradient14470" x1="-1016.372" x2="-1016.372" y1="-554.436" y2="-518.316" gradientTransform="translate(947.389,728.44998)" gradientUnits="userSpaceOnUse" xlink:href="#linearGradient72990-6-8-2-7"/><linearGradient id="linearGradient14179" x1="789.067" x2="860" y1="-510" y2="-510" gradientTransform="matrix(0.24999999,0,0,0.6923077,25,913.9006)" gradientUnits="userSpaceOnUse" xlink:href="#linearGradient13804"/><linearGradient id="linearGradient14734"><stop id="stop14736" offset="0" stop-color="#fff" stop-opacity="1"/><stop id="stop14738" offset="1" stop-color="#fff" stop-opacity="0"/></linearGradient><linearGradient id="linearGradient14177" x1="49" x2="49" y1="39.502" y2="10.498" gradientTransform="matrix(0.41772152,0,0,1.0645201,370.53165,528.74928)" gradientUnits="userSpaceOnUse" xlink:href="#linearGradient60585-4-48-7-9-3"/><linearGradient id="linearGradient14076" x1="789.067" x2="860" y1="-510" y2="-510" gradientTransform="matrix(0.24999999,0,0,0.6923077,25,793.90058)" gradientUnits="userSpaceOnUse" xlink:href="#linearGradient13804"/><linearGradient id="linearGradient14748"><stop id="stop14750" offset="0" stop-color="#fff" stop-opacity="1"/><stop id="stop14752" offset="1" stop-color="#fff" stop-opacity="0"/></linearGradient><linearGradient id="linearGradient14074" x1="49" x2="49" y1="39.502" y2="10.498" gradientTransform="matrix(0.41772152,0,0,1.0645201,370.53165,408.74928)" gradientUnits="userSpaceOnUse" xlink:href="#linearGradient60585-4-48-7-9-3"/><linearGradient id="linearGradient14072" x1="-1016.372" x2="-1016.372" y1="-554.436" y2="-518.316" gradientTransform="translate(947.389,968.45)" gradientUnits="userSpaceOnUse" xlink:href="#linearGradient72990-6-8-2-7"/><linearGradient id="linearGradient13830" x1="789.067" x2="860" y1="-510" y2="-510" gradientTransform="matrix(0.24999999,0,0,0.6923077,25,433.90058)" gradientUnits="userSpaceOnUse" xlink:href="#linearGradient13804"/><linearGradient id="linearGradient14769"><stop id="stop14771" offset="0" stop-color="#fff" stop-opacity="1"/><stop id="stop14773" offset="1" stop-color="#fff" stop-opacity="0"/></linearGradient><linearGradient id="linearGradient13678" x1="49" x2="49" y1="39.502" y2="10.498" gradientTransform="matrix(0.41772152,0,0,1.0645201,370.53165,48.74928)" gradientUnits="userSpaceOnUse" xlink:href="#linearGradient60585-4-48-7-9-3"/><linearGradient id="linearGradient13674" x1="-1016.372" x2="-1016.372" y1="-554.436" y2="-518.316" gradientTransform="translate(947.389,608.44998)" gradientUnits="userSpaceOnUse" xlink:href="#linearGradient72990-6-8-2-7"/><linearGradient id="linearGradient14175" x1="-1016.372" x2="-1016.372" y1="-554.436" y2="-518.316" gradientTransform="translate(1547.389,-803.9122)" gradientUnits="userSpaceOnUse" xlink:href="#linearGradient72990-6-8-2-7"/><linearGradient id="linearGradient6906" x1="-1016.372" x2="-1016.372" y1="-554.436" y2="-518.316" gradientTransform="translate(1547.389,-803.9122)" gradientUnits="userSpaceOnUse" xlink:href="#linearGradient72990-6-8-2-7"/><linearGradient id="linearGradient6908" x1="49" x2="49" y1="39.502" y2="10.498" gradientTransform="matrix(0.59449821,0,0,1.0645201,354.8869,648.74928)" gradientUnits="userSpaceOnUse" xlink:href="#linearGradient60585-4-48-7-9-3"/><linearGradient id="linearGradient6910" x1="789.067" x2="860" y1="-510" y2="-510" gradientTransform="matrix(0.24999999,0,0,0.6923077,25,1033.9006)" gradientUnits="userSpaceOnUse" xlink:href="#linearGradient13804"/></defs><metadata id="metadata14687"/><g id="layer1" transform="translate(-80,27.637817)"><rect id="rect14676" width="590" height="710" x="80" y="22.362" fill="#fff" fill-opacity="1" stroke="none" display="inline" rx="3" ry="3"/><g id="g14266" display="inline" transform="translate(-600,1892.3622)"><path id="path14078" fill="url(#linearGradient14175)" fill-opacity="1" fill-rule="nonzero" stroke="#b4b4b4" stroke-opacity="1" stroke-width=".993" d="m 669.49615,-1360.4965 383.00415,-4e-4 c 4.9857,0 9.2984,4.468 8.9994,10 l 0,37 -8.9994,0 -383.00415,4e-4 -8.99951,0 0,-37 c 0,-5.54 4.01378,-10 8.99951,-10 z" color="#bebebe" display="inline" enable-background="accumulate" filter="url(#filter12000-4-9-2)" overflow="visible" visibility="visible" style="marker:none"/><path id="path14114" fill="none" stroke="#a7a7a7" stroke-linecap="round" stroke-linejoin="miter" stroke-opacity="1" stroke-width="1" d="m 1014.5,-1353.4997 0,33.0182" display="inline"/><g id="g14116" fill="#fff" fill-opacity="1" display="inline" opacity=".6" transform="translate(1030.0016,-1344.26)"><g id="g14124" fill="#fff" fill-opacity="1" transform="translate(-60,-518)"><g id="g14126" fill="#fff" fill-opacity="1" display="inline" transform="translate(19,-242)"><path id="path14128" fill="#fff" fill-opacity="1" fill-rule="nonzero" stroke="none" stroke-width="1.781" d="m 45,764 1,0 c 0.01037,-1.2e-4 0.02079,-4.6e-4 0.03125,0 0.254951,0.0112 0.50987,0.12858 0.6875,0.3125 L 49,766.59375 51.3125,764.3125 C 51.578125,764.082 51.759172,764.007 52,764 l 1,0 0,1 c 0,0.28647 -0.03434,0.55065 -0.25,0.75 l -2.28125,2.28125 2.25,2.25 C 52.906938,770.46942 52.999992,770.7347 53,771 l 0,1 -1,0 c -0.265301,-10e-6 -0.530586,-0.0931 -0.71875,-0.28125 L 49,769.4375 46.71875,771.71875 C 46.530586,771.90694 46.26529,772 46,772 l -1,0 0,-1 c -3e-6,-0.26529 0.09306,-0.53058 0.28125,-0.71875 l 2.28125,-2.25 L 45.28125,765.75 C 45.070508,765.55537 44.97809,765.28075 45,765 l 0,-1 z" color="#bebebe" direction="ltr" display="inline" enable-background="new" font-family="Andale Mono" font-size="medium" font-stretch="normal" font-style="normal" font-variant="normal" font-weight="normal" letter-spacing="normal" overflow="visible" text-anchor="start" text-decoration="none" visibility="visible" word-spacing="normal" writing-mode="lr-tb" style="text-indent:0;text-align:start;line-height:normal;text-transform:none;block-progression:tb;marker:none;-inkscape-font-specification:Andale Mono"/></g></g></g><g id="g14136" fill="#888a85" display="inline" transform="translate(1030.0016,-1345.2602)"><g id="g14144" fill="#888a85" transform="translate(-60,-518)"><g id="g14146" fill="#888a85" display="inline" transform="translate(19,-242)"><path id="path14148" fill="#888a85" fill-opacity="1" fill-rule="nonzero" stroke="none" stroke-width="1.781" d="m 45,764 1,0 c 0.01037,-1.2e-4 0.02079,-4.6e-4 0.03125,0 0.254951,0.0112 0.50987,0.12858 0.6875,0.3125 L 49,766.59375 51.3125,764.3125 C 51.578125,764.082 51.759172,764.007 52,764 l 1,0 0,1 c 0,0.28647 -0.03434,0.55065 -0.25,0.75 l -2.28125,2.28125 2.25,2.25 C 52.906938,770.46942 52.999992,770.7347 53,771 l 0,1 -1,0 c -0.265301,-10e-6 -0.530586,-0.0931 -0.71875,-0.28125 L 49,769.4375 46.71875,771.71875 C 46.530586,771.90694 46.26529,772 46,772 l -1,0 0,-1 c -3e-6,-0.26529 0.09306,-0.53058 0.28125,-0.71875 l 2.28125,-2.25 L 45.28125,765.75 C 45.070508,765.55537 44.97809,765.28075 45,765 l 0,-1 z" color="#bebebe" direction="ltr" display="inline" enable-background="new" font-family="Andale Mono" font-size="medium" font-stretch="normal" font-style="normal" font-variant="normal" font-weight="normal" letter-spacing="normal" overflow="visible" text-anchor="start" text-decoration="none" visibility="visible" word-spacing="normal" writing-mode="lr-tb" style="text-indent:0;text-align:start;line-height:normal;text-transform:none;block-progression:tb;marker:none;-inkscape-font-specification:Andale Mono"/></g></g></g></g><path id="path13311" fill="url(#linearGradient13674)" fill-opacity="1" fill-rule="nonzero" stroke="#b4b4b4" stroke-opacity="1" stroke-width=".993" d="m 69.49616,51.86568 383.00414,-4e-4 c 4.9857,0 9.2984,4.468 8.9994,10 l 0,37 -8.9994,0 -383.00414,4e-4 -8.99951,0 0,-37 c 0,-5.54 4.01378,-10 8.99951,-10 z" color="#bebebe" display="inline" enable-background="accumulate" filter="url(#filter12000-4-9-2)" overflow="visible" visibility="visible" style="marker:none"/><rect id="rect13396" width="33" height="31" x="374.5" y="61.862" fill="none" stroke="#fff" stroke-dasharray="none" stroke-dashoffset="0" stroke-linecap="butt" stroke-linejoin="miter" stroke-miterlimit="4" stroke-opacity="1" stroke-width="1" color="#000" display="inline" enable-background="accumulate" opacity=".4" overflow="visible" rx="3" ry="3" visibility="visible" style="marker:none"/><rect id="rect13398" width="33" height="33" x="374.5" y="58.862" fill="url(#linearGradient13678)" fill-opacity="1" fill-rule="nonzero" stroke="#a7a7a7" stroke-dasharray="none" stroke-dashoffset="0" stroke-linecap="butt" stroke-linejoin="miter" stroke-miterlimit="4" stroke-opacity="1" stroke-width="1" color="#000" display="inline" enable-background="accumulate" overflow="visible" rx="3" ry="3" visibility="visible" style="marker:none"/><path id="path13428" fill="none" stroke="#fff" stroke-linecap="round" stroke-linejoin="miter" stroke-opacity="1" stroke-width="1" d="m 377.44536,59.86228 27.05464,0" display="inline" opacity=".5"/><path id="path13576" fill="none" stroke="#a7a7a7" stroke-linecap="round" stroke-linejoin="miter" stroke-opacity="1" stroke-width="1" d="m 414.5,58.86248 0,33.0182" display="inline"/><g id="g13578" fill="#fff" fill-opacity="1" display="inline" opacity=".6" transform="translate(430.0016,68.10218)"><g id="g13586" fill="#fff" fill-opacity="1" transform="translate(-60,-518)"><g id="g13588" fill="#fff" fill-opacity="1" display="inline" transform="translate(19,-242)"><path id="path13590" fill="#fff" fill-opacity="1" fill-rule="nonzero" stroke="none" stroke-width="1.781" d="m 45,764 1,0 c 0.01037,-1.2e-4 0.02079,-4.6e-4 0.03125,0 0.254951,0.0112 0.50987,0.12858 0.6875,0.3125 L 49,766.59375 51.3125,764.3125 C 51.578125,764.082 51.759172,764.007 52,764 l 1,0 0,1 c 0,0.28647 -0.03434,0.55065 -0.25,0.75 l -2.28125,2.28125 2.25,2.25 C 52.906938,770.46942 52.999992,770.7347 53,771 l 0,1 -1,0 c -0.265301,-10e-6 -0.530586,-0.0931 -0.71875,-0.28125 L 49,769.4375 46.71875,771.71875 C 46.530586,771.90694 46.26529,772 46,772 l -1,0 0,-1 c -3e-6,-0.26529 0.09306,-0.53058 0.28125,-0.71875 l 2.28125,-2.25 L 45.28125,765.75 C 45.070508,765.55537 44.97809,765.28075 45,765 l 0,-1 z" color="#bebebe" direction="ltr" display="inline" enable-background="new" font-family="Andale Mono" font-size="medium" font-stretch="normal" font-style="normal" font-variant="normal" font-weight="normal" letter-spacing="normal" overflow="visible" text-anchor="start" text-decoration="none" visibility="visible" word-spacing="normal" writing-mode="lr-tb" style="text-indent:0;text-align:start;line-height:normal;text-transform:none;block-progression:tb;marker:none;-inkscape-font-specification:Andale Mono"/></g></g></g><g id="g13598" fill="#888a85" display="inline" transform="translate(430.0016,67.10198)"><g id="g13606" fill="#888a85" transform="translate(-60,-518)"><g id="g13608" fill="#888a85" display="inline" transform="translate(19,-242)"><path id="path13610" fill="#888a85" fill-opacity="1" fill-rule="nonzero" stroke="none" stroke-width="1.781" d="m 45,764 1,0 c 0.01037,-1.2e-4 0.02079,-4.6e-4 0.03125,0 0.254951,0.0112 0.50987,0.12858 0.6875,0.3125 L 49,766.59375 51.3125,764.3125 C 51.578125,764.082 51.759172,764.007 52,764 l 1,0 0,1 c 0,0.28647 -0.03434,0.55065 -0.25,0.75 l -2.28125,2.28125 2.25,2.25 C 52.906938,770.46942 52.999992,770.7347 53,771 l 0,1 -1,0 c -0.265301,-10e-6 -0.530586,-0.0931 -0.71875,-0.28125 L 49,769.4375 46.71875,771.71875 C 46.530586,771.90694 46.26529,772 46,772 l -1,0 0,-1 c -3e-6,-0.26529 0.09306,-0.53058 0.28125,-0.71875 l 2.28125,-2.25 L 45.28125,765.75 C 45.070508,765.55537 44.97809,765.28075 45,765 l 0,-1 z" color="#bebebe" direction="ltr" display="inline" enable-background="new" font-family="Andale Mono" font-size="medium" font-stretch="normal" font-style="normal" font-variant="normal" font-weight="normal" letter-spacing="normal" overflow="visible" text-anchor="start" text-decoration="none" visibility="visible" word-spacing="normal" writing-mode="lr-tb" style="text-indent:0;text-align:start;line-height:normal;text-transform:none;block-progression:tb;marker:none;-inkscape-font-specification:Andale Mono"/></g></g></g><g id="g13789" fill="#2e3436" display="inline" transform="translate(383.0002,67.36228)"><g id="layer11-3" fill="#2e3436" transform="translate(-42.000198,-510)"><path id="path21187" fill="#2e3436" fill-opacity="1" fill-rule="nonzero" stroke="none" stroke-width="2" d="m 52,342.5 c 0,1.38071 -1.119288,2.5 -2.5,2.5 -1.380712,0 -2.5,-1.11929 -2.5,-2.5 0,-1.38071 1.119288,-2.5 2.5,-2.5 1.380712,0 2.5,1.11929 2.5,2.5 z" color="#bebebe" display="inline" enable-background="accumulate" overflow="visible" transform="translate(-3,171)" visibility="visible" style="marker:none"/><path id="path21193" fill="#2e3436" fill-opacity="1" fill-rule="nonzero" stroke="none" stroke-width="2" d="m 48,517 -3,0 0.0467,-0.68495 C 43.651548,516.36209 43,518.08549 43,519.5 l 0,1.5 6,0 0,-1 1,0 0,-0.5 c 0,-1.5 -0.593143,-3.13176 -1.985069,-3.15605 z" color="#bebebe" display="inline" enable-background="accumulate" overflow="visible" visibility="visible" style="marker:none"/><path id="path21200" fill="#2e3436" fill-opacity="1" fill-rule="nonzero" stroke="none" stroke-width="2" d="m 52,342.5 c 0,1.38071 -1.119288,2.5 -2.5,2.5 -1.380712,0 -2.5,-1.11929 -2.5,-2.5 0,-1.38071 1.119288,-2.5 2.5,-2.5 1.380712,0 2.5,1.11929 2.5,2.5 z" color="#bebebe" display="inline" enable-background="accumulate" overflow="visible" transform="translate(4,175)" visibility="visible" style="marker:none"/><path id="path21202" fill="#2e3436" fill-opacity="1" fill-rule="nonzero" stroke="none" stroke-width="2" d="m 55,521 -3,0 0.0467,-0.68495 C 50.464261,520.3684 50,521.96049 50,523 l 0,2 7,0 0,-2 c 0,-1.04657 -0.217712,-2.62521 -1.985069,-2.65605 z" color="#bebebe" display="inline" enable-background="accumulate" overflow="visible" visibility="visible" style="marker:none"/></g></g><rect id="rect13802" width="190" height="90" x="50" y="32.362" fill="url(#linearGradient13830)" fill-opacity="1" stroke="none" display="inline" rx="3" ry="3"/><text id="text13824" x="367.267" y="80.178" fill="#888a85" fill-opacity="1" stroke="none" display="inline" font-family="Cantarell" font-size="14" font-stretch="normal" font-style="normal" font-variant="normal" font-weight="normal" letter-spacing="0" text-anchor="end" word-spacing="0" xml:space="preserve" style="text-align:end;line-height:125%;-inkscape-font-specification:Cantarell"><tspan id="tspan13826" x="367.267" y="80.178">123</tspan></text><path id="path13976" fill="url(#linearGradient14072)" fill-opacity="1" fill-rule="nonzero" stroke="#b4b4b4" stroke-opacity="1" stroke-width=".993" d="m 69.49616,411.86568 383.00414,-4e-4 c 4.9857,0 9.2984,4.468 8.9994,10 l 0,37 -8.9994,0 -383.00414,4e-4 -8.99951,0 0,-37 c 0,-5.54 4.01378,-10 8.99951,-10 z" color="#bebebe" display="inline" enable-background="accumulate" filter="url(#filter12000-4-9-2)" overflow="visible" visibility="visible" style="marker:none"/><rect id="rect13978" width="33" height="31" x="374.5" y="421.862" fill="none" stroke="#fff" stroke-dasharray="none" stroke-dashoffset="0" stroke-linecap="butt" stroke-linejoin="miter" stroke-miterlimit="4" stroke-opacity="1" stroke-width="1" color="#000" display="inline" enable-background="accumulate" opacity=".4" overflow="visible" rx="3" ry="3" visibility="visible" style="marker:none"/><rect id="rect13980" width="33" height="33" x="374.5" y="418.862" fill="url(#linearGradient14074)" fill-opacity="1" fill-rule="nonzero" stroke="#a7a7a7" stroke-dasharray="none" stroke-dashoffset="0" stroke-linecap="butt" stroke-linejoin="miter" stroke-miterlimit="4" stroke-opacity="1" stroke-width="1" color="#000" display="inline" enable-background="accumulate" overflow="visible" rx="3" ry="3" visibility="visible" style="marker:none"/><path id="path14010" fill="none" stroke="#fff" stroke-linecap="round" stroke-linejoin="miter" stroke-opacity="1" stroke-width="1" d="m 377.44536,419.86228 27.05464,0" display="inline" opacity=".5"/><path id="path14012" fill="none" stroke="#a7a7a7" stroke-linecap="round" stroke-linejoin="miter" stroke-opacity="1" stroke-width="1" d="m 414.5,418.86248 0,33.0182" display="inline"/><g id="g14014" fill="#fff" fill-opacity="1" display="inline" opacity=".6" transform="translate(430.0016,428.10218)"><g id="g14022" fill="#fff" fill-opacity="1" transform="translate(-60,-518)"><g id="g14024" fill="#fff" fill-opacity="1" display="inline" transform="translate(19,-242)"><path id="path14026" fill="#fff" fill-opacity="1" fill-rule="nonzero" stroke="none" stroke-width="1.781" d="m 45,764 1,0 c 0.01037,-1.2e-4 0.02079,-4.6e-4 0.03125,0 0.254951,0.0112 0.50987,0.12858 0.6875,0.3125 L 49,766.59375 51.3125,764.3125 C 51.578125,764.082 51.759172,764.007 52,764 l 1,0 0,1 c 0,0.28647 -0.03434,0.55065 -0.25,0.75 l -2.28125,2.28125 2.25,2.25 C 52.906938,770.46942 52.999992,770.7347 53,771 l 0,1 -1,0 c -0.265301,-10e-6 -0.530586,-0.0931 -0.71875,-0.28125 L 49,769.4375 46.71875,771.71875 C 46.530586,771.90694 46.26529,772 46,772 l -1,0 0,-1 c -3e-6,-0.26529 0.09306,-0.53058 0.28125,-0.71875 l 2.28125,-2.25 L 45.28125,765.75 C 45.070508,765.55537 44.97809,765.28075 45,765 l 0,-1 z" color="#bebebe" direction="ltr" display="inline" enable-background="new" font-family="Andale Mono" font-size="medium" font-stretch="normal" font-style="normal" font-variant="normal" font-weight="normal" letter-spacing="normal" overflow="visible" text-anchor="start" text-decoration="none" visibility="visible" word-spacing="normal" writing-mode="lr-tb" style="text-indent:0;text-align:start;line-height:normal;text-transform:none;block-progression:tb;marker:none;-inkscape-font-specification:Andale Mono"/></g></g></g><g id="g14034" fill="#888a85" display="inline" transform="translate(430.0016,427.10198)"><g id="g14042" fill="#888a85" transform="translate(-60,-518)"><g id="g14044" fill="#888a85" display="inline" transform="translate(19,-242)"><path id="path14046" fill="#888a85" fill-opacity="1" fill-rule="nonzero" stroke="none" stroke-width="1.781" d="m 45,764 1,0 c 0.01037,-1.2e-4 0.02079,-4.6e-4 0.03125,0 0.254951,0.0112 0.50987,0.12858 0.6875,0.3125 L 49,766.59375 51.3125,764.3125 C 51.578125,764.082 51.759172,764.007 52,764 l 1,0 0,1 c 0,0.28647 -0.03434,0.55065 -0.25,0.75 l -2.28125,2.28125 2.25,2.25 C 52.906938,770.46942 52.999992,770.7347 53,771 l 0,1 -1,0 c -0.265301,-10e-6 -0.530586,-0.0931 -0.71875,-0.28125 L 49,769.4375 46.71875,771.71875 C 46.530586,771.90694 46.26529,772 46,772 l -1,0 0,-1 c -3e-6,-0.26529 0.09306,-0.53058 0.28125,-0.71875 l 2.28125,-2.25 L 45.28125,765.75 C 45.070508,765.55537 44.97809,765.28075 45,765 l 0,-1 z" color="#bebebe" direction="ltr" display="inline" enable-background="new" font-family="Andale Mono" font-size="medium" font-stretch="normal" font-style="normal" font-variant="normal" font-weight="normal" letter-spacing="normal" overflow="visible" text-anchor="start" text-decoration="none" visibility="visible" word-spacing="normal" writing-mode="lr-tb" style="text-indent:0;text-align:start;line-height:normal;text-transform:none;block-progression:tb;marker:none;-inkscape-font-specification:Andale Mono"/></g></g></g><rect id="rect14054" width="190" height="90" x="50" y="392.362" fill="url(#linearGradient14076)" fill-opacity="1" stroke="none" display="inline" rx="3" ry="3"/><g id="g14056" display="inline" transform="translate(-600.66124,1855.5169)"><g id="g14058" transform="matrix(-1,0,0,1,1978,-1.0001)"><path id="path14060" fill="#2e3436" fill-opacity="1" fill-rule="nonzero" stroke="none" stroke-width="2" d="m 52,342.5 c 0,1.38071 -1.119288,2.5 -2.5,2.5 -1.380712,0 -2.5,-1.11929 -2.5,-2.5 0,-1.38071 1.119288,-2.5 2.5,-2.5 1.380712,0 2.5,1.11929 2.5,2.5 z" color="#bebebe" display="inline" enable-background="accumulate" overflow="visible" transform="translate(938,-1767.9999)" visibility="visible" style="marker:none"/><path id="path14062" fill="#2e3436" fill-opacity="1" fill-rule="nonzero" stroke="none" stroke-width="2" d="m 989,-1421.9999 -3,0 0.0467,-0.685 c -1.39515,0.047 -2.0467,1.7705 -2.0467,3.185 l 0,1.5 6,0 0,-1 1,0 0,-0.5 c 0,-1.5 -0.59314,-3.1318 -1.98507,-3.1561 z" color="#bebebe" display="inline" enable-background="accumulate" overflow="visible" visibility="visible" style="marker:none"/><path id="path14064" fill="#2e3436" fill-opacity="1" fill-rule="nonzero" stroke="none" stroke-width="2" d="m 52,342.5 c 0,1.38071 -1.119288,2.5 -2.5,2.5 -1.380712,0 -2.5,-1.11929 -2.5,-2.5 0,-1.38071 1.119288,-2.5 2.5,-2.5 1.380712,0 2.5,1.11929 2.5,2.5 z" color="#bebebe" display="inline" enable-background="accumulate" overflow="visible" transform="translate(945,-1763.9999)" visibility="visible" style="marker:none"/><path id="path14066" fill="#2e3436" fill-opacity="1" fill-rule="nonzero" stroke="none" stroke-width="2" d="m 996,-1417.9999 -3,0 0.0467,-0.685 c -1.58244,0.053 -2.0467,1.6455 -2.0467,2.685 l 0,2 7,0 0,-2 c 0,-1.0466 -0.21771,-2.6252 -1.98507,-2.6561 z" color="#bebebe" display="inline" enable-background="accumulate" overflow="visible" visibility="visible" style="marker:none"/></g><text font-stretch="normal" style="text-align:end;line-height:125%;-inkscape-font-specification:Cantarell Bold" id="text14068" x="1004.004" y="-1411.405" fill="#2e3436" fill-opacity="1" stroke="none" font-family="Cantarell" font-size="8" font-style="normal" font-variant="normal" font-weight="bold" letter-spacing="0" text-anchor="end" word-spacing="0" xml:space="preserve"><tspan id="tspan14070" x="1004.004" y="-1411.405">123</tspan></text></g><rect id="rect14080" width="33" height="31" x="374.5" y="541.862" fill="none" stroke="#fff" stroke-dasharray="none" stroke-dashoffset="0" stroke-linecap="butt" stroke-linejoin="miter" stroke-miterlimit="4" stroke-opacity="1" stroke-width="1" color="#000" display="inline" enable-background="accumulate" opacity=".4" overflow="visible" rx="3" ry="3" visibility="visible" style="marker:none"/><rect stroke-linejoin="miter" style="marker:none" id="rect14082" width="33" height="33" x="374.5" y="538.862" fill="url(#linearGradient14177)" fill-opacity="1" fill-rule="nonzero" stroke="#a7a7a7" stroke-dasharray="none" stroke-dashoffset="0" stroke-linecap="butt" stroke-miterlimit="4" stroke-opacity="1" stroke-width="1" color="#000" display="inline" enable-background="accumulate" overflow="visible" rx="3" ry="3" visibility="visible"/><path id="path14112" fill="none" stroke="#fff" stroke-linecap="round" stroke-linejoin="miter" stroke-opacity="1" stroke-width="1" d="m 377.44536,539.86228 27.05464,0" display="inline" opacity=".5"/><rect id="rect14157" width="190" height="90" x="50" y="512.362" fill="url(#linearGradient14179)" fill-opacity="1" stroke="none" display="inline" rx="3" ry="3"/><text font-stretch="normal" style="text-align:end;line-height:125%;-inkscape-font-specification:Cantarell Bold" id="text14171" x="398.843" y="565.415" fill="#2e3436" fill-opacity="1" stroke="none" display="inline" font-family="Cantarell" font-size="8" font-style="normal" font-variant="normal" font-weight="bold" letter-spacing="0" text-anchor="end" word-spacing="0" xml:space="preserve"><tspan id="tspan14173" x="398.843" y="565.415">123</tspan></text><g id="g14290" display="inline" transform="translate(-600,1891.3622)"><path id="path14167" fill="#2e3436" fill-opacity="1" fill-rule="nonzero" stroke="none" stroke-width="2" d="m 52,342.5 c 0,1.38071 -1.119288,2.5 -2.5,2.5 -1.380712,0 -2.5,-1.11929 -2.5,-2.5 0,-1.38071 1.119288,-2.5 2.5,-2.5 1.380712,0 2.5,1.11929 2.5,2.5 z" color="#bebebe" display="inline" enable-background="accumulate" overflow="visible" transform="matrix(-1,0,0,1,1036.5,-1685)" visibility="visible" style="marker:none"/><path id="path14169" fill="#2e3436" fill-opacity="1" fill-rule="nonzero" stroke="none" stroke-width="2" d="m 985.5,-1339 3,0 -0.0467,-0.685 c 1.58244,0.053 2.0467,1.6455 2.0467,2.685 l 0,2 -7,0 0,-2 c 0,-1.0466 0.21771,-2.6252 1.98507,-2.6561 z" color="#bebebe" display="inline" enable-background="accumulate" overflow="visible" visibility="visible" style="marker:none"/><path id="path14198" fill="#2e3436" fill-opacity="1" fill-rule="nonzero" stroke="none" stroke-width="2" d="m 52,342.5 c 0,1.38071 -1.119288,2.5 -2.5,2.5 -1.380712,0 -2.5,-1.11929 -2.5,-2.5 0,-1.38071 1.119288,-2.5 2.5,-2.5 1.380712,0 2.5,1.11929 2.5,2.5 z" color="#bebebe" display="inline" enable-background="accumulate" overflow="visible" transform="matrix(-1,0,0,1,1043.5,-1685)" visibility="visible" style="marker:none"/><path d="m 991.33785,-1339.2373 c 0.224,0.5904 0.66215,0.9895 0.66215,1.5185 l 0,2.7188 5.5,0 0,-2 c 0,-1.0395 -0.4488,-2.6345 -2.0312,-2.6875 l 0.031,0.6875 -3,0 0,-0.6563 c -0.2947,-0.016 -0.62869,-0.097 -1.16195,0.419 z" style="marker:none" id="path14200" fill="#2e3436" fill-opacity="1" fill-rule="nonzero" stroke="none" stroke-width="2" color="#bebebe" display="inline" enable-background="accumulate" overflow="visible" visibility="visible"/></g><path d="m 69.49616,171.86568 383.00414,-4e-4 c 4.9857,0 9.2984,4.468 8.9994,10 l 0,37 -8.9994,0 -383.00414,4e-4 -8.99951,0 0,-37 c 0,-5.54 4.01378,-10 8.99951,-10 z" style="marker:none" id="path14296" fill="url(#linearGradient14470)" fill-opacity="1" fill-rule="nonzero" stroke="#b4b4b4" stroke-opacity="1" stroke-width=".993" color="#bebebe" display="inline" enable-background="accumulate" filter="url(#filter12000-4-9-2)" overflow="visible" visibility="visible"/><path id="path14332" fill="none" stroke="#a7a7a7" stroke-linecap="round" stroke-linejoin="miter" stroke-opacity="1" stroke-width="1" d="m 414.5,178.86248 0,33.0182" display="inline"/><g id="g14334" fill="#fff" fill-opacity="1" display="inline" opacity=".6" transform="translate(430.0016,188.10218)"><g id="g14342" fill="#fff" fill-opacity="1" transform="translate(-60,-518)"><g id="g14344" fill="#fff" fill-opacity="1" display="inline" transform="translate(19,-242)"><path id="path14346" fill="#fff" fill-opacity="1" fill-rule="nonzero" stroke="none" stroke-width="1.781" d="m 45,764 1,0 c 0.01037,-1.2e-4 0.02079,-4.6e-4 0.03125,0 0.254951,0.0112 0.50987,0.12858 0.6875,0.3125 L 49,766.59375 51.3125,764.3125 C 51.578125,764.082 51.759172,764.007 52,764 l 1,0 0,1 c 0,0.28647 -0.03434,0.55065 -0.25,0.75 l -2.28125,2.28125 2.25,2.25 C 52.906938,770.46942 52.999992,770.7347 53,771 l 0,1 -1,0 c -0.265301,-10e-6 -0.530586,-0.0931 -0.71875,-0.28125 L 49,769.4375 46.71875,771.71875 C 46.530586,771.90694 46.26529,772 46,772 l -1,0 0,-1 c -3e-6,-0.26529 0.09306,-0.53058 0.28125,-0.71875 l 2.28125,-2.25 L 45.28125,765.75 C 45.070508,765.55537 44.97809,765.28075 45,765 l 0,-1 z" color="#bebebe" direction="ltr" display="inline" enable-background="new" font-family="Andale Mono" font-size="medium" font-stretch="normal" font-style="normal" font-variant="normal" font-weight="normal" letter-spacing="normal" overflow="visible" text-anchor="start" text-decoration="none" visibility="visible" word-spacing="normal" writing-mode="lr-tb" style="text-indent:0;text-align:start;line-height:normal;text-transform:none;block-progression:tb;marker:none;-inkscape-font-specification:Andale Mono"/></g></g></g><g id="g14354" fill="#888a85" display="inline" transform="translate(430.0016,187.10198)"><g id="g14362" fill="#888a85" transform="translate(-60,-518)"><g id="g14364" fill="#888a85" display="inline" transform="translate(19,-242)"><path id="path14367" fill="#888a85" fill-opacity="1" fill-rule="nonzero" stroke="none" stroke-width="1.781" d="m 45,764 1,0 c 0.01037,-1.2e-4 0.02079,-4.6e-4 0.03125,0 0.254951,0.0112 0.50987,0.12858 0.6875,0.3125 L 49,766.59375 51.3125,764.3125 C 51.578125,764.082 51.759172,764.007 52,764 l 1,0 0,1 c 0,0.28647 -0.03434,0.55065 -0.25,0.75 l -2.28125,2.28125 2.25,2.25 C 52.906938,770.46942 52.999992,770.7347 53,771 l 0,1 -1,0 c -0.265301,-10e-6 -0.530586,-0.0931 -0.71875,-0.28125 L 49,769.4375 46.71875,771.71875 C 46.530586,771.90694 46.26529,772 46,772 l -1,0 0,-1 c -3e-6,-0.26529 0.09306,-0.53058 0.28125,-0.71875 l 2.28125,-2.25 L 45.28125,765.75 C 45.070508,765.55537 44.97809,765.28075 45,765 l 0,-1 z" color="#bebebe" direction="ltr" display="inline" enable-background="new" font-family="Andale Mono" font-size="medium" font-stretch="normal" font-style="normal" font-variant="normal" font-weight="normal" letter-spacing="normal" overflow="visible" text-anchor="start" text-decoration="none" visibility="visible" word-spacing="normal" writing-mode="lr-tb" style="text-indent:0;text-align:start;line-height:normal;text-transform:none;block-progression:tb;marker:none;-inkscape-font-specification:Andale Mono"/></g></g></g><rect id="rect14399" width="190" height="90" x="50" y="152.362" fill="url(#linearGradient14409)" fill-opacity="1" stroke="none" display="inline" rx="3" ry="3"/><g id="g14435" display="inline" transform="translate(-590,1772.3622)"><rect id="rect14298" width="63" height="31" x="934.5" y="-1590.5" fill="none" stroke="#fff" stroke-dasharray="none" stroke-dashoffset="0" stroke-linecap="butt" stroke-linejoin="miter" stroke-miterlimit="4" stroke-opacity="1" stroke-width="1" color="#000" display="inline" enable-background="accumulate" opacity=".4" overflow="visible" rx="3" ry="3" visibility="visible" style="marker:none"/><rect id="rect14300" width="63" height="33" x="934.5" y="-1593.5" fill="url(#linearGradient14468)" fill-opacity="1" fill-rule="nonzero" stroke="#a7a7a7" stroke-dasharray="none" stroke-dashoffset="0" stroke-linecap="butt" stroke-linejoin="miter" stroke-miterlimit="4" stroke-opacity="1" stroke-width="1" color="#000" display="inline" enable-background="accumulate" overflow="visible" rx="3" ry="3" visibility="visible" style="marker:none"/><path id="path14330" fill="none" stroke="#fff" stroke-linecap="round" stroke-linejoin="miter" stroke-opacity="1" stroke-width="1" d="m 937.44536,-1592.4999 27.05464,0" display="inline" opacity=".5"/><g id="g14375" fill="#2e3436" transform="translate(943.0002,-1584.9999)"><g id="g14381" fill="#2e3436" transform="translate(-42.000198,-510)"><path id="path14383" fill="#2e3436" fill-opacity="1" fill-rule="nonzero" stroke="none" stroke-width="2" d="m 52,342.5 c 0,1.38071 -1.119288,2.5 -2.5,2.5 -1.380712,0 -2.5,-1.11929 -2.5,-2.5 0,-1.38071 1.119288,-2.5 2.5,-2.5 1.380712,0 2.5,1.11929 2.5,2.5 z" color="#bebebe" display="inline" enable-background="accumulate" overflow="visible" transform="translate(-3,171)" visibility="visible" style="marker:none"/><path id="path14385" fill="#2e3436" fill-opacity="1" fill-rule="nonzero" stroke="none" stroke-width="2" d="m 48,517 -3,0 0.0467,-0.68495 C 43.651548,516.36209 43,518.08549 43,519.5 l 0,1.5 6,0 0,-1 1,0 0,-0.5 c 0,-1.5 -0.593143,-3.13176 -1.985069,-3.15605 z" color="#bebebe" display="inline" enable-background="accumulate" overflow="visible" visibility="visible" style="marker:none"/><path id="path14387" fill="#2e3436" fill-opacity="1" fill-rule="nonzero" stroke="none" stroke-width="2" d="m 52,342.5 c 0,1.38071 -1.119288,2.5 -2.5,2.5 -1.380712,0 -2.5,-1.11929 -2.5,-2.5 0,-1.38071 1.119288,-2.5 2.5,-2.5 1.380712,0 2.5,1.11929 2.5,2.5 z" color="#bebebe" display="inline" enable-background="accumulate" overflow="visible" transform="translate(4,175)" visibility="visible" style="marker:none"/><path id="path14389" fill="#2e3436" fill-opacity="1" fill-rule="nonzero" stroke="none" stroke-width="2" d="m 55,521 -3,0 0.0467,-0.68495 C 50.464261,520.3684 50,521.96049 50,523 l 0,2 7,0 0,-2 c 0,-1.04657 -0.217712,-2.62521 -1.985069,-2.65605 z" color="#bebebe" display="inline" enable-background="accumulate" overflow="visible" visibility="visible" style="marker:none"/></g></g><text id="text14401" x="989.266" y="-1572.184" fill="#2e3436" fill-opacity="1" stroke="none" font-family="Cantarell" font-size="14" font-stretch="normal" font-style="normal" font-variant="normal" font-weight="normal" letter-spacing="0" text-anchor="end" word-spacing="0" xml:space="preserve" style="text-align:end;line-height:125%;-inkscape-font-specification:Cantarell"><tspan id="tspan14403" x="989.266" y="-1572.184">123</tspan></text></g><path id="path14472" fill="url(#linearGradient14582)" fill-opacity="1" fill-rule="nonzero" stroke="#b4b4b4" stroke-opacity="1" stroke-width=".993" d="m 69.49616,291.86568 383.00414,-4e-4 c 4.9857,0 9.2984,4.468 8.9994,10 l 0,37 -8.9994,0 -383.00414,4e-4 -8.99951,0 0,-37 c 0,-5.54 4.01378,-10 8.99951,-10 z" color="#bebebe" display="inline" enable-background="accumulate" filter="url(#filter12000-4-9-2)" overflow="visible" visibility="visible" style="marker:none"/><path id="path14474" fill="none" stroke="#a7a7a7" stroke-linecap="round" stroke-linejoin="miter" stroke-opacity="1" stroke-width="1" d="m 414.5,298.86248 0,33.0182" display="inline"/><g id="g14476" fill="#fff" fill-opacity="1" display="inline" opacity=".6" transform="translate(430.0016,308.10218)"><g id="g14484" fill="#fff" fill-opacity="1" transform="translate(-60,-518)"><g id="g14486" fill="#fff" fill-opacity="1" display="inline" transform="translate(19,-242)"><path id="path14488" fill="#fff" fill-opacity="1" fill-rule="nonzero" stroke="none" stroke-width="1.781" d="m 45,764 1,0 c 0.01037,-1.2e-4 0.02079,-4.6e-4 0.03125,0 0.254951,0.0112 0.50987,0.12858 0.6875,0.3125 L 49,766.59375 51.3125,764.3125 C 51.578125,764.082 51.759172,764.007 52,764 l 1,0 0,1 c 0,0.28647 -0.03434,0.55065 -0.25,0.75 l -2.28125,2.28125 2.25,2.25 C 52.906938,770.46942 52.999992,770.7347 53,771 l 0,1 -1,0 c -0.265301,-10e-6 -0.530586,-0.0931 -0.71875,-0.28125 L 49,769.4375 46.71875,771.71875 C 46.530586,771.90694 46.26529,772 46,772 l -1,0 0,-1 c -3e-6,-0.26529 0.09306,-0.53058 0.28125,-0.71875 l 2.28125,-2.25 L 45.28125,765.75 C 45.070508,765.55537 44.97809,765.28075 45,765 l 0,-1 z" color="#bebebe" direction="ltr" display="inline" enable-background="new" font-family="Andale Mono" font-size="medium" font-stretch="normal" font-style="normal" font-variant="normal" font-weight="normal" letter-spacing="normal" overflow="visible" text-anchor="start" text-decoration="none" visibility="visible" word-spacing="normal" writing-mode="lr-tb" style="text-indent:0;text-align:start;line-height:normal;text-transform:none;block-progression:tb;marker:none;-inkscape-font-specification:Andale Mono"/></g></g></g><g id="g14496" fill="#888a85" display="inline" transform="translate(430.0016,307.10198)"><g id="g14504" fill="#888a85" transform="translate(-60,-518)"><g id="g14506" fill="#888a85" display="inline" transform="translate(19,-242)"><path id="path14508" fill="#888a85" fill-opacity="1" fill-rule="nonzero" stroke="none" stroke-width="1.781" d="m 45,764 1,0 c 0.01037,-1.2e-4 0.02079,-4.6e-4 0.03125,0 0.254951,0.0112 0.50987,0.12858 0.6875,0.3125 L 49,766.59375 51.3125,764.3125 C 51.578125,764.082 51.759172,764.007 52,764 l 1,0 0,1 c 0,0.28647 -0.03434,0.55065 -0.25,0.75 l -2.28125,2.28125 2.25,2.25 C 52.906938,770.46942 52.999992,770.7347 53,771 l 0,1 -1,0 c -0.265301,-10e-6 -0.530586,-0.0931 -0.71875,-0.28125 L 49,769.4375 46.71875,771.71875 C 46.530586,771.90694 46.26529,772 46,772 l -1,0 0,-1 c -3e-6,-0.26529 0.09306,-0.53058 0.28125,-0.71875 l 2.28125,-2.25 L 45.28125,765.75 C 45.070508,765.55537 44.97809,765.28075 45,765 l 0,-1 z" color="#bebebe" direction="ltr" display="inline" enable-background="new" font-family="Andale Mono" font-size="medium" font-stretch="normal" font-style="normal" font-variant="normal" font-weight="normal" letter-spacing="normal" overflow="visible" text-anchor="start" text-decoration="none" visibility="visible" word-spacing="normal" writing-mode="lr-tb" style="text-indent:0;text-align:start;line-height:normal;text-transform:none;block-progression:tb;marker:none;-inkscape-font-specification:Andale Mono"/></g></g></g><rect id="rect14516" width="190" height="90" x="50" y="272.362" fill="url(#linearGradient14584)" fill-opacity="1" stroke="none" display="inline" rx="3" ry="3"/><g id="g14621" display="inline" transform="translate(-595,1892.3622)"><rect id="rect14520" width="58" height="31" x="944.5" y="-1590.5" fill="none" stroke="#fff" stroke-dasharray="none" stroke-dashoffset="0" stroke-linecap="butt" stroke-linejoin="miter" stroke-miterlimit="4" stroke-opacity="1" stroke-width="1" color="#000" display="inline" enable-background="accumulate" opacity=".4" overflow="visible" rx="3" ry="3" visibility="visible" style="marker:none"/><rect stroke-linejoin="miter" style="marker:none" id="rect14522" width="58" height="33" x="944.5" y="-1593.5" fill="url(#linearGradient14654)" fill-opacity="1" fill-rule="nonzero" stroke="#a7a7a7" stroke-dasharray="none" stroke-dashoffset="0" stroke-linecap="butt" stroke-miterlimit="4" stroke-opacity="1" stroke-width="1" color="#000" display="inline" enable-background="accumulate" overflow="visible" rx="3" ry="3" visibility="visible"/><path id="path14552" fill="none" stroke="#fff" stroke-linecap="round" stroke-linejoin="miter" stroke-opacity="1" stroke-width="1" d="m 947.44536,-1592.4999 27.05464,0" display="inline" opacity=".5"/><g id="g14554" fill="#2e3436" transform="translate(953.0002,-1584.9999)"><g id="g14560" fill="#2e3436" transform="translate(-42.000198,-510)"><path id="path14562" fill="#2e3436" fill-opacity="1" fill-rule="nonzero" stroke="none" stroke-width="2" d="m 52,342.5 c 0,1.38071 -1.119288,2.5 -2.5,2.5 -1.380712,0 -2.5,-1.11929 -2.5,-2.5 0,-1.38071 1.119288,-2.5 2.5,-2.5 1.380712,0 2.5,1.11929 2.5,2.5 z" color="#bebebe" display="inline" enable-background="accumulate" overflow="visible" transform="translate(-3,171)" visibility="visible" style="marker:none"/><path d="m 48,517 -3,0 0.0467,-0.68495 C 43.651548,516.36209 43,518.08549 43,519.5 l 0,1.5 6,0 0,-1 1,0 0,-0.5 c 0,-1.5 -0.593143,-3.13176 -1.985069,-3.15605 z" style="marker:none" id="path14564" fill="#2e3436" fill-opacity="1" fill-rule="nonzero" stroke="none" stroke-width="2" color="#bebebe" display="inline" enable-background="accumulate" overflow="visible" visibility="visible"/><path id="path14566" fill="#2e3436" fill-opacity="1" fill-rule="nonzero" stroke="none" stroke-width="2" d="m 52,342.5 c 0,1.38071 -1.119288,2.5 -2.5,2.5 -1.380712,0 -2.5,-1.11929 -2.5,-2.5 0,-1.38071 1.119288,-2.5 2.5,-2.5 1.380712,0 2.5,1.11929 2.5,2.5 z" color="#bebebe" display="inline" enable-background="accumulate" overflow="visible" transform="translate(4,175)" visibility="visible" style="marker:none"/><path d="m 55,521 -3,0 0.0467,-0.68495 C 50.464261,520.3684 50,521.96049 50,523 l 0,2 7,0 0,-2 c 0,-1.04657 -0.217712,-2.62521 -1.985069,-2.65605 z" style="marker:none" id="path14568" fill="#2e3436" fill-opacity="1" fill-rule="nonzero" stroke="none" stroke-width="2" color="#bebebe" display="inline" enable-background="accumulate" overflow="visible" visibility="visible"/></g></g><text font-stretch="normal" style="text-align:end;line-height:125%;-inkscape-font-specification:Cantarell Bold" id="text14578" x="993.266" y="-1573.199" fill="#2e3436" fill-opacity="1" stroke="none" font-family="Cantarell" font-size="11" font-style="normal" font-variant="normal" font-weight="bold" letter-spacing="0" text-anchor="end" word-spacing="0" xml:space="preserve"><tspan id="tspan14580" x="993.266" y="-1573.199">123</tspan></text></g><text font-stretch="normal" style="text-align:start;line-height:125%;-inkscape-font-specification:Cantarell" id="text14656" x="523.529" y="87.857" fill="#d3d7cf" fill-opacity="1" stroke="none" display="inline" font-family="Cantarell" font-size="36" font-style="normal" font-variant="normal" font-weight="normal" letter-spacing="0" text-anchor="start" word-spacing="0" xml:space="preserve"><tspan id="tspan14658" x="523.529" y="87.857">1</tspan></text><text id="text14660" x="523.529" y="207.857" fill="#d3d7cf" fill-opacity="1" stroke="none" display="inline" font-family="Cantarell" font-size="36" font-stretch="normal" font-style="normal" font-variant="normal" font-weight="normal" letter-spacing="0" text-anchor="start" word-spacing="0" xml:space="preserve" style="text-align:start;line-height:125%;-inkscape-font-specification:Cantarell"><tspan id="tspan14662" x="523.529" y="207.857">2</tspan></text><text font-stretch="normal" style="text-align:start;line-height:125%;-inkscape-font-specification:Cantarell" id="text14664" x="523.529" y="327.857" fill="#d3d7cf" fill-opacity="1" stroke="none" display="inline" font-family="Cantarell" font-size="36" font-style="normal" font-variant="normal" font-weight="normal" letter-spacing="0" text-anchor="start" word-spacing="0" xml:space="preserve"><tspan id="tspan14666" x="523.529" y="327.857">3</tspan></text><text id="text14668" x="523.529" y="447.857" fill="#d3d7cf" fill-opacity="1" stroke="none" display="inline" font-family="Cantarell" font-size="36" font-stretch="normal" font-style="normal" font-variant="normal" font-weight="normal" letter-spacing="0" text-anchor="start" word-spacing="0" xml:space="preserve" style="text-align:start;line-height:125%;-inkscape-font-specification:Cantarell"><tspan id="tspan14670" x="523.529" y="447.857">4</tspan></text><text font-stretch="normal" style="text-align:start;line-height:125%;-inkscape-font-specification:Cantarell" id="text14672" x="523.529" y="567.857" fill="#d3d7cf" fill-opacity="1" stroke="none" display="inline" font-family="Cantarell" font-size="36" font-style="normal" font-variant="normal" font-weight="normal" letter-spacing="0" text-anchor="start" word-spacing="0" xml:space="preserve"><tspan id="tspan14674" x="523.529" y="567.857">5</tspan></text><g id="g6806" display="inline" transform="translate(-600,2012.3622)"><path d="m 669.49615,-1360.4965 383.00415,-4e-4 c 4.9857,0 9.2984,4.468 8.9994,10 l 0,37 -8.9994,0 -383.00415,4e-4 -8.99951,0 0,-37 c 0,-5.54 4.01378,-10 8.99951,-10 z" style="marker:none" id="path6808" fill="url(#linearGradient6906)" fill-opacity="1" fill-rule="nonzero" stroke="#b4b4b4" stroke-opacity="1" stroke-width=".993" color="#bebebe" display="inline" enable-background="accumulate" filter="url(#filter12000-4-9-2)" overflow="visible" visibility="visible"/><path id="path6810" fill="none" stroke="#a7a7a7" stroke-linecap="round" stroke-linejoin="miter" stroke-opacity="1" stroke-width="1" d="m 1014.5,-1353.4997 0,33.0182" display="inline"/><g id="g6812" fill="#fff" fill-opacity="1" display="inline" opacity=".6" transform="translate(1030.0016,-1344.26)"><g id="g6820" fill="#fff" fill-opacity="1" transform="translate(-60,-518)"><g id="g6822" fill="#fff" fill-opacity="1" display="inline" transform="translate(19,-242)"><path id="path6824" fill="#fff" fill-opacity="1" fill-rule="nonzero" stroke="none" stroke-width="1.781" d="m 45,764 1,0 c 0.01037,-1.2e-4 0.02079,-4.6e-4 0.03125,0 0.254951,0.0112 0.50987,0.12858 0.6875,0.3125 L 49,766.59375 51.3125,764.3125 C 51.578125,764.082 51.759172,764.007 52,764 l 1,0 0,1 c 0,0.28647 -0.03434,0.55065 -0.25,0.75 l -2.28125,2.28125 2.25,2.25 C 52.906938,770.46942 52.999992,770.7347 53,771 l 0,1 -1,0 c -0.265301,-10e-6 -0.530586,-0.0931 -0.71875,-0.28125 L 49,769.4375 46.71875,771.71875 C 46.530586,771.90694 46.26529,772 46,772 l -1,0 0,-1 c -3e-6,-0.26529 0.09306,-0.53058 0.28125,-0.71875 l 2.28125,-2.25 L 45.28125,765.75 C 45.070508,765.55537 44.97809,765.28075 45,765 l 0,-1 z" color="#bebebe" direction="ltr" display="inline" enable-background="new" font-family="Andale Mono" font-size="medium" font-stretch="normal" font-style="normal" font-variant="normal" font-weight="normal" letter-spacing="normal" overflow="visible" text-anchor="start" text-decoration="none" visibility="visible" word-spacing="normal" writing-mode="lr-tb" style="text-indent:0;text-align:start;line-height:normal;text-transform:none;block-progression:tb;marker:none;-inkscape-font-specification:Andale Mono"/></g></g></g><g id="g6832" fill="#888a85" display="inline" transform="translate(1030.0016,-1345.2602)"><g id="g6840" fill="#888a85" transform="translate(-60,-518)"><g id="g6842" fill="#888a85" display="inline" transform="translate(19,-242)"><path id="path6844" fill="#888a85" fill-opacity="1" fill-rule="nonzero" stroke="none" stroke-width="1.781" d="m 45,764 1,0 c 0.01037,-1.2e-4 0.02079,-4.6e-4 0.03125,0 0.254951,0.0112 0.50987,0.12858 0.6875,0.3125 L 49,766.59375 51.3125,764.3125 C 51.578125,764.082 51.759172,764.007 52,764 l 1,0 0,1 c 0,0.28647 -0.03434,0.55065 -0.25,0.75 l -2.28125,2.28125 2.25,2.25 C 52.906938,770.46942 52.999992,770.7347 53,771 l 0,1 -1,0 c -0.265301,-10e-6 -0.530586,-0.0931 -0.71875,-0.28125 L 49,769.4375 46.71875,771.71875 C 46.530586,771.90694 46.26529,772 46,772 l -1,0 0,-1 c -3e-6,-0.26529 0.09306,-0.53058 0.28125,-0.71875 l 2.28125,-2.25 L 45.28125,765.75 C 45.070508,765.55537 44.97809,765.28075 45,765 l 0,-1 z" color="#bebebe" direction="ltr" display="inline" enable-background="new" font-family="Andale Mono" font-size="medium" font-stretch="normal" font-style="normal" font-variant="normal" font-weight="normal" letter-spacing="normal" overflow="visible" text-anchor="start" text-decoration="none" visibility="visible" word-spacing="normal" writing-mode="lr-tb" style="text-indent:0;text-align:start;line-height:normal;text-transform:none;block-progression:tb;marker:none;-inkscape-font-specification:Andale Mono"/></g></g></g></g><rect id="rect6852" width="33" height="31" x="374.5" y="661.862" fill="none" stroke="#fff" stroke-dasharray="none" stroke-dashoffset="0" stroke-linecap="butt" stroke-linejoin="miter" stroke-miterlimit="4" stroke-opacity="1" stroke-width="1" color="#000" display="inline" enable-background="accumulate" opacity=".4" overflow="visible" rx="3" ry="3" visibility="visible" style="marker:none"/><rect id="rect6854" width="46.965" height="33" x="360.535" y="658.862" fill="url(#linearGradient6908)" fill-opacity="1" fill-rule="nonzero" stroke="#a7a7a7" stroke-dasharray="none" stroke-dashoffset="0" stroke-linecap="butt" stroke-linejoin="miter" stroke-miterlimit="4" stroke-opacity="1" stroke-width="1" color="#000" display="inline" enable-background="accumulate" overflow="visible" rx="3" ry="3" visibility="visible" style="marker:none"/><path id="path6884" fill="none" stroke="#fff" stroke-linecap="round" stroke-linejoin="miter" stroke-opacity="1" stroke-width="1" d="m 363.55528,659.86228 40.69269,0" display="inline" opacity=".5"/><rect id="rect6886" width="190" height="90" x="50" y="632.362" fill="url(#linearGradient6910)" fill-opacity="1" stroke="none" display="inline" rx="3" ry="3"/><text id="text6902" x="523.529" y="687.857" fill="#d3d7cf" fill-opacity="1" stroke="none" display="inline" font-family="Cantarell" font-size="36" font-stretch="normal" font-style="normal" font-variant="normal" font-weight="normal" letter-spacing="0" text-anchor="start" word-spacing="0" xml:space="preserve" style="text-align:start;line-height:125%;-inkscape-font-specification:Cantarell"><tspan id="tspan6904" x="523.529" y="687.857">6</tspan></text><text id="text14401-2" x="397" y="681.178" fill="#2e3436" fill-opacity="1" stroke="none" display="inline" font-family="Cantarell" font-size="14" font-stretch="normal" font-style="normal" font-variant="normal" font-weight="normal" letter-spacing="0" text-anchor="end" word-spacing="0" xml:space="preserve" style="text-align:end;line-height:125%;-inkscape-font-specification:Cantarell"><tspan id="tspan14403-3" x="397" y="681.178">123</tspan></text></g></svg>