<svg xmlns="http://www.w3.org/2000/svg" xmlns:svg="http://www.w3.org/2000/svg" id="svg4766" width="30" height="50" version="1.1"><metadata id="metadata4771"/><g id="layer1" transform="translate(0,-1002.3622)"><path id="path2818" fill="#bebebe" fill-opacity="1" fill-rule="nonzero" stroke="none" d="m 10.388434,1002.5729 c 1.9469,1.3032 3.84603,2.7164 5.6046,4.3967 0.93153,-0.2111 1.94032,-0.3197 2.96995,-0.3197 1.65714,0 3.20213,0.5122 4.48683,1.3589 0.005,-0 0.0133,0 0.0158,0 1.5013,-1.4321 3.37999,-2.4076 5.26926,-3.3734 -0.60978,2.6646 -0.991,5.6419 -2.09171,7.6102 0,0 0,0.012 0,0.016 0.18216,0.6544 0.26994,1.3496 0.23949,2.0465 -0.10718,2.4538 -1.8579,4.5879 -4.00756,5.8235 l -1.03448,-3.6706 0.68294,3.9225 c 1.84523,9.5312 2.2309,18.8859 -0.44708,27.8509 2.36022,0.9615 2.26497,2.2923 1.3572,3.7572 l -20.4862194,0.1599 c -6.29399,-19.4152 6.90724,-20.7791 9.5645294,-33.8784 -1.32813,-1.6383 -2.1287,-3.7164 -2.04383,-5.6597 0.0697,-1.5983 0.72597,-2.8575 1.75642,-3.8051 -0.8322,-1.8579 -1.25885,-4.1224 -1.83629,-6.2353 l 1.1e-4,0 z" display="inline" enable-background="new"/></g></svg>