<svg xmlns="http://www.w3.org/2000/svg" xmlns:svg="http://www.w3.org/2000/svg" id="svg4870" width="144" height="186" version="1.1"><metadata id="metadata4875"/><g id="layer1" transform="translate(0,-866.36218)"><g id="g9045" display="inline" transform="translate(-618.39394,661.36218)"><path id="path13111" fill="#bebebe" fill-opacity="1" stroke="none" d="m 708,374.36218 c 0,46.94421 -38.0558,85 -85,85 -46.9442,0 -85,-38.05579 -85,-85 0,-46.9442 38.0558,-85 85,-85 46.9442,0 85,38.0558 85,85 z" transform="matrix(0.82331105,0.08887963,-0.08887963,0.82331105,210.74433,-85.194557)"/><path id="path13125" fill="#bebebe" fill-opacity="1" stroke="none" d="m 706.44887,355.0887 -2.80325,19.03792 c 0.10272,4.2178 -0.53554,8.3556 -1.82915,12.42267 -7.36341,1.59955 -14.42308,1.75426 -21.3033,1.05521 -2.39651,-4.4565 -2.42366,-8.89435 -2.53238,-13.33284 l -4.11019,-21.64044 2.41458,1.12428 3.62132,20.43257 c 7.78421,-0.60372 13.75944,-0.59796 21.93301,-0.45457 l 2.57054,-18.08664 z"/><path id="path13127" fill="#bebebe" fill-opacity="1" stroke="none" d="m 706.39842,355.7821 c -10.88166,1.4705 -21.54737,0.94065 -32.01428,-1.43083 -4.35164,-6.16648 -10.15708,-10.02111 -17.23251,-13.95459 l 32.1828,-5.89593 34.77963,5.73274 c -10.67094,6.45162 -15.28626,9.24092 -17.71564,15.54861 z"/><path id="path13141" fill="#bebebe" fill-opacity="1" fill-rule="nonzero" stroke="none" stroke-width="3" d="m 413.48068,406.59692 c 0,4.10051 -3.32411,7.42462 -7.42462,7.42462 -4.1005,0 -7.42462,-3.32411 -7.42462,-7.42462 0,-4.1005 3.32412,-7.42462 7.42462,-7.42462 4.10051,0 7.42462,3.32412 7.42462,7.42462 z" color="#000" display="inline" overflow="visible" transform="matrix(0.45029769,-0.03876117,0.03876117,0.45029769,490.59344,198.12421)" visibility="visible" style="marker:none"/><rect id="rect13143" width="10.366" height="10.366" x="650.1" y="427.056" fill="#bebebe" fill-opacity="1" fill-rule="nonzero" stroke="none" stroke-width="3" color="#000" display="inline" overflow="visible" rx="3.206" ry="3.206" transform="matrix(0.99631567,-0.08576185,0.08576185,0.99631567,0,0)" visibility="visible" style="marker:none"/><path id="path7899" fill="#bebebe" fill-opacity="1" stroke="none" d="m 685.8052,372.37376 c 0,0 -2.85216,-1.15791 -3.78999,-2.29994 -1.04354,-1.27076 -3.07802,-3.75259 -1.69014,-4.6344 1.21501,-0.77198 1.84018,2.27417 3.04431,3.06301 1.07272,0.70275 3.58486,1.39645 3.58486,1.39645 z" display="inline" enable-background="new"/></g></g></svg>