<svg xmlns="http://www.w3.org/2000/svg" xmlns:svg="http://www.w3.org/2000/svg" xmlns:xlink="http://www.w3.org/1999/xlink" id="svg15998" width="980" height="250" version="1.1"><defs id="defs16000"><linearGradient id="linearGradient6786-9" x1="302.101" x2="302.101" y1="113.578" y2="160.717" gradientTransform="translate(75,-51.716586)" gradientUnits="userSpaceOnUse" xlink:href="#linearGradient6049-9"/><linearGradient id="linearGradient6049-9"><stop id="stop6051-4" offset="0" stop-color="#fff" stop-opacity="1"/><stop id="stop6053-8" offset="1" stop-color="#fff" stop-opacity="0"/></linearGradient><filter id="filter6099-5" width="1.165" height="1.403" x="-.083" y="-.201" color-interpolation-filters="sRGB"><feGaussianBlur id="feGaussianBlur6101-1" stdDeviation="5.729"/></filter><linearGradient id="linearGradient6784-5" x1="356.547" x2="356.547" y1="41.724" y2="75.773" gradientTransform="translate(-25,15)" gradientUnits="userSpaceOnUse" xlink:href="#linearGradient6003-7"/><linearGradient id="linearGradient6003-7"><stop id="stop6005-2" offset="0" stop-color="#fff" stop-opacity="1"/><stop id="stop6007-9" offset="1" stop-color="#fff" stop-opacity="0"/></linearGradient><filter id="filter6043-0" width="1.152" height="1.265" x="-.076" y="-.132" color-interpolation-filters="sRGB"><feGaussianBlur id="feGaussianBlur6045-3" stdDeviation="3.329"/></filter><linearGradient id="linearGradient14501" x1="356.547" x2="356.547" y1="41.724" y2="75.773" gradientTransform="translate(-25,15)" gradientUnits="userSpaceOnUse" xlink:href="#linearGradient6003-7"/><linearGradient id="linearGradient15945" x1="356.547" x2="356.547" y1="41.724" y2="75.773" gradientTransform="translate(-25,15)" gradientUnits="userSpaceOnUse" xlink:href="#linearGradient6003-7"/><linearGradient id="linearGradient15996" x1="356.547" x2="356.547" y1="41.724" y2="75.773" gradientTransform="translate(-25,15)" gradientUnits="userSpaceOnUse" xlink:href="#linearGradient6003-7"/></defs><metadata id="metadata16003"/><g id="layer1" transform="translate(0,-802.36218)"><g id="clouds" display="inline" transform="translate(93.96319,663.34431)"><path id="path6782" fill="url(#linearGradient6786-9)" fill-opacity="1" fill-rule="nonzero" stroke="none" stroke-width="1" d="m 353,98.28341 c -0.44069,4.9735 -5.7468,10 15,10 4.98876,0 -12.12962,0 3,0 5,0 10,0 15,0 7.66667,0 15.33333,0 23,0 6,0 12,0 18,0 9.94218,0 8.72827,-12.64134 10,-19 1.04123,-5.20616 6.46243,-2 17,-2 12.35508,0 2.88948,-0.4421 1,-8 -2.01359,-8.05437 5.17487,-2.82513 -3,-11 -4.93715,-4.93715 -9.99003,-5.20399 -18,-2 -4.92928,1.97171 -5.82871,6.95718 -14,9 -0.60291,0.15073 2.30467,-22.60933 -4,-10 -3.25761,6.51522 -2.91859,10.97965 -11,13 -7.07235,1.76809 -6.35957,4.52809 1,6 15.93983,3.18797 -15.24357,4 -22,4 -9.149,0 -4.77756,-10.11221 -4,-14 1.31872,-6.59362 -8.26874,9.53747 0,-7 2.68066,-5.36132 -9.40969,-15.20485 -13,-17 -7.56999,-3.78499 -6.06592,-11.73352 -17,-9 -5.85668,1.46417 1.62215,13.17046 -2,18 -12.70837,16.94449 -3.49394,2.02423 0,16 3.05721,12.22885 -23.35208,4.32958 -25,4 -2.50476,-0.50095 14.87531,4.02494 0,7 -4.28184,0.85637 -9.3227,8.16135 -15,11 -41.70449,20.85224 26.47768,9.36942 -11,0 -0.92245,-0.23061 -9.21144,11 15,11 6.33333,0 12.66667,0 19,0 12.84785,0 15.61705,2.76589 22,-10 z" color="#000" display="inline" enable-background="accumulate" filter="url(#filter6099-5)" opacity=".265" overflow="visible" transform="matrix(-1.4142652,0,0,1.4142652,961.5678,93.178654)" visibility="visible" style="marker:none"/><path id="path6780" fill="url(#linearGradient6784-5)" fill-opacity="1" fill-rule="nonzero" stroke="none" stroke-width="1" d="m 245,85 c -1.66649,-0.359466 -0.61839,0.371036 -5,3 -1.33609,0.801657 24.47239,2.131902 13,5 -5.82983,1.457458 9.17017,8.54254 15,10 4.65407,1.16352 9.74461,11.53231 12,-2 1.17594,-7.055644 4,-9.461019 4,0 0,4.58209 20.60103,2.95959 23,2 1.56537,-0.62615 27.62133,2.92427 13,0 -7.72725,-1.54545 15.0701,-5 24,-5 4.89956,0 -7.10575,-14 -14,-14 -4.29653,0 -10.084,-7 -16,-7 -4.77261,0 -2.62526,-9.625257 -6,-13 -7.41073,-7.410734 3.66535,-12.333663 -11,-16 -9.90364,-2.475909 -3.40295,17.59321 -2.14998,23.858052 2.15646,10.782322 -5.21867,7.125337 -7,0 -1.99294,-7.971748 -6.07972,-6.791491 -12.28448,-2.13792 C 272.31853,72.15539 268.13675,68.150994 266,71 c -9.88239,13.176516 7.41611,6.116778 -7,9 -7.20796,1.441592 -6.91003,-3.862464 -14,5 z" color="#000" display="inline" enable-background="accumulate" filter="url(#filter6043-0)" opacity=".199" overflow="visible" transform="matrix(-2.3207645,0,0,1.2958328,1400.3975,117.41443)" visibility="visible" style="marker:none"/><path id="path14499" fill="url(#linearGradient15996)" fill-opacity="1" fill-rule="nonzero" stroke="none" stroke-width="1" d="m 245,85 c -1.66649,-0.359466 -0.61839,0.371036 -5,3 -1.33609,0.801657 24.47239,2.131902 13,5 -5.82983,1.457458 9.17017,8.54254 15,10 4.65407,1.16352 9.74461,11.53231 12,-2 1.17594,-7.055644 4,-9.461019 4,0 0,4.58209 20.60103,2.95959 23,2 1.56537,-0.62615 27.62133,2.92427 13,0 -7.72725,-1.54545 15.0701,-5 24,-5 4.89956,0 -7.10575,-14 -14,-14 -4.29653,0 -10.084,-7 -16,-7 -4.77261,0 -2.62526,-9.625257 -6,-13 -7.41073,-7.410734 3.66535,-12.333663 -11,-16 -9.90364,-2.475909 -3.40295,17.59321 -2.14998,23.858052 2.15646,10.782322 -5.21867,7.125337 -7,0 -1.99294,-7.971748 -6.07972,-6.791491 -12.28448,-2.13792 C 272.31853,72.15539 268.13675,68.150994 266,71 c -9.88239,13.176516 7.41611,6.116778 -7,9 -7.20796,1.441592 -6.91003,-3.862464 -14,5 z" color="#000" display="inline" enable-background="accumulate" filter="url(#filter6043-0)" opacity=".199" overflow="visible" transform="matrix(3.733173,0,0,2.0844717,-983.08918,140.02655)" visibility="visible" style="marker:none"/></g><path id="path6103" fill="url(#linearGradient15945)" fill-opacity="1" fill-rule="nonzero" stroke="none" stroke-width="1" d="m 245,85 c -1.66649,-0.359466 -0.61839,0.371036 -5,3 -1.33609,0.801657 24.47239,2.131902 13,5 -5.82983,1.457458 9.17017,8.54254 15,10 4.65407,1.16352 9.74461,11.53231 12,-2 1.17594,-7.055644 4,-9.461019 4,0 0,4.58209 20.60103,2.95959 23,2 1.56537,-0.62615 27.62133,2.92427 13,0 -7.72725,-1.54545 15.0701,-5 24,-5 4.89956,0 -7.10575,-14 -14,-14 -4.29653,0 -10.084,-7 -16,-7 -4.77261,0 -2.62526,-9.625257 -6,-13 -7.41073,-7.410734 3.66535,-12.333663 -11,-16 -9.90364,-2.475909 -8.96849,-0.126922 -7.71552,6.13792 2.15646,10.782322 -5.21867,7.125337 -7,0 C 280.29154,46.166172 276.20476,47.346429 270,52 c -3.24701,2.435258 -1.86325,16.150994 -4,19 -9.88239,13.176516 7.41611,6.116778 -7,9 -7.20796,1.441592 -6.91003,-3.862464 -14,5 z" color="#000" display="inline" enable-background="accumulate" filter="url(#filter6043-0)" opacity=".208" overflow="visible" transform="matrix(-6.3297284,0,0,3.2738838,2505.4557,715.24769)" visibility="visible" style="marker:none"/></g></svg>