<svg xmlns="http://www.w3.org/2000/svg" xmlns:svg="http://www.w3.org/2000/svg" id="svg6335" width="1024" height="768" version="1.1"><metadata id="metadata6340"/><g id="layer1"><rect id="rect6343-6" width="950.351" height="583.467" x="29.182" y="148.274" fill="#eeeeec" fill-opacity="1" stroke="none" rx="3.476" ry="3.5"/><rect id="rect6343-0-46" width="950.351" height="66.468" x="29.182" y="81.806" fill="#d3d7cf" fill-opacity="1" stroke="none" rx="3.476" ry="3.5"/><rect id="rect6343-0-4-2" width="577.399" height="38.184" x="260.466" y="95.948" fill="#fff" fill-opacity="1" stroke="none" rx="3.476" ry="3.5"/><rect id="rect7149-2" width="203" height="39.182" x="45.17" y="95.429" fill="#babdb6" fill-opacity="1" stroke="none" rx="3.476" ry="3.5"/><rect id="rect7151-1" width="3.536" height="47.376" x="143.733" y="90.645" fill="#d3d7cf" fill-opacity="1" stroke="none" rx="0" ry="0"/><rect id="rect7149-5-2" width="42" height="39.182" x="858.17" y="95.429" fill="#babdb6" fill-opacity="1" stroke="none" rx="3.476" ry="3.5"/><rect id="rect7149-5-8-4" width="42" height="39.182" x="918.17" y="95.429" fill="#babdb6" fill-opacity="1" stroke="none" rx="3.476" ry="3.5"/><rect id="rect6343-0-4-9-3" width="577.399" height="222.799" x="260.466" y="135.948" fill="#fff" fill-opacity="1" stroke="none" rx="0" ry="0"/><rect id="rect7213-9" width="163.342" height="31.82" x="387.332" y="99.234" fill="#729fcf" fill-opacity="1" stroke="none"/><text id="text7207-1" x="278.123" y="122.816" fill="#000" fill-opacity="1" stroke="none" font-family="Sans" font-size="25.536" font-style="normal" font-weight="normal" letter-spacing="0" word-spacing="0" xml:space="preserve" style="line-height:125%"><tspan id="tspan7209-9" x="278.123" y="122.816">Gothenb<tspan id="tspan7211-6" fill="#eeeeec">urg, Sweden</tspan></tspan></text><text id="text7207-8-1" x="278.123" y="182.816" fill="#000" fill-opacity="1" stroke="none" font-family="Sans" font-size="25.536" font-style="normal" font-weight="normal" letter-spacing="0" word-spacing="0" xml:space="preserve" style="line-height:125%"><tspan id="tspan7209-7-5" x="278.123" y="182.816" fill="#2e3436">Gothenburg, Sweden</tspan></text><text id="text7207-8-3-1" x="278.123" y="251.316" fill="#000" fill-opacity="1" stroke="none" font-family="Sans" font-size="25.536" font-style="normal" font-weight="normal" letter-spacing="0" word-spacing="0" xml:space="preserve" style="line-height:125%"><tspan id="tspan7209-7-9-06" x="278.123" y="251.316" fill="#2e3436">Gothenburg, USA</tspan></text><rect id="rect7267-99" width="603.162" height="1.414" x="249.799" y="204.843" fill="#eeeeec" fill-opacity="1" stroke="none"/><rect id="rect7267-9-1" width="603.162" height="1.414" x="249.799" y="284.843" fill="#eeeeec" fill-opacity="1" stroke="none"/><text id="text7207-8-3-9-3" x="278.123" y="329.316" fill="#000" fill-opacity="1" stroke="none" font-family="Sans" font-size="25.536" font-style="normal" font-weight="normal" letter-spacing="0" word-spacing="0" xml:space="preserve" style="line-height:125%"><tspan id="tspan7209-7-9-0-8" x="278.123" y="329.316" fill="#2e3436">Lasse Kronér, Gothenburg</tspan></text><rect id="rect6343-0-1-3" width="950.351" height="39.468" x="29.182" y="39.806" fill="#d3d7cf" fill-opacity="1" stroke="none" rx="3.476" ry="3.5"/><path id="path8431-0" fill="none" stroke="#000" stroke-dasharray="1 4" stroke-dashoffset="0" stroke-linecap="butt" stroke-linejoin="miter" stroke-miterlimit="4" stroke-opacity="1" stroke-width="1" d="m 263.80109,323.94615 -322.440703,0"/><text id="text7766-3-8-6-7-6-2" x="-68.189" y="326.966" fill="#000" fill-opacity="1" stroke="none" font-family="Sans" font-size="17.143" font-style="normal" font-weight="normal" letter-spacing="0" text-anchor="end" word-spacing="0" xml:space="preserve" style="text-align:end;line-height:125%"><tspan id="tspan8529" x="-68.189" y="326.966">fetches</tspan><tspan id="tspan6143" x="-68.189" y="348.395">street addresses</tspan><tspan id="tspan6141" x="-68.188" y="369.824">from address book</tspan></text><rect id="rect6343-6-0" width="950.351" height="583.467" x="29.182" y="904.274" fill="#eeeeec" fill-opacity="1" stroke="none" rx="3.476" ry="3.5"/><rect id="rect6343-0-46-6" width="950.351" height="66.468" x="29.182" y="837.806" fill="#d3d7cf" fill-opacity="1" stroke="none" rx="3.476" ry="3.5"/><rect id="rect6343-0-4-2-3" width="577.399" height="38.184" x="260.466" y="851.948" fill="#fff" fill-opacity="1" stroke="none" rx="3.476" ry="3.5"/><rect id="rect7149-2-8" width="203" height="39.182" x="45.17" y="851.429" fill="#babdb6" fill-opacity="1" stroke="none" rx="3.476" ry="3.5"/><rect id="rect7151-1-0" width="3.536" height="47.376" x="143.733" y="846.645" fill="#d3d7cf" fill-opacity="1" stroke="none" rx="0" ry="0"/><rect id="rect7149-5-2-8" width="42" height="39.182" x="858.17" y="851.429" fill="#babdb6" fill-opacity="1" stroke="none" rx="3.476" ry="3.5"/><rect id="rect7149-5-8-4-2" width="42" height="39.182" x="918.17" y="851.429" fill="#babdb6" fill-opacity="1" stroke="none" rx="3.476" ry="3.5"/><text id="text7207-1-3" x="278.123" y="878.816" fill="#000" fill-opacity="1" stroke="none" font-family="Sans" font-size="25.536" font-style="normal" font-weight="normal" letter-spacing="0" word-spacing="0" xml:space="preserve" style="line-height:125%"><tspan id="tspan7209-9-9" x="278.123" y="878.816">Lasse Kronér</tspan></text><rect id="rect6343-0-1-3-4" width="950.351" height="39.468" x="29.182" y="795.806" fill="#d3d7cf" fill-opacity="1" stroke="none" rx="3.476" ry="3.5"/><path id="path6245" fill="none" stroke="#babdb6" stroke-dasharray="none" stroke-linecap="butt" stroke-linejoin="miter" stroke-miterlimit="4" stroke-opacity="1" stroke-width="10" d="m 342.23967,919.32085 0,571.34225"/><path id="path6247" fill="none" stroke="#babdb6" stroke-dasharray="none" stroke-linecap="butt" stroke-linejoin="miter" stroke-miterlimit="4" stroke-opacity="1" stroke-width="10" d="m 38.183765,1318.1291 937.623565,0"/><path id="path6249" fill="none" stroke="#babdb6" stroke-dasharray="none" stroke-linecap="butt" stroke-linejoin="miter" stroke-miterlimit="4" stroke-opacity="1" stroke-width="10" d="m 342.23967,1089.0265 629.32502,0"/><path id="path6251" fill="none" stroke="#babdb6" stroke-dasharray="none" stroke-linecap="butt" stroke-linejoin="miter" stroke-miterlimit="4" stroke-opacity="1" stroke-width="10" d="m 765.08952,903.7645 0,415.7788"/><path id="path8154-4" fill="#c00" fill-opacity="1" stroke="#c00" stroke-dasharray="none" stroke-linejoin="round" stroke-miterlimit="4" stroke-opacity="1" stroke-width="10" d="m 241,548.5 a 17.5,17.5 0 1 1 -35,0 17.5,17.5 0 1 1 35,0 z" transform="translate(250.26153,768.21484)"/><path id="rect7021" fill="#555753" fill-opacity="1" stroke="none" d="m 321.03125,1067.25 0,198.875 130.09375,0 23.375,23.375 23.375,-23.375 141.34375,0 0,-198.875 z" opacity=".85"/><rect id="rect7026" width="80" height="80" x="333" y="1083" fill="#eeeeec" fill-opacity="1" stroke="none" opacity="1"/><path id="path7028" fill="#9f9f94" fill-opacity="1" stroke="none" d="m 392,1110.625 a 20.375,20.375 0 1 1 -40.75,0 20.375,20.375 0 1 1 40.75,0 z" transform="translate(0.8890873,0)"/><path id="rect7030" fill="#9f9f94" fill-opacity="1" stroke="none" d="m 356.13909,1133.75 36,0 c 4.432,0 8,3.568 8,8 l 0,21.25 -52,0 0,-21.25 c 0,-4.432 3.568,-8 8,-8 z"/><text id="text7207-1-3-8" x="436.55" y="1099.084" fill="#fff" fill-opacity="1" stroke="none" font-family="Sans" font-size="19.122" font-style="normal" font-weight="normal" letter-spacing="0" word-spacing="0" xml:space="preserve" style="line-height:125%"><tspan id="tspan7209-9-9-8" x="436.55" y="1099.084">Lasse Kronér</tspan><tspan id="tspan7054" x="436.55" y="1122.987">Bagaregården 13</tspan><tspan id="tspan7056" x="436.55" y="1146.889">124 05 Göteborg</tspan></text><rect id="rect7058" width="237.5" height="44" x="361" y="1197.5" fill="#2e3436" fill-opacity="1" stroke="none" rx="3.476" ry="3.5"/><text id="text7207-1-3-8-7" x="378.925" y="1225.756" fill="#fff" fill-opacity="1" stroke="none" font-family="Sans" font-size="19.122" font-style="normal" font-weight="normal" letter-spacing="0" word-spacing="0" xml:space="preserve" style="line-height:125%"><tspan id="tspan7056-7" x="378.925" y="1225.756">open in address book</tspan></text></g></svg>