<svg xmlns="http://www.w3.org/2000/svg" xmlns:svg="http://www.w3.org/2000/svg" id="svg6335" width="1400" height="768" version="1.1"><metadata id="metadata6340"/><g id="layer1"><rect id="rect6343-6" width="950.351" height="583.467" x="29.182" y="148.274" fill="#eeeeec" fill-opacity="1" stroke="none" rx="3.476" ry="3.5"/><rect id="rect6343-0-46" width="950.351" height="66.468" x="29.182" y="81.806" fill="#d3d7cf" fill-opacity="1" stroke="none" rx="3.476" ry="3.5"/><rect id="rect6343-0-4-2" width="577.399" height="38.184" x="260.466" y="95.948" fill="#fff" fill-opacity="1" stroke="none" rx="3.476" ry="3.5"/><rect id="rect7149-2" width="203" height="39.182" x="45.17" y="95.429" fill="#babdb6" fill-opacity="1" stroke="none" rx="3.476" ry="3.5"/><rect id="rect7151-1" width="3.536" height="47.376" x="143.733" y="90.645" fill="#d3d7cf" fill-opacity="1" stroke="none" rx="0" ry="0"/><rect id="rect7149-5-2" width="42" height="39.182" x="858.17" y="95.429" fill="#babdb6" fill-opacity="1" stroke="none" rx="3.476" ry="3.5"/><rect id="rect7149-5-8-4" width="42" height="39.182" x="918.17" y="95.429" fill="#babdb6" fill-opacity="1" stroke="none" rx="3.476" ry="3.5"/><rect id="rect6343-0-4-9-3" width="577.399" height="152.799" x="260.466" y="135.948" fill="#fff" fill-opacity="1" stroke="none" rx="0" ry="0"/><rect id="rect7213-9" width="163.342" height="31.82" x="387.332" y="99.234" fill="#729fcf" fill-opacity="1" stroke="none"/><text id="text7207-1" x="278.123" y="122.816" fill="#000" fill-opacity="1" stroke="none" font-family="Sans" font-size="25.536" font-style="normal" font-weight="normal" letter-spacing="0" word-spacing="0" xml:space="preserve" style="line-height:125%"><tspan id="tspan7209-9" x="278.123" y="122.816">Gothenb<tspan id="tspan7211-6" fill="#eeeeec">urg, Sweden</tspan></tspan></text><text id="text7207-8-1" x="278.123" y="182.816" fill="#000" fill-opacity="1" stroke="none" font-family="Sans" font-size="25.536" font-style="normal" font-weight="normal" letter-spacing="0" word-spacing="0" xml:space="preserve" style="line-height:125%"><tspan id="tspan7209-7-5" x="278.123" y="182.816" fill="#2e3436">Gothenburg, Sweden</tspan></text><text id="text7207-8-3-1" x="278.123" y="251.316" fill="#000" fill-opacity="1" stroke="none" font-family="Sans" font-size="25.536" font-style="normal" font-weight="normal" letter-spacing="0" word-spacing="0" xml:space="preserve" style="line-height:125%"><tspan id="tspan7209-7-9-06" x="278.123" y="251.316" fill="#2e3436">Gothenburg, USA</tspan></text><rect id="rect7267-99" width="603.162" height="1.414" x="249.799" y="204.843" fill="#eeeeec" fill-opacity="1" stroke="none"/><rect id="rect6343-0-1-3" width="950.351" height="39.468" x="29.182" y="39.806" fill="#d3d7cf" fill-opacity="1" stroke="none" rx="3.476" ry="3.5"/><rect id="rect6343-6-0" width="950.351" height="583.467" x="29.182" y="904.274" fill="#eeeeec" fill-opacity="1" stroke="none" rx="3.476" ry="3.5"/><rect id="rect6343-0-46-6" width="950.351" height="66.468" x="29.182" y="837.806" fill="#d3d7cf" fill-opacity="1" stroke="none" rx="3.476" ry="3.5"/><rect id="rect6343-0-4-2-3" width="577.399" height="38.184" x="260.466" y="851.948" fill="#fff" fill-opacity="1" stroke="none" rx="3.476" ry="3.5"/><rect id="rect7149-2-8" width="203" height="39.182" x="45.17" y="851.429" fill="#babdb6" fill-opacity="1" stroke="none" rx="3.476" ry="3.5"/><rect id="rect7151-1-0" width="3.536" height="47.376" x="143.733" y="846.645" fill="#d3d7cf" fill-opacity="1" stroke="none" rx="0" ry="0"/><rect id="rect7149-5-2-8" width="42" height="39.182" x="858.17" y="851.429" fill="#babdb6" fill-opacity="1" stroke="none" rx="3.476" ry="3.5"/><rect id="rect7149-5-8-4-2" width="42" height="39.182" x="918.17" y="851.429" fill="#babdb6" fill-opacity="1" stroke="none" rx="3.476" ry="3.5"/><text id="text7207-1-3" x="278.123" y="878.816" fill="#000" fill-opacity="1" stroke="none" font-family="Sans" font-size="25.536" font-style="normal" font-weight="normal" letter-spacing="0" word-spacing="0" xml:space="preserve" style="line-height:125%"><tspan id="tspan7209-9-9" x="278.123" y="878.816">Gothenburg, Sweden</tspan></text><rect id="rect6343-0-1-3-4" width="950.351" height="39.468" x="29.182" y="795.806" fill="#d3d7cf" fill-opacity="1" stroke="none" rx="3.476" ry="3.5"/><path id="path6245" fill="none" stroke="#babdb6" stroke-dasharray="none" stroke-linecap="butt" stroke-linejoin="miter" stroke-miterlimit="4" stroke-opacity="1" stroke-width="10" d="m 342.23967,919.32085 0,571.34225"/><path id="path6247" fill="none" stroke="#babdb6" stroke-dasharray="none" stroke-linecap="butt" stroke-linejoin="miter" stroke-miterlimit="4" stroke-opacity="1" stroke-width="10" d="m 38.183765,1318.1291 937.623565,0"/><path id="path6249" fill="none" stroke="#babdb6" stroke-dasharray="none" stroke-linecap="butt" stroke-linejoin="miter" stroke-miterlimit="4" stroke-opacity="1" stroke-width="10" d="m 342.23967,1089.0265 629.32502,0"/><path id="path6251" fill="none" stroke="#babdb6" stroke-dasharray="none" stroke-linecap="butt" stroke-linejoin="miter" stroke-miterlimit="4" stroke-opacity="1" stroke-width="10" d="m 765.08952,903.7645 0,415.7788"/><path id="path8154-4" fill="#c00" fill-opacity="1" stroke="#c00" stroke-dasharray="none" stroke-linejoin="round" stroke-miterlimit="4" stroke-opacity="1" stroke-width="10" d="m 241,548.5 a 17.5,17.5 0 1 1 -35,0 17.5,17.5 0 1 1 35,0 z" transform="translate(250.26153,768.21484)"/><path id="rect7021" fill="#555753" fill-opacity="1" stroke="none" d="m 321.03125,1098.25 0,167.875 130.09375,0 23.375,23.375 23.375,-23.375 141.34375,0 0,-167.875 z" opacity=".85"/><text id="text7207-1-3-8" x="344.55" y="1136.084" fill="#fff" fill-opacity="1" stroke="none" font-family="Sans" font-size="19.122" font-style="normal" font-weight="normal" letter-spacing="0" word-spacing="0" xml:space="preserve" style="line-height:125%"><tspan id="tspan7056" x="344.55" y="1136.084">Gothenburg,</tspan><tspan id="tspan7116" x="344.55" y="1159.987">Sweden</tspan></text><rect id="rect7058" width="265.5" height="44" x="347" y="1197.5" fill="#2e3436" fill-opacity="1" stroke="none" rx="3.476" ry="3.5"/><text id="text7207-1-3-8-7" x="378.925" y="1225.756" fill="#fff" fill-opacity="1" stroke="none" font-family="Sans" font-size="19.122" font-style="normal" font-weight="normal" letter-spacing="0" word-spacing="0" xml:space="preserve" style="line-height:125%"><tspan id="tspan7056-7" x="378.925" y="1225.756">Get directions to here</tspan></text><rect id="rect6343-6-0-9" width="950.351" height="583.467" x="29.182" y="1636.837" fill="#eeeeec" fill-opacity="1" stroke="none" rx="3.476" ry="3.5"/><rect id="rect6343-0-46-6-1" width="950.351" height="66.468" x="29.182" y="1570.369" fill="#d3d7cf" fill-opacity="1" stroke="none" rx="3.476" ry="3.5"/><rect id="rect6343-0-4-2-3-7" width="577.399" height="38.184" x="260.466" y="1584.511" fill="#fff" fill-opacity="1" stroke="none" rx="3.476" ry="3.5"/><rect id="rect7149-2-8-1" width="203" height="39.182" x="45.17" y="1583.992" fill="#babdb6" fill-opacity="1" stroke="none" rx="3.476" ry="3.5"/><rect id="rect7151-1-0-1" width="3.536" height="47.376" x="143.733" y="1579.207" fill="#d3d7cf" fill-opacity="1" stroke="none" rx="0" ry="0"/><rect id="rect7149-5-2-8-9" width="42" height="39.182" x="858.17" y="1583.992" fill="#babdb6" fill-opacity="1" stroke="none" rx="3.476" ry="3.5"/><rect id="rect7149-5-8-4-2-0" width="42" height="39.182" x="918.17" y="1583.992" fill="#babdb6" fill-opacity="1" stroke="none" rx="3.476" ry="3.5"/><text id="text7207-1-3-2" x="278.123" y="1611.379" fill="#000" fill-opacity="1" stroke="none" font-family="Sans" font-size="25.536" font-style="normal" font-weight="normal" letter-spacing="0" word-spacing="0" xml:space="preserve" style="line-height:125%"><tspan id="tspan7209-9-9-5" x="278.123" y="1611.379">Gothenburg, Sweden</tspan></text><rect id="rect6343-0-1-3-4-9" width="950.351" height="39.468" x="29.182" y="1528.369" fill="#d3d7cf" fill-opacity="1" stroke="none" rx="3.476" ry="3.5"/><path id="path6247-1" fill="none" stroke="#babdb6" stroke-dasharray="none" stroke-linecap="butt" stroke-linejoin="miter" stroke-miterlimit="4" stroke-opacity="1" stroke-width="10" d="m 138.18376,2142.6917 265.62358,0 0,-140.6917 174.19264,0 0,-188"/><path id="path8154-4-5" fill="#c00" fill-opacity="1" stroke="#c00" stroke-dasharray="none" stroke-linejoin="round" stroke-miterlimit="4" stroke-opacity="1" stroke-width="15.217" d="m 241,548.5 a 17.5,17.5 0 1 1 -35,0 17.5,17.5 0 1 1 35,0 z" transform="matrix(0.65714287,0,0,0.65714287,-7.1098916,1780.8345)"/><path id="path7199" fill="#fff" fill-opacity="1" stroke="#000" stroke-dasharray="none" stroke-linejoin="round" stroke-miterlimit="4" stroke-opacity="1" stroke-width="2" d="m 572.0625,1221.8438 0,45.25 13.46875,-5.9688 11.78125,20.375 8.65625,-5 -11.25,-19.4375 13.9375,-6.1875 -36.59375,-29.0312 z"/><path id="path8154-4-5-3" fill="#3465a4" fill-opacity="1" stroke="#3465a4" stroke-dasharray="none" stroke-linejoin="round" stroke-miterlimit="4" stroke-opacity="1" stroke-width="15.217" d="m 241,548.5 a 17.5,17.5 0 1 1 -35,0 17.5,17.5 0 1 1 35,0 z" transform="matrix(0.65714287,0,0,0.65714287,430.8348,1454.0751)"/><rect id="rect7226" width="323.855" height="582.656" x="649.124" y="1639.156" fill="#d3d7cf" fill-opacity="1" stroke="none" opacity=".85" rx="0" ry="0"/><text id="text7207-1-3-2-5" x="665.072" y="1723.982" fill="#000" fill-opacity="1" stroke="none" font-family="Sans" font-size="25.536" font-style="normal" font-weight="normal" letter-spacing="0" word-spacing="0" xml:space="preserve" style="line-height:125%"><tspan id="tspan7249" x="665.072" y="1723.982" fill="#888a85">From</tspan></text><rect id="rect6343-0-4-2-3-7-5" width="222.739" height="38.184" x="739.627" y="1694.511" fill="#fff" fill-opacity="1" stroke="none" rx="3.476" ry="3.5"/><rect id="rect7294" width="217.789" height="45.255" x="701.45" y="1807.447" fill="#babdb6" fill-opacity="1" stroke="none" rx="3.476" ry="3.5"/><path id="path7296" fill="none" stroke="#d7dad3" stroke-dasharray="none" stroke-linecap="butt" stroke-linejoin="miter" stroke-miterlimit="4" stroke-opacity="1" stroke-width="3" d="m 773.5748,1800.3759 0,66.468"/><rect id="rect7457" width="74.777" height="46.315" x="775.166" y="1806.917" fill="#888a85" fill-opacity="1" stroke="none"/><path id="path7296-1" fill="none" stroke="#d7dad3" stroke-dasharray="none" stroke-linecap="butt" stroke-linejoin="miter" stroke-miterlimit="4" stroke-opacity="1" stroke-width="3" d="m 851.35655,1800.3759 0,66.468"/><path id="path7323" fill="#555753" fill-opacity="1" stroke="none" d="m 802.4375,1814.5312 c -1.92596,0 -3.46875,1.5611 -3.46875,3.5 l 0,4.8126 -6.5625,0 c -1.92596,0 -3.46875,1.561 -3.46875,3.5 l 0,5.625 c 0,1.9389 1.54279,3.5 3.46875,3.5 l 1.5,0 c -0.60342,0.953 -0.96875,2.0697 -0.96875,3.2812 0,3.406 2.78146,6.1875 6.1875,6.1875 3.40604,0 6.15625,-2.7815 6.15625,-6.1875 0,-1.2115 -0.36533,-2.3282 -0.96875,-3.2812 l 14.5625,0 c -0.60342,0.953 -0.96875,2.0697 -0.96875,3.2812 0,3.406 2.75021,6.1875 6.15625,6.1875 3.40604,0 6.1875,-2.7815 6.1875,-6.1875 0,-1.2115 -0.36533,-2.3282 -0.96875,-3.2812 l 0.0625,0 c 1.92596,0 3.46875,-1.5611 3.46875,-3.5 l 0,-5.625 c 0,-1.939 -1.54279,-3.5 -3.46875,-3.5 l -6.5625,0 0,-4.8126 c 0,-1.9389 -1.54279,-3.5 -3.46875,-3.5 l -16.875,0 z" opacity=".85"/><path id="rect7348" fill="#555753" fill-opacity="1" stroke="none" d="m 861.75,1818.75 0,21 6.09375,0 c -0.53138,0.8336 -0.84375,1.8132 -0.84375,2.875 0,2.9685 2.40647,5.375 5.375,5.375 2.96853,0 5.375,-2.4065 5.375,-5.375 0,-1.0618 -0.31237,-2.0414 -0.84375,-2.875 l 17.6875,0 c -0.53138,0.8336 -0.84375,1.8132 -0.84375,2.875 0,2.9685 2.40647,5.375 5.375,5.375 2.96853,0 5.375,-2.4065 5.375,-5.375 0,-1.0618 -0.31237,-2.0414 -0.84375,-2.875 l 5.34375,0 0,-21 -47.25,0 z m 7.1875,1.9688 6.71875,0 0,6.7187 -6.71875,0 0,-6.7187 z m 9.5625,0.031 6.75,0 0,6.5 -6.75,0 0,-6.5 z m 10,0 6.75,0 0,6.5 -6.75,0 0,-6.5 z m 11.15625,0 6.34375,0 0,14 -6.34375,0 0,-14 z" opacity=".85"/><path id="path7417" fill="#555753" fill-opacity="1" stroke="none" d="m 734.15058,1817.915 c -2.32479,0 -4.2094,1.8846 -4.2094,4.2094 0,1.5333 0.82409,2.8642 2.04931,3.6001 l -5.02174,5.0218 2.1047,2.1046 3.3786,-3.3786 0,4.2094 -5.4833,5.4834 2.1047,2.1046 5.00328,-5.0032 5.22482,5.2247 2.1047,-2.1046 -5.70484,-5.7049 0,-4.2094 3.60014,3.6002 2.1047,-2.1047 -5.1879,-5.1879 c 1.27881,-0.7224 2.14162,-2.0821 2.14162,-3.6555 0,-2.3248 -1.88461,-4.2094 -4.20939,-4.2094 z" opacity=".85"/><text id="text7207-1-3-2-5-0" x="751.531" y="1719.16" fill="#000" fill-opacity="1" stroke="none" font-family="Sans" font-size="20.056" font-style="normal" font-weight="normal" letter-spacing="0" word-spacing="0" xml:space="preserve" style="line-height:125%"><tspan id="tspan7249-5" x="751.531" y="1719.16">My current location</tspan></text><path id="path7482" fill="none" stroke="#eeeeec" stroke-linecap="butt" stroke-linejoin="miter" stroke-opacity="1" stroke-width="1" d="m 636.39609,1883.8145 337.99703,0"/><path id="path7482-2" fill="none" stroke="#eeeeec" stroke-linecap="butt" stroke-linejoin="miter" stroke-opacity="1" stroke-width="1" d="m 636.39609,1943.8145 337.99703,0"/><path id="path7482-2-7" fill="none" stroke="#eeeeec" stroke-linecap="butt" stroke-linejoin="miter" stroke-opacity="1" stroke-width="1" d="m 636.39609,2003.8145 337.99703,0"/><path id="path7482-2-7-6" fill="none" stroke="#eeeeec" stroke-linecap="butt" stroke-linejoin="miter" stroke-opacity="1" stroke-width="1" d="m 636.39609,2063.8145 337.99703,0"/><path id="path7482-2-7-6-3" fill="none" stroke="#eeeeec" stroke-linecap="butt" stroke-linejoin="miter" stroke-opacity="1" stroke-width="1" d="m 636.39609,2123.8145 337.99703,0"/><path id="path7482-2-7-6-3-9" fill="none" stroke="#eeeeec" stroke-linecap="butt" stroke-linejoin="miter" stroke-opacity="1" stroke-width="1" d="m 636.39609,2183.8145 337.99703,0"/><path id="path7574" fill="#888a85" fill-opacity="1" stroke="none" d="m 688.73559,1898.6637 -13.79878,7.9667 -13.79878,7.9668 1e-5,-15.9335 -1e-5,-15.9335 13.79878,7.9668 z" transform="translate(9.8994947,14.142135)"/><path id="path7574-4" fill="#888a85" fill-opacity="1" stroke="none" d="m 688.73559,1898.6637 -13.79878,7.9667 -13.79878,7.9668 1e-5,-15.9335 -1e-5,-15.9335 13.79878,7.9668 z" transform="matrix(0,-1,1,0,-1218.427,2643.9543)"/><path id="path7574-9" fill="#888a85" fill-opacity="1" stroke="none" d="m 688.73559,1898.6637 -13.79878,7.9667 -13.79878,7.9668 1e-5,-15.9335 -1e-5,-15.9335 13.79878,7.9668 z" transform="matrix(-1,0,0,1,1359.7731,134.14216)"/><path id="path7574-4-6" fill="#888a85" fill-opacity="1" stroke="none" d="m 688.73559,1898.6637 -13.79878,7.9667 -13.79878,7.9668 1e-5,-15.9335 -1e-5,-15.9335 13.79878,7.9668 z" transform="matrix(0,-1,1,0,-1218.427,2763.9543)"/><path id="path7574-2" fill="#888a85" fill-opacity="1" stroke="none" d="m 688.73559,1898.6637 -13.79878,7.9667 -13.79878,7.9668 1e-5,-15.9335 -1e-5,-15.9335 13.79878,7.9668 z" transform="translate(9.8994952,254.14216)"/><rect id="rect7648" width="142.128" height="9.899" x="719.128" y="1898.664" fill="#888a85" fill-opacity="1" stroke="none"/><rect id="rect7648-3" width="195.869" height="9.899" x="719.128" y="1918.664" fill="#888a85" fill-opacity="1" stroke="none"/><rect id="rect7648-5" width="142.128" height="9.899" x="719.128" y="1958.664" fill="#888a85" fill-opacity="1" stroke="none"/><rect id="rect7648-3-5" width="195.869" height="9.899" x="719.128" y="1978.664" fill="#888a85" fill-opacity="1" stroke="none"/><rect id="rect7648-5-2" width="142.128" height="9.899" x="719.128" y="2018.664" fill="#888a85" fill-opacity="1" stroke="none"/><rect id="rect7648-3-5-1" width="195.869" height="9.899" x="719.128" y="2038.664" fill="#888a85" fill-opacity="1" stroke="none"/><rect id="rect7648-5-2-6" width="142.128" height="9.899" x="719.128" y="2078.664" fill="#888a85" fill-opacity="1" stroke="none"/><rect id="rect7648-3-5-1-6" width="195.869" height="9.899" x="719.128" y="2098.664" fill="#888a85" fill-opacity="1" stroke="none"/><rect id="rect7648-5-2-6-7" width="142.128" height="9.899" x="719.128" y="2138.664" fill="#888a85" fill-opacity="1" stroke="none"/><rect id="rect7648-3-5-1-6-1" width="195.869" height="9.899" x="719.128" y="2158.664" fill="#888a85" fill-opacity="1" stroke="none"/><path id="path6109" fill="#babdb6" fill-opacity=".8" stroke="none" d="m 1125.7139,83.52066 a 39.597977,39.597977 0 1 1 -79.1959,0 39.597977,39.597977 0 1 1 79.1959,0 z" transform="matrix(0.60714284,0,0,0.60714284,419.61736,63.924386)"/><text id="text6879" x="1068.892" y="125.276" fill="#eeeeec" fill-opacity="1" stroke="none" font-family="Sans" font-size="30.226" font-style="normal" font-weight="normal" letter-spacing="0" word-spacing="0" xml:space="preserve" style="line-height:125%"><tspan id="tspan6881" x="1068.892" y="125.276">1</tspan></text><flowRoot id="flowRoot6904" fill="#000" fill-opacity="1" stroke="none" font-family="Sans" font-size="40" font-style="normal" font-weight="normal" letter-spacing="0" transform="matrix(0.50373546,0,0,0.50373546,577.43489,37.744763)" word-spacing="0" xml:space="preserve" style="line-height:125%"><flowRegion id="flowRegion6906"><rect id="rect6908" width="417.681" height="473.415" x="1115.814" y="93.42"/></flowRegion><flowPara id="flowPara6910">getting from point A to point B starts with a search of the end location, just like a regular search</flowPara></flowRoot><path id="path6109-2" fill="#babdb6" fill-opacity=".8" stroke="none" d="m 1125.7139,83.52066 a 39.597977,39.597977 0 1 1 -79.1959,0 39.597977,39.597977 0 1 1 79.1959,0 z" transform="matrix(0.60714284,0,0,0.60714284,419.6174,823.92438)"/><text id="text6879-2" x="1068.892" y="885.276" fill="#eeeeec" fill-opacity="1" stroke="none" font-family="Sans" font-size="30.226" font-style="normal" font-weight="normal" letter-spacing="0" word-spacing="0" xml:space="preserve" style="line-height:125%"><tspan id="tspan6881-3" x="1068.892" y="885.276">2</tspan></text><flowRoot id="flowRoot6904-3" fill="#000" fill-opacity="1" stroke="none" font-family="Sans" font-size="40" font-style="normal" font-weight="normal" letter-spacing="0" transform="matrix(0.50373546,0,0,0.50373546,577.43493,797.74476)" word-spacing="0" xml:space="preserve" style="line-height:125%"><flowRegion id="flowRegion6906-2"><rect id="rect6908-7" width="540.761" height="604.436" x="1115.814" y="93.42"/></flowRegion><flowPara id="flowPara6910-8">As with every search, the bubble will appear above the location pin.</flowPara><flowPara id="flowPara6948">Pressing &quot;Get directions to here&quot; brings up the sidebar in step 3.</flowPara></flowRoot><path id="path6109-2-6" fill="#babdb6" fill-opacity=".8" stroke="none" d="m 1125.7139,83.52066 a 39.597977,39.597977 0 1 1 -79.1959,0 39.597977,39.597977 0 1 1 79.1959,0 z" transform="matrix(0.60714284,0,0,0.60714284,419.6174,1557.9244)"/><text id="text6879-2-7" x="1068.892" y="1619.276" fill="#eeeeec" fill-opacity="1" stroke="none" font-family="Sans" font-size="30.226" font-style="normal" font-weight="normal" letter-spacing="0" word-spacing="0" xml:space="preserve" style="line-height:125%"><tspan id="tspan6881-3-5" x="1068.892" y="1619.276">3</tspan></text><flowRoot id="flowRoot6904-3-7" fill="#000" fill-opacity="1" stroke="none" font-family="Sans" font-size="40" font-style="normal" font-weight="normal" letter-spacing="0" transform="matrix(0.50373546,0,0,0.50373546,577.43493,1531.7448)" word-spacing="0" xml:space="preserve" style="line-height:125%"><flowRegion id="flowRegion6906-2-2"><rect id="rect6908-7-9" width="540.761" height="393.877" x="1115.814" y="93.42"/></flowRegion><flowPara id="flowPara6999">The sidebar pops up prefilled with &quot;My current location&quot; filled in with your location we figured out by Geolocation and To set to the location you searched for.</flowPara></flowRoot><flowRoot id="flowRoot6904-3-7-2" fill="#000" fill-opacity="1" stroke="none" font-family="Sans" font-size="40" font-style="normal" font-weight="normal" letter-spacing="0" transform="matrix(0.50373546,0,0,0.50373546,577.43491,1751.7448)" word-spacing="0" xml:space="preserve" style="line-height:125%"><flowRegion id="flowRegion6906-2-2-3"><rect id="rect6908-7-9-1" width="540.761" height="393.877" x="1115.814" y="93.42"/></flowRegion><flowPara id="flowPara6999-1">Mode of transportation could be automatically selected depending on distance (3 blocks vs. 200 km).</flowPara></flowRoot><flowRoot id="flowRoot6904-3-7-2-8" fill="#000" fill-opacity="1" stroke="none" font-family="Sans" font-size="40" font-style="normal" font-weight="normal" letter-spacing="0" transform="matrix(0.50373546,0,0,0.50373546,577.43489,1911.7448)" word-spacing="0" xml:space="preserve" style="line-height:125%"><flowRegion id="flowRegion6906-2-2-3-9"><rect id="rect6908-7-9-1-9" width="532.339" height="183.318" x="1115.814" y="93.42"/></flowRegion><flowPara id="flowPara6999-1-1">Clicking a stop in the list highlights the stop on the map.</flowPara></flowRoot><text id="text7207-1-3-2-5-5" x="699.072" y="1775.982" fill="#000" fill-opacity="1" stroke="none" font-family="Sans" font-size="25.536" font-style="normal" font-weight="normal" letter-spacing="0" word-spacing="0" xml:space="preserve" style="line-height:125%"><tspan id="tspan7249-9" x="699.072" y="1775.982" fill="#888a85">To</tspan></text><rect id="rect6343-0-4-2-3-7-5-1" width="222.739" height="38.184" x="739.627" y="1746.511" fill="#fff" fill-opacity="1" stroke="none" rx="3.476" ry="3.5"/><text id="text7207-1-3-2-5-0-9" x="751.531" y="1771.16" fill="#000" fill-opacity="1" stroke="none" font-family="Sans" font-size="20.056" font-style="normal" font-weight="normal" letter-spacing="0" word-spacing="0" xml:space="preserve" style="line-height:125%"><tspan id="tspan7249-5-8" x="751.531" y="1771.16">Gothenburg</tspan></text></g></svg>