<svg xmlns="http://www.w3.org/2000/svg" xmlns:svg="http://www.w3.org/2000/svg" id="svg2" width="744.094" height="1052.362" version="1.1"><metadata id="metadata7"/><g id="layer1"><rect id="rect6789" width="5" height="41.429" x="79.643" y="411.655" fill="#babdb6" fill-opacity="1" stroke="none" rx="0" ry="0"/><path id="path6019" fill="#c00" fill-opacity="1" stroke="none" d="m 379.99999,423.79074 a 18.571428,18.571428 0 1 1 -37.14286,0 18.571428,18.571428 0 1 1 37.14286,0 z" transform="matrix(0.76923077,0,0,0.76923077,-195.87912,92.08358)"/><rect id="rect6789-7" width="5" height="41.429" x="319.643" y="411.655" fill="#babdb6" fill-opacity="1" stroke="none" rx="0" ry="0"/><path id="path6019-1" fill="#c00" fill-opacity="1" stroke="none" d="m 379.99999,423.79074 a 18.571428,18.571428 0 1 1 -37.14286,0 18.571428,18.571428 0 1 1 37.14286,0 z" transform="matrix(0.76923077,0,0,0.76923077,44.12088,92.083579)"/><path id="path6812" fill="none" stroke="#2e3436" stroke-dasharray="3 12" stroke-dashoffset="0" stroke-linecap="round" stroke-miterlimit="4" stroke-width="3" d="m 329.51178,388.03537 a 54.800777,54.800777 0 1 1 -109.60156,0 54.800777,54.800777 0 1 1 109.60156,0 z" transform="translate(46.870058,42.072853)"/><path id="path6814" fill="#eeeeec" stroke="#000" stroke-linecap="butt" stroke-linejoin="miter" stroke-opacity="1" stroke-width="1" d="m 323.25,417.125 11.5,30 8.125,-9.4375 15.625,15.1875 5.5,-7.25 L 345.59375,434.53125 355,423.625 l -31.75,-6.5 z"/><rect id="rect6789-7-3" width="5" height="41.429" x="579.643" y="411.655" fill="#babdb6" fill-opacity="1" stroke="none" rx="0" ry="0"/><path id="path6019-1-4" fill="#c00" fill-opacity="1" stroke="none" d="m 379.99999,423.79074 a 18.571428,18.571428 0 1 1 -37.14286,0 18.571428,18.571428 0 1 1 37.14286,0 z" transform="matrix(0.76923077,0,0,0.76923077,304.12088,92.08357)"/><path id="path6814-7" fill="#eeeeec" stroke="#000" stroke-linecap="butt" stroke-linejoin="miter" stroke-opacity="1" stroke-width="1" d="m 583.25,417.125 11.5,30 8.125,-9.4375 15.625,15.1875 5.5,-7.25 L 605.59375,434.53125 615,423.625 l -31.75,-6.5 z"/><path id="rect6846" fill="#000" fill-opacity="1" stroke="none" d="m 228.08579,292.875 0,95 82.59375,0 9.90625,9.90625 9.90625,-9.90625 88.59375,0 0,-95 z" opacity=".585"/><text id="text6855" x="240.603" y="328.08" fill="#eeeeec" fill-opacity="1" stroke="none" font-family="Sans" font-size="11.444" font-style="normal" font-weight="normal" letter-spacing="0" word-spacing="0" xml:space="preserve" style="line-height:125%"><tspan id="tspan6857" x="240.603" y="328.08">[Name of location]</tspan><tspan id="tspan6859" x="240.603" y="342.385">Position Accuracy: [x] M</tspan></text><path id="rect6846-1" fill="#000" fill-opacity="1" stroke="none" d="m 488.08579,292.875 0,95 82.59375,0 9.90625,9.90625 9.90625,-9.90625 88.59375,0 0,-95 z" opacity=".585"/><text id="text6888" x="37.915" y="539.327" fill="#babdb6" fill-opacity="1" stroke="none" font-family="Sans" font-size="13.437" font-style="normal" font-weight="normal" letter-spacing="0" word-spacing="0" xml:space="preserve" style="line-height:125%"><tspan id="tspan6890" x="37.915" y="539.327">initial state</tspan></text><rect id="rect6892" width="4.243" height="445.477" x="192.333" y="205.955" fill="#babdb6" fill-opacity="1" stroke="none" opacity=".585"/><rect id="rect6892-9" width="4.243" height="445.477" x="437.699" y="205.955" fill="#babdb6" fill-opacity="1" stroke="none" opacity=".585"/><text id="text6888-1" x="224.216" y="539.327" fill="#babdb6" fill-opacity="1" stroke="none" font-family="Sans" font-size="13.437" font-style="normal" font-weight="normal" letter-spacing="0" word-spacing="0" xml:space="preserve" style="line-height:125%"><tspan id="tspan6964" x="224.216" y="539.327">when far away and clicked:</tspan><tspan id="tspan6933" x="224.216" y="556.123">show bubble with data</tspan><tspan id="tspan6935" x="224.216" y="572.92">and the circle</tspan></text><text id="text6888-1-0" x="494.431" y="539.327" fill="#babdb6" fill-opacity="1" stroke="none" font-family="Sans" font-size="13.437" font-style="normal" font-weight="normal" letter-spacing="0" word-spacing="0" xml:space="preserve" style="line-height:125%"><tspan id="tspan6966" x="494.431" y="539.327">when close up and clicked:</tspan><tspan id="tspan6933-3" x="494.431" y="556.123">show bubble with data</tspan><tspan id="tspan6935-7" x="494.431" y="572.92">the circle is outside the area</tspan></text><text id="text6855-6" x="376.421" y="333.617" fill="#eeeeec" fill-opacity="1" stroke="none" font-family="Sans" font-size="7.663" font-style="normal" font-weight="normal" letter-spacing="0" word-spacing="0" xml:space="preserve" style="line-height:125%"><tspan id="tspan6859-3" x="376.421" y="333.617">2</tspan></text><text id="text6855-5" x="504.603" y="328.08" fill="#eeeeec" fill-opacity="1" stroke="none" font-family="Sans" font-size="11.444" font-style="normal" font-weight="normal" letter-spacing="0" word-spacing="0" xml:space="preserve" style="line-height:125%"><tspan id="tspan6857-4" x="504.603" y="328.08">[Name of location]</tspan><tspan id="tspan6859-7" x="504.603" y="342.385">Position Accuracy: [x] M</tspan></text><text id="text6855-6-0" x="640.421" y="333.617" fill="#eeeeec" fill-opacity="1" stroke="none" font-family="Sans" font-size="7.663" font-style="normal" font-weight="normal" letter-spacing="0" word-spacing="0" xml:space="preserve" style="line-height:125%"><tspan id="tspan6859-3-7" x="640.421" y="333.617">2</tspan></text></g></svg>