<svg xmlns="http://www.w3.org/2000/svg" xmlns:svg="http://www.w3.org/2000/svg" xmlns:xlink="http://www.w3.org/1999/xlink" id="svg9376" width="64" height="64" version="1.1"><metadata id="metadata4"/><g id="layer1" transform="translate(0,-988.3622)"><path id="path9384" fill="#407bbb" fill-opacity="1" fill-rule="nonzero" stroke="none" stroke-width="1" d="m 1,100 c 0,0.55228 -0.44771525,1 -1,1 -0.55228475,0 -1,-0.44772 -1,-1 0,-0.552285 0.44771525,-1 1,-1 0.55228475,0 1,0.447715 1,1 z" color="#000" display="inline" enable-background="new" opacity=".6" overflow="visible" transform="translate(0,952.3622)" visibility="visible" style="marker:none"/><path id="path11223" fill="#407bbb" fill-opacity="1" fill-rule="nonzero" stroke="none" stroke-width="1" d="m 1,100 c 0,0.55228 -0.44771525,1 -1,1 -0.55228475,0 -1,-0.44772 -1,-1 0,-0.552285 0.44771525,-1 1,-1 0.55228475,0 1,0.447715 1,1 z" color="#000" display="inline" enable-background="new" opacity=".6" overflow="visible" transform="translate(32,952.3622)" visibility="visible" style="marker:none"/><path id="path11279" fill="#407bbb" fill-opacity="1" fill-rule="nonzero" stroke="none" stroke-width="1" d="m 1,100 c 0,0.55228 -0.44771525,1 -1,1 -0.55228475,0 -1,-0.44772 -1,-1 0,-0.552285 0.44771525,-1 1,-1 0.55228475,0 1,0.447715 1,1 z" color="#000" display="inline" enable-background="new" opacity=".6" overflow="visible" transform="translate(0,920.3622)" visibility="visible" style="marker:none"/><path id="path11287" fill="#407bbb" fill-opacity="1" fill-rule="nonzero" stroke="none" stroke-width="1" d="m 1,100 c 0,0.55228 -0.44771525,1 -1,1 -0.55228475,0 -1,-0.44772 -1,-1 0,-0.552285 0.44771525,-1 1,-1 0.55228475,0 1,0.447715 1,1 z" color="#000" display="inline" enable-background="new" opacity=".6" overflow="visible" transform="translate(32,920.3622)" visibility="visible" style="marker:none"/><path id="path11385" fill="#407bbb" fill-opacity="1" fill-rule="nonzero" stroke="none" stroke-width="1" d="m 1,100 c 0,0.55228 -0.44771525,1 -1,1 -0.55228475,0 -1,-0.44772 -1,-1 0,-0.552285 0.44771525,-1 1,-1 0.55228475,0 1,0.447715 1,1 z" color="#000" display="inline" enable-background="new" opacity=".6" overflow="visible" transform="translate(64,952.3622)" visibility="visible" style="marker:none"/><path id="path11425" fill="#407bbb" fill-opacity="1" fill-rule="nonzero" stroke="none" stroke-width="1" d="m 1,100 c 0,0.55228 -0.44771525,1 -1,1 -0.55228475,0 -1,-0.44772 -1,-1 0,-0.552285 0.44771525,-1 1,-1 0.55228475,0 1,0.447715 1,1 z" color="#000" display="inline" enable-background="new" opacity=".6" overflow="visible" transform="translate(64,920.3622)" visibility="visible" style="marker:none"/><path id="path11467" fill="#407bbb" fill-opacity="1" fill-rule="nonzero" stroke="none" stroke-width="1" d="m 1,100 c 0,0.55228 -0.44771525,1 -1,1 -0.55228475,0 -1,-0.44772 -1,-1 0,-0.552285 0.44771525,-1 1,-1 0.55228475,0 1,0.447715 1,1 z" color="#000" display="inline" enable-background="new" opacity=".6" overflow="visible" transform="translate(0,888.3622)" visibility="visible" style="marker:none"/><path id="path11475" fill="#407bbb" fill-opacity="1" fill-rule="nonzero" stroke="none" stroke-width="1" d="m 1,100 c 0,0.55228 -0.44771525,1 -1,1 -0.55228475,0 -1,-0.44772 -1,-1 0,-0.552285 0.44771525,-1 1,-1 0.55228475,0 1,0.447715 1,1 z" color="#000" display="inline" enable-background="new" opacity=".6" overflow="visible" transform="translate(32,888.3622)" visibility="visible" style="marker:none"/><path id="path11515" fill="#407bbb" fill-opacity="1" fill-rule="nonzero" stroke="none" stroke-width="1" d="m 1,100 c 0,0.55228 -0.44771525,1 -1,1 -0.55228475,0 -1,-0.44772 -1,-1 0,-0.552285 0.44771525,-1 1,-1 0.55228475,0 1,0.447715 1,1 z" color="#000" display="inline" enable-background="new" opacity=".6" overflow="visible" transform="translate(64,888.3622)" visibility="visible" style="marker:none"/><g id="g11553"><path id="path11517" fill="#407bbb" fill-opacity="1" fill-rule="nonzero" stroke="none" stroke-width="1" d="m 1,100 c 0,0.55228 -0.44771525,1 -1,1 -0.55228475,0 -1,-0.44772 -1,-1 0,-0.552285 0.44771525,-1 1,-1 0.55228475,0 1,0.447715 1,1 z" color="#000" display="inline" enable-background="new" opacity=".3" overflow="visible" transform="matrix(0.5,0,0,0.5,7.5,1001.8622)" visibility="visible" style="marker:none"/><path id="path11519" fill="#407bbb" fill-opacity="1" fill-rule="nonzero" stroke="none" stroke-width="1" d="m 1,100 c 0,0.55228 -0.44771525,1 -1,1 -0.55228475,0 -1,-0.44772 -1,-1 0,-0.552285 0.44771525,-1 1,-1 0.55228475,0 1,0.447715 1,1 z" color="#000" display="inline" enable-background="new" opacity=".3" overflow="visible" transform="matrix(0.5,0,0,0.5,15.5,1001.8622)" visibility="visible" style="marker:none"/><path id="path11521" fill="#407bbb" fill-opacity="1" fill-rule="nonzero" stroke="none" stroke-width="1" d="m 1,100 c 0,0.55228 -0.44771525,1 -1,1 -0.55228475,0 -1,-0.44772 -1,-1 0,-0.552285 0.44771525,-1 1,-1 0.55228475,0 1,0.447715 1,1 z" color="#000" display="inline" enable-background="new" opacity=".3" overflow="visible" transform="matrix(0.5,0,0,0.5,23.5,1001.8622)" visibility="visible" style="marker:none"/><path id="path11523" fill="#407bbb" fill-opacity="1" fill-rule="nonzero" stroke="none" stroke-width="1" d="m 1,100 c 0,0.55228 -0.44771525,1 -1,1 -0.55228475,0 -1,-0.44772 -1,-1 0,-0.552285 0.44771525,-1 1,-1 0.55228475,0 1,0.447715 1,1 z" color="#000" display="inline" enable-background="new" opacity=".3" overflow="visible" transform="matrix(0.5,0,0,0.5,7.5,993.8622)" visibility="visible" style="marker:none"/><path id="path11525" fill="#407bbb" fill-opacity="1" fill-rule="nonzero" stroke="none" stroke-width="1" d="m 1,100 c 0,0.55228 -0.44771525,1 -1,1 -0.55228475,0 -1,-0.44772 -1,-1 0,-0.552285 0.44771525,-1 1,-1 0.55228475,0 1,0.447715 1,1 z" color="#000" display="inline" enable-background="new" opacity=".3" overflow="visible" transform="matrix(0.5,0,0,0.5,15.5,993.8622)" visibility="visible" style="marker:none"/><path id="path11527" fill="#407bbb" fill-opacity="1" fill-rule="nonzero" stroke="none" stroke-width="1" d="m 1,100 c 0,0.55228 -0.44771525,1 -1,1 -0.55228475,0 -1,-0.44772 -1,-1 0,-0.552285 0.44771525,-1 1,-1 0.55228475,0 1,0.447715 1,1 z" color="#000" display="inline" enable-background="new" opacity=".3" overflow="visible" transform="matrix(0.5,0,0,0.5,23.5,993.8622)" visibility="visible" style="marker:none"/><path id="path11529" fill="#407bbb" fill-opacity="1" fill-rule="nonzero" stroke="none" stroke-width="1" d="m 1,100 c 0,0.55228 -0.44771525,1 -1,1 -0.55228475,0 -1,-0.44772 -1,-1 0,-0.552285 0.44771525,-1 1,-1 0.55228475,0 1,0.447715 1,1 z" color="#000" display="inline" enable-background="new" opacity=".3" overflow="visible" transform="matrix(0.5,0,0,0.5,7.5,985.8622)" visibility="visible" style="marker:none"/><path id="path11531" fill="#407bbb" fill-opacity="1" fill-rule="nonzero" stroke="none" stroke-width="1" d="m 1,100 c 0,0.55228 -0.44771525,1 -1,1 -0.55228475,0 -1,-0.44772 -1,-1 0,-0.552285 0.44771525,-1 1,-1 0.55228475,0 1,0.447715 1,1 z" color="#000" display="inline" enable-background="new" opacity=".3" overflow="visible" transform="matrix(0.5,0,0,0.5,15.5,985.8622)" visibility="visible" style="marker:none"/><path id="path11533" fill="#407bbb" fill-opacity="1" fill-rule="nonzero" stroke="none" stroke-width="1" d="m 1,100 c 0,0.55228 -0.44771525,1 -1,1 -0.55228475,0 -1,-0.44772 -1,-1 0,-0.552285 0.44771525,-1 1,-1 0.55228475,0 1,0.447715 1,1 z" color="#000" display="inline" enable-background="new" opacity=".3" overflow="visible" transform="matrix(0.5,0,0,0.5,23.5,985.8622)" visibility="visible" style="marker:none"/><path id="path11535" fill="#407bbb" fill-opacity="1" fill-rule="nonzero" stroke="none" stroke-width="1" d="m 1,100 c 0,0.55228 -0.44771525,1 -1,1 -0.55228475,0 -1,-0.44772 -1,-1 0,-0.552285 0.44771525,-1 1,-1 0.55228475,0 1,0.447715 1,1 z" color="#000" display="inline" enable-background="new" opacity=".3" overflow="visible" transform="matrix(0.5,0,0,0.5,7.5,977.8622)" visibility="visible" style="marker:none"/><path id="path11537" fill="#407bbb" fill-opacity="1" fill-rule="nonzero" stroke="none" stroke-width="1" d="m 1,100 c 0,0.55228 -0.44771525,1 -1,1 -0.55228475,0 -1,-0.44772 -1,-1 0,-0.552285 0.44771525,-1 1,-1 0.55228475,0 1,0.447715 1,1 z" color="#000" display="inline" enable-background="new" opacity=".3" overflow="visible" transform="matrix(0.5,0,0,0.5,15.5,977.8622)" visibility="visible" style="marker:none"/><path id="path11539" fill="#407bbb" fill-opacity="1" fill-rule="nonzero" stroke="none" stroke-width="1" d="m 1,100 c 0,0.55228 -0.44771525,1 -1,1 -0.55228475,0 -1,-0.44772 -1,-1 0,-0.552285 0.44771525,-1 1,-1 0.55228475,0 1,0.447715 1,1 z" color="#000" display="inline" enable-background="new" opacity=".3" overflow="visible" transform="matrix(0.5,0,0,0.5,23.5,977.8622)" visibility="visible" style="marker:none"/><path id="path11547" fill="#407bbb" fill-opacity="1" fill-rule="nonzero" stroke="none" stroke-width="1" d="m 1,100 c 0,0.55228 -0.44771525,1 -1,1 -0.55228475,0 -1,-0.44772 -1,-1 0,-0.552285 0.44771525,-1 1,-1 0.55228475,0 1,0.447715 1,1 z" color="#000" display="inline" enable-background="new" opacity=".3" overflow="visible" transform="matrix(0.5,0,0,0.5,31.5,993.8622)" visibility="visible" style="marker:none"/><path id="path11549" fill="#407bbb" fill-opacity="1" fill-rule="nonzero" stroke="none" stroke-width="1" d="m 1,100 c 0,0.55228 -0.44771525,1 -1,1 -0.55228475,0 -1,-0.44772 -1,-1 0,-0.552285 0.44771525,-1 1,-1 0.55228475,0 1,0.447715 1,1 z" color="#000" display="inline" enable-background="new" opacity=".3" overflow="visible" transform="matrix(0.5,0,0,0.5,31.5,985.8622)" visibility="visible" style="marker:none"/><path id="path11551" fill="#407bbb" fill-opacity="1" fill-rule="nonzero" stroke="none" stroke-width="1" d="m 1,100 c 0,0.55228 -0.44771525,1 -1,1 -0.55228475,0 -1,-0.44772 -1,-1 0,-0.552285 0.44771525,-1 1,-1 0.55228475,0 1,0.447715 1,1 z" color="#000" display="inline" enable-background="new" opacity=".3" overflow="visible" transform="matrix(0.5,0,0,0.5,31.5,977.8622)" visibility="visible" style="marker:none"/></g><use id="use11570" width="64" height="64" x="0" y="0" transform="translate(32,0)" xlink:href="#g11553"/><use id="use11572" width="64" height="64" x="0" y="0" transform="translate(0,-32)" xlink:href="#use11570"/><use id="use11574" width="64" height="64" x="0" y="0" transform="translate(-32,0)" xlink:href="#use11572"/></g></svg>