<svg xmlns="http://www.w3.org/2000/svg" xmlns:svg="http://www.w3.org/2000/svg" xmlns:xlink="http://www.w3.org/1999/xlink" id="svg39557" width="200" height="156" version="1.1"><defs id="defs39559"><filter id="filter17312-5-8" color-interpolation-filters="sRGB"><feGaussianBlur id="feGaussianBlur17314-8-2" stdDeviation="4.594"/></filter><filter id="filter20132-0" color-interpolation-filters="sRGB"><feGaussianBlur id="feGaussianBlur20134-0" stdDeviation="1.237"/></filter><linearGradient id="linearGradient39507" x1="143.797" x2="143.797" y1="244.954" y2="111.5" gradientUnits="userSpaceOnUse" xlink:href="#linearGradient23064-64"/><linearGradient id="linearGradient23064-64"><stop id="stop23066-6" offset="0" stop-color="#fff" stop-opacity="1"/><stop id="stop23068-3" offset="1" stop-color="#f8f8f8" stop-opacity="1"/></linearGradient><linearGradient id="linearGradient39555" x1="143.797" x2="143.797" y1="244.954" y2="111.5" gradientTransform="translate(-0.54210119,-0.58927905)" gradientUnits="userSpaceOnUse" xlink:href="#linearGradient23064-64"/><mask id="mask40210" maskUnits="userSpaceOnUse"><g id="g40212"><rect id="rect40214" width="214" height="166.5" x="-5.5" y="-6" fill="#fff" fill-opacity="1" stroke="none" stroke-width="1" color="#000" display="inline" enable-background="accumulate" overflow="visible" transform="translate(-302.5421,419.89756)" visibility="visible" style="marker:none"/><rect id="rect40216" width="180" height="135" x="-292.542" y="428.898" fill="#000" fill-opacity="1" stroke="none" stroke-width="1" color="#000" display="inline" enable-background="accumulate" overflow="visible" visibility="visible" style="marker:none"/></g></mask></defs><metadata id="metadata39562"/><g id="layer1" transform="translate(302.5421,-419.89756)"><g id="g40177" mask="url(#mask40210)"><g id="g39499" display="inline" transform="translate(-349.79687,312.48719)"><path id="path39501" fill="#000" fill-opacity="1" fill-rule="nonzero" stroke="none" stroke-width="1" d="m 58.28125,117.5 0,134 179,0 0,-134 -179,0 z" color="#000" display="inline" enable-background="new" filter="url(#filter17312-5-8)" opacity=".189" overflow="visible" transform="matrix(0.99476275,0,0,0.9996606,0.24748489,0.97298439)" visibility="visible" xlink:href="#rect17284" style="marker:none"/><path id="path39503" fill="#000" fill-opacity="1" fill-rule="nonzero" stroke="#000" stroke-opacity="1" stroke-width="1" d="m 58.28125,117.5 0,134 179,0 0,-134 -179,0 z" color="#000" display="inline" enable-background="new" filter="url(#filter20132-0)" opacity=".522" overflow="visible" transform="translate(-0.5,0.8838835)" visibility="visible" xlink:href="#rect17284" style="marker:none"/></g><g id="g39638"><rect id="rect39505" width="179" height="134" x="57.755" y="116.91" fill="url(#linearGradient39555)" fill-opacity="1" fill-rule="nonzero" stroke="#babdb6" stroke-opacity="1" stroke-width="1" color="#000" display="inline" enable-background="new" overflow="visible" rx="0" ry="0" transform="translate(-349.79687,312.48719)" visibility="visible" style="marker:none"/><g id="g39509" display="inline" opacity=".5" transform="translate(179,402.00001)"><g id="g39511" display="inline" transform="matrix(2,0,0,2,-598,-475.63782)"><rect stroke-width="1.781" style="marker:none" id="rect39513" width="16" height="16" x="101" y="277" fill="none" stroke="none" color="#bebebe" display="inline" enable-background="new" overflow="visible" visibility="visible"/><path id="path39515" fill="#bebebe" fill-opacity="1" stroke="none" stroke-width="1.473" d="m 108.99341,277.99971 c -3.85415,0 -7.00036,3.14621 -7.00036,7.00037 0,3.85416 3.14621,7.00038 7.00036,7.00038 3.85416,0 7.00037,-3.14622 7.00037,-7.00038 0,-3.85416 -3.14621,-7.00037 -7.00037,-7.00037 z m 0,1.99404 c 2.77328,0 5.00633,2.23305 5.00633,5.00633 0,2.77329 -2.23305,5.00633 -5.00633,5.00633 -2.77327,0 -5.00632,-2.23304 -5.00632,-5.00633 0,-2.77328 2.23305,-5.00633 5.00632,-5.00633 z" color="#bebebe" direction="ltr" display="inline" enable-background="new" font-family="Sans" font-size="medium" font-stretch="normal" font-style="normal" font-variant="normal" font-weight="normal" letter-spacing="normal" overflow="visible" text-anchor="start" text-decoration="none" visibility="visible" word-spacing="normal" writing-mode="lr-tb" style="text-indent:0;text-align:start;line-height:normal;text-transform:none;block-progression:tb;marker:none;-inkscape-font-specification:Sans"/></g><path id="path39517" fill="#bebebe" fill-opacity="1" fill-rule="nonzero" stroke="none" stroke-width="1" d="m 178.875,220.875 4.125,2.375 -1.375,2.625 0.125,2.625 -1,-1.625 -2,0.75 3.125,2.75 -1,2.875 2,3.5 -6.625,-5.875 2.625,-10" color="#000" display="inline" enable-background="new" opacity=".522" overflow="visible" transform="translate(-568,-133.63782)" visibility="visible" style="marker:none"/><path id="path39519" fill="#bebebe" fill-opacity="1" fill-rule="nonzero" stroke="none" stroke-width="1" d="m 188.125,227.5 -0.875,4.5 3.875,-0.375 0.375,4.375 c 0.80777,-0.70603 1.48851,-1.55695 2,-2.5 0.92375,-1.70312 1.28014,-3.70785 1,-5.625 l -6.375,-0.375" color="#000" display="inline" enable-background="new" opacity=".522" overflow="visible" transform="translate(-568,-133.63782)" visibility="visible" style="marker:none"/><path id="path39521" fill="#bebebe" fill-opacity="1" fill-rule="nonzero" stroke="none" stroke-width="1" d="m 186.375,223.375 0,2.625 3.75,-0.25 0.125,-1.5 2.25,2.75 -0.875,-2.875 3.25,3.5 2,1.875 c 0.31605,-0.99267 0.60783,-1.99307 0.875,-3 0.32923,-1.24084 0.62107,-2.49159 0.875,-3.75 l -5.375,-4.25 -2.25,3.125 -4.625,1.75" color="#000" display="inline" enable-background="new" opacity=".522" overflow="visible" transform="translate(-568,-133.63782)" visibility="visible" style="marker:none"/></g></g></g></g></svg>