<svg xmlns="http://www.w3.org/2000/svg" xmlns:svg="http://www.w3.org/2000/svg" xmlns:xlink="http://www.w3.org/1999/xlink" id="svg3641" width="540" height="300" version="1.1"><defs id="defs3643"><linearGradient id="linearGradient16413-5-7-0"><stop id="stop16415-9-0-0" offset="0" stop-color="#fff" stop-opacity=".12"/><stop id="stop16421-8-1-1" offset=".325" stop-color="#525252" stop-opacity=".059"/><stop id="stop16417-5-9-0" offset="1" stop-color="#fff" stop-opacity=".157"/></linearGradient><linearGradient id="linearGradient4473" x1="261.021" x2="261.021" y1="700.765" y2="660" gradientTransform="matrix(0.79158771,0,0,0.76190477,-56.374349,413.08468)" gradientUnits="userSpaceOnUse" xlink:href="#linearGradient16413-5-7-0"/><linearGradient id="linearGradient4478" x1="261.021" x2="261.021" y1="700.765" y2="660" gradientTransform="matrix(0.99272409,0,0,0.76190477,30.913269,413.08468)" gradientUnits="userSpaceOnUse" xlink:href="#linearGradient16413-5-7-0"/></defs><metadata id="metadata3646"/><g id="layer1" transform="translate(0,-752.36215)"><path id="path3601" fill="#000" fill-opacity="1" stroke="#a5a5a5" stroke-dasharray="none" stroke-dashoffset="0" stroke-linecap="round" stroke-linejoin="miter" stroke-miterlimit="4" stroke-opacity="1" stroke-width="2" d="m 452.00056,976.3622 c -0.4866,0 -0.9657,-0.1632 -1.3386,-0.4798 l -15.4682,-13.4834 -372.57864,2e-4 C 57.83384,962.3992 55,959.07878 55,954.81028 l 0,-125.96839 c 0,-4.7685 2.83384,-8.4639 7.61512,-8.4639 l 408.77024,0 c 4.7812,0 7.6151,4.1954 7.6151,8.4639 l 0,125.96839 c 0,4.3765 -2.6009,7.58932 -7.6151,7.58892 l -2.578,-2e-4 -15.4682,13.4834 c -0.3729,0.3166 -0.8519,0.4798 -1.3386,0.4798 z" display="inline"/><text font-size="14" style="text-indent:0;text-align:start;line-height:125%;text-transform:none;block-progression:tb;marker:none;-inkscape-font-specification:Cantarell Bold" id="text3604" x="99.228" y="850.362" fill="#eeeeec" fill-opacity="1" fill-rule="nonzero" stroke="none" stroke-width="1" color="#000" direction="ltr" display="inline" enable-background="accumulate" font-family="Cantarell" font-stretch="normal" font-style="normal" font-variant="normal" font-weight="bold" letter-spacing="normal" overflow="visible" text-anchor="start" text-decoration="none" visibility="visible" word-spacing="normal" writing-mode="lr-tb" xml:space="preserve"><tspan id="tspan3606" x="99.228" y="850.362">Time Zone Updated to CST</tspan></text><text id="text3608" x="100" y="874.362" fill="#babdb6" fill-opacity="1" fill-rule="nonzero" stroke="none" stroke-width="1" color="#000" direction="ltr" display="inline" enable-background="accumulate" font-family="Cantarell" font-size="14" font-stretch="normal" font-style="normal" font-variant="normal" font-weight="500" letter-spacing="normal" overflow="visible" text-anchor="start" text-decoration="none" visibility="visible" word-spacing="normal" writing-mode="lr-tb" xml:space="preserve" style="text-indent:0;text-align:start;line-height:125%;text-transform:none;block-progression:tb;marker:none;-inkscape-font-specification:Cantarell Medium"><tspan id="tspan3610" x="100" y="874.362">A location change has been detected and the time zone has</tspan><tspan id="tspan4460" x="100" y="891.862">been updated.</tspan></text><rect stroke-linejoin="miter" style="marker:none" id="rect3612" width="164.26" height="32" x="304.5" y="915.18" fill="url(#linearGradient4478)" fill-opacity="1" fill-rule="nonzero" stroke="#fff" stroke-dasharray="none" stroke-dashoffset="0" stroke-linecap="butt" stroke-miterlimit="4" stroke-opacity=".502" stroke-width="1" color="#000" display="inline" enable-background="accumulate" overflow="visible" rx="16" ry="16" visibility="visible"/><text font-size="14" style="text-indent:0;text-align:center;line-height:125%;text-transform:none;block-progression:tb;marker:none;-inkscape-font-specification:Cantarell Medium" id="text3614" x="386.384" y="936.017" fill="#fff" fill-opacity="1" fill-rule="nonzero" stroke="none" stroke-width="1" color="#000" direction="ltr" display="inline" enable-background="accumulate" font-family="Cantarell" font-stretch="normal" font-style="normal" font-variant="normal" font-weight="500" letter-spacing="normal" overflow="visible" text-anchor="middle" text-decoration="none" visibility="visible" word-spacing="normal" writing-mode="lr-tb" xml:space="preserve"><tspan id="tspan3616" x="386.384" y="936.017">Date &amp; Time Settings</tspan></text><rect id="rect4462" width="130.979" height="32" x="161.781" y="915.18" fill="url(#linearGradient4473)" fill-opacity="1" fill-rule="nonzero" stroke="#fff" stroke-dasharray="none" stroke-dashoffset="0" stroke-linecap="butt" stroke-linejoin="miter" stroke-miterlimit="4" stroke-opacity=".502" stroke-width="1" color="#000" display="inline" enable-background="accumulate" overflow="visible" rx="16" ry="16" visibility="visible" style="marker:none"/><text id="text4464" x="227.066" y="936.017" fill="#fff" fill-opacity="1" fill-rule="nonzero" stroke="none" stroke-width="1" color="#000" direction="ltr" display="inline" enable-background="accumulate" font-family="Cantarell" font-size="14" font-stretch="normal" font-style="normal" font-variant="normal" font-weight="500" letter-spacing="normal" overflow="visible" text-anchor="middle" text-decoration="none" visibility="visible" word-spacing="normal" writing-mode="lr-tb" xml:space="preserve" style="text-indent:0;text-align:center;line-height:125%;text-transform:none;block-progression:tb;marker:none;-inkscape-font-specification:Cantarell Medium"><tspan id="tspan4466" x="227.066" y="936.017">Undo</tspan></text><g id="g4588" fill="#eeeeec" fill-opacity="1" transform="matrix(1.6028627,0,0,1.6028627,67.327574,833.35698)"><g id="layer11" fill="#eeeeec" fill-opacity="1" transform="translate(-223,-649)"><path id="path24839" fill="#eeeeec" fill-opacity="1" stroke="none" stroke-width="2.154" d="m 230.5002,649.01339 c -4.13029,0 -7.48661,3.35631 -7.48661,7.48661 0,4.13029 3.35632,7.48661 7.48661,7.48661 4.13029,0 7.4866,-3.35632 7.4866,-7.48661 0,-4.1303 -3.35631,-7.48661 -7.4866,-7.48661 z m 0,1.97322 c 3.04941,0 5.51339,2.46398 5.51339,5.51339 0,3.04941 -2.46398,5.51339 -5.51339,5.51339 -3.04941,0 -5.5134,-2.46398 -5.5134,-5.51339 0,-3.04941 2.46399,-5.51339 5.5134,-5.51339 z" baseline-shift="baseline" color="#000" direction="ltr" display="inline" enable-background="new" font-family="Sans" font-size="medium" font-stretch="normal" font-style="normal" font-variant="normal" font-weight="normal" letter-spacing="normal" overflow="visible" text-anchor="start" text-decoration="none" visibility="visible" word-spacing="normal" writing-mode="lr-tb" style="text-indent:0;text-align:start;line-height:normal;text-transform:none;block-progression:tb;marker:none;-inkscape-font-specification:Sans"/><path id="path25609" fill="#eeeeec" fill-opacity="1" stroke="none" stroke-width="1" d="m 227.3125,652.96875 a 0.50005,0.50005 0 0 0 -0.21875,0.84375 l 3.09375,3.0625 a 0.50005,0.50005 0 0 0 0.0625,0.0312 0.50005,0.50005 0 0 0 0.0625,0.0312 0.50005,0.50005 0 0 0 0.0625,0.0312 0.50005,0.50005 0 0 0 0.0312,0 0.50005,0.50005 0 0 0 0.0625,0.0312 0.50005,0.50005 0 0 0 0.0937,0 l 0.15625,0 2.78125,0 a 0.50005,0.50005 0 1 0 0,-1 l -2.75,0 -2.96875,-2.875 a 0.50005,0.50005 0 0 0 -0.46875,-0.15625 z" baseline-shift="baseline" color="#000" direction="ltr" display="inline" enable-background="new" font-family="Sans" font-size="medium" font-stretch="normal" font-style="normal" font-variant="normal" font-weight="normal" letter-spacing="normal" overflow="visible" text-anchor="start" text-decoration="none" visibility="visible" word-spacing="normal" writing-mode="lr-tb" style="text-indent:0;text-align:start;line-height:normal;text-transform:none;block-progression:tb;marker:none;-inkscape-font-specification:Sans"/></g></g></g></svg>