<svg xmlns="http://www.w3.org/2000/svg" xmlns:svg="http://www.w3.org/2000/svg" xmlns:xlink="http://www.w3.org/1999/xlink" id="svg23171" width="1000" height="1600" version="1.1"><defs id="defs23173"><linearGradient id="linearGradient60585-4-48-2"><stop id="stop60587-8-5-5" offset="0" stop-color="#dbdbdb" stop-opacity="1"/><stop id="stop60589-6-3-3" offset="1" stop-color="#f7f7f7" stop-opacity="1"/></linearGradient><linearGradient id="linearGradient22629" x1="49" x2="49" y1="39.502" y2="10.498" gradientTransform="matrix(0.41772152,0,0,1.0645162,964.53165,-2251.2509)" gradientUnits="userSpaceOnUse" xlink:href="#linearGradient60585-4-48-2"/><linearGradient id="linearGradient72990-6"><stop id="stop72992-9" offset="0" stop-color="#ededed" stop-opacity="1"/><stop id="stop72994-5" offset="1" stop-color="#e0e2e0" stop-opacity="1"/></linearGradient><linearGradient id="linearGradient22879" x1="49" x2="49" y1="39.502" y2="10.498" gradientTransform="matrix(0.41772152,0,0,1.0645162,964.53165,-2251.2509)" gradientUnits="userSpaceOnUse" xlink:href="#linearGradient60585-4-48-2"/><linearGradient id="linearGradient3265" x1="49" x2="49" y1="39.502" y2="10.498" gradientTransform="matrix(0.41772152,0,0,1.0645162,-556.47455,348.8587)" gradientUnits="userSpaceOnUse" xlink:href="#linearGradient60585-4-48-2"/><linearGradient id="linearGradient3299" x1="-1016.372" x2="-1016.372" y1="-554.436" y2="-518.316" gradientTransform="translate(671.3892,908.4495)" gradientUnits="userSpaceOnUse" xlink:href="#linearGradient72990-6"/><linearGradient id="linearGradient3464" x1="49" x2="49" y1="39.502" y2="10.498" gradientTransform="matrix(2.0632911,0,0,1.0645162,-554.10105,848.74925)" gradientUnits="userSpaceOnUse" xlink:href="#linearGradient60585-4-48-2"/><linearGradient id="linearGradient3484" x1="49" x2="49" y1="39.502" y2="10.498" gradientTransform="matrix(2.0632911,0,0,1.0645162,545.89895,848.74925)" gradientUnits="userSpaceOnUse" xlink:href="#linearGradient60585-4-48-2"/><linearGradient id="linearGradient4178" x1="-1016.372" x2="-1016.372" y1="-554.436" y2="-518.316" gradientTransform="translate(1331.3892,858.4495)" gradientUnits="userSpaceOnUse" xlink:href="#linearGradient72990-6"/><linearGradient id="linearGradient4180" x1="49" x2="49" y1="39.502" y2="10.498" gradientTransform="matrix(0.41772152,0,0,1.0645162,-116.47455,338.8587)" gradientUnits="userSpaceOnUse" xlink:href="#linearGradient60585-4-48-2"/><linearGradient id="linearGradient4401" x1="-1016.372" x2="-1016.372" y1="-554.436" y2="-518.316" gradientTransform="translate(1331.3892,908.4495)" gradientUnits="userSpaceOnUse" xlink:href="#linearGradient72990-6"/><linearGradient id="linearGradient4403" x1="49" x2="49" y1="39.502" y2="10.498" gradientTransform="matrix(0.41772152,0,0,1.0645162,103.5254,348.8587)" gradientUnits="userSpaceOnUse" xlink:href="#linearGradient60585-4-48-2"/><linearGradient id="linearGradient4405" x1="49" x2="49" y1="39.502" y2="10.498" gradientTransform="matrix(2.0632911,0,0,1.0645162,1845.899,848.74925)" gradientUnits="userSpaceOnUse" xlink:href="#linearGradient60585-4-48-2"/><linearGradient id="linearGradient4563" x1="49" x2="49" y1="39.502" y2="10.498" gradientTransform="matrix(2.0632911,0,0,1.0645162,1561.8991,848.74925)" gradientUnits="userSpaceOnUse" xlink:href="#linearGradient60585-4-48-2"/><linearGradient id="linearGradient4311" x1="-1016.372" x2="-1016.372" y1="-554.436" y2="-518.316" gradientTransform="translate(1331.3892,198.4495)" gradientUnits="userSpaceOnUse" xlink:href="#linearGradient72990-6"/><linearGradient id="linearGradient4455" x1="-1016.372" x2="-1016.372" y1="-554.436" y2="-518.316" gradientTransform="translate(1331.3892,98.4495)" gradientUnits="userSpaceOnUse" xlink:href="#linearGradient72990-6"/></defs><metadata id="metadata23176"/><g id="layer1" transform="translate(0,547.63782)"><path id="path3940" fill="url(#linearGradient4178)" fill-opacity="1" fill-rule="nonzero" stroke="#a7aba7" stroke-opacity="1" stroke-width=".993" d="m 109.49625,301.8655 759.00085,-3e-4 c 4.9856,0 8.9994,4.46 8.9994,10 l 0,37 -8.9994,0 -759.00095,3e-4 -8.9995,0 0,-37 c 0,-5.54 4.0139,-10 8.9995,-10 z" color="#bebebe" display="inline" enable-background="accumulate" filter="url(#filter12000-4-9-2)" overflow="visible" visibility="visible" style="marker:none"/><path id="path3942" fill="none" stroke="#fff" stroke-linecap="round" stroke-linejoin="miter" stroke-opacity=".461" stroke-width="1" d="m 830.4937,308.979 c 0,33.9928 0,33.9928 0,33.9928" display="inline"/><path id="path3944" fill="none" stroke="#a7aba7" stroke-linecap="round" stroke-linejoin="miter" stroke-opacity="1" stroke-width="1" d="m 829.4937,308.9718 c 0,33.9928 0,33.9928 0,33.9928" display="inline"/><text id="text3946" x="489.1" y="331.113" fill="#fff" fill-opacity="1" stroke="none" display="inline" font-family="Cantarell" font-size="14" font-stretch="normal" font-style="normal" font-variant="normal" font-weight="bold" text-anchor="middle" writing-mode="lr-tb" xml:space="preserve" style="text-align:center;line-height:125%;-inkscape-font-specification:Cantarell Bold"><tspan id="tspan3948" x="489.1" y="331.113">iagno</tspan></text><text id="text3950" x="489.1" y="330.113" fill="#888a85" fill-opacity="1" stroke="none" display="inline" font-family="Cantarell" font-size="14" font-stretch="normal" font-style="normal" font-variant="normal" font-weight="bold" text-anchor="middle" writing-mode="lr-tb" xml:space="preserve" style="text-align:center;line-height:125%;-inkscape-font-specification:Cantarell Bold"><tspan id="tspan3952" x="489.1" y="330.113">Iagno</tspan></text><g id="g3954" fill="#fff" fill-opacity="1" display="inline" opacity=".5" transform="translate(845.9954,318.9718)"><g id="g3962" fill="#fff" fill-opacity="1" transform="translate(-60,-518)"><g id="g3964" fill="#fff" fill-opacity="1" display="inline" transform="translate(19,-242)"><path id="path3966" fill="#fff" fill-opacity="1" fill-rule="nonzero" stroke="none" stroke-width="1.781" d="m 45,764 1,0 c 0.01037,-1.2e-4 0.02079,-4.6e-4 0.03125,0 0.254951,0.0112 0.50987,0.12858 0.6875,0.3125 L 49,766.59375 51.3125,764.3125 C 51.578125,764.082 51.759172,764.007 52,764 l 1,0 0,1 c 0,0.28647 -0.03434,0.55065 -0.25,0.75 l -2.28125,2.28125 2.25,2.25 C 52.906938,770.46942 52.999992,770.7347 53,771 l 0,1 -1,0 c -0.265301,-10e-6 -0.530586,-0.0931 -0.71875,-0.28125 L 49,769.4375 46.71875,771.71875 C 46.530586,771.90694 46.26529,772 46,772 l -1,0 0,-1 c -3e-6,-0.26529 0.09306,-0.53058 0.28125,-0.71875 l 2.28125,-2.25 L 45.28125,765.75 C 45.070508,765.55537 44.97809,765.28075 45,765 l 0,-1 z" color="#bebebe" direction="ltr" display="inline" enable-background="new" font-family="Andale Mono" font-size="medium" font-stretch="normal" font-style="normal" font-variant="normal" font-weight="normal" letter-spacing="normal" overflow="visible" text-anchor="start" text-decoration="none" visibility="visible" word-spacing="normal" writing-mode="lr-tb" style="text-indent:0;text-align:start;line-height:normal;text-transform:none;block-progression:tb;marker:none;-inkscape-font-specification:Andale Mono"/></g></g></g><g id="g3974" fill="#888a85" fill-opacity="1" display="inline" transform="translate(845.9954,317.9719)"><g id="g3982" fill="#888a85" fill-opacity="1" transform="translate(-60,-518)"><g id="g3984" fill="#888a85" fill-opacity="1" display="inline" transform="translate(19,-242)"><path id="path3986" fill="#888a85" fill-opacity="1" fill-rule="nonzero" stroke="none" stroke-width="1.781" d="m 45,764 1,0 c 0.01037,-1.2e-4 0.02079,-4.6e-4 0.03125,0 0.254951,0.0112 0.50987,0.12858 0.6875,0.3125 L 49,766.59375 51.3125,764.3125 C 51.578125,764.082 51.759172,764.007 52,764 l 1,0 0,1 c 0,0.28647 -0.03434,0.55065 -0.25,0.75 l -2.28125,2.28125 2.25,2.25 C 52.906938,770.46942 52.999992,770.7347 53,771 l 0,1 -1,0 c -0.265301,-10e-6 -0.530586,-0.0931 -0.71875,-0.28125 L 49,769.4375 46.71875,771.71875 C 46.530586,771.90694 46.26529,772 46,772 l -1,0 0,-1 c -3e-6,-0.26529 0.09306,-0.53058 0.28125,-0.71875 l 2.28125,-2.25 L 45.28125,765.75 C 45.070508,765.55537 44.97809,765.28075 45,765 l 0,-1 z" color="#bebebe" direction="ltr" display="inline" enable-background="new" font-family="Andale Mono" font-size="medium" font-stretch="normal" font-style="normal" font-variant="normal" font-weight="normal" letter-spacing="normal" overflow="visible" text-anchor="start" text-decoration="none" visibility="visible" word-spacing="normal" writing-mode="lr-tb" style="text-indent:0;text-align:start;line-height:normal;text-transform:none;block-progression:tb;marker:none;-inkscape-font-specification:Andale Mono"/></g></g></g><rect id="rect3994" width="33" height="31" x="-112.506" y="351.972" fill="none" stroke="#fff" stroke-dasharray="none" stroke-dashoffset="0" stroke-linecap="butt" stroke-linejoin="miter" stroke-miterlimit="4" stroke-opacity="1" stroke-width="1" color="#000" display="inline" enable-background="accumulate" opacity=".4" overflow="visible" rx="3" ry="3" visibility="visible" style="marker:none"/><rect stroke-linejoin="miter" style="marker:none" id="rect3996" width="33" height="33" x="-112.506" y="348.972" fill="url(#linearGradient4180)" fill-opacity="1" fill-rule="nonzero" stroke="#a7a7a7" stroke-dasharray="none" stroke-dashoffset="0" stroke-linecap="butt" stroke-miterlimit="4" stroke-opacity="1" stroke-width="1" color="#000" display="inline" enable-background="accumulate" overflow="visible" rx="3" ry="3" visibility="visible"/><g id="g3998" fill="#fff" fill-opacity="1" opacity=".5" transform="translate(-104.03274,358.4553)"><g id="g4016" fill="#fff" fill-opacity="1" display="inline" transform="translate(-41.0002,-767)"><path id="path4018" fill="#fff" fill-opacity="1" stroke="none" stroke-width="2" d="M 42.78125,776 A 1.0001,1.0001 0 0 0 42,777 l 0,4 a 1.0001,1.0001 0 0 0 1,1 l 4,0 a 1.0001,1.0001 0 1 0 0,-2 l -3,0 0,-3 a 1.0001,1.0001 0 0 0 -1.21875,-1 z" baseline-shift="baseline" color="#000" direction="ltr" display="inline" enable-background="new" font-family="Sans" font-size="medium" font-stretch="normal" font-style="normal" font-variant="normal" font-weight="normal" letter-spacing="normal" overflow="visible" text-anchor="start" text-decoration="none" visibility="visible" word-spacing="normal" writing-mode="lr-tb" style="text-indent:0;text-align:start;line-height:normal;text-transform:none;block-progression:tb;marker:none;-inkscape-font-specification:Sans"/><path id="path4020" fill="#fff" fill-opacity="1" stroke="none" stroke-width="2" d="m 47.375,775.5 a 1.0001,1.0001 0 0 0 -0.59375,0.28125 l -4.5,4.5 a 1.016466,1.016466 0 1 0 1.4375,1.4375 l 4.5,-4.5 A 1.0001,1.0001 0 0 0 47.375,775.5 z" baseline-shift="baseline" color="#000" direction="ltr" display="inline" enable-background="new" font-family="Sans" font-size="medium" font-stretch="normal" font-style="normal" font-variant="normal" font-weight="normal" letter-spacing="normal" overflow="visible" text-anchor="start" text-decoration="none" visibility="visible" word-spacing="normal" writing-mode="lr-tb" style="text-indent:0;text-align:start;line-height:normal;text-transform:none;block-progression:tb;marker:none;-inkscape-font-specification:Sans"/><rect id="rect4022" width="1" height="1" x="42" y="781" fill="#fff" fill-opacity="1" stroke="none" stroke-width="2" color="#000" display="inline" enable-background="new" overflow="visible" visibility="visible" style="marker:none"/><path id="path4024" fill="#fff" fill-opacity="1" stroke="none" stroke-width="2" d="M 50.90625,768 A 1.001098,1.001098 0 1 0 51,770 l 3,0 0,3 a 1.0001,1.0001 0 1 0 2,0 l 0,-4 a 1.0001,1.0001 0 0 0 -1,-1 l -4,0 a 1.0001,1.0001 0 0 0 -0.09375,0 z" baseline-shift="baseline" color="#000" direction="ltr" display="inline" enable-background="new" font-family="Sans" font-size="medium" font-stretch="normal" font-style="normal" font-variant="normal" font-weight="normal" letter-spacing="normal" overflow="visible" text-anchor="start" text-decoration="none" visibility="visible" word-spacing="normal" writing-mode="lr-tb" style="text-indent:0;text-align:start;line-height:normal;text-transform:none;block-progression:tb;marker:none;-inkscape-font-specification:Sans"/><rect id="rect4026" width="1" height="1" x="55" y="768" fill="#fff" fill-opacity="1" stroke="none" stroke-width="2" color="#000" display="inline" enable-background="new" overflow="visible" visibility="visible" style="marker:none"/><path id="path4028" fill="#fff" fill-opacity="1" stroke="none" stroke-width="2" d="m 54.78125,768 a 1.0001,1.0001 0 0 0 -0.5,0.28125 l -4.5,4.46875 a 1.016466,1.016466 0 1 0 1.4375,1.4375 l 4.5,-4.46875 A 1.0001,1.0001 0 0 0 54.78125,768 z" baseline-shift="baseline" color="#000" direction="ltr" display="inline" enable-background="new" font-family="Sans" font-size="medium" font-stretch="normal" font-style="normal" font-variant="normal" font-weight="normal" letter-spacing="normal" overflow="visible" text-anchor="start" text-decoration="none" visibility="visible" word-spacing="normal" writing-mode="lr-tb" style="text-indent:0;text-align:start;line-height:normal;text-transform:none;block-progression:tb;marker:none;-inkscape-font-specification:Sans"/><rect id="rect4030" width="1" height="1" x="42" y="776" fill="#fff" fill-opacity="1" fill-rule="nonzero" stroke="none" stroke-width="2" color="#000" display="inline" enable-background="accumulate" overflow="visible" visibility="visible" style="marker:none"/><rect id="rect4032" width="1" height="1" x="47" y="781" fill="#fff" fill-opacity="1" fill-rule="nonzero" stroke="none" stroke-width="2" color="#000" display="inline" enable-background="accumulate" overflow="visible" visibility="visible" style="marker:none"/><rect id="rect4034" width="1" height="1" x="55" y="773" fill="#fff" fill-opacity="1" fill-rule="nonzero" stroke="none" stroke-width="2" color="#000" display="inline" enable-background="accumulate" overflow="visible" visibility="visible" style="marker:none"/><rect id="rect4036" width="1" height="1" x="50" y="768" fill="#fff" fill-opacity="1" fill-rule="nonzero" stroke="none" stroke-width="2" color="#000" display="inline" enable-background="accumulate" overflow="visible" visibility="visible" style="marker:none"/></g></g><g id="g4038" fill="#2e3436" transform="translate(-104.03295,357.485)"><g id="g4056" fill="#2e3436" display="inline" transform="translate(-41.0002,-767)"><path id="path4058" fill="#2e3436" fill-opacity="1" stroke="none" stroke-width="2" d="M 42.78125,776 A 1.0001,1.0001 0 0 0 42,777 l 0,4 a 1.0001,1.0001 0 0 0 1,1 l 4,0 a 1.0001,1.0001 0 1 0 0,-2 l -3,0 0,-3 a 1.0001,1.0001 0 0 0 -1.21875,-1 z" baseline-shift="baseline" color="#000" direction="ltr" display="inline" enable-background="new" font-family="Sans" font-size="medium" font-stretch="normal" font-style="normal" font-variant="normal" font-weight="normal" letter-spacing="normal" overflow="visible" text-anchor="start" text-decoration="none" visibility="visible" word-spacing="normal" writing-mode="lr-tb" style="text-indent:0;text-align:start;line-height:normal;text-transform:none;block-progression:tb;marker:none;-inkscape-font-specification:Sans"/><path id="path4060" fill="#2e3436" fill-opacity="1" stroke="none" stroke-width="2" d="m 47.375,775.5 a 1.0001,1.0001 0 0 0 -0.59375,0.28125 l -4.5,4.5 a 1.016466,1.016466 0 1 0 1.4375,1.4375 l 4.5,-4.5 A 1.0001,1.0001 0 0 0 47.375,775.5 z" baseline-shift="baseline" color="#000" direction="ltr" display="inline" enable-background="new" font-family="Sans" font-size="medium" font-stretch="normal" font-style="normal" font-variant="normal" font-weight="normal" letter-spacing="normal" overflow="visible" text-anchor="start" text-decoration="none" visibility="visible" word-spacing="normal" writing-mode="lr-tb" style="text-indent:0;text-align:start;line-height:normal;text-transform:none;block-progression:tb;marker:none;-inkscape-font-specification:Sans"/><rect id="rect4062" width="1" height="1" x="42" y="781" fill="#2e3436" fill-opacity="1" stroke="none" stroke-width="2" color="#000" display="inline" enable-background="new" overflow="visible" visibility="visible" style="marker:none"/><path id="path4064" fill="#2e3436" fill-opacity="1" stroke="none" stroke-width="2" d="M 50.90625,768 A 1.001098,1.001098 0 1 0 51,770 l 3,0 0,3 a 1.0001,1.0001 0 1 0 2,0 l 0,-4 a 1.0001,1.0001 0 0 0 -1,-1 l -4,0 a 1.0001,1.0001 0 0 0 -0.09375,0 z" baseline-shift="baseline" color="#000" direction="ltr" display="inline" enable-background="new" font-family="Sans" font-size="medium" font-stretch="normal" font-style="normal" font-variant="normal" font-weight="normal" letter-spacing="normal" overflow="visible" text-anchor="start" text-decoration="none" visibility="visible" word-spacing="normal" writing-mode="lr-tb" style="text-indent:0;text-align:start;line-height:normal;text-transform:none;block-progression:tb;marker:none;-inkscape-font-specification:Sans"/><rect id="rect4066" width="1" height="1" x="55" y="768" fill="#2e3436" fill-opacity="1" stroke="none" stroke-width="2" color="#000" display="inline" enable-background="new" overflow="visible" visibility="visible" style="marker:none"/><path id="path4068" fill="#2e3436" fill-opacity="1" stroke="none" stroke-width="2" d="m 54.78125,768 a 1.0001,1.0001 0 0 0 -0.5,0.28125 l -4.5,4.46875 a 1.016466,1.016466 0 1 0 1.4375,1.4375 l 4.5,-4.46875 A 1.0001,1.0001 0 0 0 54.78125,768 z" baseline-shift="baseline" color="#000" direction="ltr" display="inline" enable-background="new" font-family="Sans" font-size="medium" font-stretch="normal" font-style="normal" font-variant="normal" font-weight="normal" letter-spacing="normal" overflow="visible" text-anchor="start" text-decoration="none" visibility="visible" word-spacing="normal" writing-mode="lr-tb" style="text-indent:0;text-align:start;line-height:normal;text-transform:none;block-progression:tb;marker:none;-inkscape-font-specification:Sans"/><rect id="rect4070" width="1" height="1" x="42" y="776" fill="#2e3436" fill-opacity="1" fill-rule="nonzero" stroke="none" stroke-width="2" color="#000" display="inline" enable-background="accumulate" overflow="visible" visibility="visible" style="marker:none"/><rect id="rect4072" width="1" height="1" x="47" y="781" fill="#2e3436" fill-opacity="1" fill-rule="nonzero" stroke="none" stroke-width="2" color="#000" display="inline" enable-background="accumulate" overflow="visible" visibility="visible" style="marker:none"/><rect id="rect4074" width="1" height="1" x="55" y="773" fill="#2e3436" fill-opacity="1" fill-rule="nonzero" stroke="none" stroke-width="2" color="#000" display="inline" enable-background="accumulate" overflow="visible" visibility="visible" style="marker:none"/><rect id="rect4076" width="1" height="1" x="50" y="768" fill="#2e3436" fill-opacity="1" fill-rule="nonzero" stroke="none" stroke-width="2" color="#000" display="inline" enable-background="accumulate" overflow="visible" visibility="visible" style="marker:none"/></g></g><path id="path4078" fill="none" stroke="#fff" stroke-linecap="round" stroke-linejoin="miter" stroke-opacity="1" stroke-width="1" d="m -109.83025,349.9718 27.6348,0" opacity=".3"/><rect id="rect4090" width="777" height="605" x="100.5" y="346.862" fill="#eeeeec" fill-opacity="1" stroke="#a7aba7" stroke-dasharray="none" stroke-dashoffset="0" stroke-linecap="square" stroke-miterlimit="4" stroke-opacity="1" stroke-width="1"/><g id="g5656" transform="translate(-712.08886,168)"><text id="text5658" x="1193.691" y="955.539" fill="#888a85" fill-opacity="1" stroke="none" display="inline" font-family="Cantarell" font-size="14" font-stretch="normal" font-style="normal" font-variant="normal" font-weight="normal" text-anchor="start" writing-mode="lr-tb" xml:space="preserve" style="text-align:start;line-height:125%;-inkscape-font-specification:Cantarell"><tspan id="tspan5660" x="1193.691" y="955.539">00:32</tspan></text><g id="g5662" transform="matrix(0.42105263,0,0,0.42105263,688.62717,549.72191)"><g id="g5664" transform="matrix(2.9346802,0,0,2.9346802,-731.0443,6449.8776)"><path id="path5666" fill="#bebebe" fill-opacity="1" stroke="none" stroke-width="1" d="m 645.48444,-1876.8297 a 0.50005,0.50005 0 0 0 -0.40625,0.5 l 0,2.5 -1.5,0 a 0.50005,0.50005 0 1 0 0,1 l 2,0 a 0.50005,0.50005 0 0 0 0.5,-0.5 l 0,-3 a 0.50005,0.50005 0 0 0 -0.59375,-0.5 z" baseline-shift="baseline" color="#000" direction="ltr" display="inline" enable-background="accumulate" font-family="Sans" font-size="medium" font-stretch="normal" font-style="normal" font-variant="normal" font-weight="normal" letter-spacing="normal" overflow="visible" text-anchor="start" text-decoration="none" visibility="visible" word-spacing="normal" writing-mode="lr-tb" style="text-indent:0;text-align:start;line-height:normal;text-transform:none;block-progression:tb;marker:none;-inkscape-font-specification:Sans"/><path id="path5668" fill="#bebebe" fill-opacity="1" stroke="none" stroke-width="2" d="m 645.55287,-1879.7672 c -3.5601,0 -6.44332,2.9142 -6.44332,6.4743 0,3.5601 2.88322,6.4743 6.44332,6.4743 3.56009,0 6.4743,-2.9142 6.4743,-6.4743 0,-3.5601 -2.91421,-6.4743 -6.4743,-6.4743 z m 0,1.9826 c 2.48864,0 4.49174,2.0031 4.49174,4.4917 0,2.4887 -2.0031,4.4918 -4.49174,4.4918 -2.48864,0 -4.46076,-2.0031 -4.46076,-4.4918 0,-2.4886 1.97212,-4.4917 4.46076,-4.4917 z" baseline-shift="baseline" color="#000" direction="ltr" display="inline" enable-background="accumulate" font-family="Sans" font-size="medium" font-stretch="normal" font-style="normal" font-variant="normal" font-weight="normal" letter-spacing="normal" overflow="visible" text-anchor="start" text-decoration="none" visibility="visible" word-spacing="normal" writing-mode="lr-tb" style="text-indent:0;text-align:start;line-height:normal;text-transform:none;block-progression:tb;marker:none;-inkscape-font-specification:Sans"/></g></g></g><g id="g5670" fill="#2e3436" transform="matrix(2.9223897,0,0,2.9223897,759.4236,830.4479)"><g id="g5688" fill="#2e3436" display="inline" transform="translate(-241.0002,-627)"><path id="path5690" fill="#2e3436" fill-opacity="1" stroke="none" stroke-width="2" d="m 253.90645,628.96875 a 1.0001,1.0001 0 0 0 -0.125,0.0312 1.0001,1.0001 0 0 0 -0.78125,1 l 0,1.6875 c -0.38225,-0.57796 -0.84927,-1.08223 -1.40625,-1.5 -1.15563,-0.86677 -2.53199,-1.25227 -3.875,-1.1875 -0.19186,0.009 -0.37223,0.0353 -0.5625,0.0625 -1.52218,0.21741 -2.97815,1.02304 -3.96875,2.34375 -1.98119,2.64144 -1.42267,6.42505 1.21875,8.40625 2.64147,1.98122 6.42504,1.42267 8.40625,-1.21875 a 1.0063276,1.0063276 0 0 0 0.1875,-0.5937 1.0063276,1.0063276 0 0 0 0,-0.15625 l 0,-0.84375 -0.8125,0 -0.0937,0 a 1.0063276,1.0063276 0 0 0 -0.0937,0 1.0063276,1.0063276 0 0 0 -0.8125,0.40625 c -1.33265,1.77674 -3.81702,2.11387 -5.59375,0.78125 -1.77674,-1.33264 -2.1139,-3.81699 -0.78125,-5.59375 1.33265,-1.77674 3.817,-2.11389 5.59375,-0.78125 0.42946,0.32212 0.76954,0.73295 1.03125,1.1875 l -1.4375,0 a 1.0001,1.0001 0 0 0 -1,1 1.0001,1.0001 0 0 0 0,0.21875 l 0,0.78125 0.84375,0 0.15625,0 4,0 1,0 0,-1 0,-4 a 1.0001,1.0001 0 0 0 0,-0.1875 l 0,-0.8125 -0.8125,0 a 1.0001,1.0001 0 0 0 -0.28125,-0.0312 z" baseline-shift="baseline" color="#bebebe" direction="ltr" display="inline" enable-background="accumulate" font-family="Sans" font-size="medium" font-stretch="normal" font-style="normal" font-variant="normal" font-weight="normal" letter-spacing="normal" overflow="visible" text-anchor="start" text-decoration="none" visibility="visible" word-spacing="normal" writing-mode="lr-tb" style="text-indent:0;text-align:start;line-height:normal;text-transform:none;block-progression:tb;marker:none;-inkscape-font-specification:Sans"/></g></g><text id="text5692" x="781.198" y="900.296" fill="#2e3436" fill-opacity="1" stroke="none" font-family="Cantarell" font-size="14.3" font-stretch="normal" font-style="normal" font-variant="normal" font-weight="normal" letter-spacing="0" text-anchor="middle" word-spacing="0" xml:space="preserve" style="text-align:center;line-height:125%;-inkscape-font-specification:Cantarell"><tspan id="tspan5694" x="781.198" y="900.296">Play Again</tspan></text><text id="text5696" x="614.99" y="1234.296" fill="#2e3436" fill-opacity="1" stroke="none" font-family="Cantarell" font-size="14.3" font-stretch="normal" font-style="normal" font-variant="normal" font-weight="normal" letter-spacing="0" text-anchor="middle" word-spacing="0" xml:space="preserve" style="text-align:center;line-height:125%;-inkscape-font-specification:Cantarell"><tspan id="tspan5698" x="614.99" y="1234.296">Resolve</tspan></text><g id="g5700" fill="#888a85" transform="matrix(2.3855896,0,0,2.3855896,596.2635,1167.2773)"><g id="g5702" fill="#888a85" display="inline" transform="translate(-281.0002,-257)"><path d="m 289,257.03125 c -0.40018,0 -0.81534,0.15911 -1.125,0.46875 l -6.375,6.375 c -0.61932,0.61929 -0.61932,1.63071 0,2.25 l 6.375,6.375 c 0.61931,0.61929 1.63068,0.61929 2.25,0 l 6.375,-6.375 c 0.61932,-0.61929 0.61931,-1.63071 0,-2.25 l -6.375,-6.375 c -0.30966,-0.30964 -0.72482,-0.46875 -1.125,-0.46875 z M 288.8125,260 c 1.64243,-0.092 3.0955,1.17008 3.1875,2.8125 -10e-5,1.40136 -0.37771,1.92177 -1.59375,2.84375 -0.19093,0.14364 -0.3256,0.2506 -0.375,0.3125 C 289.98185,266.03085 290,266.002 290,266 c 0.007,0.52831 -0.47163,1 -1,1 -0.52837,0 -1.007,-0.47169 -1,-1 0,-0.50239 0.22424,-0.94342 0.46875,-1.25 0.24451,-0.30663 0.4913,-0.51638 0.71875,-0.6875 0.20405,-0.16056 0.46083,-0.38454 0.6875,-0.65625 0.0935,-0.1121 0.129,-0.30766 0.125,-0.4375 l 0,-0.0313 c -0.0316,-0.56324 -0.49926,-0.9691 -1.0625,-0.9375 -0.56324,0.0316 -0.9691,0.43676 -0.9375,1 l -2,0 c -0.092,-1.64243 1.17007,-2.9079 2.8125,-3 z M 289,268 c 0.55228,0 1,0.44772 1,1 0,0.55228 -0.44772,1 -1,1 -0.55228,0 -1,-0.44772 -1,-1 0,-0.55228 0.44772,-1 1,-1 z" style="marker:none" id="path5704" fill="#888a85" fill-opacity="1" stroke="none" stroke-width="2" color="#bebebe" display="inline" overflow="visible" visibility="visible"/></g></g><text font-stretch="normal" style="text-align:center;line-height:125%;-inkscape-font-specification:Cantarell" id="text5720" x="495.088" y="1234.296" fill="#2e3436" fill-opacity="1" stroke="none" font-family="Cantarell" font-size="14.3" font-style="normal" font-variant="normal" font-weight="normal" letter-spacing="0" text-anchor="middle" word-spacing="0" xml:space="preserve"><tspan id="tspan5722" x="495.088" y="1234.296">Pause</tspan></text><g id="g5724" fill="#888a85" transform="matrix(3.25,0,0,3.25,-50.65214,-451.64304)"><g id="g5726" fill="#888a85" transform="translate(39.99995,9)"><path id="path5728" fill="#888a85" fill-opacity="1" stroke="none" stroke-width="2" d="m 124,491 0,8 3,0 0,-8 -3,0 z" color="#bebebe" direction="ltr" display="inline" font-family="Andale Mono" font-size="medium" font-stretch="normal" font-style="normal" font-variant="normal" font-weight="normal" letter-spacing="normal" overflow="visible" text-anchor="start" text-decoration="none" visibility="visible" word-spacing="normal" style="text-indent:0;text-align:start;line-height:normal;text-transform:none;marker:none"/><path id="path5730" fill="#888a85" fill-opacity="1" stroke="none" stroke-width="2" d="m 129,491 0,8 3,0 0,-8 -3,0 z" color="#bebebe" direction="ltr" display="inline" font-family="Andale Mono" font-size="medium" font-stretch="normal" font-style="normal" font-variant="normal" font-weight="normal" letter-spacing="normal" overflow="visible" text-anchor="start" text-decoration="none" visibility="visible" word-spacing="normal" style="text-indent:0;text-align:start;line-height:normal;text-transform:none;marker:none"/></g></g><rect id="rect4098" width="559" height="559" x="121" y="369.362" fill="#4a9776" fill-opacity="1" stroke="#000" stroke-dasharray="none" stroke-linecap="round" stroke-miterlimit="4" stroke-opacity="1" stroke-width="2"/><rect id="rect3118" width="69" height="559" x="191" y="369.362" fill="#fff" fill-opacity="0" stroke="#000" stroke-dasharray="none" stroke-linecap="round" stroke-miterlimit="4" stroke-opacity="1" stroke-width="2"/><rect id="rect3120" width="69" height="559" x="612" y="369.362" fill="#fff" fill-opacity="0" stroke="#000" stroke-dasharray="none" stroke-linecap="round" stroke-miterlimit="4" stroke-opacity="1" stroke-width="2"/><rect id="rect3124" width="69" height="559" x="333" y="369.362" fill="#fff" fill-opacity="0" stroke="#000" stroke-dasharray="none" stroke-linecap="round" stroke-miterlimit="4" stroke-opacity="1" stroke-width="2"/><rect id="rect3126" width="69" height="559" x="471.058" y="369.393" fill="#fff" fill-opacity="0" stroke="#000" stroke-dasharray="none" stroke-linecap="round" stroke-miterlimit="4" stroke-opacity="1" stroke-width="2"/><rect id="rect3128" width="69" height="559" x="438.331" y="-680.906" fill="none" stroke="#000" stroke-dasharray="none" stroke-linecap="round" stroke-miterlimit="4" stroke-opacity="1" stroke-width="2" transform="matrix(0,1,-1,0,0,0)"/><rect id="rect3130" width="69" height="559" x="858.425" y="-680.75" fill="none" stroke="#000" stroke-dasharray="none" stroke-linecap="round" stroke-miterlimit="4" stroke-opacity="1" stroke-width="2" transform="matrix(0,1,-1,0,0,0)"/><rect id="rect3132" width="69" height="559" x="578.332" y="-680.765" fill="none" stroke="#000" stroke-dasharray="none" stroke-linecap="round" stroke-miterlimit="4" stroke-opacity="1" stroke-width="2" transform="matrix(0,1,-1,0,0,0)"/><rect id="rect3134" width="69" height="559" x="719.425" y="-680.563" fill="none" stroke="#000" stroke-dasharray="none" stroke-linecap="round" stroke-miterlimit="4" stroke-opacity="1" stroke-width="2" transform="matrix(0,1,-1,0,0,0)"/><path id="path3981" fill="#fff" fill-opacity="1" stroke="#fff" stroke-dasharray="none" stroke-linecap="square" stroke-miterlimit="4" stroke-opacity="1" stroke-width="1.957" d="m 396,349.5 c 0,12.42641 -10.07359,22.5 -22.5,22.5 -12.42641,0 -22.5,-10.07359 -22.5,-22.5 0,-12.42641 10.07359,-22.5 22.5,-22.5 12.42641,0 22.5,10.07359 22.5,22.5 z" transform="matrix(1.0222222,0,0,1.0222222,-15.799992,256.09552)"/><path id="path3987" fill="#2e3436" fill-opacity="1" stroke="#2e3436" stroke-dasharray="none" stroke-linecap="square" stroke-miterlimit="4" stroke-opacity="1" stroke-width="1.957" d="m 396,349.5 c 0,12.42641 -10.07359,22.5 -22.5,22.5 -12.42641,0 -22.5,-10.07359 -22.5,-22.5 0,-12.42641 10.07359,-22.5 22.5,-22.5 12.42641,0 22.5,10.07359 22.5,22.5 z" transform="matrix(1.0222222,0,0,1.0222222,54.200008,256.09552)"/><path id="path3989" fill="#fff" fill-opacity="1" stroke="#fff" stroke-dasharray="none" stroke-linecap="square" stroke-miterlimit="4" stroke-opacity="1" stroke-width="1.957" d="m 396,349.5 c 0,12.42641 -10.07359,22.5 -22.5,22.5 -12.42641,0 -22.5,-10.07359 -22.5,-22.5 0,-12.42641 10.07359,-22.5 22.5,-22.5 12.42641,0 22.5,10.07359 22.5,22.5 z" transform="matrix(1.0222222,0,0,1.0222222,54.200008,326.09552)"/><path id="path3991" fill="#2e3436" fill-opacity="1" stroke="#2e3436" stroke-dasharray="none" stroke-linecap="square" stroke-miterlimit="4" stroke-opacity="1" stroke-width="1.957" d="m 396,349.5 c 0,12.42641 -10.07359,22.5 -22.5,22.5 -12.42641,0 -22.5,-10.07359 -22.5,-22.5 0,-12.42641 10.07359,-22.5 22.5,-22.5 12.42641,0 22.5,10.07359 22.5,22.5 z" transform="matrix(1.0222222,0,0,1.0222222,-15.799992,326.09552)"/><path id="path4012" fill="#fff" fill-opacity="1" stroke="#2e3436" stroke-dasharray="none" stroke-linecap="square" stroke-miterlimit="4" stroke-opacity="1" stroke-width="2.023" d="m 396,349.5 c 0,12.42641 -10.07359,22.5 -22.5,22.5 -12.42641,0 -22.5,-10.07359 -22.5,-22.5 0,-12.42641 10.07359,-22.5 22.5,-22.5 12.42641,0 22.5,10.07359 22.5,22.5 z" transform="matrix(0.49180328,0,0,0.49671053,572.31148,281.52213)"/><path id="path4014" fill="#2e3436" fill-opacity="1" stroke="#2e3436" stroke-dasharray="none" stroke-linecap="square" stroke-miterlimit="4" stroke-opacity="1" stroke-width="4.047" d="m 396,349.5 c 0,12.42641 -10.07359,22.5 -22.5,22.5 -12.42641,0 -22.5,-10.07359 -22.5,-22.5 0,-12.42641 10.07359,-22.5 22.5,-22.5 12.42641,0 22.5,10.07359 22.5,22.5 z" transform="matrix(0.49180328,0,0,0.49671053,572.31148,228.36857)"/><text font-stretch="normal" style="text-align:start;line-height:125%;-inkscape-font-specification:Cantarell Bold" id="text4016" x="788.117" y="408.296" fill="#2e3436" fill-opacity="1" stroke="none" font-family="Cantarell" font-size="18" font-style="normal" font-variant="normal" font-weight="bold" letter-spacing="0" text-anchor="start" word-spacing="0" xml:space="preserve"><tspan id="tspan4018" x="788.117" y="408.296">2</tspan></text><text id="text4020" x="788.117" y="461.449" fill="#2e3436" fill-opacity="1" stroke="none" font-family="Cantarell" font-size="18" font-stretch="normal" font-style="normal" font-variant="normal" font-weight="bold" letter-spacing="0" text-anchor="start" word-spacing="0" xml:space="preserve" style="text-align:start;line-height:125%;-inkscape-font-specification:Cantarell Bold"><tspan id="tspan4022" x="788.117" y="461.449">2</tspan></text><g id="g4157" fill="#2e3436" transform="matrix(1.3298443,0,0,1.3298443,710.59935,391.30952)"><g id="layer12" fill="#2e3436" display="inline" transform="translate(-121.0002,-747)"><path id="path10839-9-9-5-9" fill="#2e3436" fill-opacity="1" fill-rule="nonzero" stroke="none" stroke-width="1.781" d="m 125.0004,749 1,0 c 0.0104,-1.2e-4 0.0208,-4.6e-4 0.0313,0 0.25495,0.0112 0.50987,0.12858 0.6875,0.3125 l 6.29767,5.71875 -6.29772,5.71875 c -0.18816,0.18819 -0.45346,0.28125 -0.71875,0.28125 l -1,0 0,-1 c 0,-0.26529 0.0931,-0.53058 0.28125,-0.71875 l 4.82897,-4.28125 -4.82897,-4.28125 c -0.21074,-0.19463 -0.30316,-0.46925 -0.28125,-0.75 z" color="#bebebe" direction="ltr" display="inline" enable-background="new" font-family="Andale Mono" font-size="medium" font-stretch="normal" font-style="normal" font-variant="normal" font-weight="normal" letter-spacing="normal" overflow="visible" text-anchor="start" text-decoration="none" visibility="visible" word-spacing="normal" writing-mode="lr-tb" style="text-indent:0;text-align:start;line-height:normal;text-transform:none;block-progression:tb;marker:none;-inkscape-font-specification:Andale Mono"/></g></g><path d="m 109.49625,-458.1345 759.00085,-3e-4 c 4.9856,0 8.9994,4.46 8.9994,10 l 0,37 -8.9994,0 -759.00095,3e-4 -8.9995,0 0,-37 c 0,-5.54 4.0139,-10 8.9995,-10 z" style="marker:none" id="path4313" fill="url(#linearGradient4455)" fill-opacity="1" fill-rule="nonzero" stroke="#a7aba7" stroke-opacity="1" stroke-width=".993" color="#bebebe" display="inline" enable-background="accumulate" filter="url(#filter12000-4-9-2)" overflow="visible" visibility="visible"/><path id="path4315" fill="none" stroke="#fff" stroke-linecap="round" stroke-linejoin="miter" stroke-opacity=".461" stroke-width="1" d="m 830.4937,-451.021 c 0,33.9928 0,33.9928 0,33.9928" display="inline"/><path id="path4317" fill="none" stroke="#a7aba7" stroke-linecap="round" stroke-linejoin="miter" stroke-opacity="1" stroke-width="1" d="m 829.4937,-451.0282 c 0,33.9928 0,33.9928 0,33.9928" display="inline"/><text id="text4319" x="489.1" y="-428.887" fill="#fff" fill-opacity="1" stroke="none" display="inline" font-family="Cantarell" font-size="14" font-stretch="normal" font-style="normal" font-variant="normal" font-weight="bold" text-anchor="middle" writing-mode="lr-tb" xml:space="preserve" style="text-align:center;line-height:125%;-inkscape-font-specification:Cantarell Bold"><tspan id="tspan4321" x="489.1" y="-428.887">iagno</tspan></text><text id="text4323" x="489.1" y="-429.887" fill="#888a85" fill-opacity="1" stroke="none" display="inline" font-family="Cantarell" font-size="14" font-stretch="normal" font-style="normal" font-variant="normal" font-weight="bold" text-anchor="middle" writing-mode="lr-tb" xml:space="preserve" style="text-align:center;line-height:125%;-inkscape-font-specification:Cantarell Bold"><tspan id="tspan4325" x="489.1" y="-429.887">Iagno</tspan></text><g id="g4327" fill="#fff" fill-opacity="1" display="inline" opacity=".5" transform="translate(845.9954,-441.0282)"><g id="g4335" fill="#fff" fill-opacity="1" transform="translate(-60,-518)"><g id="g4337" fill="#fff" fill-opacity="1" display="inline" transform="translate(19,-242)"><path id="path4339" fill="#fff" fill-opacity="1" fill-rule="nonzero" stroke="none" stroke-width="1.781" d="m 45,764 1,0 c 0.01037,-1.2e-4 0.02079,-4.6e-4 0.03125,0 0.254951,0.0112 0.50987,0.12858 0.6875,0.3125 L 49,766.59375 51.3125,764.3125 C 51.578125,764.082 51.759172,764.007 52,764 l 1,0 0,1 c 0,0.28647 -0.03434,0.55065 -0.25,0.75 l -2.28125,2.28125 2.25,2.25 C 52.906938,770.46942 52.999992,770.7347 53,771 l 0,1 -1,0 c -0.265301,-10e-6 -0.530586,-0.0931 -0.71875,-0.28125 L 49,769.4375 46.71875,771.71875 C 46.530586,771.90694 46.26529,772 46,772 l -1,0 0,-1 c -3e-6,-0.26529 0.09306,-0.53058 0.28125,-0.71875 l 2.28125,-2.25 L 45.28125,765.75 C 45.070508,765.55537 44.97809,765.28075 45,765 l 0,-1 z" color="#bebebe" direction="ltr" display="inline" enable-background="new" font-family="Andale Mono" font-size="medium" font-stretch="normal" font-style="normal" font-variant="normal" font-weight="normal" letter-spacing="normal" overflow="visible" text-anchor="start" text-decoration="none" visibility="visible" word-spacing="normal" writing-mode="lr-tb" style="text-indent:0;text-align:start;line-height:normal;text-transform:none;block-progression:tb;marker:none;-inkscape-font-specification:Andale Mono"/></g></g></g><g id="g4347" fill="#888a85" fill-opacity="1" display="inline" transform="translate(845.9954,-442.0281)"><g id="g4355" fill="#888a85" fill-opacity="1" transform="translate(-60,-518)"><g id="g4357" fill="#888a85" fill-opacity="1" display="inline" transform="translate(19,-242)"><path id="path4359" fill="#888a85" fill-opacity="1" fill-rule="nonzero" stroke="none" stroke-width="1.781" d="m 45,764 1,0 c 0.01037,-1.2e-4 0.02079,-4.6e-4 0.03125,0 0.254951,0.0112 0.50987,0.12858 0.6875,0.3125 L 49,766.59375 51.3125,764.3125 C 51.578125,764.082 51.759172,764.007 52,764 l 1,0 0,1 c 0,0.28647 -0.03434,0.55065 -0.25,0.75 l -2.28125,2.28125 2.25,2.25 C 52.906938,770.46942 52.999992,770.7347 53,771 l 0,1 -1,0 c -0.265301,-10e-6 -0.530586,-0.0931 -0.71875,-0.28125 L 49,769.4375 46.71875,771.71875 C 46.530586,771.90694 46.26529,772 46,772 l -1,0 0,-1 c -3e-6,-0.26529 0.09306,-0.53058 0.28125,-0.71875 l 2.28125,-2.25 L 45.28125,765.75 C 45.070508,765.55537 44.97809,765.28075 45,765 l 0,-1 z" color="#bebebe" direction="ltr" display="inline" enable-background="new" font-family="Andale Mono" font-size="medium" font-stretch="normal" font-style="normal" font-variant="normal" font-weight="normal" letter-spacing="normal" overflow="visible" text-anchor="start" text-decoration="none" visibility="visible" word-spacing="normal" writing-mode="lr-tb" style="text-indent:0;text-align:start;line-height:normal;text-transform:none;block-progression:tb;marker:none;-inkscape-font-specification:Andale Mono"/></g></g></g><rect id="rect4367" width="777" height="605" x="100.5" y="-411.724" fill="#eeeeec" fill-opacity="1" stroke="#a7aba7" stroke-dasharray="none" stroke-dashoffset="0" stroke-linecap="square" stroke-miterlimit="4" stroke-opacity="1" stroke-width="1"/><rect id="rect4395" width="559" height="559" x="121.5" y="-391.138" fill="#4e7d23" fill-opacity="1" stroke="#2e3436" stroke-dasharray="none" stroke-linecap="round" stroke-miterlimit="4" stroke-opacity="1" stroke-width="1"/><path id="path4475" fill="#fff" fill-opacity="1" stroke="#2e3436" stroke-dasharray="none" stroke-linecap="square" stroke-miterlimit="4" stroke-opacity="1" stroke-width="2.023" d="m 396,349.5 c 0,12.42641 -10.07359,22.5 -22.5,22.5 -12.42641,0 -22.5,-10.07359 -22.5,-22.5 0,-12.42641 10.07359,-22.5 22.5,-22.5 12.42641,0 22.5,10.07359 22.5,22.5 z" transform="matrix(0.49180328,0,0,0.49671053,572.31148,-478.47787)"/><path id="path4477" fill="#2e3436" fill-opacity="1" stroke="#2e3436" stroke-dasharray="none" stroke-linecap="square" stroke-miterlimit="4" stroke-opacity="1" stroke-width="4.047" d="m 396,349.5 c 0,12.42641 -10.07359,22.5 -22.5,22.5 -12.42641,0 -22.5,-10.07359 -22.5,-22.5 0,-12.42641 10.07359,-22.5 22.5,-22.5 12.42641,0 22.5,10.07359 22.5,22.5 z" transform="matrix(0.49180328,0,0,0.49671053,572.31148,-531.63143)"/><text id="text4479" x="788.117" y="-351.704" fill="#2e3436" fill-opacity="1" stroke="none" font-family="Cantarell" font-size="18" font-stretch="normal" font-style="normal" font-variant="normal" font-weight="bold" letter-spacing="0" text-anchor="start" word-spacing="0" xml:space="preserve" style="text-align:start;line-height:125%;-inkscape-font-specification:Cantarell Bold"><tspan id="tspan4481" x="788.117" y="-351.704">0</tspan></text><text font-stretch="normal" style="text-align:start;line-height:125%;-inkscape-font-specification:Cantarell Bold" id="text4483" x="788.117" y="-298.551" fill="#2e3436" fill-opacity="1" stroke="none" font-family="Cantarell" font-size="18" font-style="normal" font-variant="normal" font-weight="bold" letter-spacing="0" text-anchor="start" word-spacing="0" xml:space="preserve"><tspan id="tspan4485" x="788.117" y="-298.551">0</tspan></text><text font-stretch="normal" style="text-align:center;line-height:125%;-inkscape-font-specification:Cantarell Bold" id="text4457" x="401.039" y="40.296" fill="#2e3436" fill-opacity="1" stroke="none" font-family="Cantarell" font-size="16" font-style="normal" font-variant="normal" font-weight="bold" letter-spacing="0" text-anchor="middle" word-spacing="0" xml:space="preserve"><tspan id="tspan4459" x="401.039" y="40.296">Two Player</tspan></text><text font-stretch="normal" style="text-align:center;line-height:125%;-inkscape-font-specification:Cantarell Bold" id="text4465" x="400.783" y="-125.5" fill="#2e3436" fill-opacity="1" stroke="none" font-family="Cantarell" font-size="16" font-style="normal" font-variant="normal" font-weight="bold" letter-spacing="0" text-anchor="middle" word-spacing="0" xml:space="preserve"><tspan id="tspan4467" x="400.783" y="-125.5">Medium</tspan></text><text id="text4469" x="400.5" y="-185.5" fill="#2e3436" fill-opacity="1" stroke="none" font-family="Cantarell" font-size="16" font-stretch="normal" font-style="normal" font-variant="normal" font-weight="bold" letter-spacing="0" text-anchor="middle" word-spacing="0" xml:space="preserve" style="text-align:center;line-height:125%;-inkscape-font-specification:Cantarell Bold"><tspan id="tspan4471" x="400.5" y="-185.5">Easy</tspan></text><rect id="rect4509" width="159" height="35" x="321.5" y="-149.138" fill="#000" fill-opacity=".129" stroke="#2e3436" stroke-dasharray="none" stroke-linecap="square" stroke-miterlimit="4" stroke-opacity="1" stroke-width="1" rx="6" ry="6"/><rect id="rect4511" width="159" height="35" x="321.5" y="-209.138" fill="#000" fill-opacity=".129" stroke="#2e3436" stroke-dasharray="none" stroke-linecap="square" stroke-miterlimit="4" stroke-opacity="1" stroke-width="1" rx="6" ry="6"/><rect id="rect4513" width="159" height="35" x="321.5" y="-89.138" fill="#000" fill-opacity=".129" stroke="#2e3436" stroke-dasharray="none" stroke-linecap="square" stroke-miterlimit="4" stroke-opacity="1" stroke-width="1" rx="6" ry="6"/><rect id="rect4519" width="159" height="35" x="321.5" y="16.658" fill="#000" fill-opacity=".129" stroke="#2e3436" stroke-dasharray="none" stroke-linecap="square" stroke-miterlimit="4" stroke-opacity="1" stroke-width="1" rx="6" ry="6"/><text id="text4461" x="400.413" y="-65.365" fill="#2e3436" fill-opacity="1" stroke="none" font-family="Cantarell" font-size="16" font-stretch="normal" font-style="normal" font-variant="normal" font-weight="bold" letter-spacing="0" text-anchor="middle" word-spacing="0" xml:space="preserve" style="text-align:center;line-height:125%;-inkscape-font-specification:Cantarell Bold"><tspan id="tspan4463" x="400.413" y="-65.365">Hard</tspan></text></g></svg>