<svg xmlns="http://www.w3.org/2000/svg" xmlns:svg="http://www.w3.org/2000/svg" xmlns:xlink="http://www.w3.org/1999/xlink" id="svg17215" width="1000" height="700" version="1.1"><defs id="defs17217"><linearGradient id="linearGradient23091" x1="-1036.5" x2="-1036.5" y1="204.875" y2="164.875" gradientTransform="matrix(2.31875,0,0,1,1393.875,-184)" gradientUnits="userSpaceOnUse" xlink:href="#linearGradient72862-1"/><linearGradient id="linearGradient72862-1"><stop id="stop72864-5" offset="0" stop-color="#b5b8b5" stop-opacity="1"/><stop id="stop72866-7" offset="1" stop-color="#969a96" stop-opacity="1"/></linearGradient><clipPath id="clipPath72884-1" clipPathUnits="userSpaceOnUse"><rect id="rect72886-1" width="370" height="60" x="-1063.5" y="-28.125" fill="#d9dbd9" fill-opacity="1" fill-rule="nonzero" stroke="none" stroke-width="1" color="#bebebe" display="inline" enable-background="accumulate" overflow="visible" visibility="visible" style="marker:none"/></clipPath><linearGradient id="linearGradient19237" x1="-1036.5" x2="-1036.5" y1="204.875" y2="164.875" gradientTransform="matrix(2.31875,0,0,1,1393.875,-184)" gradientUnits="userSpaceOnUse" xlink:href="#linearGradient72862-1"/></defs><metadata id="metadata17220"/><g id="layer1" transform="translate(0,-352.36215)"><rect id="rect17766" width="33" height="33" x="-505.5" y="66.862" fill="#d3d7cf" fill-opacity="1" fill-rule="nonzero" stroke="#a7a7a7" stroke-dasharray="none" stroke-dashoffset="0" stroke-linecap="butt" stroke-linejoin="miter" stroke-miterlimit="4" stroke-opacity="1" stroke-width="1" color="#000" display="inline" enable-background="accumulate" overflow="visible" rx="3" ry="3" visibility="visible" style="marker:none"/><path id="path17768" fill="#e3e3df" fill-opacity="1" fill-rule="nonzero" stroke="#c2c5bf" stroke-opacity="1" stroke-width="1" d="m -690.5,111.86218 185.5,0 15.72629,-15.556297 15.27371,15.556297 63.5,0 c 3.324,0 6,2.676 6,6 l 0,262 c 0,3.324 -2.676,6 -6,6 l -280,0 c -3.324,0 -6,-2.676 -6,-6 l 0,-262 c 0,-3.324 2.676,-6 6,-6 z" color="#000" display="inline" enable-background="accumulate" overflow="visible" visibility="visible" style="marker:none"/><g id="g17770" fill="#2e3436" transform="translate(-496.98934,75.944305)"><g id="g17772" fill="#2e3436" display="inline" transform="translate(-41.000202,-397)"><path id="path17776" fill="#2e3436" fill-opacity="1" fill-rule="nonzero" stroke="none" stroke-width="2" d="m 530.9488,186.70897 c -0.77941,0.55189 -3.15759,-1.90601 -4.11253,-1.9179 -0.95532,-0.0119 -3.39494,2.38585 -4.16096,1.8149 -0.76573,-0.57072 0.83698,-3.59203 0.55319,-4.50391 -0.2839,-0.91223 -3.31818,-2.49151 -3.01189,-3.39647 0.30617,-0.90461 3.67487,-0.31399 4.45442,-0.86567 0.77986,-0.5519 1.3442,-3.92569 2.29952,-3.91404 0.95494,0.0116 1.43421,3.39798 2.19979,3.9689 0.76588,0.57114 4.14893,0.0653 4.43307,0.97746 0.28402,0.9118 -2.78848,2.41405 -3.09488,3.31858 -0.30652,0.90489 1.21999,3.96605 0.44027,4.51815 z" color="#000" display="inline" enable-background="accumulate" overflow="visible" transform="matrix(1.0472113,-0.00871584,0.00871584,1.0472113,-504.35434,220.15425)" visibility="visible" style="marker:none"/></g></g><rect id="rect17792" width="269" height="33" x="-684.5" y="342.862" fill="#d3d7cf" fill-opacity="1" fill-rule="nonzero" stroke="#a7a7a7" stroke-dasharray="none" stroke-dashoffset="0" stroke-linecap="butt" stroke-linejoin="miter" stroke-miterlimit="4" stroke-opacity="1" stroke-width="1" color="#000" display="inline" enable-background="accumulate" overflow="visible" rx="3" ry="3" visibility="visible" style="marker:none"/><text id="text17794" x="-549.979" y="364.253" fill="#2e3436" fill-opacity="1" stroke="none" display="inline" font-family="Cantarell" font-size="14.3" font-stretch="normal" font-style="normal" font-variant="normal" font-weight="normal" letter-spacing="0" text-anchor="middle" word-spacing="0" writing-mode="lr-tb" xml:space="preserve" style="text-align:center;line-height:125%;-inkscape-font-specification:Cantarell"><tspan id="tspan17796" x="-549.979" y="364.253">Add Bookmark</tspan></text><rect id="rect17894" width="879" height="543.38" x="60.5" y="438.482" fill="#fff" fill-opacity="1" fill-rule="nonzero" stroke="#a7aba7" stroke-dasharray="none" stroke-dashoffset="0" stroke-linecap="round" stroke-linejoin="miter" stroke-miterlimit="4" stroke-opacity="1" stroke-width="1" color="#000" display="inline" enable-background="new" overflow="visible" visibility="visible" style="marker:none"/><path d="m 69.496159,413.85883 861.004191,0 c 4.9857,0 8.9993,4.46 8.9993,10 l 0,37.00335 -8.9993,0 -861.004191,0 -8.99951,0 0,-37.00335 c 0,-5.54 4.01378,-10 8.99951,-10 z" style="marker:none" id="path17896" fill="#e0e2e0" fill-opacity="1" fill-rule="nonzero" stroke="#a7aba7" stroke-opacity="1" stroke-width=".993" color="#bebebe" display="inline" enable-background="accumulate" filter="url(#filter12000-4-9-2)" overflow="visible" visibility="visible"/><g id="g17898" fill="#888a85" display="inline" transform="translate(907.00158,429.71542)"><g id="g17906" fill="#888a85" transform="translate(-60,-518)"><g id="g17908" fill="#888a85" display="inline" transform="translate(19,-242)"><path id="path17910" fill="#888a85" fill-opacity="1" fill-rule="nonzero" stroke="none" stroke-width="1.781" d="m 45,764 1,0 c 0.01037,-1.2e-4 0.02079,-4.6e-4 0.03125,0 0.254951,0.0112 0.50987,0.12858 0.6875,0.3125 L 49,766.59375 51.3125,764.3125 C 51.578125,764.082 51.759172,764.007 52,764 l 1,0 0,1 c 0,0.28647 -0.03434,0.55065 -0.25,0.75 l -2.28125,2.28125 2.25,2.25 C 52.906938,770.46942 52.999992,770.7347 53,771 l 0,1 -1,0 c -0.265301,-10e-6 -0.530586,-0.0931 -0.71875,-0.28125 L 49,769.4375 46.71875,771.71875 C 46.530586,771.90694 46.26529,772 46,772 l -1,0 0,-1 c -3e-6,-0.26529 0.09306,-0.53058 0.28125,-0.71875 l 2.28125,-2.25 L 45.28125,765.75 C 45.070508,765.55537 44.97809,765.28075 45,765 l 0,-1 z" color="#bebebe" direction="ltr" display="inline" enable-background="new" font-family="Andale Mono" font-size="medium" font-stretch="normal" font-style="normal" font-variant="normal" font-weight="normal" letter-spacing="normal" overflow="visible" text-anchor="start" text-decoration="none" visibility="visible" word-spacing="normal" writing-mode="lr-tb" style="text-indent:0;text-align:start;line-height:normal;text-transform:none;block-progression:tb;marker:none;-inkscape-font-specification:Andale Mono"/></g></g></g><text id="text17918" x="499.853" y="442.456" fill="#2e3436" fill-opacity="1" stroke="none" display="inline" font-family="Cantarell" font-size="14" font-stretch="normal" font-style="normal" font-variant="normal" font-weight="bold" text-anchor="middle" writing-mode="lr-tb" xml:space="preserve" style="text-align:center;line-height:125%;-inkscape-font-specification:Cantarell Bold"><tspan id="tspan17920" x="499.853" y="442.456">Page Title</tspan></text><path id="path17922" fill="none" stroke="#a7aba7" stroke-linecap="square" stroke-linejoin="miter" stroke-opacity="1" stroke-width="1" d="m 891.50001,425.95679 c 0,23.47873 0,23.47873 0,23.47873" display="inline"/><g id="g18026" transform="translate(-121.5,379.66603)"><rect stroke-linejoin="miter" style="marker:none" id="rect72892" width="66" height="33" x="189" y="41.196" fill="#f4f4f2" fill-opacity="1" fill-rule="nonzero" stroke="#babdb6" stroke-dasharray="none" stroke-dashoffset="0" stroke-linecap="butt" stroke-miterlimit="4" stroke-opacity="1" stroke-width="1" color="#000" display="inline" enable-background="accumulate" overflow="visible" rx="2.972" ry="2.972" visibility="visible"/><path id="path72900" fill="none" stroke="#babdb6" stroke-linecap="square" stroke-linejoin="miter" stroke-opacity="1" stroke-width="1" d="m 222,42.204076 0,30.98416" display="inline" enable-background="new"/><rect id="rect72906" width="16" height="16" x="232" y="49.696" fill="none" stroke="none" stroke-width="1" color="#bebebe" display="inline" enable-background="new" overflow="visible" visibility="visible" style="marker:none"/><path font-stretch="normal" style="text-indent:0;text-align:start;line-height:normal;text-transform:none;block-progression:tb;marker:none;-inkscape-font-specification:Andale Mono" id="path72908" fill="#babdb6" fill-opacity="1" fill-rule="nonzero" stroke="none" stroke-width="1.781" d="m 235.00157,52.196273 1,0 c 0.0104,-1.2e-4 0.0208,-4.6e-4 0.0313,0 0.25495,0.0112 0.50987,0.12858 0.6875,0.3125 l 5.2812,5.21875 -5.28125,5.1875 c -0.18816,0.18819 -0.45346,0.28125 -0.71875,0.28125 l -1,0 0,-1 c 0,-0.26529 0.0931,-0.53058 0.28125,-0.71875 l 3.8125,-3.75 -3.8125,-3.78125 c -0.21074,-0.19463 -0.30316,-0.46925 -0.28125,-0.75 l 0,-1 z" color="#bebebe" direction="ltr" display="inline" enable-background="new" font-family="Andale Mono" font-size="medium" font-style="normal" font-variant="normal" font-weight="normal" letter-spacing="normal" opacity=".5" overflow="visible" text-anchor="start" text-decoration="none" visibility="visible" word-spacing="normal" writing-mode="lr-tb"/><path id="rect17988" fill="#d3d7cf" fill-opacity="1" fill-rule="nonzero" stroke="#a7a7a7" stroke-dashoffset="0" stroke-linecap="butt" stroke-linejoin="miter" stroke-miterlimit="4" stroke-opacity="1" stroke-width="1" d="m 192,41.196156 30,0 0,3 0,27 0,3 -30,0 c -1.662,0 -3,-1.338 -3,-3 l 0,-27 c 0,-1.662 1.338,-3 3,-3 z" color="#000" display="inline" enable-background="accumulate" overflow="visible" visibility="visible" style="marker:none"/><path font-stretch="normal" style="text-indent:0;text-align:start;line-height:normal;text-transform:none;block-progression:tb;marker:none;-inkscape-font-specification:Andale Mono" id="path17986" fill="#2e3436" fill-opacity="1" fill-rule="nonzero" stroke="none" stroke-width="1.781" d="m 209.9998,63.196039 -1,0 c -0.0104,1.2e-4 -0.0208,4.6e-4 -0.0313,0 -0.25495,-0.0112 -0.50987,-0.12858 -0.6875,-0.3125 l -5.2812,-5.21875 5.28125,-5.1875 c 0.18816,-0.18819 0.45346,-0.28125 0.71875,-0.28125 l 1,0 0,1 c 0,0.26529 -0.0931,0.53058 -0.28125,0.71875 l -3.8125,3.75 3.8125,3.78125 c 0.21074,0.19463 0.30316,0.46925 0.28125,0.75 l 0,1 z" color="#bebebe" direction="ltr" display="inline" enable-background="new" font-family="Andale Mono" font-size="medium" font-style="normal" font-variant="normal" font-weight="normal" letter-spacing="normal" opacity=".5" overflow="visible" text-anchor="start" text-decoration="none" visibility="visible" word-spacing="normal" writing-mode="lr-tb"/></g><rect id="rect18034" width="33" height="33" x="771.5" y="420.862" fill="#d3d7cf" fill-opacity="1" fill-rule="nonzero" stroke="#a7a7a7" stroke-dasharray="none" stroke-dashoffset="0" stroke-linecap="butt" stroke-linejoin="miter" stroke-miterlimit="4" stroke-opacity="1" stroke-width="1" color="#000" display="inline" enable-background="accumulate" overflow="visible" rx="3" ry="3" visibility="visible" style="marker:none"/><g id="g18036" fill="#2e3436" transform="translate(780.01066,429.9443)"><g id="g18038" fill="#2e3436" display="inline" transform="translate(-41.000202,-397)"><path id="path18042" fill="#2e3436" fill-opacity="1" fill-rule="nonzero" stroke="none" stroke-width="2" d="m 530.9488,186.70897 c -0.77941,0.55189 -3.15759,-1.90601 -4.11253,-1.9179 -0.95532,-0.0119 -3.39494,2.38585 -4.16096,1.8149 -0.76573,-0.57072 0.83698,-3.59203 0.55319,-4.50391 -0.2839,-0.91223 -3.31818,-2.49151 -3.01189,-3.39647 0.30617,-0.90461 3.67487,-0.31399 4.45442,-0.86567 0.77986,-0.5519 1.3442,-3.92569 2.29952,-3.91404 0.95494,0.0116 1.43421,3.39798 2.19979,3.9689 0.76588,0.57114 4.14893,0.0653 4.43307,0.97746 0.28402,0.9118 -2.78848,2.41405 -3.09488,3.31858 -0.30652,0.90489 1.21999,3.96605 0.44027,4.51815 z" color="#000" display="inline" enable-background="accumulate" overflow="visible" transform="matrix(1.0472113,-0.00871584,0.00871584,1.0472113,-504.35434,220.15425)" visibility="visible" style="marker:none"/></g></g><rect stroke-linejoin="miter" style="marker:none" id="rect18058" width="33" height="33" x="811.5" y="420.862" fill="#d3d7cf" fill-opacity="1" fill-rule="nonzero" stroke="#a7a7a7" stroke-dasharray="none" stroke-dashoffset="0" stroke-linecap="butt" stroke-miterlimit="4" stroke-opacity="1" stroke-width="1" color="#000" display="inline" enable-background="accumulate" overflow="visible" rx="3" ry="3" visibility="visible"/><rect id="rect18082" width="33" height="33" x="851.5" y="420.862" fill="#d3d7cf" fill-opacity="1" fill-rule="nonzero" stroke="#a7a7a7" stroke-dasharray="none" stroke-dashoffset="0" stroke-linecap="butt" stroke-linejoin="miter" stroke-miterlimit="4" stroke-opacity="1" stroke-width="1" color="#000" display="inline" enable-background="accumulate" overflow="visible" rx="3" ry="3" visibility="visible" style="marker:none"/><g id="g18207" fill="#2e3436" transform="translate(859.9998,429.3622)"><g id="layer15-8" fill="#2e3436" display="inline" transform="translate(-441.0002,-400.99999)"><path id="path35543-6-4" fill="#2e3436" fill-opacity="1" fill-rule="nonzero" stroke="none" d="m 449.0004,402.00002 c -0.22065,0 -0.44081,0.0113 -0.65625,0.0312 l -0.40625,2.09375 c -0.33446,0.0733 -0.66305,0.17589 -0.96875,0.3125 l -1.53125,-1.46875 c -0.38863,0.23011 -0.72695,0.51408 -1.0625,0.8125 l 0.90625,1.90625 c -0.22242,0.24899 -0.42425,0.5225 -0.59375,0.8125 l -2.09375,-0.28125 c -0.17772,0.40877 -0.30872,0.83637 -0.40625,1.28125 l 1.84375,1 c -0.0171,0.16809 -0.0312,0.3274 -0.0312,0.5 0,0.1726 0.0142,0.33191 0.0312,0.5 l -1.84375,1 c 0.0975,0.44488 0.22853,0.87248 0.40625,1.28125 l 2.09375,-0.28125 c 0.1695,0.29 0.37133,0.56351 0.59375,0.8125 l -0.90625,1.90625 c 0.33555,0.29842 0.67387,0.58239 1.0625,0.8125 l 1.53125,-1.46875 c 0.3057,0.13661 0.63429,0.23916 0.96875,0.3125 l 0.40625,2.09375 c 0.21544,0.02 0.4356,0.0312 0.65625,0.0312 0.22065,0 0.44081,-0.0113 0.65625,-0.0312 l 0.40625,-2.09375 c 0.33446,-0.0733 0.66305,-0.17589 0.96875,-0.3125 l 1.53125,1.46875 c 0.38863,-0.23011 0.72695,-0.51408 1.0625,-0.8125 l -0.90625,-1.90625 c 0.22242,-0.24899 0.42425,-0.5225 0.59375,-0.8125 l 2.09375,0.28125 c 0.17772,-0.40877 0.30872,-0.83637 0.40625,-1.28125 l -1.84375,-1 c 0.0171,-0.16809 0.0312,-0.3274 0.0312,-0.5 0,-0.1726 -0.0142,-0.33191 -0.0312,-0.5 l 1.84375,-1 c -0.0975,-0.44488 -0.22853,-0.87248 -0.40625,-1.28125 l -2.09375,0.28125 c -0.1695,-0.29 -0.37133,-0.56351 -0.59375,-0.8125 l 0.90625,-1.90625 c -0.33555,-0.29842 -0.67387,-0.58239 -1.0625,-0.8125 l -1.53125,1.46875 c -0.3057,-0.13661 -0.63429,-0.23916 -0.96875,-0.3125 l -0.40625,-2.09375 c -0.21544,-0.02 -0.4356,-0.0312 -0.65625,-0.0312 z m 0,4 c 1.65685,0 3,1.34315 3,3 0,1.65685 -1.34315,3 -3,3 -1.65685,0 -3,-1.34315 -3,-3 0,-1.65685 1.34315,-3 3,-3 z" color="#000" display="inline" enable-background="accumulate" overflow="visible" visibility="visible" style="marker:none"/></g></g><g id="g18354" fill="#2e3436" transform="translate(819.99111,429.33032)"><g id="layer12-2" fill="#2e3436" transform="translate(-140.0002,-645.96875)"><path id="path27918" fill="#2e3436" fill-opacity="1" stroke="none" stroke-width="1.555" d="m 146.50761,646.99554 c -3.02886,0 -5.51073,2.47905 -5.51073,5.50447 0,3.02541 2.48187,5.50446 5.51073,5.50446 3.02885,0 5.51072,-2.47905 5.51072,-5.50446 0,-3.02542 -2.48187,-5.50447 -5.51072,-5.50447 z m 0,2.00893 c 1.94735,0 3.49951,1.55039 3.49951,3.49554 0,1.94514 -1.55216,3.49553 -3.49951,3.49553 -1.94736,0 -3.49952,-1.55039 -3.49952,-3.49553 0,-1.94515 1.55216,-3.49554 3.49952,-3.49554 z" baseline-shift="baseline" color="#000" direction="ltr" display="inline" enable-background="new" font-family="Sans" font-size="medium" font-stretch="normal" font-style="normal" font-variant="normal" font-weight="normal" letter-spacing="normal" overflow="visible" text-anchor="start" text-decoration="none" visibility="visible" word-spacing="normal" writing-mode="lr-tb" style="text-indent:0;text-align:start;line-height:normal;text-transform:none;block-progression:tb;marker:none;-inkscape-font-specification:Sans"/><path id="path27941" fill="#2e3436" fill-opacity="1" stroke="none" stroke-width="2" d="m 149.8125,655 a 1.0001,1.0001 0 0 0 -0.5,1.71875 l 4,4 a 1.0054782,1.0054782 0 1 0 1.40625,-1.4375 l -4,-4 A 1.0001,1.0001 0 0 0 149.8125,655 z" baseline-shift="baseline" color="#000" direction="ltr" display="inline" enable-background="new" font-family="Sans" font-size="medium" font-stretch="normal" font-style="normal" font-variant="normal" font-weight="normal" letter-spacing="normal" overflow="visible" text-anchor="start" text-decoration="none" visibility="visible" word-spacing="normal" writing-mode="lr-tb" style="text-indent:0;text-align:start;line-height:normal;text-transform:none;block-progression:tb;marker:none;-inkscape-font-specification:Sans"/></g></g></g><g id="layer3" display="none" transform="translate(0,-352.36215)"><rect stroke-linejoin="miter" style="marker:none" id="rect19048" width="33" height="33" x="771.5" y="420.862" fill="#babdb6" fill-opacity="1" fill-rule="nonzero" stroke="#a7a7a7" stroke-dasharray="none" stroke-dashoffset="0" stroke-linecap="butt" stroke-miterlimit="4" stroke-opacity="1" stroke-width="1" color="#000" display="inline" enable-background="accumulate" overflow="visible" rx="3" ry="3" visibility="visible"/><path d="m 587.5,465.86218 185.5,0 15.72629,-15.5563 15.27371,15.5563 63.5,0 c 3.324,0 6,2.676 6,6 l 0,262 c 0,3.324 -2.676,6 -6,6 l -280,0 c -3.324,0 -6,-2.676 -6,-6 l 0,-262 c 0,-3.324 2.676,-6 6,-6 z" style="marker:none" id="path17434" fill="#e3e3df" fill-opacity="1" fill-rule="nonzero" stroke="#c2c5bf" stroke-opacity="1" stroke-width="1" color="#000" display="inline" enable-background="accumulate" overflow="visible" visibility="visible"/><rect stroke-linejoin="miter" style="marker:none" id="rect17458" width="269" height="33" x="593.5" y="696.862" fill="#d3d7cf" fill-opacity="1" fill-rule="nonzero" stroke="#a7a7a7" stroke-dasharray="none" stroke-dashoffset="0" stroke-linecap="butt" stroke-miterlimit="4" stroke-opacity="1" stroke-width="1" color="#000" display="inline" enable-background="accumulate" overflow="visible" rx="3" ry="3" visibility="visible"/><text id="text17460" x="728.021" y="718.253" fill="#2e3436" fill-opacity="1" stroke="none" display="inline" font-family="Cantarell" font-size="14.3" font-stretch="normal" font-style="normal" font-variant="normal" font-weight="normal" letter-spacing="0" text-anchor="middle" word-spacing="0" writing-mode="lr-tb" xml:space="preserve" style="text-align:center;line-height:125%;-inkscape-font-specification:Cantarell"><tspan id="tspan17462" x="728.021" y="718.253">Add Bookmark</tspan></text><rect id="rect17466" width="271" height="150" x="593.5" y="477.862" fill="#fff" fill-opacity="1" stroke="#babdb6" stroke-dasharray="none" stroke-dashoffset="0" stroke-linecap="square" stroke-miterlimit="4" stroke-opacity="1" stroke-width="1" display="inline"/><path id="path17468" fill="none" stroke="#babdb6" stroke-linecap="butt" stroke-linejoin="miter" stroke-opacity="1" stroke-width="1" d="m 863.5,527.86206 -269,0" display="inline"/><path id="path17470" fill="none" stroke="#babdb6" stroke-linecap="butt" stroke-linejoin="miter" stroke-opacity="1" stroke-width="1" d="m 863.5,577.86218 -269,0" display="inline"/><text id="text17502" x="603" y="500.362" fill="#2e3436" fill-opacity="1" stroke="none" font-family="Cantarell" font-size="14" font-stretch="normal" font-style="normal" font-variant="normal" font-weight="normal" letter-spacing="0" word-spacing="0" xml:space="preserve" style="line-height:125%;-inkscape-font-specification:Cantarell"><tspan id="tspan17504" x="603" y="500.362">Page 1</tspan></text><text font-stretch="normal" style="line-height:125%;-inkscape-font-specification:Cantarell Bold" id="text17506" x="603" y="516.362" fill="#888a85" fill-opacity="1" stroke="none" font-family="Cantarell" font-size="11" font-style="normal" font-variant="normal" font-weight="bold" letter-spacing="0" word-spacing="0" xml:space="preserve"><tspan id="tspan17508" x="603" y="516.362">App 1</tspan></text><text font-stretch="normal" style="line-height:125%;-inkscape-font-specification:Cantarell" id="text17510" x="603" y="550.362" fill="#2e3436" fill-opacity="1" stroke="none" font-family="Cantarell" font-size="14" font-style="normal" font-variant="normal" font-weight="normal" letter-spacing="0" word-spacing="0" xml:space="preserve"><tspan id="tspan17512" x="603" y="550.362">Page 2</tspan></text><text id="text17514" x="603" y="566.362" fill="#888a85" fill-opacity="1" stroke="none" font-family="Cantarell" font-size="11" font-stretch="normal" font-style="normal" font-variant="normal" font-weight="bold" letter-spacing="0" word-spacing="0" xml:space="preserve" style="line-height:125%;-inkscape-font-specification:Cantarell Bold"><tspan id="tspan17516" x="603" y="566.362">App 1</tspan></text><text id="text17518" x="603" y="600.362" fill="#2e3436" fill-opacity="1" stroke="none" font-family="Cantarell" font-size="14" font-stretch="normal" font-style="normal" font-variant="normal" font-weight="normal" letter-spacing="0" word-spacing="0" xml:space="preserve" style="line-height:125%;-inkscape-font-specification:Cantarell"><tspan id="tspan17520" x="603" y="600.362">Page 3</tspan></text><text font-stretch="normal" style="line-height:125%;-inkscape-font-specification:Cantarell Bold" id="text17522" x="603" y="616.362" fill="#888a85" fill-opacity="1" stroke="none" font-family="Cantarell" font-size="11" font-style="normal" font-variant="normal" font-weight="bold" letter-spacing="0" word-spacing="0" xml:space="preserve"><tspan id="tspan17524" x="603" y="616.362">App 2</tspan></text><path id="path17545" fill="none" stroke="#babdb6" stroke-linecap="butt" stroke-linejoin="miter" stroke-opacity="1" stroke-width="1" d="m 816.5,514.79667 0,-23.99498" display="inline"/><g id="g17711" transform="translate(833.00315,494.7993)"><g id="layer12" transform="translate(-60,-518)"><g id="layer4-4-1" display="inline" transform="translate(19,-242)"><path id="path10839-9" fill="#bebebe" fill-opacity="1" fill-rule="nonzero" stroke="none" stroke-width="1.781" d="m 45,764 1,0 c 0.01037,-1.2e-4 0.02079,-4.6e-4 0.03125,0 0.254951,0.0112 0.50987,0.12858 0.6875,0.3125 L 49,766.59375 51.3125,764.3125 C 51.578125,764.082 51.759172,764.007 52,764 l 1,0 0,1 c 0,0.28647 -0.03434,0.55065 -0.25,0.75 l -2.28125,2.28125 2.25,2.25 C 52.906938,770.46942 52.999992,770.7347 53,771 l 0,1 -1,0 c -0.265301,-10e-6 -0.530586,-0.0931 -0.71875,-0.28125 L 49,769.4375 46.71875,771.71875 C 46.530586,771.90694 46.26529,772 46,772 l -1,0 0,-1 c -3e-6,-0.26529 0.09306,-0.53058 0.28125,-0.71875 l 2.28125,-2.25 L 45.28125,765.75 C 45.070508,765.55537 44.97809,765.28075 45,765 l 0,-1 z" color="#bebebe" direction="ltr" display="inline" enable-background="new" font-family="Andale Mono" font-size="medium" font-stretch="normal" font-style="normal" font-variant="normal" font-weight="normal" letter-spacing="normal" overflow="visible" text-anchor="start" text-decoration="none" visibility="visible" word-spacing="normal" writing-mode="lr-tb" style="text-indent:0;text-align:start;line-height:normal;text-transform:none;block-progression:tb;marker:none;-inkscape-font-specification:Andale Mono"/></g></g></g><path id="path17722" fill="none" stroke="#babdb6" stroke-linecap="butt" stroke-linejoin="miter" stroke-opacity="1" stroke-width="1" d="m 816.5,564.85962 0,-23.99498" display="inline"/><g id="g17724" transform="translate(833.00315,544.86224)"><g id="g17732" transform="translate(-60,-518)"><g id="g17734" display="inline" transform="translate(19,-242)"><path id="path17736" fill="#bebebe" fill-opacity="1" fill-rule="nonzero" stroke="none" stroke-width="1.781" d="m 45,764 1,0 c 0.01037,-1.2e-4 0.02079,-4.6e-4 0.03125,0 0.254951,0.0112 0.50987,0.12858 0.6875,0.3125 L 49,766.59375 51.3125,764.3125 C 51.578125,764.082 51.759172,764.007 52,764 l 1,0 0,1 c 0,0.28647 -0.03434,0.55065 -0.25,0.75 l -2.28125,2.28125 2.25,2.25 C 52.906938,770.46942 52.999992,770.7347 53,771 l 0,1 -1,0 c -0.265301,-10e-6 -0.530586,-0.0931 -0.71875,-0.28125 L 49,769.4375 46.71875,771.71875 C 46.530586,771.90694 46.26529,772 46,772 l -1,0 0,-1 c -3e-6,-0.26529 0.09306,-0.53058 0.28125,-0.71875 l 2.28125,-2.25 L 45.28125,765.75 C 45.070508,765.55537 44.97809,765.28075 45,765 l 0,-1 z" color="#bebebe" direction="ltr" display="inline" enable-background="new" font-family="Andale Mono" font-size="medium" font-stretch="normal" font-style="normal" font-variant="normal" font-weight="normal" letter-spacing="normal" overflow="visible" text-anchor="start" text-decoration="none" visibility="visible" word-spacing="normal" writing-mode="lr-tb" style="text-indent:0;text-align:start;line-height:normal;text-transform:none;block-progression:tb;marker:none;-inkscape-font-specification:Andale Mono"/></g></g></g><path id="path17744" fill="none" stroke="#babdb6" stroke-linecap="butt" stroke-linejoin="miter" stroke-opacity="1" stroke-width="1" d="m 816.5,614.85962 0,-23.99498" display="inline"/><g id="g17746" transform="translate(833.00315,594.86224)"><g id="g17754" transform="translate(-60,-518)"><g id="g17756" display="inline" transform="translate(19,-242)"><path id="path17758" fill="#bebebe" fill-opacity="1" fill-rule="nonzero" stroke="none" stroke-width="1.781" d="m 45,764 1,0 c 0.01037,-1.2e-4 0.02079,-4.6e-4 0.03125,0 0.254951,0.0112 0.50987,0.12858 0.6875,0.3125 L 49,766.59375 51.3125,764.3125 C 51.578125,764.082 51.759172,764.007 52,764 l 1,0 0,1 c 0,0.28647 -0.03434,0.55065 -0.25,0.75 l -2.28125,2.28125 2.25,2.25 C 52.906938,770.46942 52.999992,770.7347 53,771 l 0,1 -1,0 c -0.265301,-10e-6 -0.530586,-0.0931 -0.71875,-0.28125 L 49,769.4375 46.71875,771.71875 C 46.530586,771.90694 46.26529,772 46,772 l -1,0 0,-1 c -3e-6,-0.26529 0.09306,-0.53058 0.28125,-0.71875 l 2.28125,-2.25 L 45.28125,765.75 C 45.070508,765.55537 44.97809,765.28075 45,765 l 0,-1 z" color="#bebebe" direction="ltr" display="inline" enable-background="new" font-family="Andale Mono" font-size="medium" font-stretch="normal" font-style="normal" font-variant="normal" font-weight="normal" letter-spacing="normal" overflow="visible" text-anchor="start" text-decoration="none" visibility="visible" word-spacing="normal" writing-mode="lr-tb" style="text-indent:0;text-align:start;line-height:normal;text-transform:none;block-progression:tb;marker:none;-inkscape-font-specification:Andale Mono"/></g></g></g><g id="g19050" fill="#2e3436" transform="translate(780.01066,429.9443)"><g id="g19052" fill="#2e3436" display="inline" transform="translate(-41.000202,-397)"><path id="path19056" fill="#2e3436" fill-opacity="1" fill-rule="nonzero" stroke="none" stroke-width="2" d="m 530.9488,186.70897 c -0.77941,0.55189 -3.15759,-1.90601 -4.11253,-1.9179 -0.95532,-0.0119 -3.39494,2.38585 -4.16096,1.8149 -0.76573,-0.57072 0.83698,-3.59203 0.55319,-4.50391 -0.2839,-0.91223 -3.31818,-2.49151 -3.01189,-3.39647 0.30617,-0.90461 3.67487,-0.31399 4.45442,-0.86567 0.77986,-0.5519 1.3442,-3.92569 2.29952,-3.91404 0.95494,0.0116 1.43421,3.39798 2.19979,3.9689 0.76588,0.57114 4.14893,0.0653 4.43307,0.97746 0.28402,0.9118 -2.78848,2.41405 -3.09488,3.31858 -0.30652,0.90489 1.21999,3.96605 0.44027,4.51815 z" color="#000" display="inline" enable-background="accumulate" overflow="visible" transform="matrix(1.0472113,-0.00871584,0.00871584,1.0472113,-504.35434,220.15425)" visibility="visible" style="marker:none"/></g></g></g><g id="g19350" display="none" transform="translate(0,-352.36215)"><rect id="rect19352" width="33" height="33" x="851.5" y="420.862" fill="#babdb6" fill-opacity="1" fill-rule="nonzero" stroke="#a7a7a7" stroke-dasharray="none" stroke-dashoffset="0" stroke-linecap="butt" stroke-linejoin="miter" stroke-miterlimit="4" stroke-opacity="1" stroke-width="1" color="#000" display="inline" enable-background="accumulate" overflow="visible" rx="3" ry="3" visibility="visible" style="marker:none"/><path id="path19354" fill="#e3e3df" fill-opacity="1" fill-rule="nonzero" stroke="#c2c5bf" stroke-opacity="1" stroke-width="1" d="m 747.5,465.86218 105.5,0 15.72629,-15.5563 15.27371,15.5563 43.5,0 c 3.324,0 6,2.676 6,6 l 0,186 c 0,3.324 -2.676,6 -6,6 l -180,0 c -3.324,0 -6,-2.676 -6,-6 l 0,-186 c 0,-3.324 2.676,-6 6,-6 z" color="#000" display="inline" enable-background="accumulate" overflow="visible" visibility="visible" style="marker:none"/><rect id="rect19356" width="269" height="33" x="1213.5" y="696.862" fill="#d3d7cf" fill-opacity="1" fill-rule="nonzero" stroke="#a7a7a7" stroke-dasharray="none" stroke-dashoffset="0" stroke-linecap="butt" stroke-linejoin="miter" stroke-miterlimit="4" stroke-opacity="1" stroke-width="1" color="#000" display="inline" enable-background="accumulate" overflow="visible" rx="3" ry="3" visibility="visible" style="marker:none"/><text id="text19358" x="1348.021" y="718.253" fill="#2e3436" fill-opacity="1" stroke="none" display="inline" font-family="Cantarell" font-size="14.3" font-stretch="normal" font-style="normal" font-variant="normal" font-weight="normal" letter-spacing="0" text-anchor="middle" word-spacing="0" writing-mode="lr-tb" xml:space="preserve" style="text-align:center;line-height:125%;-inkscape-font-specification:Cantarell"><tspan id="tspan19360" x="1348.021" y="718.253">Add Bookmark</tspan></text><rect id="rect19362" width="271" height="150" x="1213.5" y="477.862" fill="#fff" fill-opacity="1" stroke="#babdb6" stroke-dasharray="none" stroke-dashoffset="0" stroke-linecap="square" stroke-miterlimit="4" stroke-opacity="1" stroke-width="1" display="inline"/><path id="path19364" fill="none" stroke="#babdb6" stroke-linecap="butt" stroke-linejoin="miter" stroke-opacity="1" stroke-width="1" d="m 1483.5,527.86206 -269,0" display="inline"/><path id="path19366" fill="none" stroke="#babdb6" stroke-linecap="butt" stroke-linejoin="miter" stroke-opacity="1" stroke-width="1" d="m 1483.5,577.86218 -269,0" display="inline"/><text font-stretch="normal" style="line-height:125%;-inkscape-font-specification:Cantarell" id="text19368" x="1223" y="500.362" fill="#2e3436" fill-opacity="1" stroke="none" font-family="Cantarell" font-size="14" font-style="normal" font-variant="normal" font-weight="normal" letter-spacing="0" word-spacing="0" xml:space="preserve"><tspan id="tspan19370" x="1223" y="500.362">Page 1</tspan></text><text id="text19372" x="1223" y="516.362" fill="#888a85" fill-opacity="1" stroke="none" font-family="Cantarell" font-size="11" font-stretch="normal" font-style="normal" font-variant="normal" font-weight="bold" letter-spacing="0" word-spacing="0" xml:space="preserve" style="line-height:125%;-inkscape-font-specification:Cantarell Bold"><tspan id="tspan19374" x="1223" y="516.362">App 1</tspan></text><text id="text19376" x="1223" y="550.362" fill="#2e3436" fill-opacity="1" stroke="none" font-family="Cantarell" font-size="14" font-stretch="normal" font-style="normal" font-variant="normal" font-weight="normal" letter-spacing="0" word-spacing="0" xml:space="preserve" style="line-height:125%;-inkscape-font-specification:Cantarell"><tspan id="tspan19378" x="1223" y="550.362">Page 2</tspan></text><text font-stretch="normal" style="line-height:125%;-inkscape-font-specification:Cantarell Bold" id="text19380" x="1223" y="566.362" fill="#888a85" fill-opacity="1" stroke="none" font-family="Cantarell" font-size="11" font-style="normal" font-variant="normal" font-weight="bold" letter-spacing="0" word-spacing="0" xml:space="preserve"><tspan id="tspan19382" x="1223" y="566.362">App 1</tspan></text><text font-stretch="normal" style="line-height:125%;-inkscape-font-specification:Cantarell" id="text19384" x="1223" y="600.362" fill="#2e3436" fill-opacity="1" stroke="none" font-family="Cantarell" font-size="14" font-style="normal" font-variant="normal" font-weight="normal" letter-spacing="0" word-spacing="0" xml:space="preserve"><tspan id="tspan19386" x="1223" y="600.362">Page 3</tspan></text><text id="text19388" x="1223" y="616.362" fill="#888a85" fill-opacity="1" stroke="none" font-family="Cantarell" font-size="11" font-stretch="normal" font-style="normal" font-variant="normal" font-weight="bold" letter-spacing="0" word-spacing="0" xml:space="preserve" style="line-height:125%;-inkscape-font-specification:Cantarell Bold"><tspan id="tspan19390" x="1223" y="616.362">App 2</tspan></text><path id="path19392" fill="none" stroke="#babdb6" stroke-linecap="butt" stroke-linejoin="miter" stroke-opacity="1" stroke-width="1" d="m 1436.5,514.79667 0,-23.99498" display="inline"/><g id="g19394" transform="translate(1453.0031,494.7993)"><g id="g19402" transform="translate(-60,-518)"><g id="g19404" display="inline" transform="translate(19,-242)"><path id="path19406" fill="#bebebe" fill-opacity="1" fill-rule="nonzero" stroke="none" stroke-width="1.781" d="m 45,764 1,0 c 0.01037,-1.2e-4 0.02079,-4.6e-4 0.03125,0 0.254951,0.0112 0.50987,0.12858 0.6875,0.3125 L 49,766.59375 51.3125,764.3125 C 51.578125,764.082 51.759172,764.007 52,764 l 1,0 0,1 c 0,0.28647 -0.03434,0.55065 -0.25,0.75 l -2.28125,2.28125 2.25,2.25 C 52.906938,770.46942 52.999992,770.7347 53,771 l 0,1 -1,0 c -0.265301,-10e-6 -0.530586,-0.0931 -0.71875,-0.28125 L 49,769.4375 46.71875,771.71875 C 46.530586,771.90694 46.26529,772 46,772 l -1,0 0,-1 c -3e-6,-0.26529 0.09306,-0.53058 0.28125,-0.71875 l 2.28125,-2.25 L 45.28125,765.75 C 45.070508,765.55537 44.97809,765.28075 45,765 l 0,-1 z" color="#bebebe" direction="ltr" display="inline" enable-background="new" font-family="Andale Mono" font-size="medium" font-stretch="normal" font-style="normal" font-variant="normal" font-weight="normal" letter-spacing="normal" overflow="visible" text-anchor="start" text-decoration="none" visibility="visible" word-spacing="normal" writing-mode="lr-tb" style="text-indent:0;text-align:start;line-height:normal;text-transform:none;block-progression:tb;marker:none;-inkscape-font-specification:Andale Mono"/></g></g></g><path id="path19414" fill="none" stroke="#babdb6" stroke-linecap="butt" stroke-linejoin="miter" stroke-opacity="1" stroke-width="1" d="m 1436.5,564.85962 0,-23.99498" display="inline"/><g id="g19416" transform="translate(1453.0031,544.86224)"><g id="g19424" transform="translate(-60,-518)"><g id="g19426" display="inline" transform="translate(19,-242)"><path id="path19428" fill="#bebebe" fill-opacity="1" fill-rule="nonzero" stroke="none" stroke-width="1.781" d="m 45,764 1,0 c 0.01037,-1.2e-4 0.02079,-4.6e-4 0.03125,0 0.254951,0.0112 0.50987,0.12858 0.6875,0.3125 L 49,766.59375 51.3125,764.3125 C 51.578125,764.082 51.759172,764.007 52,764 l 1,0 0,1 c 0,0.28647 -0.03434,0.55065 -0.25,0.75 l -2.28125,2.28125 2.25,2.25 C 52.906938,770.46942 52.999992,770.7347 53,771 l 0,1 -1,0 c -0.265301,-10e-6 -0.530586,-0.0931 -0.71875,-0.28125 L 49,769.4375 46.71875,771.71875 C 46.530586,771.90694 46.26529,772 46,772 l -1,0 0,-1 c -3e-6,-0.26529 0.09306,-0.53058 0.28125,-0.71875 l 2.28125,-2.25 L 45.28125,765.75 C 45.070508,765.55537 44.97809,765.28075 45,765 l 0,-1 z" color="#bebebe" direction="ltr" display="inline" enable-background="new" font-family="Andale Mono" font-size="medium" font-stretch="normal" font-style="normal" font-variant="normal" font-weight="normal" letter-spacing="normal" overflow="visible" text-anchor="start" text-decoration="none" visibility="visible" word-spacing="normal" writing-mode="lr-tb" style="text-indent:0;text-align:start;line-height:normal;text-transform:none;block-progression:tb;marker:none;-inkscape-font-specification:Andale Mono"/></g></g></g><path id="path19436" fill="none" stroke="#babdb6" stroke-linecap="butt" stroke-linejoin="miter" stroke-opacity="1" stroke-width="1" d="m 1436.5,614.85962 0,-23.99498" display="inline"/><g id="g19438" transform="translate(1453.0031,594.86224)"><g id="g19446" transform="translate(-60,-518)"><g id="g19448" display="inline" transform="translate(19,-242)"><path id="path19450" fill="#bebebe" fill-opacity="1" fill-rule="nonzero" stroke="none" stroke-width="1.781" d="m 45,764 1,0 c 0.01037,-1.2e-4 0.02079,-4.6e-4 0.03125,0 0.254951,0.0112 0.50987,0.12858 0.6875,0.3125 L 49,766.59375 51.3125,764.3125 C 51.578125,764.082 51.759172,764.007 52,764 l 1,0 0,1 c 0,0.28647 -0.03434,0.55065 -0.25,0.75 l -2.28125,2.28125 2.25,2.25 C 52.906938,770.46942 52.999992,770.7347 53,771 l 0,1 -1,0 c -0.265301,-10e-6 -0.530586,-0.0931 -0.71875,-0.28125 L 49,769.4375 46.71875,771.71875 C 46.530586,771.90694 46.26529,772 46,772 l -1,0 0,-1 c -3e-6,-0.26529 0.09306,-0.53058 0.28125,-0.71875 l 2.28125,-2.25 L 45.28125,765.75 C 45.070508,765.55537 44.97809,765.28075 45,765 l 0,-1 z" color="#bebebe" direction="ltr" display="inline" enable-background="new" font-family="Andale Mono" font-size="medium" font-stretch="normal" font-style="normal" font-variant="normal" font-weight="normal" letter-spacing="normal" overflow="visible" text-anchor="start" text-decoration="none" visibility="visible" word-spacing="normal" writing-mode="lr-tb" style="text-indent:0;text-align:start;line-height:normal;text-transform:none;block-progression:tb;marker:none;-inkscape-font-specification:Andale Mono"/></g></g></g><flowRoot id="flowRoot19480" fill="#000" fill-opacity="1" stroke="none" font-family="Cantarell" font-size="14" font-stretch="normal" font-style="normal" font-variant="normal" font-weight="normal" letter-spacing="0" transform="translate(36,406.36215)" word-spacing="0" xml:space="preserve" style="line-height:125%;-inkscape-font-specification:Cantarell"><flowRegion id="flowRegion19482"><rect id="rect19484" width="190" height="244" x="720" y="127"/></flowRegion><flowPara style="line-height:179.99999523%" id="flowPara19486">Find...</flowPara><flowPara style="line-height:179.99999523%" id="flowPara19929" fill="#000">Print...</flowPara></flowRoot><rect stroke-linejoin="miter" style="marker:none" id="rect19492" width="169" height="33" x="751.5" y="480.862" fill="#d3d7cf" fill-opacity="1" fill-rule="nonzero" stroke="#a7a7a7" stroke-dasharray="none" stroke-dashoffset="0" stroke-linecap="butt" stroke-miterlimit="4" stroke-opacity="1" stroke-width="1" color="#000" display="inline" enable-background="accumulate" overflow="visible" rx="2.972" ry="2.972" visibility="visible"/><path id="path19494" fill="none" stroke="#a7a7a7" stroke-linecap="square" stroke-linejoin="miter" stroke-opacity="1" stroke-width="1" d="m 807.83337,481.87011 0,30.98416" display="inline" enable-background="new"/><path id="path19546" fill="none" stroke="#a7a7a7" stroke-linecap="square" stroke-linejoin="miter" stroke-opacity="1" stroke-width="1" d="m 864.16675,481.87011 0,30.98416" display="inline" enable-background="new"/><g id="g19695" fill="#2e3436" transform="translate(884.33331,489.36218)"><g id="layer12-5" fill="#2e3436" display="inline" transform="translate(-181.0002,-667)"><path id="rect11749-5-0-1-8" fill="#2e3436" fill-opacity="1" stroke="none" stroke-width="2" d="m 184.1877,669 c -0.6627,0 -1.1875,0.54899 -1.1875,1.21875 l 0,9.5625 c 0,0.66976 0.5248,1.21875 1.1875,1.21875 l 9.625,0 c 0.6627,0 1.1875,-0.54899 1.1875,-1.21875 l 0,-9.5625 c 0,-0.66976 -0.5248,-1.21875 -1.1875,-1.21875 l -9.625,0 z m 3.8125,3 2,0 0,2 2,0 0,2 -2,0 0,2 -2,0 0,-2 -2,0 0,-2 2,0 0,-2 z" color="#bebebe" display="inline" overflow="visible" visibility="visible" style="marker:none"/></g></g><g id="g19804" fill="#2e3436" transform="translate(771.66675,489.36218)"><g id="layer12-9" fill="#2e3436" display="inline" transform="translate(-201.0002,-667)"><path id="rect11749-5-0-1-8-7" fill="#2e3436" fill-opacity="1" stroke="none" stroke-width="2" d="m 204.1877,669 c -0.6627,0 -1.1875,0.54899 -1.1875,1.21875 l 0,9.5625 c 0,0.66976 0.5248,1.21875 1.1875,1.21875 l 9.625,0 c 0.6627,0 1.1875,-0.54899 1.1875,-1.21875 l 0,-9.5625 c 0,-0.66976 -0.5248,-1.21875 -1.1875,-1.21875 l -9.625,0 z m 1.8125,5 6,0 0,2 -6,0 0,-2 z" color="#bebebe" display="inline" overflow="visible" visibility="visible" style="marker:none"/></g></g><g id="g19915" fill="#2e3436" transform="translate(828.00006,489.36218)"><g id="layer12-4" fill="#2e3436" display="inline" transform="translate(-221.0002,-667)"><path id="rect11749-5-0-1-8-7-8" fill="#2e3436" fill-opacity="1" stroke="none" stroke-width="2" d="m 224.1877,669 c -0.6627,0 -1.1875,0.54899 -1.1875,1.21875 l 0,9.5625 c 0,0.66976 0.5248,1.21875 1.1875,1.21875 l 9.625,0 c 0.6627,0 1.1875,-0.54899 1.1875,-1.21875 l 0,-9.5625 c 0,-0.66976 -0.5248,-1.21875 -1.1875,-1.21875 l -9.625,0 z m 3.8125,3 2,0 0,6 -2,0 0,-4 -1,0 0,-1 c 0.69433,0 1,-0.34772 1,-1 z" color="#bebebe" display="inline" overflow="visible" visibility="visible" style="marker:none"/></g></g><path id="path19931" fill="#babdb6" stroke="#babdb6" stroke-linecap="butt" stroke-linejoin="miter" stroke-opacity="1" stroke-width="1" d="m 751.50006,526.86218 168.99967,0"/><flowRoot id="flowRoot19933" fill="#000" fill-opacity="1" stroke="none" font-family="Cantarell" font-size="14" font-stretch="normal" font-style="normal" font-variant="normal" font-weight="normal" letter-spacing="0" transform="translate(36,470.36215)" word-spacing="0" xml:space="preserve" style="line-height:125%;-inkscape-font-specification:Cantarell"><flowRegion id="flowRegion19935"><rect id="rect19937" width="190" height="244" x="720" y="127"/></flowRegion><flowPara id="flowPara19943" fill="#888a85" style="line-height:179.99999523%">Previous Page</flowPara><flowPara id="flowPara19945" fill="#888a85" style="line-height:179.99999523%">Next Page</flowPara></flowRoot><path id="path19951" fill="#babdb6" stroke="#babdb6" stroke-linecap="butt" stroke-linejoin="miter" stroke-opacity="1" stroke-width="1" d="m 751.50006,592.86218 168.99967,0"/><g id="g19957" fill="#2e3436" transform="translate(859.9998,429.3622)"><g id="g19969" fill="#2e3436" display="inline" transform="translate(-441.0002,-400.99999)"><path id="path19971" fill="#2e3436" fill-opacity="1" fill-rule="nonzero" stroke="none" d="m 449.0004,402.00002 c -0.22065,0 -0.44081,0.0113 -0.65625,0.0312 l -0.40625,2.09375 c -0.33446,0.0733 -0.66305,0.17589 -0.96875,0.3125 l -1.53125,-1.46875 c -0.38863,0.23011 -0.72695,0.51408 -1.0625,0.8125 l 0.90625,1.90625 c -0.22242,0.24899 -0.42425,0.5225 -0.59375,0.8125 l -2.09375,-0.28125 c -0.17772,0.40877 -0.30872,0.83637 -0.40625,1.28125 l 1.84375,1 c -0.0171,0.16809 -0.0312,0.3274 -0.0312,0.5 0,0.1726 0.0142,0.33191 0.0312,0.5 l -1.84375,1 c 0.0975,0.44488 0.22853,0.87248 0.40625,1.28125 l 2.09375,-0.28125 c 0.1695,0.29 0.37133,0.56351 0.59375,0.8125 l -0.90625,1.90625 c 0.33555,0.29842 0.67387,0.58239 1.0625,0.8125 l 1.53125,-1.46875 c 0.3057,0.13661 0.63429,0.23916 0.96875,0.3125 l 0.40625,2.09375 c 0.21544,0.02 0.4356,0.0312 0.65625,0.0312 0.22065,0 0.44081,-0.0113 0.65625,-0.0312 l 0.40625,-2.09375 c 0.33446,-0.0733 0.66305,-0.17589 0.96875,-0.3125 l 1.53125,1.46875 c 0.38863,-0.23011 0.72695,-0.51408 1.0625,-0.8125 l -0.90625,-1.90625 c 0.22242,-0.24899 0.42425,-0.5225 0.59375,-0.8125 l 2.09375,0.28125 c 0.17772,-0.40877 0.30872,-0.83637 0.40625,-1.28125 l -1.84375,-1 c 0.0171,-0.16809 0.0312,-0.3274 0.0312,-0.5 0,-0.1726 -0.0142,-0.33191 -0.0312,-0.5 l 1.84375,-1 c -0.0975,-0.44488 -0.22853,-0.87248 -0.40625,-1.28125 l -2.09375,0.28125 c -0.1695,-0.29 -0.37133,-0.56351 -0.59375,-0.8125 l 0.90625,-1.90625 c -0.33555,-0.29842 -0.67387,-0.58239 -1.0625,-0.8125 l -1.53125,1.46875 c -0.3057,-0.13661 -0.63429,-0.23916 -0.96875,-0.3125 l -0.40625,-2.09375 c -0.21544,-0.02 -0.4356,-0.0312 -0.65625,-0.0312 z m 0,4 c 1.65685,0 3,1.34315 3,3 0,1.65685 -1.34315,3 -3,3 -1.65685,0 -3,-1.34315 -3,-3 0,-1.65685 1.34315,-3 3,-3 z" color="#000" display="inline" enable-background="accumulate" overflow="visible" visibility="visible" style="marker:none"/></g></g></g><g id="layer4" display="inline" transform="translate(0,-352.36215)"><rect id="rect19123" width="33" height="33" x="811.5" y="420.862" fill="#babdb6" fill-opacity="1" fill-rule="nonzero" stroke="#a7a7a7" stroke-dasharray="none" stroke-dashoffset="0" stroke-linecap="butt" stroke-linejoin="miter" stroke-miterlimit="4" stroke-opacity="1" stroke-width="1" color="#000" display="inline" enable-background="accumulate" overflow="visible" rx="3" ry="3" visibility="visible" style="marker:none"/><g id="g19125" fill="#2e3436" transform="translate(819.99111,429.33032)"><g id="g19133" fill="#2e3436" transform="translate(-140.0002,-645.96875)"><path id="path19135" fill="#2e3436" fill-opacity="1" stroke="none" stroke-width="1.555" d="m 146.50761,646.99554 c -3.02886,0 -5.51073,2.47905 -5.51073,5.50447 0,3.02541 2.48187,5.50446 5.51073,5.50446 3.02885,0 5.51072,-2.47905 5.51072,-5.50446 0,-3.02542 -2.48187,-5.50447 -5.51072,-5.50447 z m 0,2.00893 c 1.94735,0 3.49951,1.55039 3.49951,3.49554 0,1.94514 -1.55216,3.49553 -3.49951,3.49553 -1.94736,0 -3.49952,-1.55039 -3.49952,-3.49553 0,-1.94515 1.55216,-3.49554 3.49952,-3.49554 z" baseline-shift="baseline" color="#000" direction="ltr" display="inline" enable-background="new" font-family="Sans" font-size="medium" font-stretch="normal" font-style="normal" font-variant="normal" font-weight="normal" letter-spacing="normal" overflow="visible" text-anchor="start" text-decoration="none" visibility="visible" word-spacing="normal" writing-mode="lr-tb" style="text-indent:0;text-align:start;line-height:normal;text-transform:none;block-progression:tb;marker:none;-inkscape-font-specification:Sans"/><path id="path19137" fill="#2e3436" fill-opacity="1" stroke="none" stroke-width="2" d="m 149.8125,655 a 1.0001,1.0001 0 0 0 -0.5,1.71875 l 4,4 a 1.0054782,1.0054782 0 1 0 1.40625,-1.4375 l -4,-4 A 1.0001,1.0001 0 0 0 149.8125,655 z" baseline-shift="baseline" color="#000" direction="ltr" display="inline" enable-background="new" font-family="Sans" font-size="medium" font-stretch="normal" font-style="normal" font-variant="normal" font-weight="normal" letter-spacing="normal" overflow="visible" text-anchor="start" text-decoration="none" visibility="visible" word-spacing="normal" writing-mode="lr-tb" style="text-indent:0;text-align:start;line-height:normal;text-transform:none;block-progression:tb;marker:none;-inkscape-font-specification:Sans"/></g></g><rect id="rect19198" width="879" height="43" x="60.5" y="460.862" fill="#d3d7cf" fill-opacity="1" fill-rule="nonzero" stroke="#a7aba7" stroke-dasharray="none" stroke-dashoffset="0" stroke-linecap="round" stroke-linejoin="miter" stroke-miterlimit="4" stroke-opacity="1" stroke-width="1" color="#000" display="inline" enable-background="new" overflow="visible" visibility="visible" style="marker:none"/><rect id="rect19260" width="337" height="31" x="331.5" y="466.862" fill="#fff" fill-opacity="1" fill-rule="nonzero" stroke="#729fcf" stroke-dasharray="none" stroke-miterlimit="4" stroke-opacity="1" stroke-width="1" color="#000" display="inline" enable-background="new" overflow="visible" rx="3.804" ry="3.804" visibility="visible" style="marker:none"/><g id="g19298" fill="#888a85" transform="translate(340.00332,474.33029)"><g id="g19306" fill="#888a85" transform="translate(-140.0002,-645.96875)"><path id="path19308" fill="#888a85" fill-opacity="1" stroke="none" stroke-width="1.555" d="m 146.50761,646.99554 c -3.02886,0 -5.51073,2.47905 -5.51073,5.50447 0,3.02541 2.48187,5.50446 5.51073,5.50446 3.02885,0 5.51072,-2.47905 5.51072,-5.50446 0,-3.02542 -2.48187,-5.50447 -5.51072,-5.50447 z m 0,2.00893 c 1.94735,0 3.49951,1.55039 3.49951,3.49554 0,1.94514 -1.55216,3.49553 -3.49951,3.49553 -1.94736,0 -3.49952,-1.55039 -3.49952,-3.49553 0,-1.94515 1.55216,-3.49554 3.49952,-3.49554 z" baseline-shift="baseline" color="#000" direction="ltr" display="inline" enable-background="new" font-family="Sans" font-size="medium" font-stretch="normal" font-style="normal" font-variant="normal" font-weight="normal" letter-spacing="normal" overflow="visible" text-anchor="start" text-decoration="none" visibility="visible" word-spacing="normal" writing-mode="lr-tb" style="text-indent:0;text-align:start;line-height:normal;text-transform:none;block-progression:tb;marker:none;-inkscape-font-specification:Sans"/><path id="path19310" fill="#888a85" fill-opacity="1" stroke="none" stroke-width="2" d="m 149.8125,655 a 1.0001,1.0001 0 0 0 -0.5,1.71875 l 4,4 a 1.0054782,1.0054782 0 1 0 1.40625,-1.4375 l -4,-4 A 1.0001,1.0001 0 0 0 149.8125,655 z" baseline-shift="baseline" color="#000" direction="ltr" display="inline" enable-background="new" font-family="Sans" font-size="medium" font-stretch="normal" font-style="normal" font-variant="normal" font-weight="normal" letter-spacing="normal" overflow="visible" text-anchor="start" text-decoration="none" visibility="visible" word-spacing="normal" writing-mode="lr-tb" style="text-indent:0;text-align:start;line-height:normal;text-transform:none;block-progression:tb;marker:none;-inkscape-font-specification:Sans"/></g></g><path id="path19320" fill="none" stroke="#000" stroke-linecap="butt" stroke-linejoin="miter" stroke-opacity="1" stroke-width="1" d="m 364.8125,472.04965 c 0,20.625 0,20.625 0,20.625"/></g></svg>