<svg xmlns="http://www.w3.org/2000/svg" xmlns:svg="http://www.w3.org/2000/svg" id="svg2" width="744.094" height="1052.362" version="1.1"><metadata id="metadata7"/><g id="layer1"><text id="text6033" x="78" y="103.362" fill="#000" fill-opacity="1" stroke="none" font-family="M+ 2p" font-size="28" font-stretch="normal" font-style="normal" font-variant="normal" font-weight="200" letter-spacing="0" text-anchor="start" word-spacing="0" writing-mode="lr-tb" xml:space="preserve" style="text-align:start;line-height:125%;-inkscape-font-specification:'M+ 2p Ultra-Light'"><tspan id="tspan6035" x="78" y="103.362">Cantarell is a UI typeface</tspan></text><flowRoot font-variant="normal" style="text-align:start;line-height:150%;-inkscape-font-specification:'M+ 2c'" id="flowRoot6971" fill="#000" fill-opacity="1" stroke="none" font-family="M+ 2c" font-size="14" font-stretch="normal" font-style="normal" font-weight="normal" letter-spacing="0" text-anchor="start" transform="translate(-4,-78)" word-spacing="0" writing-mode="lr" xml:space="preserve"><flowRegion id="flowRegion6973"><rect font-stretch="normal" style="text-align:start;line-height:150%;-inkscape-font-specification:'M+ 2c'" id="rect6975" width="512" height="408" x="83" y="180.362" font-family="M+ 2c" font-size="14" font-style="normal" font-variant="normal" font-weight="normal" text-anchor="start" writing-mode="lr"/></flowRegion><flowPara id="flowPara6977"/><flowPara id="flowPara6990">Lorem ipsum dolor sit amet, consectetuer adipiscing elit. Aliquam sed erat. Maecenas convallis dui. Pellentesque condimentum felis a sem. Suspendisse viverra placerat tortor. Donec at diam a tellus dignissim vestibulum. Aliquam justo lectus, iaculis a, auctor sed, congue in, nisl. Pellentesque ac turpis. Nam a nunc. Sed elementum, felis quis porttitor sollicitudin, augue nulla sodales sapien, sit amet posuere quam purus at lacus. Vivamus nisi elit, nonummy id, facilisis non, blandit ac, dolor. Lorem ipsum dolor sit amet, consectetuer adipiscing elit. Proin diam augue, semper vitae, varius et, viverra id, felis. Donec ut purus. Vestibulum ante ipsum primis in faucibus orci luctus et ultrices posuere cubilia Curae; Suspendisse potenti. Proin diam augue, semper vitae, varius et, viverra id, felis. Integer tempus malesuada pede. Aliquam velit dui, commodo quis, porttitor eget, convallis et, nisi. Aliquam imperdiet lobortis metus.</flowPara><flowPara id="flowPara6992"/><flowPara id="flowPara6994">Donec interdum vestibulum libero. Nullam sapien mauris, venenatis at, fermentum at, tempus eu, urna. Mauris et pede. Morbi turpis arcu, egestas congue, condimentum quis, tristique cursus, leo. Maecenas convallis dui. Vestibulum ante ipsum primis in faucibus orci luctus et ultrices posuere cubilia Curae; Donec gravida, ante vel ornare lacinia, orci enim porta est, eget sollicitudin lectus lectus eget lacus. Fusce consectetuer tellus ut nisl. Pellentesque convallis dolor vel libero. Mauris tempor ultrices justo. Suspendisse fermentum. Suspendisse potenti. Praesent aliquet, neque pretium congue mattis, ipsum augue dignissim ante, ac pretium nisl lectus at magna. Quisque pretium rutrum ligula. s</flowPara><flowPara id="flowPara6996"/><flowPara id="flowPara6998">Nam laoreet dui sed magna. Donec tempus quam quis neque. Aenean justo ipsum, luctus ut, volutpat laoreet, vehicula in, libero. Maecenas justo. Aenean id purus. Mauris urna sem, suscipit vitae, dignissim id, ultrices sed, nunc. Praesent a lacus vitae turpis consequat semper. Etiam pharetra lacus sed velit imperdiet bibendum. Pellentesque condimentum felis a sem. Morbi turpis arcu, egestas congue, condimentum quis, tristique cursus, leo. Aenean ligula. Nam rhoncus, lectus vel hendrerit congue, nisl lorem feugiat ante, in fermentum erat nulla tristique arcu. Suspendisse venenatis. Praesent lacus. Donec sit amet enim. Mauris et pede. Nam pharetra.</flowPara><flowPara id="flowPara7000"/><flowPara id="flowPara7002">Nam massa turpis, nonummy et, consectetuer id, placerat ac, ante. Integer tempus malesuada pede. Integer risus velit, facilisis eget, viverra et, venenatis id, leo. Vestibulum ante ipsum primis in faucibus orci luctus et ultrices posuere cubilia Curae; Vivamus eu orci. Fusce consectetuer tellus ut nisl. Nam sed nisl nec elit suscipit ullamcorper. Nam a nunc. Pellentesque suscipit accumsan massa. Vivamus quis mi. Mauris tincidunt aliquam ante. Aliquam sed erat. Fusce venenatis ligula in pede. Lorem ipsum dolor sit amet, consectetuer adipiscing elit. Phasellus magna sem, vulputate eget, ornare sed, dignissim sit amet, pede. In hac habitasse platea dictumst. Morbi urna. Vivamus feugiat. Etiam pede nunc, vestibulum vel, rutrum et, tincidunt eu, enim. Mauris tincidunt aliquam ante.</flowPara><flowPara id="flowPara7004"/><flowPara id="flowPara7006">In consectetuer, lorem eu lobortis egestas, velit odio imperdiet eros, sit amet sagittis nunc mi ac neque. Nunc in turpis ac lacus eleifend sagittis. Praesent lacus. Donec interdum vestibulum libero. Vestibulum non arcu a ante feugiat vestibulum. Maecenas viverra. Donec tempus quam quis neque. Aenean justo ipsum, luctus ut, volutpat laoreet, vehicula in, libero. Etiam sodales orci nec ligula. Suspendisse potenti. Aenean ultrices turpis. Nam sed nisl nec elit suscipit ullamcorper.</flowPara><flowPara id="flowPara7008"/></flowRoot><flowRoot font-variant="normal" style="text-align:start;line-height:150%;-inkscape-font-specification:'M+ 2c'" id="flowRoot7029" fill="#000" fill-opacity="1" stroke="none" font-family="M+ 2c" font-size="14" font-stretch="normal" font-style="normal" font-weight="normal" letter-spacing="0" text-anchor="start" transform="translate(-4,418)" word-spacing="0" writing-mode="lr" xml:space="preserve"><flowRegion id="flowRegion7031"><rect id="rect7033" width="512" height="306" x="83" y="180.362" font-family="M+ 2c" font-size="14" font-stretch="normal" font-style="normal" font-variant="normal" font-weight="normal" text-anchor="start" writing-mode="lr" style="text-align:start;line-height:150%;-inkscape-font-specification:'M+ 2c'"/></flowRegion><flowPara id="flowPara7045">Nam laoreet dui sed magna. Donec tempus quam quis neque. Aenean justo ipsum, luctus ut, volutpat laoreet, vehicula in, libero. Maecenas justo. Aenean id purus. Mauris urna sem, suscipit vitae, dignissim id, ultrices sed, nunc. Praesent a lacus vitae turpis consequat semper. Etiam pharetra lacus sed velit imperdiet bibendum. Pellentesque condimentum felis a sem. Morbi turpis arcu, egestas congue, condimentum quis, tristique cursus, leo. Aenean ligula. Nam rhoncus, lectus vel hendrerit congue, nisl lorem feugiat ante, in fermentum erat nulla tristique arcu. Suspendisse venenatis. Praesent lacus. Donec sit amet enim. Mauris et pede. Nam pharetra.</flowPara><flowPara id="flowPara7047"/><flowPara id="flowPara7049">Nam massa turpis, nonummy et, consectetuer id, placerat ac, ante. Integer tempus malesuada pede. Integer risus velit, facilisis eget, viverra et, venenatis id, leo. Vestibulum ante ipsum primis in faucibus orci luctus et ultrices posuere cubilia Curae; Vivamus eu orci. Fusce consectetuer tellus ut nisl. Nam sed nisl nec elit suscipit ullamcorper. Nam a nunc. Pellentesque suscipit accumsan massa. Vivamus quis mi. Mauris tincidunt aliquam ante. Aliquam sed erat. Fusce venenatis ligula in pede. Lorem ipsum dolor sit amet, consectetuer adipiscing elit. Phasellus magna sem, vulputate eget, ornare sed, dignissim sit amet, pede. In hac habitasse platea dictumst. Morbi urna. Vivamus feugiat. Etiam pede nunc, vestibulum vel, rutrum et, tincidunt eu, enim. Mauris tincidunt aliquam ante.</flowPara><flowPara id="flowPara7051"/><flowPara id="flowPara7053">In consectetuer, lorem eu lobortis egestas, velit odio imperdiet eros, sit amet sagittis nunc mi ac neque. Nunc in turpis ac lacus eleifend sagittis. Praesent lacus. Donec interdum vestibulum libero. Vestibulum non arcu a ante feugiat vestibulum. Maecenas viverra. Donec tempus quam quis neque. Aenean justo ipsum, luctus ut, volutpat laoreet, vehicula in, libero. Etiam sodales orci nec ligula. Suspendisse potenti. Aenean ultrices turpis. Nam sed nisl nec elit suscipit ullamcorper.</flowPara><flowPara id="flowPara7055"/></flowRoot><text id="text7069" x="78" y="579.362" fill="#000" fill-opacity="1" stroke="none" font-family="M+ 2p" font-size="28" font-stretch="normal" font-style="normal" font-variant="normal" font-weight="200" letter-spacing="0" text-anchor="start" word-spacing="0" writing-mode="lr-tb" xml:space="preserve" style="text-align:start;line-height:125%;-inkscape-font-specification:'M+ 2p Ultra-Light'"><tspan id="tspan7071" x="78" y="579.362">We don&apos;t need to use it everywhere</tspan></text><g id="layer1-8" transform="matrix(0.08520302,0,0,0.08520302,92.10742,964.73975)"><g id="g15041" transform="matrix(1.293235,0,0,1.293235,-4878.321,-1224.915)"><g id="g15043" fill="#000" fill-opacity="1" fill-rule="nonzero" stroke="none" transform="matrix(2.438586,0,0,2.438586,3659.952,1113.451)"><g id="g15045" fill="#000" fill-opacity="1"><path id="path15047" fill="#000" fill-opacity="1" d="M 86.068,0 C 61.466,0 56.851,35.041 70.691,35.041 84.529,35.041 110.671,0 86.068,0 z"/><path id="path15049" fill="#000" fill-opacity="1" d="M 45.217,30.699 C 52.586,31.149 60.671,2.577 46.821,4.374 32.976,6.171 37.845,30.249 45.217,30.699 z"/><path id="path15051" fill="#000" fill-opacity="1" d="M 11.445,48.453 C 16.686,46.146 12.12,23.581 3.208,29.735 -5.7,35.89 6.204,50.759 11.445,48.453 z"/><path id="path15053" fill="#000" fill-opacity="1" d="M 26.212,36.642 C 32.451,35.37 32.793,9.778 21.667,14.369 10.539,18.961 19.978,37.916 26.212,36.642 l 0,0 z"/><path id="path15055" fill="#000" fill-opacity="1" d="m 58.791,93.913 c 1.107,8.454 -6.202,12.629 -13.36,7.179 C 22.644,83.743 83.16,75.088 79.171,51.386 75.86,31.712 15.495,37.769 8.621,68.553 3.968,89.374 27.774,118.26 52.614,118.26 c 12.22,0 26.315,-11.034 28.952,-25.012 C 83.58,82.589 57.867,86.86 58.791,93.913 l 0,0 z"/></g></g><g id="g15057"><path id="path15059" fill="#000" fill-opacity="1" stroke="none" d="m 4176.2963,1214.4401 c -15.1078,0.4069 -27.0386,5.8367 -35.8126,16.25 -9.0861,10.8369 -13.6562,25.8104 -13.6562,44.9063 0,19.0432 4.5703,33.9757 13.6562,44.8124 9.1305,10.8369 21.6664,16.25 37.6563,16.25 16.034,0 28.6014,-5.4131 37.6875,-16.25 9.0859,-10.8367 13.6251,-25.7692 13.625,-44.8124 -1e-4,-19.0959 -4.5391,-34.0694 -13.625,-44.9063 -9.0861,-10.8366 -21.6536,-16.2499 -37.6875,-16.25 -0.6246,0 -1.2296,-0.016 -1.8437,0 z m 1.125,22 c 0.2415,-0.01 0.4737,0 0.7187,0 7.8833,10e-5 13.9919,3.4114 18.3125,10.25 4.3203,6.8388 6.4999,16.4913 6.5,28.9063 0,12.3623 -2.1799,21.9427 -6.5,28.7812 -4.3204,6.8389 -10.4293,10.2812 -18.3125,10.2812 -7.8391,0 -13.8983,-3.4423 -18.2187,-10.2812 -4.3204,-6.8385 -6.4999,-16.4189 -6.5,-28.7812 0,-12.4149 2.1798,-22.0675 6.5,-28.9063 4.1852,-6.6249 10.0123,-10.0428 17.5,-10.25 z" font-family="Bitstream Vera Sans" font-size="148.7" font-stretch="normal" font-style="normal" font-variant="normal" font-weight="bold" text-anchor="start" writing-mode="lr-tb" style="text-align:start;line-height:125%"/><path id="path15061" fill="#000" fill-opacity="1" stroke="none" d="m 4005.6293,1325.612 c -13.3076,11.1757 -33.1067,11.0472 -41.3549,11.0472 -16.6133,0 -29.7747,-5.471 -39.4842,-16.413 -9.7097,-10.9946 -14.5644,-25.8819 -14.5644,-44.6622 0,-18.9906 4.9438,-33.9305 14.8316,-44.82 9.8878,-10.8892 23.4277,-16.3339 40.62,-16.334 6.6363,10e-5 12.9831,0.7366 19.0406,2.2094 6.1019,1.473 11.8475,3.6562 17.2368,6.5494 l -6.921,20.4608 c -3.0298,-1.6586 -6.4987,-3.2932 -9.7145,-4.4424 -5.4784,-1.8411 -10.979,-2.7617 -16.5018,-2.7618 -10.2442,10e-5 -18.15,3.3932 -23.7173,10.1792 -5.523,6.7336 -8.2844,16.3867 -8.2844,28.9594 0,12.4676 2.6723,22.0945 8.0172,28.8806 5.3446,6.7861 13.3768,10.1791 22.7818,10.1791 9.5548,0 15.4728,-2.4084 18.6291,-4.9461 l 0,-20.3835 -20.7001,0 0,-20.3584 40.0855,0" font-family="Bitstream Vera Sans" font-size="148.7" font-stretch="normal" font-style="normal" font-variant="normal" font-weight="bold" text-anchor="start" writing-mode="lr-tb" style="text-align:start;line-height:125%"/><path id="path15063" fill="#000" fill-opacity="1" stroke="none" d="m 4023.2108,1216.5605 16.2279,0 51.2775,70.8022 0,-70.8022 21.8853,0 0,117.8103 -16.2279,0 -51.2774,-70.8022 0,70.8022 -21.8854,0 0,-117.8103" font-family="Bitstream Vera Sans" font-size="148.7" font-stretch="normal" font-style="normal" font-variant="normal" font-weight="bold" text-anchor="start" writing-mode="lr-tb" style="text-align:start;line-height:125%"/><path id="path15065" fill="#000" fill-opacity="1" stroke="none" d="m 4246.3361,1216.5605 32.7366,0 22.7151,73.5479 22.8487,-73.5479 27.6698,0 12.5,117.8103 -24.3186,0 -7.5,-73.668 -22.9823,74.0213 -16.3015,0 -22.9824,-76.5213 -7.5,76.168 -24.3854,0 12.5,-117.8103" font-family="Bitstream Vera Sans" font-size="148.7" font-stretch="normal" font-style="normal" font-variant="normal" font-weight="bold" text-anchor="start" writing-mode="lr-tb" style="text-align:start;line-height:125%"/><path id="path15067" fill="#000" fill-opacity="1" stroke="none" d="m 4382.3597,1216.5605 69.4147,0 0,22.9624 -43.6933,0 0,24.4365 33.5877,0 0,20.4623 -33.5877,0 0,26.9868 45.1631,0 0,22.9623 -70.8845,0 0,-117.8103" font-family="Bitstream Vera Sans" font-size="148.7" font-stretch="normal" font-style="normal" font-variant="normal" font-weight="bold" text-anchor="start" writing-mode="lr-tb" style="text-align:start;line-height:125%"/><text id="text15069" x="4474.618" y="1215.743" fill="#000" fill-opacity="1" stroke="none" font-family="Bitstream Vera Sans" font-size="30.69" font-style="normal" font-weight="normal" xml:space="preserve"><tspan id="tspan15072" x="4474.618" y="1215.743" letter-spacing="11.063"><tspan id="tspan15074" letter-spacing=".252">TM</tspan></tspan></text></g></g></g><text id="text7369" x="196" y="1007.362" fill="#000" fill-opacity="1" stroke="none" font-family="M+ 1mn" font-size="10" font-stretch="normal" font-style="normal" font-variant="normal" font-weight="normal" letter-spacing="0" text-anchor="start" word-spacing="0" writing-mode="lr-tb" xml:space="preserve" style="text-align:start;line-height:125%;-inkscape-font-specification:'M+ 1mn'"><tspan id="tspan7371" x="196" y="1007.362">set in M+ family</tspan></text></g></svg>