<svg xmlns="http://www.w3.org/2000/svg" xmlns:svg="http://www.w3.org/2000/svg" xmlns:xlink="http://www.w3.org/1999/xlink" id="svg2" width="744.094" height="1052.362" version="1.0"><metadata id="metadata6819"/><defs id="defs6817"><linearGradient id="linearGradient6059"><stop id="stop6061" offset="0" stop-color="#91d007" stop-opacity="1"/><stop id="stop6063" offset="1" stop-color="#217807" stop-opacity="1"/></linearGradient><linearGradient id="linearGradient6053"><stop id="stop6055" offset="0" stop-color="#91d007" stop-opacity="1"/><stop id="stop6057" offset="1" stop-color="#489707" stop-opacity="1"/></linearGradient><linearGradient id="linearGradient6784"><stop id="stop6786" offset="0" stop-color="#91d007" stop-opacity="1"/><stop id="stop6788" offset="1" stop-color="#91d007" stop-opacity="0"/></linearGradient><linearGradient id="linearGradient6766"><stop id="stop6770" offset="0" stop-color="#91d007" stop-opacity="1"/><stop id="stop6768" offset="1" stop-color="#217808" stop-opacity="1"/></linearGradient><linearGradient id="linearGradient11946"><stop id="stop11948" offset="0" stop-color="#fff" stop-opacity="1"/><stop id="stop11950" offset="1" stop-color="#000" stop-opacity="1"/></linearGradient><linearGradient id="linearGradient11952" x1="94.858" x2="634.042" y1="592.743" y2="592.743" gradientTransform="matrix(1.001549,0,0,1.001549,-0.576045,1.780085e-4)" gradientUnits="userSpaceOnUse" xlink:href="#linearGradient11946"/><radialGradient id="radialGradient6790" cx="460" cy="258.831" r="416" fx="460" fy="258.831" gradientTransform="matrix(1,0,0,0.5336538,0,96.23621)" gradientUnits="userSpaceOnUse" xlink:href="#linearGradient6784"/><radialGradient id="radialGradient6794" cx="473.648" cy="45.713" r="416" fx="473.648" fy="45.713" gradientTransform="matrix(0.5386215,1.4211757e-2,-9.6153846e-3,0.3644203,211.32274,160.97193)" gradientUnits="userSpaceOnUse" xlink:href="#linearGradient6784"/><radialGradient id="radialGradient6039" cx="346.696" cy="612.828" r="344.5" fx="346.696" fy="612.828" gradientTransform="matrix(1.8301891,1.1053711e-7,-4.0498143e-8,0.6705374,-290.09113,-38.916946)" gradientUnits="userSpaceOnUse" xlink:href="#linearGradient6766"/><radialGradient id="radialGradient6042" cx="473.648" cy="45.713" r="416" fx="473.648" fy="45.713" gradientTransform="matrix(0.5386215,1.4211757e-2,-9.6153846e-3,0.3644203,211.32274,160.97193)" gradientUnits="userSpaceOnUse" xlink:href="#linearGradient6053"/><radialGradient id="radialGradient6045" cx="460" cy="258.831" r="416" fx="460" fy="258.831" gradientTransform="matrix(1,0,0,0.5336538,0,96.23621)" gradientUnits="userSpaceOnUse" xlink:href="#linearGradient6059"/><radialGradient id="radialGradient6049" cx="346.696" cy="612.828" r="344.5" fx="346.696" fy="612.828" gradientTransform="matrix(1.8301891,1.1053711e-7,-4.0498143e-8,0.6705374,-290.09113,-38.916946)" gradientUnits="userSpaceOnUse" xlink:href="#linearGradient6766"/></defs><g id="g4" fill="none" stroke="#c1d2db" stroke-dasharray="none" stroke-linecap="butt" stroke-linejoin="miter" stroke-width=".302" transform="matrix(1.25067,0,0,1.250627,-4.498492e-2,6.277401e-2)"><path id="path6" stroke-width=".283" d="M 297.461,842.019 C 297.461,842.019 0,842.019 0,842.019 C 0,842.019 0,0 0,0 C 0,0 594.954,0 594.954,0 C 594.954,0 594.954,842.019 594.954,842.019 C 594.954,842.019 297.461,842.019 297.461,842.019"/></g><g id="g8" fill="none" stroke="#c1d2db" stroke-dasharray="none" stroke-linecap="butt" stroke-linejoin="miter" stroke-width=".302" transform="matrix(1.25067,0,0,1.250627,17.46435,17.7914)"><path id="path10" stroke-width=".283" d="M 283.461,813.645 C 283.461,813.645 0,813.645 0,813.645 C 0,813.645 0,0 0,0 C 0,0 566.922,0 566.922,0 C 566.922,0 566.922,813.645 566.922,813.645 C 566.922,813.645 283.461,813.645 283.461,813.645"/></g><g id="g12" fill="none" stroke="#c1d2db" stroke-dasharray="none" stroke-linecap="butt" stroke-linejoin="miter" stroke-width=".302" transform="matrix(1.25067,0,0,1.250627,35.18871,35.52002)"><path id="path14" stroke-width=".283" d="M 269.289,785.297 C 269.289,785.297 0,785.297 0,785.297 C 0,785.297 0,0 0,0 C 0,0 538.575,0 538.575,0 C 538.575,0 538.575,785.297 538.575,785.297 C 538.575,785.297 269.289,785.297 269.289,785.297"/></g><g id="g16" fill="none" stroke="#c1d2db" stroke-dasharray="none" stroke-linecap="butt" stroke-linejoin="miter" stroke-width=".302" transform="matrix(1.25067,0,0,1.250627,52.91796,53.24853)"><path id="path18" stroke-width=".283" d="M 255.113,756.945 C 255.113,756.945 0,756.945 0,756.945 C 0,756.945 0,0 0,0 C 0,0 510.227,0 510.227,0 C 510.227,0 510.227,756.945 510.227,756.945 C 510.227,756.945 255.113,756.945 255.113,756.945"/></g><g id="g20" fill="#fff" fill-rule="evenodd" stroke="none" stroke-dasharray="none" stroke-linecap="butt" stroke-linejoin="miter" stroke-width="1pt" transform="matrix(1.25067,0,0,1.250627,351.559,8.646172)"><path id="path22" d="M 0,0 C 0,0 31.41,0 31.41,0 C 31.41,0 31.41,42.2969 31.41,42.2969 C 31.41,42.2969 0,42.2969 0,42.2969 C 0,42.2969 0,0 0,0 z"/></g><text font-stretch="normal" style="text-align:start;line-height:125%;-inkscape-font-specification:Gentium Bold" id="text8457" x="98" y="377" fill="#000" fill-opacity="1" stroke="none" font-family="Gentium" font-size="24" font-style="normal" font-variant="normal" font-weight="bold" text-anchor="start" writing-mode="lr-tb" xml:space="preserve"><tspan id="tspan8459" x="98" y="377">Printer Test Page</tspan></text><g id="g5448" fill="#fc0a16" fill-rule="evenodd" stroke="none" transform="matrix(0.53786593,0,0,0.53784735,107.90292,508.1877)"><path id="path5450" d="m 28.0582,14.028 c 0,7.75 -6.281,14.031 -14.0269,14.031 C 6.2813,28.059 0,21.778 0,14.028 0,6.282 6.2813,0 14.0313,0 21.7772,0 28.0582,6.282 28.0582,14.028 z"/></g><g id="g5452" fill="#1f0" fill-rule="evenodd" stroke="none" transform="matrix(0.53786172,0,0,0.53784314,171.6873,508.1878)"><path id="path5454" d="m 28.058,14.028 c 0,7.75 -6.281,14.031 -14.027,14.031 C 6.281,28.059 0,21.778 0,14.028 0,6.282 6.281,0 14.031,0 21.777,0 28.058,6.282 28.058,14.028 z"/></g><g id="g5456" fill="#0b13ff" fill-rule="evenodd" stroke="none" transform="matrix(0.53786172,0,0,0.53784314,235.4715,508.1878)"><path id="path5458" d="m 28.058,14.028 c 0,7.75 -6.281,14.031 -14.027,14.031 C 6.281,28.059 0,21.778 0,14.028 0,6.282 6.281,0 14.031,0 21.777,0 28.058,6.282 28.058,14.028 z"/></g><g id="g5460" fill="#2affff" fill-rule="evenodd" stroke="none" transform="matrix(0.53786172,0,0,0.53784314,298.005,508.1878)"><path id="path5462" d="m 28.058,14.028 c 0,7.75 -6.281,14.031 -14.027,14.031 C 6.281,28.059 0,21.778 0,14.028 0,6.282 6.281,0 14.031,0 21.777,0 28.058,6.282 28.058,14.028 z"/></g><g id="g5464" fill="#ff0dff" fill-rule="evenodd" stroke="none" transform="matrix(0.53786169,0,0,0.53784314,363.0398,508.1878)"><path id="path5466" d="m 28.058,14.028 c 0,7.75 -6.281,14.031 -14.027,14.031 C 6.281,28.059 0,21.778 0,14.028 0,6.282 6.281,0 14.031,0 21.777,0 28.058,6.282 28.058,14.028 z"/></g><g id="g5468" fill="#f7fb17" fill-rule="evenodd" stroke="none" transform="matrix(0.53786172,0,0,0.53784314,428.0746,508.1878)"><path id="path5470" d="m 28.058,14.028 c 0,7.75 -6.281,14.031 -14.027,14.031 C 6.281,28.059 0,21.778 0,14.028 0,6.282 6.281,0 14.031,0 21.777,0 28.058,6.282 28.058,14.028 z"/></g><g id="g5472" fill="#000" fill-rule="evenodd" stroke="none" transform="matrix(0.53786172,0,0,0.53784314,491.8589,508.1878)"><path id="path5474" d="m 28.058,14.028 c 0,7.75 -6.281,14.031 -14.027,14.031 C 6.281,28.059 0,21.778 0,14.028 0,6.282 6.281,0 14.031,0 21.777,0 28.058,6.282 28.058,14.028 z"/></g><g id="g5476" fill="#fb7fac" fill-rule="evenodd" stroke="none" transform="matrix(0.53786172,0,0,0.53784314,554.3923,508.1878)"><path id="path5478" d="m 28.058,14.028 c 0,7.75 -6.281,14.031 -14.027,14.031 C 6.281,28.059 0,21.778 0,14.028 0,6.282 6.281,0 14.031,0 21.777,0 28.058,6.282 28.058,14.028 z"/></g><g id="g5480" fill="#0f9bff" fill-rule="evenodd" stroke="none" transform="matrix(0.53786169,0,0,0.53784314,619.4272,508.1878)"><path id="path5482" d="m 28.058,14.028 c 0,7.75 -6.281,14.031 -14.027,14.031 C 6.281,28.059 0,21.778 0,14.028 0,6.282 6.281,0 14.031,0 21.777,0 28.058,6.282 28.058,14.028 z"/></g><flowRoot id="flowRoot11021" font-family="Gentium" font-size="15.975" font-stretch="normal" font-style="normal" font-variant="normal" font-weight="normal" text-anchor="start" transform="matrix(1.001549,0,0,1.001549,-0.576045,16.05282)" writing-mode="lr" xml:space="preserve" style="text-align:start;line-height:125%;-inkscape-font-specification:Gentium"><flowRegion id="flowRegion11023"><rect id="rect11025" width="547.972" height="76.951" x="98" y="379.362" font-family="Gentium" font-size="15.975" font-stretch="normal" font-style="normal" font-variant="normal" font-weight="normal" text-anchor="start" writing-mode="lr" style="text-align:start;line-height:125%;-inkscape-font-specification:Gentium"/></flowRegion><flowPara id="flowPara11027">If you have a color printer, the circles below should appear in colour as labeled.</flowPara></flowRoot><flowRoot id="flowRoot11041" fill="#000" fill-opacity="1" fill-rule="nonzero" stroke="none" stroke-dasharray="none" stroke-dashoffset="0" stroke-linecap="butt" stroke-linejoin="miter" stroke-miterlimit="4" stroke-opacity="1" stroke-width="1" marker-end="none" marker-mid="none" marker-start="none" display="inline" font-family="Gentium" font-size="15.975" font-stretch="normal" font-style="normal" font-variant="normal" font-weight="normal" opacity="1" overflow="visible" text-anchor="start" transform="matrix(1.001549,0,0,1.001549,-0.576045,38.05902)" visibility="visible" writing-mode="lr" xml:space="preserve" style="text-align:start;line-height:125%;marker:none;-inkscape-font-specification:Gentium"><flowRegion id="flowRegion11043"><rect stroke-width="1" style="text-align:start;line-height:125%;marker:none;-inkscape-font-specification:Gentium" id="rect11045" width="555" height="212.889" x="99" y="640.362" fill="#000" fill-opacity="1" fill-rule="nonzero" stroke="none" stroke-dasharray="none" stroke-dashoffset="0" stroke-linecap="butt" stroke-linejoin="miter" stroke-miterlimit="4" stroke-opacity="1" marker-end="none" marker-mid="none" marker-start="none" display="inline" font-family="Gentium" font-size="15.975" font-stretch="normal" font-style="normal" font-variant="normal" font-weight="normal" overflow="visible" text-anchor="start" visibility="visible" writing-mode="lr"/></flowRegion><flowPara id="flowPara11047">For all printers, the grayscale bar below the color circles should fade from white on the left side to black on the right.</flowPara><flowPara id="flowPara11049"/><flowPara id="flowPara11051">To check margin settings, use a ruler and verify that the margin lines are printed at 5 mm, 10 mm and 15 mm from the edge of the paper on all sides.</flowPara></flowRoot><rect id="rect11071" width="542.316" height="7.328" x="99.28" y="579.497" fill="url(#linearGradient11952)" fill-opacity="1" fill-rule="nonzero" stroke="none" stroke-dasharray="none" stroke-dashoffset="0" stroke-linecap="butt" stroke-linejoin="miter" stroke-miterlimit="4" stroke-opacity="1" stroke-width="1" color="#000" display="inline" overflow="visible" rx="3.664" ry="3.664" visibility="visible" style="marker:none"/><text id="text9254" x="372.023" y="605.362" fill="#000" fill-opacity="1" fill-rule="nonzero" stroke="none" baseline-shift="baseline" color="#000" direction="ltr" display="inline" enable-background="accumulate" font-family="Bitstream Vera Sans" font-size="9" font-stretch="normal" font-style="normal" font-variant="normal" font-weight="normal" letter-spacing="normal" overflow="visible" text-anchor="middle" text-decoration="none" visibility="visible" word-spacing="normal" writing-mode="lr-tb" xml:space="preserve" style="text-align:center;line-height:125%;text-indent:0;text-transform:none;block-progression:tb;marker:none;-inkscape-font-specification:Sans"><tspan id="tspan9256" x="372.023" y="605.362">Grayscale</tspan></text><text font-family="Bitstream Vera Sans" style="text-align:center;line-height:125%" id="text4919" x="117" y="548.362" fill="#000" fill-opacity="1" stroke="none" stroke-linecap="butt" stroke-linejoin="miter" stroke-opacity="1" stroke-width="1" font-size="9" font-stretch="normal" font-style="normal" font-variant="normal" font-weight="normal" text-anchor="middle" writing-mode="lr" xml:space="preserve"><tspan id="tspan4921" x="117" y="548.362">Red</tspan></text><text id="text4923" x="179" y="548.362" fill="#000" fill-opacity="1" stroke="none" stroke-linecap="butt" stroke-linejoin="miter" stroke-opacity="1" stroke-width="1" font-family="Bitstream Vera Sans" font-size="9" font-stretch="normal" font-style="normal" font-variant="normal" font-weight="normal" text-anchor="middle" writing-mode="lr" xml:space="preserve" style="text-align:center;line-height:125%"><tspan id="tspan4925" x="179" y="548.362">Green</tspan></text><text font-family="Bitstream Vera Sans" style="text-align:center;line-height:125%" id="text4927" x="243" y="548.362" fill="#000" fill-opacity="1" stroke="none" stroke-linecap="butt" stroke-linejoin="miter" stroke-opacity="1" stroke-width="1" font-size="9" font-stretch="normal" font-style="normal" font-variant="normal" font-weight="normal" text-anchor="middle" writing-mode="lr" xml:space="preserve"><tspan id="tspan4929" x="243" y="548.362">Blue</tspan></text><text id="text4931" x="306" y="548.362" fill="#000" fill-opacity="1" stroke="none" stroke-linecap="butt" stroke-linejoin="miter" stroke-opacity="1" stroke-width="1" font-family="Bitstream Vera Sans" font-size="9" font-stretch="normal" font-style="normal" font-variant="normal" font-weight="normal" text-anchor="middle" writing-mode="lr" xml:space="preserve" style="text-align:center;line-height:125%"><tspan id="tspan4933" x="306" y="548.362">Cyan</tspan></text><text font-family="Bitstream Vera Sans" style="text-align:center;line-height:125%" id="text4935" x="370" y="548.362" fill="#000" fill-opacity="1" stroke="none" stroke-linecap="butt" stroke-linejoin="miter" stroke-opacity="1" stroke-width="1" font-size="9" font-stretch="normal" font-style="normal" font-variant="normal" font-weight="normal" text-anchor="middle" writing-mode="lr" xml:space="preserve"><tspan id="tspan4937" x="370" y="548.362">Magenta</tspan></text><text id="text4939" x="434" y="548.362" fill="#000" fill-opacity="1" stroke="none" stroke-linecap="butt" stroke-linejoin="miter" stroke-opacity="1" stroke-width="1" font-family="Bitstream Vera Sans" font-size="9" font-stretch="normal" font-style="normal" font-variant="normal" font-weight="normal" text-anchor="middle" writing-mode="lr" xml:space="preserve" style="text-align:center;line-height:125%"><tspan id="tspan4941" x="434" y="548.362">Yellow</tspan></text><text font-family="Bitstream Vera Sans" style="text-align:center;line-height:125%" id="text4943" x="499" y="548.362" fill="#000" fill-opacity="1" stroke="none" stroke-linecap="butt" stroke-linejoin="miter" stroke-opacity="1" stroke-width="1" font-size="9" font-stretch="normal" font-style="normal" font-variant="normal" font-weight="normal" text-anchor="middle" writing-mode="lr" xml:space="preserve"><tspan id="tspan4945" x="499" y="548.362">Black</tspan></text><text id="text4947" x="562" y="548.362" fill="#000" fill-opacity="1" stroke="none" stroke-linecap="butt" stroke-linejoin="miter" stroke-opacity="1" stroke-width="1" font-family="Bitstream Vera Sans" font-size="9" font-stretch="normal" font-style="normal" font-variant="normal" font-weight="normal" text-anchor="middle" writing-mode="lr" xml:space="preserve" style="text-align:center;line-height:125%"><tspan id="tspan4949" x="562" y="548.362">Salmon</tspan></text><text font-family="Bitstream Vera Sans" style="text-align:center;line-height:125%" id="text4951" x="626" y="548.362" fill="#000" fill-opacity="1" stroke="none" stroke-linecap="butt" stroke-linejoin="miter" stroke-opacity="1" stroke-width="1" font-size="9" font-stretch="normal" font-style="normal" font-variant="normal" font-weight="normal" text-anchor="middle" writing-mode="lr" xml:space="preserve"><tspan id="tspan4953" x="626" y="548.362">Sea Blue</tspan></text><text font-family="Bitstream Vera Sans" style="text-align:center;line-height:125%" id="text5008" x="371.227" y="21.212" fill="#000" fill-opacity="1" stroke="none" stroke-linecap="butt" stroke-linejoin="miter" stroke-opacity="1" stroke-width="1" font-size="8.14" font-stretch="normal" font-style="normal" font-variant="normal" font-weight="normal" text-anchor="middle" writing-mode="lr-tb" xml:space="preserve"><tspan id="tspan5010" x="371.227" y="21.212">5 mm</tspan></text><text id="text5014" x="371.093" y="39.212" fill="#000" fill-opacity="1" stroke="none" stroke-linecap="butt" stroke-linejoin="miter" stroke-opacity="1" stroke-width="1" font-family="Bitstream Vera Sans" font-size="8.14" font-stretch="normal" font-style="normal" font-variant="normal" font-weight="normal" text-anchor="middle" writing-mode="lr-tb" xml:space="preserve" style="text-align:center;line-height:125%"><tspan id="tspan5016" x="371.093" y="39.212">10 mm</tspan></text><text font-family="Bitstream Vera Sans" style="text-align:center;line-height:125%" id="text5018" x="371.093" y="56.712" fill="#000" fill-opacity="1" stroke="none" stroke-linecap="butt" stroke-linejoin="miter" stroke-opacity="1" stroke-width="1" font-size="8.14" font-stretch="normal" font-style="normal" font-variant="normal" font-weight="normal" text-anchor="middle" writing-mode="lr-tb" xml:space="preserve"><tspan id="tspan5020" x="371.093" y="56.712">15 mm</tspan></text><g id="g5022" fill="#fff" fill-rule="evenodd" stroke="none" stroke-dasharray="none" stroke-linecap="butt" stroke-linejoin="miter" stroke-width="1pt" transform="matrix(1.25067,0,0,1.250627,351.559,990.64617)"><path id="path5024" d="M 0,0 C 0,0 31.41,0 31.41,0 C 31.41,0 31.41,42.2969 31.41,42.2969 C 31.41,42.2969 0,42.2969 0,42.2969 C 0,42.2969 0,0 0,0 z"/></g><text id="text5026" x="371.227" y="1038.462" fill="#000" fill-opacity="1" stroke="none" stroke-linecap="butt" stroke-linejoin="miter" stroke-opacity="1" stroke-width="1" font-family="Bitstream Vera Sans" font-size="8.14" font-stretch="normal" font-style="normal" font-variant="normal" font-weight="normal" text-anchor="middle" writing-mode="lr-tb" xml:space="preserve" style="text-align:center;line-height:125%"><tspan id="tspan5028" x="371.227" y="1038.462">5 mm</tspan></text><text font-family="Bitstream Vera Sans" style="text-align:center;line-height:125%" id="text5030" x="371.093" y="1021.212" fill="#000" fill-opacity="1" stroke="none" stroke-linecap="butt" stroke-linejoin="miter" stroke-opacity="1" stroke-width="1" font-size="8.14" font-stretch="normal" font-style="normal" font-variant="normal" font-weight="normal" text-anchor="middle" writing-mode="lr-tb" xml:space="preserve"><tspan id="tspan5032" x="371.093" y="1021.212">10 mm</tspan></text><text id="text5034" x="371.093" y="1002.962" fill="#000" fill-opacity="1" stroke="none" stroke-linecap="butt" stroke-linejoin="miter" stroke-opacity="1" stroke-width="1" font-family="Bitstream Vera Sans" font-size="8.14" font-stretch="normal" font-style="normal" font-variant="normal" font-weight="normal" text-anchor="middle" writing-mode="lr-tb" xml:space="preserve" style="text-align:center;line-height:125%"><tspan id="tspan5036" x="371.093" y="1002.962">15 mm</tspan></text></svg>